<?xml version="1.0" standalone="no"?>
<!DOCTYPE svg PUBLIC "-//W3C//DTD SVG 1.1//EN" "http://www.w3.org/Graphics/SVG/1.1/DTD/svg11.dtd" >
<svg xmlns="http://www.w3.org/2000/svg">
<metadata></metadata>
<defs>
<font id="baskerville_10_proregular" horiz-adv-x="1069" >
<font-face units-per-em="2048" ascent="1638" descent="-410" />
<missing-glyph horiz-adv-x="563" />
<glyph unicode="&#x2e;&#x2e;&#x2e;" horiz-adv-x="2068" d="M264 117q0 53 38.5 92t92.5 39q53 0 92 -39t39 -92q0 -52 -39 -90.5t-92 -38.5q-54 0 -92.5 38t-38.5 91zM903 117q0 53 38.5 92t92.5 39q51 0 91 -39.5t40 -91.5t-39.5 -90.5t-91.5 -38.5q-54 0 -92.5 38t-38.5 91zM1542 117q0 53 38.5 92t92.5 39q51 0 91 -39.5 t40 -91.5t-39.5 -90.5t-91.5 -38.5q-54 0 -92.5 38t-38.5 91z" />
<glyph unicode="&#xfb01;" horiz-adv-x="1234" d="M104 37q0 37 11 37q69 0 93.5 22t24.5 82v662h-112q-17 0 -17 37q0 36 17 36q62 0 87 16.5t25 51.5v123q0 186 125 297.5t326 111.5q89 0 156 -14.5t104.5 -36.5t60.5 -53t30 -58t7 -57q0 -37 -26.5 -60.5t-71.5 -23.5q-32 0 -53.5 11.5t-33 29.5t-20 39.5t-20 43.5 t-27.5 40t-47.5 29.5t-76.5 11.5q-117 0 -179.5 -55.5t-68.5 -188.5q-6 -147 -6 -247q450 0 577 45q21 0 36 -9.5t15 -21.5q0 -14 -1.5 -107.5t-3 -269t-1.5 -391.5q0 -54 25.5 -75t111.5 -21q13 0 13 -37q0 -39 -17 -39q-19 0 -94.5 4t-126.5 4q-53 0 -124.5 -4t-104.5 -4 q-12 0 -12 43q0 13 5 23t11 10q86 0 110.5 21.5t24.5 76.5v645q0 23 -29 23h-415v-662q0 -64 27 -84t110 -20q12 0 12 -33q0 -43 -12 -43q-37 0 -112.5 4t-112.5 4q-39 0 -114.5 -4t-92.5 -4q-13 0 -13 39z" />
<glyph unicode="&#xfb02;" horiz-adv-x="1267" d="M104 37q0 37 11 37q69 0 93.5 22t24.5 82v664h-112q-17 0 -17 37q0 39 17 39q63 0 87.5 14.5t24.5 48.5v123q0 183 118 296t290 113q96 0 165 -32.5t105 -89.5q19 22 43 56.5t39 55.5t21 21q19 0 34 -7t15 -20q0 -19 -4 -107.5t-8 -249t-4 -354.5v-616q0 -54 29.5 -75 t109.5 -21q12 0 12 -33q0 -43 -16 -43q-19 0 -94.5 4t-126.5 4q-53 0 -128 -4t-108 -4q-12 0 -12 41q0 13 5 24t11 11q45 0 73 5.5t42 19t18 29.5t4 44v1053q0 198 -200 198q-116 0 -179 -59t-69 -193q-6 -147 -6 -241q156 4 229 4q14 0 14 -53q0 -22 -2 -30.5t-12 -8.5 h-229v-664q0 -64 26.5 -84t108.5 -20q12 0 12 -33q0 -43 -12 -43q-37 0 -111.5 4t-111.5 4q-39 0 -114.5 -4t-92.5 -4q-13 0 -13 39z" />
<glyph unicode="&#xfb03;" horiz-adv-x="1855" d="M104 37q0 37 11 37q69 0 93.5 22t24.5 82v662h-112q-17 0 -17 37q0 36 17 36q62 0 87 16.5t25 51.5v176q0 89 33 158.5t90.5 111.5t129 64t153.5 22q105 0 182.5 -47t110.5 -125q130 172 387 172q85 0 149.5 -14.5t100.5 -36.5t58 -53t29 -58t7 -57q0 -37 -26.5 -60.5 t-71.5 -23.5q-44 0 -68.5 22t-36 53t-26 62.5t-51 53.5t-97.5 22q-122 0 -183.5 -71.5t-66.5 -202.5q-1 -27 -2 -108t-2 -117q451 0 578 45q21 0 36 -9.5t15 -21.5q0 -14 -1.5 -107.5t-3 -269t-1.5 -391.5q0 -54 25.5 -75t111.5 -21q12 0 12 -37q0 -39 -16 -39 q-19 0 -94.5 4t-126.5 4q-53 0 -125 -4t-105 -4q-12 0 -12 43q0 13 5 23t11 10q86 0 111 21.5t25 76.5v645q0 23 -29 23h-416v-662q0 -64 27 -84t110 -20q13 0 13 -33q0 -43 -13 -43q-37 0 -112.5 4t-112.5 4q-39 0 -114.5 -4t-92.5 -4q-12 0 -12 39q0 37 10 37 q70 0 94.5 22.5t24.5 81.5v662h-442v-662q0 -46 9 -66t38.5 -29t95.5 -9q12 0 12 -33q0 -43 -12 -43q-37 0 -115.5 4t-115.5 4q-39 0 -114.5 -4t-92.5 -4q-13 0 -13 39zM412 918q329 0 442 6v299q0 89 -51.5 142.5t-149.5 53.5q-129 0 -180.5 -66t-56.5 -204q-1 -27 -2 -110 t-2 -121z" />
<glyph unicode="&#xfb04;" horiz-adv-x="1873" d="M104 37q0 37 11 37q69 0 93.5 22t24.5 82v662h-112q-17 0 -17 37q0 36 17 36q62 0 87 16.5t25 51.5v176q0 117 58.5 199.5t151 119.5t208.5 37q95 0 163 -36.5t101 -100.5q50 67 139.5 102t202.5 35q180 0 261 -122q19 22 42.5 56.5t38.5 55.5t21 21q19 0 34 -7t15 -20 q0 -19 -4 -107.5t-8 -249t-4 -354.5v-616q0 -54 29.5 -75t109.5 -21q12 0 12 -33q0 -43 -16 -43q-19 0 -94.5 4t-126.5 4q-54 0 -128.5 -4t-107.5 -4q-12 0 -12 41q0 13 5 24t11 11q87 0 112.5 22t25.5 76v1053q0 95 -46 146.5t-172 51.5q-208 0 -219 -274q-1 -27 -2 -106 t-2 -113q156 4 230 4q14 0 14 -55q0 -22 -2 -30.5t-12 -8.5h-230v-662q0 -64 33 -84t131 -20q12 0 12 -33q0 -43 -12 -43q-37 0 -126 4t-126 4q-39 0 -117.5 -4t-95.5 -4q-12 0 -12 39q0 37 10 37q70 0 97.5 22.5t27.5 81.5v662h-442v-662q0 -46 9 -66t38.5 -29t95.5 -9 q12 0 12 -33q0 -43 -12 -43q-37 0 -115.5 4t-115.5 4q-39 0 -114.5 -4t-92.5 -4q-13 0 -13 39zM412 924q329 0 442 6v293q0 92 -45 146t-141 54q-130 0 -188.5 -69.5t-63.5 -204.5q-1 -27 -2 -108t-2 -117z" />
<glyph horiz-adv-x="2048" />
<glyph horiz-adv-x="2048" />
<glyph unicode="&#xd;" horiz-adv-x="2048" />
<glyph unicode=" "  horiz-adv-x="563" />
<glyph unicode="&#x09;" horiz-adv-x="563" />
<glyph unicode="&#xa0;" horiz-adv-x="563" />
<glyph unicode="!" horiz-adv-x="864" d="M307 1391q0 40 39.5 65t89.5 25q48 0 84.5 -25.5t36.5 -69.5q0 -58 -40 -481.5t-40 -484.5q0 -27 -41 -27q-39 0 -39 31q0 59 -45 489t-45 478zM317 104q0 50 34.5 84.5t84.5 34.5q48 0 83.5 -35t35.5 -84q0 -46 -36 -81t-83 -35q-49 0 -84 35t-35 81z" />
<glyph unicode="&#x22;" horiz-adv-x="696" d="M111 1421q0 54 21.5 71t74.5 17q52 0 72 -16.5t20 -62.5q0 -33 -2 -41l-66 -347q-2 -22 -32 -22q-36 0 -39 22l-45 336zM408 1421q0 54 21.5 71t74.5 17q52 0 72 -16.5t20 -62.5q0 -33 -2 -41l-66 -347q-2 -22 -32 -22q-36 0 -39 22l-45 336z" />
<glyph unicode="#" d="M27 401v111h256v270h-256v111h256v381h110v-381h289v381h113v-381h239v-111h-239v-270h239v-111h-239v-397h-113v397h-289v-397h-110v397h-256zM393 512h289v270h-289v-270z" />
<glyph unicode="$" d="M102 256q0 45 28.5 68.5t62.5 23.5q36 0 61 -21t31 -57q19 -103 62.5 -151t135.5 -60v553q-189 65 -264.5 156t-75.5 231q0 147 97.5 252t242.5 123v295q0 31 54 31q57 0 57 -31v-295q147 -13 230 -91.5t83 -172.5q0 -36 -21.5 -58t-54.5 -22q-72 0 -88 68 q-19 86 -54.5 128.5t-94.5 51.5v-465q118 -46 194.5 -92t120 -99.5t60 -110.5t16.5 -134q0 -171 -106 -284t-285 -128v-274q0 -31 -55 -31q-56 0 -56 31v270q-164 15 -272.5 102t-108.5 193zM299 1065q0 -81 43 -136t141 -91v442q-90 -10 -137 -73t-47 -142zM594 61 q117 13 175 80.5t58 175.5q0 97 -55.5 158.5t-177.5 110.5v-525z" />
<glyph unicode="%" horiz-adv-x="1767" d="M160 1098q0 75 29 148.5t79.5 132.5t126.5 95.5t164 36.5q133 0 209 -73q43 -42 117.5 -64t163.5 -22q115 0 222.5 36.5t164.5 104.5q14 14 28 14q27 0 61 -17.5t34 -35.5q0 -11 -7 -16l-1247 -1493q-10 -15 -35 -15q-28 0 -60 16t-32 34q0 13 8 24l1108 1321 q-119 -55 -237 -55q-109 0 -205 41q25 -70 25 -131q0 -75 -27 -148.5t-76 -132t-124.5 -95t-164.5 -36.5q-143 0 -234 92t-91 238zM356 1087q0 -114 38 -170.5t124 -56.5q45 0 90.5 20t85.5 58t65 102t25 142q0 107 -53.5 171t-132.5 64q-101 0 -171.5 -88t-70.5 -242z M893 309q0 75 29 148.5t80 133t127.5 96t164.5 36.5q138 0 227 -95t89 -239q0 -101 -45 -193t-135.5 -154t-206.5 -62q-145 0 -237.5 92t-92.5 237zM1092 297q0 -112 38.5 -167.5t122.5 -55.5q44 0 89 19.5t85.5 57t66.5 100.5t26 140q0 108 -53 173t-132 65 q-103 0 -173 -88t-70 -244z" />
<glyph unicode="&#x26;" horiz-adv-x="1605" d="M78 328q0 285 422 475q-72 179 -72 330q0 85 29.5 154t77.5 111t104 64.5t113 22.5q124 0 192 -70t68 -182q0 -121 -72 -223t-231 -195q134 -272 264 -440q38 71 92.5 215.5t87.5 206.5q73 139 213 139q79 0 122.5 -37t43.5 -92q0 -51 -24 -76.5t-58 -25.5 q-28 0 -47.5 14.5t-28.5 34.5q-23 45 -74 45q-37 0 -63.5 -27.5t-52.5 -93.5q-76 -190 -162 -361q197 -227 342 -227q88 0 141 82q12 21 23 21q16 0 30.5 -11.5t14.5 -21.5q0 -14 -18.5 -43t-51 -62.5t-90.5 -58.5t-125 -25q-205 0 -385 185q-60 -89 -173 -139t-238 -50 q-81 0 -153.5 22t-131.5 65t-94 113.5t-35 160.5zM291 367q0 -100 39.5 -169.5t99.5 -99.5t135 -30q81 0 159 37.5t128 103.5q-196 238 -322 520q-136 -72 -187.5 -161.5t-51.5 -200.5zM602 1214q0 -162 78 -331q101 65 140.5 146.5t39.5 187.5q0 186 -123 186 q-62 0 -98.5 -49.5t-36.5 -139.5z" />
<glyph unicode="'" horiz-adv-x="405" d="M111 1421q0 54 21.5 71t74.5 17q52 0 72 -16.5t20 -62.5q0 -33 -2 -41l-66 -347q-2 -22 -32 -22q-36 0 -39 22l-45 336z" />
<glyph unicode="(" horiz-adv-x="858" d="M162 459q0 729 557 1143q19 0 32 -19t13 -39q0 -13 -12 -22q-104 -81 -180.5 -204.5t-119.5 -267.5t-63 -290.5t-20 -300.5q0 -313 93.5 -590t295.5 -475q16 -13 16 -25q0 -18 -15 -35.5t-34 -17.5q-563 420 -563 1143z" />
<glyph unicode=")" horiz-adv-x="868" d="M72 1548q0 18 15 36t34 18q563 -420 563 -1143q0 -729 -557 -1143q-19 0 -32 18.5t-13 38.5q0 14 12 23q104 81 180.5 204.5t119.5 267.5t63 290.5t20 300.5q0 313 -93.5 590t-295.5 475q-16 13 -16 24z" />
<glyph unicode="*" horiz-adv-x="1011" d="M111 1231q0 43 24.5 66.5t61.5 23.5q35 0 72 -17t102 -69q82 -66 100 -66q12 0 12 13q0 18 -22 73q-45 126 -45 183q0 45 23 75.5t71 30.5q44 0 67 -30.5t23 -75.5q0 -57 -45 -183q-23 -57 -23 -73q0 -13 13 -13q18 0 100 66q65 52 102 69t72 17q37 0 61.5 -23.5 t24.5 -66.5q0 -32 -22 -56.5t-56 -33.5q-43 -11 -122 -11q-20 0 -64 1.5t-61 1.5q-29 0 -29 -15q0 -18 78 -69q162 -101 162 -183q0 -33 -27.5 -58.5t-63.5 -25.5q-45 0 -84 52q-20 28 -37 72.5t-47 142.5q-1 2 -2.5 8t-2.5 9l-2.5 7.5t-3 7t-3.5 5t-4.5 3.5t-5.5 1 q-13 0 -25 -41q-30 -98 -47 -142.5t-37 -72.5q-39 -52 -84 -52q-36 0 -63 25.5t-27 58.5q0 82 162 183q78 51 78 69q0 15 -29 15q-17 0 -61 -1.5t-64 -1.5q-80 0 -123 11q-34 9 -55.5 33t-21.5 57z" />
<glyph unicode="+" horiz-adv-x="1067" d="M109 418v117h368v368h117v-368h367v-117h-367v-365h-117v365h-368z" />
<glyph unicode="," horiz-adv-x="587" d="M143 135q0 47 37 81t103 34q92 0 142 -74t50 -203q0 -77 -31.5 -147t-74.5 -112t-83.5 -66.5t-64.5 -24.5q-21 0 -34 14.5t-13 32.5q0 24 16 29q76 31 123 104t47 162q0 35 -8 59.5t-18 24.5q-15 0 -19 -4q-39 -27 -71 -27q-46 0 -73.5 32t-27.5 85z" />
<glyph unicode="-" horiz-adv-x="614" d="M96 555q0 33 6.5 60.5t14.5 27.5h381q20 0 20 -86q0 -36 -5.5 -61t-14.5 -25h-381q-8 0 -14.5 26.5t-6.5 57.5z" />
<glyph unicode="." horiz-adv-x="616" d="M178 117q0 53 38.5 92t92.5 39q53 0 92 -39t39 -92q0 -52 -39 -90.5t-92 -38.5q-54 0 -92.5 38t-38.5 91z" />
<glyph unicode="/" horiz-adv-x="915" d="M-72 -387l967 1878q13 27 68 27q30 0 51.5 -12t21.5 -29l-966 -1878q-10 -23 -70 -23q-28 0 -50 11t-22 26z" />
<glyph unicode="0" d="M66 737q0 149 28 280.5t83 239t147 170t211 62.5q96 0 175 -41.5t133 -112.5t91.5 -167.5t54.5 -204.5t17 -226q0 -119 -17 -228.5t-54.5 -208t-91.5 -171.5t-133.5 -115.5t-174.5 -42.5q-119 0 -211 64.5t-147 174t-83 243.5t-28 284zM274 735q0 -694 261 -694 q262 0 262 694q0 684 -262 684q-261 0 -261 -684z" />
<glyph unicode="1" d="M152 1204q0 22 12 25q87 32 219 104t207 131q20 15 35 15q13 0 25 -7.5t12 -15.5q0 -84 -3.5 -560t-3.5 -708q0 -50 15.5 -73t59 -32t138.5 -9q9 0 9 -41q0 -37 -13 -37q-36 0 -149.5 4t-161.5 4q-45 0 -177.5 -4t-142.5 -4q-8 0 -8 35q0 43 8 43q102 0 146.5 8t62 31 t17.5 75v967q0 57 -7 73.5t-34 16.5q-21 0 -58 -16q-166 -74 -188 -74q-8 0 -14 13.5t-6 35.5z" />
<glyph unicode="2" d="M55 33q0 19 23 33q78 49 266 232.5t285 334.5q129 201 129 450q0 148 -54 227t-184 79q-105 0 -168 -74.5t-63 -179.5q0 -59 26.5 -105t71.5 -65q10 -3 10 -15q0 -19 -29 -42t-79 -23q-80 0 -127 62t-47 153q0 53 16 106.5t50.5 104.5t83.5 90.5t120.5 63.5t155.5 24 q197 0 312.5 -104t115.5 -291q0 -234 -201 -492q-76 -98 -237 -244t-216 -182q21 0 238 3t240 3q54 0 90.5 33t36.5 88q0 21 34 21q33 0 33 -17q0 -22 -15.5 -130.5t-15.5 -139.5q0 -21 -7 -29t-25 -8h-840q-18 0 -23.5 8.5t-5.5 24.5z" />
<glyph unicode="3" d="M100 205q0 44 29.5 71t71.5 27q78 0 84 -78q5 -74 54 -119t136 -45q127 0 206 88.5t79 239.5q0 156 -70 247t-213 91q-40 0 -70.5 -15.5t-46 -34.5t-38 -34.5t-48.5 -15.5q-25 0 -39 15.5t-14 35.5q0 23 20.5 46t47.5 32q60 23 97.5 38.5t87.5 40t81 47t65.5 55.5t53 69 t31 83.5t12.5 102.5q0 207 -211 207q-72 0 -123 -32t-72.5 -76.5t-21.5 -94.5q0 -68 37 -121q6 -9 6 -16q0 -13 -18 -22t-50 -9q-63 0 -102 49.5t-39 120.5q0 51 25.5 100.5t75 93t134.5 70.5t191 27q164 0 265 -86t101 -211q0 -243 -374 -397q138 0 238 -56.5t148 -147 t48 -202.5q0 -181 -141.5 -299.5t-378.5 -118.5q-159 0 -257 68.5t-98 165.5z" />
<glyph unicode="4" d="M33 444q0 20 12 37q24 31 305.5 483t290.5 480q8 22 49 22q31 0 54.5 -9t23.5 -23q0 -11 -2 -147.5t-4 -347.5t-2 -402h262q14 0 14 -68q0 -55 -16 -55h-260v-232q0 -62 28.5 -85t104.5 -23q10 0 10 -33q0 -43 -10 -43q-33 0 -100 4t-115 4q-38 0 -112 -4t-113 -4 q-11 0 -11 37q0 39 9 39q80 0 109.5 21t29.5 83v236h-531q-13 0 -19.5 9t-6.5 21zM201 537h389v639q-62 -96 -212 -342.5t-177 -296.5z" />
<glyph unicode="5" d="M92 213q0 102 86 102q36 0 56 -21t22 -52q5 -95 48.5 -141t133.5 -46q273 0 273 430q0 204 -64.5 293.5t-193.5 89.5q-89 0 -136.5 -34.5t-62.5 -110.5q-9 -45 -47 -45q-18 0 -31.5 12t-13.5 31q0 20 14.5 63t20.5 72q23 101 34 267.5t11 306.5q0 22 20 22q2 0 20.5 -1 t52 -2.5t78 -3t110 -2.5t134.5 -1t96.5 14t34.5 60q3 10 13 10q49 0 49 -19q0 -135 -48.5 -191t-150.5 -56q-223 0 -327 14q-7 -199 -27 -363q73 39 176 39q215 0 333 -126t118 -349q0 -114 -40 -209.5t-108.5 -159.5t-159.5 -99.5t-194 -35.5q-151 0 -240.5 73.5 t-89.5 168.5z" />
<glyph unicode="6" d="M92 627q0 389 156 625.5t405 236.5q139 0 220 -68.5t81 -150.5q0 -41 -25 -64.5t-59 -23.5q-31 0 -56.5 21t-25.5 57q0 76 -39 106.5t-110 30.5q-70 0 -127 -36.5t-103 -113.5t-74.5 -208.5t-35.5 -311.5q77 172 274 172q186 0 294 -128.5t108 -324.5q0 -94 -33 -180.5 t-90.5 -151.5t-139.5 -104t-175 -39q-203 0 -324 176.5t-121 479.5zM301 510q0 -249 57.5 -357t176.5 -108q235 0 235 342q0 224 -56 326t-179 102q-113 0 -173.5 -88.5t-60.5 -216.5z" />
<glyph unicode="7" d="M121 1128q43 146 63 304q3 32 23 32q5 0 38.5 -9t90.5 -9q62 0 147 0.5t162 1t145 1t111 1t45 0.5q21 0 21 -39q-108 -226 -252 -676q-180 -557 -180 -680q0 -48 -30 -66t-81 -18q-98 0 -98 80q0 149 264 740q153 338 237 485q-102 -6 -489 -6q-72 0 -104.5 -34 t-55.5 -118q-3 -8 -16 -8q-9 0 -25 6.5t-16 11.5z" />
<glyph unicode="8" d="M96 391q0 142 87.5 251t224.5 146q-132 30 -209.5 118t-77.5 216q0 153 120 260t289 107q177 0 296.5 -107t119.5 -260q0 -121 -80.5 -209t-214.5 -122q142 -36 231 -145.5t89 -254.5q0 -176 -127.5 -296t-317.5 -120q-189 0 -309.5 116t-120.5 300zM301 387 q0 -183 55 -258.5t179 -75.5q119 0 171 75t52 257q0 186 -57 276.5t-175 90.5q-225 0 -225 -365zM322 1116q0 -160 49 -228.5t164 -68.5q109 0 156.5 68.5t47.5 226.5q0 165 -49.5 232t-163.5 67q-107 0 -155.5 -67.5t-48.5 -229.5z" />
<glyph unicode="9" d="M98 1016q0 94 32 180t87.5 151t136.5 103.5t174 38.5q204 0 328.5 -178t124.5 -480q0 -258 -71 -453.5t-199.5 -301t-296.5 -105.5q-139 0 -220 68.5t-81 150.5q0 41 25 65t59 24q82 0 82 -80q0 -136 159 -136q309 0 336 668q-77 -172 -266 -172q-191 0 -300.5 130 t-109.5 327zM303 1038q0 -395 217 -395q64 0 114 25t79.5 68t44 96t14.5 114q0 469 -237 469q-55 0 -95.5 -18t-66.5 -49t-42 -79.5t-22 -103.5t-6 -127z" />
<glyph unicode=":" horiz-adv-x="616" d="M178 117q0 53 38.5 92t92.5 39q53 0 92 -39t39 -92q0 -52 -39 -90.5t-92 -38.5q-54 0 -92.5 38t-38.5 91zM178 809q0 55 38.5 94t92.5 39q53 0 92 -39t39 -94q0 -51 -39 -89t-92 -38q-54 0 -92.5 38t-38.5 89z" />
<glyph unicode=";" horiz-adv-x="643" d="M143 135q0 47 37 81t103 34q92 0 142 -74t50 -203q0 -77 -31.5 -147t-74.5 -112t-83.5 -66.5t-64.5 -24.5q-21 0 -34 14.5t-13 32.5q0 24 16 29q76 31 123 104t47 162q0 35 -8 59.5t-18 24.5q-15 0 -19 -4q-39 -27 -71 -27q-46 0 -73.5 32t-27.5 85zM178 809 q0 55 38.5 94t92.5 39q53 0 92 -39t39 -94q0 -51 -39 -89t-92 -38q-54 0 -92.5 38t-38.5 89z" />
<glyph unicode="&#x3c;" horiz-adv-x="1062" d="M117 467q0 33 20 47l727 369q20 0 33.5 -14.5t13.5 -30.5q0 -11 -6 -17l-532 -338l532 -370q6 -6 6 -17q0 -16 -14 -30.5t-33 -14.5l-727 369q-20 15 -20 47z" />
<glyph unicode="=" horiz-adv-x="978" d="M88 326q0 24 6 43.5t15 19.5h763q8 0 14.5 -20t6.5 -43q0 -22 -6.5 -41t-14.5 -19h-763q-9 0 -15 18.5t-6 41.5zM88 664q0 24 6 43.5t15 19.5h763q8 0 14.5 -20t6.5 -43q0 -22 -6.5 -41t-14.5 -19h-763q-9 0 -15 18.5t-6 41.5z" />
<glyph unicode="&#x3e;" horiz-adv-x="1062" d="M150 96q0 12 8 17l532 338l-532 370q-8 5 -8 17q0 16 13.5 30.5t31.5 14.5l731 -369q20 -15 20 -43q0 -37 -20 -51l-731 -369q-19 0 -32 14.5t-13 30.5z" />
<glyph unicode="?" horiz-adv-x="999" d="M166 1284q0 90 102 144.5t256 54.5q112 0 198.5 -34t137.5 -91.5t77 -127t26 -147.5t-25 -150t-73 -130.5t-125.5 -93.5t-174.5 -35q-90 0 -143 33q20 -113 20 -258q0 -21 -8.5 -27t-36.5 -6q-27 0 -36 5t-9 23q0 83 -7.5 186.5t-15 177.5t-7.5 83q0 41 43 41 q16 0 27 -11t14 -22.5t7 -32.5t5 -26q6 -36 37 -57t80 -21q108 0 163.5 90.5t55.5 222.5q0 63 -14.5 117.5t-43.5 100t-80 72t-118 26.5q-81 0 -116 -32.5t-46 -86.5q-13 -68 -88 -68q-82 0 -82 80zM287 104q0 50 33.5 84.5t82.5 34.5q47 0 83 -35t36 -84q0 -45 -36.5 -80.5 t-82.5 -35.5q-49 0 -82.5 34.5t-33.5 81.5z" />
<glyph unicode="@" horiz-adv-x="2050" d="M98 369q0 144 44 281t128 252t197 202.5t259 136.5t306 49q107 0 180 -25.5t111 -74t53 -105.5t15 -133q0 -32 -11.5 -266t-11.5 -352q0 -92 66 -92q42 0 71 49q6 8 19 8q6 0 18 -12t12 -19q0 -13 -11.5 -33.5t-33.5 -42.5t-64 -37.5t-93 -15.5q-68 0 -112 39.5 t-50 120.5q-62 -76 -157 -124t-179 -48q-121 0 -183.5 60t-62.5 178q0 303 584 448v154q0 128 -31.5 178.5t-132.5 50.5q-118 0 -224 -29.5t-197.5 -93.5t-158.5 -157t-105 -228t-38 -299q0 -168 45 -291.5t129.5 -198t199 -110t261.5 -35.5q141 0 273.5 35.5t248.5 109 t203 176t137.5 246.5t50.5 312q0 221 -81 401q0 14 15.5 23.5t35.5 9.5q29 0 35 -16q94 -234 94 -439q0 -188 -55.5 -348t-153.5 -275t-230.5 -196t-287.5 -120.5t-324 -39.5q-129 0 -245 26.5t-219 85t-177.5 143t-118 208t-43.5 273.5zM817 406q0 -154 133 -154 q64 0 126 35.5t108 97.5l4 367q-200 -58 -285.5 -145t-85.5 -201z" />
<glyph unicode="A" horiz-adv-x="1466" d="M-35 33q0 39 19 39q52 0 90.5 37t83.5 118q31 55 274 616.5t250 602.5q6 24 17 33.5t32 9.5t29 -7.5t16 -29.5q49 -140 271 -669.5t274 -606.5q38 -58 73.5 -81t92.5 -23q16 0 16 -35q0 -41 -20 -41q-11 0 -107 4t-192 4q-94 0 -199.5 -4t-116.5 -4q-14 0 -14 37 q0 39 14 39q107 0 146 23.5t39 82.5q0 29 -13 58q-37 96 -127 313q-129 -6 -247 -6q-177 0 -265 8q-11 -28 -44 -106t-46 -113q-41 -96 -41 -156q0 -56 32.5 -80t94.5 -24q17 0 17 -35q0 -41 -21 -41q-17 0 -81 4t-130 4q-72 0 -135 -4t-67 -4q-15 0 -15 37zM430 633 q122 4 232 4q45 0 117.5 -2t94.5 -2q-47 114 -123 302.5t-89 219.5q-83 -166 -232 -522z" />
<glyph unicode="B" horiz-adv-x="1466" d="M127 1417q0 41 18 41q11 0 115.5 -6t200.5 -6q36 0 117 2t124 2q259 0 392 -84t133 -244q0 -134 -99 -220t-256 -109q88 -15 167.5 -48.5t144.5 -84t103 -122.5t38 -155q0 -387 -545 -387q-56 0 -174.5 4t-167.5 4q-80 0 -180 -3t-113 -3q-14 0 -14 37q0 39 14 39 q110 0 155.5 36t45.5 126v987q0 83 -45 121t-160 38q-14 0 -14 35zM559 221q0 -151 215 -151q155 0 228 76.5t73 244.5q0 190 -117.5 276.5t-396.5 92.5q0 -76 -1 -259t-1 -280zM563 827q29 -2 80 -2q191 0 269.5 69.5t78.5 219.5q0 258 -284 258q-82 0 -134 -10 q-10 -160 -10 -535z" />
<glyph unicode="C" horiz-adv-x="1581" d="M98 735q0 219 97 393t271 271.5t394 97.5q140 0 256 -39t193 -108q23 -23 41 -23q22 0 40.5 22.5t18.5 41.5q0 16 7 20t30 4q20 0 28.5 -5.5t8.5 -18.5q0 -9 -5 -86.5t-5 -135.5q0 -53 2.5 -102.5t5 -78.5t2.5 -34q0 -14 -7.5 -18t-29.5 -4q-23 0 -30 4t-7 18 q-13 127 -76.5 226.5t-183 161t-279.5 61.5q-111 0 -205.5 -42.5t-166.5 -124.5t-113 -214.5t-41 -302.5q0 -305 149.5 -481.5t385.5 -176.5q134 0 250 61t189.5 166.5t86.5 231.5q1 15 8.5 19t30.5 4t30 -5.5t7 -17.5q0 -6 -4.5 -55t-9.5 -118t-5 -122q0 -35 2 -75t2 -56 q0 -22 -39 -22q-21 0 -29.5 4.5t-8.5 17.5q0 53 -31 53q-19 0 -60 -28q-106 -79 -213.5 -115.5t-246.5 -36.5q-213 0 -382 98t-263.5 273t-94.5 397z" />
<glyph unicode="D" horiz-adv-x="1677" d="M127 1417q0 41 18 41q11 0 115.5 -5t200.5 -5q33 0 144 6t204 6q157 0 289 -40t223.5 -109.5t156 -162.5t94.5 -197.5t30 -217.5q0 -363 -197 -552t-551 -189q-99 0 -232.5 6t-160.5 6q-94 0 -199.5 -3t-116.5 -3q-14 0 -14 37q0 39 14 39q110 0 155.5 36t45.5 126v987 q0 83 -45 121t-160 38q-14 0 -14 35zM561 299q0 -132 68 -182.5t221 -50.5q116 0 205 34.5t155.5 110t101 202.5t34.5 304q0 104 -20.5 198t-66.5 179t-113 147t-168 98.5t-224 36.5q-101 0 -183 -20q0 -32 -5 -501t-5 -556z" />
<glyph unicode="E" horiz-adv-x="1454" d="M127 1417q0 41 18 41q11 0 115.5 -5t200.5 -5q83 0 259 2.5t321.5 5t154.5 2.5q22 0 28.5 -8t6.5 -31q0 -72 7 -176.5t7 -126.5q0 -20 -43 -20q-37 0 -39 16q-26 136 -103 199t-235 63q-119 0 -245 -14q0 -322 -17 -547q86 0 145.5 10t92.5 26t51 45t22.5 56t4.5 70 q0 19 7.5 24t35.5 5q25 0 33 -6t8 -25q0 -4 -2.5 -28.5t-5.5 -80.5t-3 -135q0 -68 3 -122.5t5.5 -84t2.5 -37.5q0 -16 -8.5 -22t-32.5 -6q-28 0 -35.5 6t-7.5 22q0 45 -6.5 75.5t-25.5 58t-53.5 42.5t-91.5 24t-139 9q2 -86 2 -272q0 -68 -2 -143t-2 -99q0 -31 5 -52.5 t19 -41t40 -31t68 -18t102 -6.5q103 0 177 13t123.5 37t80.5 65t46 90t21 118q3 29 39 29q28 0 36.5 -4.5t8.5 -17.5q0 -22 -5 -150t-5 -236q0 -17 -6.5 -21.5t-24.5 -4.5q-66 0 -404.5 5t-420.5 5q-94 0 -199.5 -3t-116.5 -3q-14 0 -14 37q0 39 14 39q110 0 155.5 36 t45.5 126v987q0 83 -45 121t-160 38q-14 0 -14 35z" />
<glyph unicode="F" horiz-adv-x="1308" d="M127 1417q0 41 18 41q11 0 115.5 -5t200.5 -5q83 0 259 2.5t321.5 5t154.5 2.5q22 0 28.5 -8t6.5 -31q0 -72 7 -191t7 -141q0 -20 -43 -20q-37 0 -39 16q-13 69 -36.5 120.5t-63 91t-99 59.5t-139.5 20q-119 0 -245 -14q0 -116 -5.5 -308.5t-11.5 -267.5q86 0 145.5 10 t92.5 26t51 45t22.5 56t4.5 70q0 19 7.5 24t35.5 5q25 0 33 -6t8 -25q0 -4 -2.5 -28.5t-5.5 -80.5t-3 -135q0 -68 3 -122t5.5 -83.5t2.5 -37.5q0 -16 -8.5 -22.5t-32.5 -6.5q-27 0 -35 6.5t-8 22.5q0 45 -6.5 75.5t-25.5 58t-53.5 42.5t-91.5 24t-139 9q0 -51 1 -140t1 -129 q0 -34 -1 -102t-1 -98q0 -96 54 -132t182 -36q16 0 16 -35q0 -41 -20 -41q-11 0 -124.5 3t-209.5 3q-94 0 -199.5 -3t-116.5 -3q-14 0 -14 37q0 39 14 39q110 0 155.5 36t45.5 126v987q0 83 -45 121t-160 38q-14 0 -14 35z" />
<glyph unicode="G" horiz-adv-x="1734" d="M96 739q0 170 61.5 314t165.5 240t241 150t288 54q138 0 259.5 -38.5t197.5 -100.5q20 -17 39 -17q32 0 44.5 14.5t12.5 47.5q0 13 7.5 17.5t29.5 4.5q24 0 30.5 -4t6.5 -18q0 -8 -5.5 -88t-5.5 -141q0 -54 3 -102t5.5 -74.5t2.5 -30.5q0 -18 -8.5 -23.5t-28.5 -5.5 q-24 0 -30.5 6.5t-6.5 22.5q-21 200 -158 318t-381 118q-87 0 -164 -25t-143.5 -78.5t-114.5 -132.5t-75 -194t-27 -256q0 -301 145.5 -478.5t389.5 -177.5q191 0 304 83t113 225q0 80 -17 121.5t-67.5 63t-148.5 21.5q-14 0 -14 35q0 41 18 41q48 0 167 -6t177 -6 q69 0 152.5 6t117.5 6q17 0 17 -41q0 -35 -17 -35q-72 0 -105.5 -16.5t-47 -60t-13.5 -136.5q0 -140 7 -219q0 -15 -11.5 -22.5t-23.5 -7.5q-15 0 -21 6q-31 31 -75 31q-32 0 -56 -17q-101 -80 -214 -123t-265 -43q-160 0 -299.5 55t-241 154.5t-159.5 245t-58 317.5z" />
<glyph unicode="H" horiz-adv-x="1882" d="M127 1417q0 41 18 41q11 0 115.5 -5t200.5 -5q90 0 194.5 5t118.5 5q17 0 17 -39q0 -37 -17 -37q-111 0 -155 -44t-44 -124q0 -32 -3.5 -168t-4.5 -237q195 10 361 10q241 0 385 -12v416q0 83 -45.5 121t-159.5 38q-14 0 -14 35q0 41 18 41q11 0 115 -5t200 -5 q90 0 195 5t119 5q16 0 16 -39q0 -37 -16 -37q-111 0 -155 -44t-44 -124q0 -34 -6 -379t-6 -593q0 -86 44 -127t157 -41q16 0 16 -37q0 -39 -21 -39q-11 0 -107 3t-192 3q-94 0 -199 -3t-116 -3q-14 0 -14 37q0 39 14 39q110 0 155.5 36t45.5 126v501q-106 -6 -387 -6 q-189 0 -359 17q-4 -312 -4 -506q0 -86 44 -127t157 -41q16 0 16 -37q0 -39 -20 -39q-11 0 -107 3t-192 3q-94 0 -199.5 -3t-116.5 -3q-14 0 -14 37q0 39 14 39q110 0 155.5 36t45.5 126v987q0 83 -45 121t-160 38q-14 0 -14 35z" />
<glyph unicode="I" horiz-adv-x="915" d="M127 1417q0 41 18 41q11 0 115.5 -5t200.5 -5q90 0 194.5 5t118.5 5q17 0 17 -39q0 -37 -17 -37q-111 0 -155 -44t-44 -124q0 -34 -6 -379t-6 -593q0 -86 44 -127t157 -41q16 0 16 -37q0 -39 -20 -39q-11 0 -107 3t-192 3q-94 0 -199.5 -3t-116.5 -3q-14 0 -14 37 q0 39 14 39q110 0 155.5 36t45.5 126v987q0 83 -45 121t-160 38q-14 0 -14 35z" />
<glyph unicode="J" horiz-adv-x="901" d="M-180 -322q0 48 26.5 77.5t77.5 29.5q41 0 66 -20.5t36.5 -50.5t23.5 -59.5t38.5 -50t69.5 -20.5q113 0 167 84.5t54 288.5v1266q0 83 -45.5 121t-159.5 38q-14 0 -14 35q0 41 18 41q11 0 115.5 -5t200.5 -5q90 0 194.5 5t118.5 5q16 0 16 -39q0 -37 -16 -37 q-111 0 -155 -44t-44 -124q0 -34 -6 -506t-6 -720q0 -115 -39.5 -211.5t-105.5 -160t-152 -99t-180 -35.5q-149 0 -224 56t-75 140z" />
<glyph unicode="K" horiz-adv-x="1736" d="M127 1417q0 41 18 41q11 0 115.5 -5t200.5 -5q90 0 176 5t100 5q17 0 17 -39q0 -37 -17 -37q-58 0 -92.5 -9t-50 -33t-19.5 -50t-4 -76q0 -32 -3 -223t-3 -291q101 75 275 253.5t245 293.5q35 56 35 86q0 27 -23.5 38t-72.5 11q-16 0 -16 43q0 33 16 33q21 0 109 -5 t137 -5q77 0 162 5t94 5q18 0 18 -35q0 -41 -18 -41q-90 0 -153 -32.5t-124 -98.5q-69 -75 -209.5 -215t-220.5 -211q575 -649 776 -731q47 -18 109 -18q12 0 12 -35q0 -43 -16 -43q-19 0 -117 3t-149 3q-54 0 -178 -3t-154 -3q-15 0 -15 41q0 35 19 35q92 0 92 35 q0 22 -51 69q-72 65 -204 209t-267 303l-111 -82q0 -56 -1 -178.5t-1 -187.5q0 -47 4.5 -73t21 -50.5t51.5 -34.5t93 -10q17 0 17 -35q0 -41 -21 -41q-11 0 -91.5 3t-176.5 3q-94 0 -199.5 -3t-116.5 -3q-14 0 -14 37q0 39 14 39q110 0 155.5 36t45.5 126v987q0 83 -45 121 t-160 38q-14 0 -14 35z" />
<glyph unicode="L" horiz-adv-x="1366" d="M127 1417q0 41 18 41q11 0 115.5 -5t200.5 -5q90 0 194.5 5t118.5 5q17 0 17 -39q0 -37 -17 -37q-111 0 -155 -44t-44 -124q0 -98 -7 -438t-7 -428q0 -77 18 -127.5t55.5 -77t83.5 -37t113 -10.5q193 0 301.5 83.5t127.5 230.5q1 18 9.5 23t28.5 5q43 0 43 -22 q0 -28 -7 -168.5t-7 -214.5q0 -23 -10 -31t-33 -8q-33 0 -364.5 5t-458.5 5q-94 0 -199.5 -3t-116.5 -3q-14 0 -14 37q0 39 14 39q110 0 155.5 36t45.5 126v987q0 83 -45 121t-160 38q-14 0 -14 35z" />
<glyph unicode="M" horiz-adv-x="2113" d="M127 35q0 39 14 39q104 0 153.5 42.5t49.5 141.5q0 143 5 532.5t5 444.5q0 19 -1.5 31t-6.5 32t-19 32.5t-35.5 25.5t-59 19.5t-87.5 6.5q-16 0 -16 35q0 41 16 41q13 0 106 -5t152 -5q27 0 89 1t100 1q19 0 26 -14q58 -135 441 -1088q88 217 236 551.5t243 530.5 q9 18 37 18q108 0 248.5 5t148.5 5q17 0 17 -35q0 -41 -17 -41q-108 0 -157.5 -45.5t-50.5 -156.5v-938q0 -86 44.5 -127t157.5 -41q16 0 16 -35q0 -41 -20 -41q-11 0 -107 3t-192 3q-94 0 -199 -3t-116 -3q-15 0 -15 37q0 39 17 39q109 0 153.5 36t44.5 126 q0 156 4.5 540.5t6.5 470.5q-88 -177 -301 -666t-226 -538q-8 -33 -39 -33q-29 0 -39 29q-30 87 -232 574t-276 634v-989q0 -103 40 -143.5t149 -40.5q14 0 14 -37q0 -39 -14 -39q-8 0 -42.5 1.5t-90.5 3t-117 1.5q-84 0 -164.5 -3t-83.5 -3q-10 0 -10 37z" />
<glyph unicode="N" horiz-adv-x="1765" d="M96 1419q0 39 19 39q9 0 106.5 -5t163.5 -5q24 0 58.5 1t43.5 1q20 0 35 -18q40 -52 110 -135t190 -224t175 -207q315 -373 387 -487v809q0 49 -7.5 81t-29.5 59.5t-66.5 40.5t-113.5 13q-16 0 -16 39q0 37 20 37q22 0 103 -5t149 -5q87 0 174 5t89 5q14 0 14 -37 q0 -39 -17 -39q-99 0 -147 -42.5t-51 -159.5q-6 -252 -6 -834q0 -99 2 -213t2 -131q0 -14 -58 -14q-19 0 -32 20q-85 124 -440.5 567t-499.5 596v-913q0 -98 58 -141t173 -43q14 0 14 -37q0 -13 -4 -26t-10 -13q-8 0 -53 1.5t-112 3t-128 1.5q-84 0 -164.5 -3t-83.5 -3 q-10 0 -10 37q0 39 14 39q103 0 150.5 42t48.5 142q8 852 8 930q0 80 -57.5 137t-185.5 57q-15 0 -15 37z" />
<glyph unicode="O" horiz-adv-x="1808" d="M98 727q0 157 62.5 299.5t169 245.5t256.5 164t317 61t317.5 -61t258 -164t170.5 -245.5t63 -299.5q0 -167 -64.5 -310.5t-174 -241.5t-257.5 -153t-313 -55q-164 0 -310.5 53.5t-256.5 150t-174 240.5t-64 316zM354 719q0 -313 143 -489.5t406 -176.5q168 0 295 87 t192.5 237t65.5 342q0 205 -69.5 362.5t-195.5 243.5t-288 86q-238 0 -393.5 -190t-155.5 -502z" />
<glyph unicode="P" horiz-adv-x="1363" d="M127 1417q0 41 18 41q11 0 115.5 -5t200.5 -5q21 0 128.5 4t166.5 4q249 0 396.5 -109t147.5 -290q0 -63 -14.5 -115.5t-54 -103t-103 -85.5t-168 -56t-241.5 -21q-71 0 -156 6v-440q0 -85 47.5 -126.5t161.5 -41.5q16 0 16 -35q0 -41 -20 -41q-11 0 -111 3t-196 3 q-94 0 -199.5 -3t-116.5 -3q-14 0 -14 37q0 39 14 39q110 0 155.5 36t45.5 126v987q0 83 -45 121t-160 38q-14 0 -14 35zM565 754q29 -2 135 -2q187 0 265.5 72t78.5 233q0 185 -80.5 254t-289.5 69q-66 0 -96 -6q-13 -346 -13 -620z" />
<glyph unicode="Q" horiz-adv-x="1832" d="M98 727q0 157 62.5 299.5t169 245.5t256.5 164t317 61t317.5 -61t258 -164t170.5 -245.5t63 -299.5q0 -149 -50 -278.5t-137.5 -222t-200.5 -154t-243 -86.5q-129 -26 -317 -150h37q85 0 183.5 -30t190 -72t184.5 -84.5t198.5 -72.5t201.5 -30q141 0 211 41t94 129 q11 41 37 41q15 0 27 -12t12 -27q0 -74 -27 -146.5t-75.5 -132.5t-124.5 -97t-166 -37q-139 0 -273 66t-358 225q-151 107 -237.5 141.5t-149.5 34.5q-13 0 -41 -4q-60 -66 -107.5 -98.5t-95.5 -32.5q-33 0 -53 20t-20 53q0 44 52.5 76.5t162.5 32.5q166 120 274 151 q-164 0 -310 53t-255.5 148.5t-173.5 239t-64 315.5zM354 719q0 -313 143 -489.5t406 -176.5q168 0 295 87t192.5 237t65.5 342q0 205 -69.5 362.5t-195.5 243.5t-288 86q-238 0 -393.5 -190t-155.5 -502z" />
<glyph unicode="R" horiz-adv-x="1585" d="M127 1417q0 41 18 41q11 0 115.5 -5t200.5 -5q63 0 173.5 3t145.5 3q124 0 222.5 -30.5t158.5 -83.5t91.5 -120t31.5 -143q0 -128 -100 -229t-287 -129q22 -19 43 -39.5t44.5 -44.5t40 -41t42.5 -46t38.5 -43t42 -47.5t38.5 -43.5q176 -202 262 -269t172 -67 q15 0 21 -8.5t6 -30.5q0 -25 -5 -34t-18 -9q-35 0 -135.5 2t-153.5 2q-118 0 -358 309l-209 271q-74 92 -96 100q-35 2 -109 2v-438q0 -87 44 -128.5t157 -41.5q16 0 16 -35q0 -41 -20 -41q-11 0 -107 3t-192 3q-94 0 -199.5 -3t-116.5 -3q-14 0 -14 37q0 39 14 39 q109 0 155 37t46 127v985q0 83 -44.5 121t-158.5 38q-16 0 -16 35zM565 754h131q332 0 332 305q0 146 -73.5 233.5t-225.5 87.5q-97 0 -151 -8q-13 -301 -13 -618z" />
<glyph unicode="S" horiz-adv-x="1261" d="M156 483q0 18 8 23.5t31 5.5q45 0 45 -20q0 -98 34 -183t91.5 -143.5t133.5 -91.5t158 -33q128 0 211.5 80t83.5 205q0 58 -20 106.5t-49 80t-79.5 62t-92 48.5t-105.5 44q-4 1 -6 2t-5.5 2.5t-6.5 2.5q-40 16 -64 26.5t-60.5 28t-59.5 32t-53.5 36.5t-49 43.5t-39 50.5 t-31.5 60.5t-18.5 71t-7.5 83.5q0 119 62 210.5t155 136t196 44.5q121 0 209 -45q17 -8 33.5 -17t24.5 -13.5t16.5 -8t13 -5t9.5 -1.5q38 0 41 43q0 12 16 12q43 0 43 -14q0 -78 1.5 -169t3 -151t1.5 -63q0 -17 -8 -22t-35 -5q-22 0 -31.5 5.5t-9.5 23.5q0 153 -86 250.5 t-237 97.5q-112 0 -179 -63t-67 -168q0 -48 17 -88t41.5 -67t68 -53t79.5 -42t93 -39q4 -2 6.5 -3t6.5 -2.5t7 -2.5q45 -17 69.5 -27t67.5 -29t67.5 -33.5t60 -39t56.5 -48t45.5 -56.5t37 -68.5t21.5 -81t9 -96.5q0 -113 -41.5 -202t-110.5 -141.5t-150 -79t-169 -26.5 q-97 0 -157.5 17t-112.5 51q-25 15 -47 31.5l-32 24t-20 12.5t-20 5q-13 0 -19.5 -10t-7.5 -21.5t-1 -33.5q0 -8 -8 -13.5t-21 -5.5q-53 0 -53 25q0 113 -2 272t-2 170z" />
<glyph unicode="T" horiz-adv-x="1462" d="M6 1077q0 29 7 171t7 171q0 39 37 39q10 0 142 -2t293 -5t241 -3q79 0 239 2.5t291.5 5t141.5 2.5q41 0 41 -39q0 -29 6 -171t6 -171q0 -6 -13.5 -11t-33.5 -5q-15 0 -20 16q-25 104 -64 164t-116 92.5t-201 32.5q-21 0 -46 -1t-56 -2.5t-50 -2.5q-10 -317 -10 -1116 q0 -87 44 -128.5t157 -41.5q16 0 16 -35q0 -41 -21 -41q-11 0 -107 3t-192 3q-94 0 -199 -3t-116 -3q-14 0 -14 37q0 39 14 39q109 0 155 37t46 127v1120q-136 8 -172 8q-127 0 -202.5 -30.5t-114.5 -90t-66 -168.5q-6 -14 -19 -14q-17 0 -34 4t-17 10z" />
<glyph unicode="U" horiz-adv-x="1804" d="M104 1417q0 41 23 41q5 0 106 -5t203 -5q82 0 155.5 2.5t114.5 5t44 2.5q18 0 18 -37q0 -39 -18 -39q-109 0 -152.5 -35.5t-46.5 -127.5q-10 -265 -10 -744q0 -179 114 -278t312 -99q211 0 316.5 98t105.5 277q0 98 -5.5 396.5t-5.5 318.5q0 106 -42 150t-156 44 q-17 0 -17 33q0 25 5 34t16 9q20 0 109 -5t149 -5q56 0 149 5t109 5t16 -35q0 -41 -16 -41q-105 0 -154 -51.5t-49 -156.5q0 -18 -2 -324.5t-2 -407.5q0 -75 -20.5 -142.5t-67.5 -129t-118 -106t-178.5 -71t-242.5 -26.5q-108 0 -203 31t-172 93t-122 166t-45 239v716 q0 85 -45 127.5t-156 42.5q-19 0 -19 35z" />
<glyph unicode="V" horiz-adv-x="1423" d="M-35 1423q0 35 19 35q11 0 95.5 -5t174.5 -5q78 0 178.5 5t122.5 5q14 0 14 -35q0 -41 -12 -41q-158 0 -158 -84q0 -32 23 -88q27 -63 179 -463.5t177 -461.5q26 77 201 551q17 49 48.5 132.5t47 126t28.5 89.5t13 71q0 58 -45 92.5t-127 34.5q-14 0 -14 35q0 41 18 41 q16 0 100 -5t144 -5q67 0 125.5 2.5t90.5 5t36 2.5q16 0 16 -39q0 -22 -4.5 -29.5t-17.5 -7.5q-74 0 -129.5 -45.5t-81.5 -130.5q-9 -29 -45.5 -120t-100 -247.5t-104.5 -258.5q-34 -91 -95.5 -253t-88 -234.5t-27.5 -84.5q-1 -16 -18.5 -25.5t-40.5 -9.5q-51 0 -60 33 q-24 95 -246 653.5t-258 616.5q-33 53 -71 79.5t-95 26.5q-12 0 -12 41z" />
<glyph unicode="W" horiz-adv-x="2121" d="M-14 1423q0 35 18 35q11 0 95.5 -5t174.5 -5q78 0 178.5 5t122.5 5q17 0 17 -28q0 -48 -14 -48q-158 0 -158 -84q0 -30 22 -98q21 -55 162 -493q88 -279 141 -414q34 91 207 608q130 385 138 457q2 33 53 33t55 -33q10 -77 123.5 -446.5t194.5 -618.5q276 836 276 962 q0 58 -44 92.5t-126 34.5q-16 0 -16 37q0 39 20 39q16 0 100 -5t144 -5q67 0 125.5 2.5t90.5 5t36 2.5q16 0 16 -39q0 -22 -4.5 -29.5t-17.5 -7.5q-74 0 -129.5 -45.5t-81.5 -130.5q-65 -216 -340 -1036q-56 -167 -58 -180q-5 -31 -57 -31q-50 0 -55 31q-25 87 -131 411 t-191 562q-171 -513 -260 -754q-53 -139 -74 -219q-7 -31 -53 -31q-49 0 -57 31q-20 93 -227.5 662t-237.5 624q-58 106 -166 106q-12 0 -12 41z" />
<glyph unicode="X" horiz-adv-x="1601" d="M37 35q0 39 18 39q125 0 252 133q32 32 168 197t238 274q-142 194 -284.5 379.5t-172.5 218.5q-93 106 -160 106q-12 0 -12 41q0 35 18 35q11 0 96 -5t175 -5q78 0 178.5 5t122.5 5q16 0 16 -39q0 -37 -14 -37q-62 0 -93.5 -15.5t-31.5 -53.5q0 -48 59.5 -138.5 t245.5 -334.5q155 196 205 272q84 120 84 170q0 49 -29.5 74.5t-109.5 25.5q-13 0 -13 37q0 39 21 39q16 0 99.5 -5t143.5 -5q67 0 125.5 2.5t90.5 5t36 2.5q17 0 17 -39q0 -37 -19 -37q-43 0 -105.5 -36.5t-115.5 -104.5q-152 -189 -385 -465q138 -188 280 -377t169 -221 q51 -57 98.5 -80.5t103.5 -23.5q17 0 17 -35q0 -41 -21 -41q-11 0 -107 3t-192 3q-94 0 -199 -3t-116 -3q-14 0 -14 37q0 39 14 39q76 0 105.5 11.5t29.5 55.5q0 28 -55.5 113.5t-253.5 366.5q-37 -50 -109 -142.5t-100 -132.5q-94 -126 -94 -186q0 -52 19.5 -69t88.5 -17 q17 0 17 -35q0 -41 -21 -41q-17 0 -101 3t-149 3q-72 0 -164 -3t-96 -3q-14 0 -14 37z" />
<glyph unicode="Y" horiz-adv-x="1484" d="M6 1421q0 17 5.5 27t13.5 10q11 0 95.5 -5t174.5 -5q78 0 178.5 5t122.5 5q16 0 16 -37q0 -39 -14 -39q-25 0 -40 -1t-34 -5t-29.5 -11.5t-18 -22t-7.5 -35.5q0 -58 129 -269q102 -166 221 -346q39 69 114 189.5t95 154.5q100 168 100 242q0 54 -31 79t-112 25 q-14 0 -14 35q0 41 18 41q16 0 100 -5t144 -5q67 0 125.5 2.5t90.5 5t36 2.5q16 0 16 -39q0 -22 -4.5 -29.5t-17.5 -7.5q-62 0 -114.5 -33.5t-104.5 -109.5q-1 -1 -54.5 -84.5t-102.5 -160t-119 -189.5t-122 -201q-4 -106 -4 -362q0 -86 44 -127t157 -41q16 0 16 -35 q0 -41 -20 -41q-11 0 -107 3t-192 3q-94 0 -199.5 -3t-116.5 -3q-14 0 -14 37q0 39 14 39q110 0 155.5 36t45.5 126v333q-116 200 -272 434.5t-191 276.5q-50 62 -82.5 82t-77.5 20q-12 0 -12 39z" />
<glyph unicode="Z" horiz-adv-x="1370" d="M74 45q0 21 10 31q154 158 500 678q57 87 154 237t154 235.5t89 127.5q-111 6 -342 6q-187 0 -283 -63.5t-129 -198.5q-5 -17 -22 -17q-20 0 -40 5.5t-20 13.5q0 4 7.5 62.5t14.5 133.5t7 119q0 41 39 41q10 0 104.5 -2t218 -4t203.5 -2q152 0 263.5 1t167 2t71.5 1 q14 0 23.5 -9t9.5 -20q0 -16 -12 -32q-110 -159 -475 -704.5t-394 -588.5q108 -6 355 -6q215 0 332.5 79t129.5 218q1 18 10.5 22.5t34.5 4.5q41 0 41 -21q0 -30 -6 -152.5t-6 -183.5q0 -35 -10.5 -44t-46.5 -9q-48 0 -535 -3t-581 -3q-17 0 -27 14.5t-10 30.5z" />
<glyph unicode="[" horiz-adv-x="796" d="M178 -670q0 75 3 559.5t3 630.5q0 151 -3 561.5t-3 472.5q0 31 51 31q110 0 245 6t237 6q26 0 26 -45q0 -49 -26 -49q-17 0 -49.5 -1t-47.5 -1q-44 0 -115 2t-147 2q4 -168 4 -526q0 -411 -6 -934.5t-14 -658.5q82 0 165 3t130 3q13 0 40 -1t40 -1q26 0 26 -49 q0 -46 -26 -46q-39 0 -236 4.5t-246 4.5q-51 0 -51 26z" />
<glyph unicode="\" horiz-adv-x="995" d="M45 1452q0 17 21 28t51 11q49 0 63 -25l795 -1542q0 -15 -21 -26t-49 -11q-23 0 -42.5 7t-22.5 16z" />
<glyph unicode="]" horiz-adv-x="796" d="M72 -659q0 49 26 49q17 0 49.5 1t47.5 1q44 0 115 -2t147 -2q-4 168 -4 526q0 411 6 934.5t14 658.5q-82 0 -165 -3t-130 -3q-14 0 -40 1t-40 1q-26 0 -26 49q0 45 26 45q39 0 236.5 -4t245.5 -4q51 0 51 -26q0 -75 -3 -559.5t-3 -630.5q0 -151 3 -562t3 -473 q0 -30 -51 -30q-110 0 -245 -6.5t-237 -6.5q-26 0 -26 46z" />
<glyph unicode="^" horiz-adv-x="1042" d="M102 754l377 737h84l377 -737l-61 -41l-357 590l-360 -590z" />
<glyph unicode="_" horiz-adv-x="1560" d="M6 -45h1550v-150h-1550v150z" />
<glyph unicode="`" horiz-adv-x="753" d="M164 1485q0 20 23 30.5t57 10.5q30 0 59.5 -7t32.5 -14l248 -389q6 -9 6 -14q0 -14 -13.5 -24.5t-27.5 -10.5q-9 0 -21 12l-344 367q-20 23 -20 39z" />
<glyph unicode="a" horiz-adv-x="1040" d="M86 178q0 62 25.5 117t85.5 110.5t171.5 105.5t270.5 89v109q0 36 -2 58.5t-11 46.5t-26 37t-47.5 21.5t-75.5 8.5q-83 0 -126 -25t-66 -80q-12 -28 -38 -45.5t-52 -17.5q-32 0 -54 18.5t-22 52.5q0 30 18.5 61.5t58 61.5t114.5 49t175 19q194 0 270 -62t76 -206 q0 -32 -8 -226.5t-8 -312.5q0 -92 68 -92q42 0 71 49q6 8 19 8q6 0 18.5 -12t12.5 -19q0 -35 -53.5 -82t-149.5 -47q-68 0 -110 39.5t-48 120.5q-63 -76 -148 -120t-169 -44q-114 0 -177 56t-63 153zM295 227q0 -65 35.5 -101t93.5 -36q53 0 103 30t112 99v320 q-103 -30 -173.5 -66t-106 -77.5t-50 -81t-14.5 -87.5z" />
<glyph unicode="b" horiz-adv-x="1259" d="M51 1452q0 39 10 39q80 0 152 8.5t112 16.5t42 8q19 0 31 -7.5t12 -19.5q0 -40 -8.5 -246.5t-8.5 -445.5q42 76 129.5 123t194.5 47q210 0 336.5 -137.5t126.5 -368.5q0 -224 -145 -365t-367 -141q-89 0 -173 43.5t-124 95.5l-12.5 -12.5t-11.5 -12t-11 -13.5t-10 -12.5 t-11 -14.5t-10 -14t-11 -16t-11 -16t-12.5 -18.5t-12.5 -19.5q-5 -10 -22 -10q-13 0 -30.5 6.5t-17.5 13.5q0 12 6 62t12.5 157t6.5 256v885q0 56 -28 74t-122 18q-12 0 -12 37zM393 258q0 -85 80 -145t170 -60q59 0 114 23.5t101.5 70.5t74.5 127.5t28 184.5 q0 407 -310 407q-57 0 -102 -17.5t-71.5 -42.5t-45 -57t-25.5 -57t-8 -47q-6 -102 -6 -387z" />
<glyph unicode="c" horiz-adv-x="980" d="M78 446q0 116 42.5 216t114 168t165.5 106.5t196 38.5q93 0 160.5 -18t102 -48.5t50 -63t15.5 -67.5q0 -41 -25 -63.5t-63 -22.5t-62 24t-43 70q-38 95 -156 95q-119 0 -197.5 -97t-78.5 -286q0 -115 26.5 -200t72 -132.5t99 -69.5t115.5 -22q84 0 150 39t104 104 q10 12 23 12q12 0 29.5 -13.5t17.5 -31.5q-52 -106 -149 -163.5t-230 -57.5q-89 0 -173.5 32t-153 91t-110.5 153t-42 207z" />
<glyph unicode="d" horiz-adv-x="1259" d="M80 457q0 112 38.5 210t104.5 165t154 105t186 38q205 0 307 -121v469q0 55 -28 73.5t-123 18.5q-8 0 -10 8t-2 29q0 39 12 39q79 0 150.5 8.5t112 16.5t42.5 8q19 0 31 -7.5t12 -19.5q0 -11 -3.5 -132.5t-7 -340.5t-3.5 -467v-375q0 -42 16.5 -59t67.5 -21l65 -4 q10 0 10 -41q0 -37 -10 -37q-60 0 -142 -16.5t-136 -40.5q-20 -8 -29 -8q-33 0 -33 33l4 121q-56 -66 -139 -106t-184 -40q-93 0 -177 34.5t-147.5 97t-101 156.5t-37.5 206zM301 473q0 -107 24.5 -187t67 -125.5t94.5 -67t113 -21.5q95 0 162 41.5t102 101.5q6 119 6 477 q0 69 -75 131t-174 62q-140 0 -230 -106.5t-90 -305.5z" />
<glyph unicode="e" horiz-adv-x="995" d="M74 459q0 220 140 368t361 148q76 0 138 -21.5t100.5 -54.5t65 -74.5t37 -79t10.5 -71.5q0 -32 -10.5 -44t-38.5 -12h-582q-12 -44 -12 -126q0 -200 87.5 -309t229.5 -109q86 0 155 37t97 94q7 14 18 14q13 0 33.5 -15.5t20.5 -27.5q0 -2 -6 -14q-42 -85 -134.5 -142 t-224.5 -57q-103 0 -188.5 28.5t-153 86.5t-105.5 155.5t-38 225.5zM307 682l336 8q59 2 72.5 9.5t13.5 39.5q0 61 -44 105.5t-130 44.5q-183 0 -248 -207z" />
<glyph unicode="f" horiz-adv-x="724" d="M104 37q0 37 11 37q69 0 93.5 22t24.5 82v664h-112q-17 0 -17 37q0 36 17 36q62 0 87 16.5t25 51.5v174q0 90 34 160.5t90 112t122 62.5t135 21q103 0 175.5 -46t72.5 -121q0 -40 -23 -63t-61 -23q-31 0 -55.5 17.5t-30.5 51.5q-15 84 -102 84t-130 -57t-44 -199l-4 -225 q156 4 229 4q14 0 14 -55q0 -22 -2 -30.5t-12 -8.5h-229v-664q0 -64 32.5 -84t130.5 -20q13 0 13 -33q0 -43 -13 -43q-37 0 -125.5 4t-125.5 4q-39 0 -114.5 -4t-92.5 -4q-13 0 -13 39z" />
<glyph unicode="g" horiz-adv-x="1187" d="M45 -303q0 95 53 144.5t133 49.5q28 0 49 -5.5t30 -12.5t9 -14q0 -10 -14 -15q-82 -33 -82 -141q0 -97 90 -153t254 -56q89 0 157.5 21.5t109 58.5t61 81.5t20.5 94.5q0 91 -47 134.5t-172 43.5q-54 0 -144 -4t-126 -4q-35 0 -68.5 3.5t-72.5 14.5t-67.5 29t-48 49 t-19.5 72q0 73 54.5 130.5t147.5 74.5q-91 41 -142.5 124t-51.5 199q0 157 105.5 258t264.5 101q194 0 301 -150q29 70 88 110t119 40q74 0 118 -36t44 -97q0 -48 -26 -70t-62 -22q-65 0 -84 53q-8 23 -21 33t-38 10q-32 0 -58 -24t-26 -68q0 -22 9 -68t9 -70 q0 -185 -99.5 -273.5t-312.5 -88.5q-119 0 -170 -29t-51 -69q0 -33 28 -47.5t95 -14.5q57 0 160 5t166 5q191 0 279.5 -77.5t88.5 -210.5q0 -79 -32 -151.5t-92.5 -131t-158.5 -93t-220 -34.5q-131 0 -230.5 19.5t-156.5 49t-92 70t-46.5 76.5t-11.5 76zM348 623 q0 -137 53.5 -218t130.5 -81q78 0 129.5 79.5t51.5 219.5q0 125 -50 200.5t-137 75.5q-81 0 -129.5 -76t-48.5 -200z" />
<glyph unicode="h" horiz-adv-x="1245" d="M70 1452q0 39 12 39q81 0 151 8.5t107 16.5t39 8q19 0 34 -7t15 -20q0 -19 -4 -107.5t-8 -249t-4 -354.5q43 83 143 136t201 53q125 0 209 -72.5t84 -214.5q0 -48 -3.5 -244.5t-3.5 -273.5q0 -54 30 -75t112 -21q14 0 14 -29q0 -47 -18 -47t-93.5 4t-128.5 4 q-52 0 -118 -4t-99 -4q-14 0 -14 43q0 33 12 33q78 0 101.5 18t23.5 70v522q0 88 -51.5 134t-128.5 46q-35 0 -68 -8t-71.5 -32t-66.5 -62.5t-47 -105.5t-19 -154v-336q0 -53 26 -72.5t99 -19.5q8 0 11.5 -4.5t4 -11t0.5 -21.5q0 -39 -21 -39q-19 0 -87 4t-119 4 q-54 0 -126 -4t-104 -4q-12 0 -12 39q0 14 5 25.5t11 11.5q45 0 72.5 5.5t40.5 19.5t16.5 29.5t3.5 43.5v1151q0 57 -27 74.5t-124 17.5q-12 0 -12 37z" />
<glyph unicode="i" horiz-adv-x="614" d="M82 41q0 13 5 23t11 10q86 0 110.5 21.5t24.5 76.5v606q0 38 -13.5 51t-57.5 13h-49q-19 0 -19 35q0 41 15 41q48 0 123.5 15t134.5 36q21 0 36 -9.5t15 -21.5q0 -14 -1.5 -107.5t-3 -269t-1.5 -391.5q0 -53 26.5 -74.5t112.5 -21.5q12 0 12 -37q0 -39 -16 -39 q-19 0 -94.5 4t-126.5 4q-54 0 -126.5 -4t-105.5 -4q-12 0 -12 43zM203 1372q0 51 35 86t86 35q48 0 83 -35.5t35 -85.5t-35 -85.5t-83 -35.5q-51 0 -86 35t-35 86z" />
<glyph unicode="j" horiz-adv-x="604" d="M-176 -422q0 38 24 61t58 23q74 0 74 -82q0 -86 77 -86q89 0 132.5 74t43.5 227v998q0 26 -17 37.5t-54 11.5h-45q-23 0 -23 35q0 41 15 41q48 0 123.5 15t134.5 36q21 0 36 -9.5t15 -21.5q0 -19 -1.5 -125t-3 -261.5t-1.5 -295.5q0 -47 2 -157.5t2 -186.5 q0 -226 -95.5 -362t-275.5 -136q-108 0 -164.5 43.5t-56.5 120.5zM205 1372q0 51 35 86t86 35q48 0 83 -35.5t35 -85.5t-35 -85.5t-83 -35.5q-51 0 -86 35t-35 86z" />
<glyph unicode="k" horiz-adv-x="1179" d="M70 1452q0 39 12 39q81 0 151 8.5t107 16.5t39 8q19 0 34 -7t15 -20q0 -19 -4 -107.5t-8 -249t-4 -354.5v-337q53 44 155.5 141.5t141.5 144.5t39 80q0 47 -89 47q-16 0 -16 35q0 37 16 37q25 0 94.5 -1t108.5 -1q45 0 129 3t94 3q19 0 19 -37q0 -39 -17 -39 q-48 0 -105.5 -28t-104.5 -68q-30 -25 -248 -223q108 -130 214.5 -237t163.5 -154.5t78 -57.5q37 -18 78 -18q13 0 13 -35q0 -43 -17 -43q-19 0 -89.5 4t-121.5 4q-55 0 -133.5 -4t-101.5 -4q-17 0 -21 9.5t-4 31.5q0 35 19 35q73 0 73 30q0 15 -22 37q-25 25 -112.5 124.5 t-143.5 168.5q-61 -55 -90 -72v-192q0 -57 20.5 -76.5t97.5 -19.5q13 0 13 -33q0 -43 -17 -43q-19 0 -84 4t-116 4q-54 0 -126.5 -4t-105.5 -4q-12 0 -12 41q0 13 5 24t11 11q86 0 110.5 21.5t24.5 76.5v1151q0 57 -27 74.5t-124 17.5q-12 0 -12 37z" />
<glyph unicode="l" horiz-adv-x="630" d="M72 1452q0 39 12 39q81 0 150.5 8.5t106 16.5t38.5 8q19 0 34 -7t15 -20q0 -19 -4 -107.5t-8 -249t-4 -354.5v-616q0 -54 28.5 -75t108.5 -21q12 0 12 -33q0 -43 -16 -43q-19 0 -94.5 4t-126.5 4q-54 0 -127 -4t-105 -4q-12 0 -12 41q0 13 5 24t11 11q45 0 73 5.5t42 19 t18 29.5t4 44v1151q0 40 -10 57.5t-40.5 26t-98.5 8.5q-12 0 -12 37z" />
<glyph unicode="m" horiz-adv-x="1812" d="M80 41q0 14 5 23.5t11 9.5q45 0 73 5.5t42 19t18 29.5t4 44v614q0 35 -15.5 45.5t-55.5 10.5h-45q-23 0 -23 35q0 41 15 41q47 0 124 15.5t129 35.5q23 0 36.5 -8.5t13.5 -22.5v-156q43 89 134.5 141t192.5 52q199 0 250 -203q45 97 139 150t195 53q129 0 211 -77 t82 -214q0 -78 -3 -273t-3 -241q0 -54 29 -75t110 -21q14 0 14 -29q0 -47 -18 -47t-93 4t-128 4q-52 0 -116 -4t-97 -4q-13 0 -13 43q0 33 11 33q77 0 100 17.5t23 70.5v497q0 205 -179 205q-46 0 -88.5 -16t-77.5 -47.5t-56 -85t-21 -123.5v-422q0 -52 24 -74t105 -22 q12 0 12 -37q0 -39 -12 -39q-41 0 -114 4t-105 4q-45 0 -120 -4t-108 -4q-10 0 -10 41q0 35 14 35q33 0 56.5 2.5t38.5 9.5t23 13.5t12 20t4.5 22.5t0.5 28v541q0 72 -41.5 111.5t-121.5 39.5q-47 0 -90.5 -17t-81.5 -53t-61 -102t-23 -153v-371q0 -54 24.5 -73t98.5 -19 q14 0 14 -39q0 -37 -21 -37q-19 0 -85 4t-117 4q-54 0 -128 -4t-106 -4q-12 0 -12 43z" />
<glyph unicode="n" horiz-adv-x="1245" d="M84 37q0 14 5 25.5t11 11.5q45 0 72.5 5.5t40.5 19.5t16.5 29.5t3.5 43.5v614q0 35 -15.5 45.5t-55.5 10.5h-45q-23 0 -23 35q0 41 15 41q47 0 124 15.5t129 35.5q23 0 36.5 -8.5t13.5 -22.5v-152q43 83 143 136t201 53q125 0 209 -72.5t84 -214.5q0 -48 -3.5 -244.5 t-3.5 -273.5q0 -54 30 -75t112 -21q14 0 14 -29q0 -47 -18 -47t-93.5 4t-128.5 4q-52 0 -118 -4t-99 -4q-14 0 -14 43q0 33 12 33q78 0 101.5 18t23.5 70v522q0 88 -51.5 134t-128.5 46q-35 0 -68 -8t-71.5 -32t-66.5 -62.5t-47 -105.5t-19 -154v-336q0 -53 26 -72.5 t99 -19.5q8 0 11.5 -4.5t4 -11t0.5 -21.5q0 -39 -21 -39q-19 0 -87 4t-119 4q-54 0 -126 -4t-104 -4q-12 0 -12 39z" />
<glyph unicode="o" horiz-adv-x="1191" d="M80 473q0 139 69.5 254.5t188 181.5t258.5 66q141 0 260 -66t188.5 -181.5t69.5 -254.5q0 -138 -69.5 -255.5t-189 -186t-259.5 -68.5q-139 0 -258 68.5t-188.5 186t-69.5 255.5zM301 473q0 -208 77.5 -317t217.5 -109q139 0 218 111t79 315q0 193 -80 306.5t-217 113.5 q-141 0 -218 -107.5t-77 -312.5z" />
<glyph unicode="p" horiz-adv-x="1269" d="M43 -526q0 41 14 41q56 0 89.5 6t48.5 21.5t19 29.5t5 41q6 183 6 653v473q0 60 -13 81.5t-46 21.5h-68q-12 0 -12 41q0 35 18 35q134 0 246 51q25 -2 40.5 -43t15.5 -111q47 77 136.5 118.5t205.5 41.5q125 0 226.5 -65.5t158.5 -179.5t57 -253q0 -146 -68 -264.5 t-184.5 -184t-255.5 -65.5q-89 0 -159.5 30.5t-116.5 78.5v-455q0 -57 35.5 -79.5t138.5 -22.5q14 0 14 -39q0 -37 -14 -37q-2 0 -99.5 2t-185.5 2q-37 0 -115.5 -2t-122.5 -2q-14 0 -14 35zM406 236q0 -75 86.5 -133t169.5 -58q45 0 86.5 12.5t83 43.5t71.5 78.5t49 124 t19 173.5q0 190 -74 296t-225 106q-52 0 -96.5 -15t-83.5 -47.5t-62 -92t-24 -140.5v-348z" />
<glyph unicode="q" horiz-adv-x="1204" d="M80 446q0 232 143 380.5t367 148.5q91 0 166.5 -35.5t124.5 -97.5q64 61 92 112q21 37 39 37q45 0 45 -28q0 -6 -2 -50.5t-4.5 -126t-5.5 -193.5t-5 -287t-2 -372v-303q0 -69 31 -92.5t113 -23.5q15 0 20.5 -8.5t5.5 -30.5q0 -37 -16 -37q-8 0 -88 2t-166 2 q-68 0 -158 -2t-104 -2q-17 0 -17 37q0 39 11 39q114 0 151 27t37 112v438q-104 -129 -309 -129q-121 0 -227.5 59.5t-174 171.5t-67.5 252zM301 463q0 -190 73.5 -297t219.5 -107q111 0 187.5 58.5t76.5 156.5v375q0 104 -72.5 169t-185.5 65q-130 0 -214.5 -105.5 t-84.5 -314.5z" />
<glyph unicode="r" horiz-adv-x="827" d="M84 37q0 37 16 37q46 0 72.5 6t40 22t17 35.5t3.5 55.5v593q0 35 -15.5 45.5t-55.5 10.5h-45q-23 0 -23 35q0 41 15 41q48 0 124 15.5t127 35.5q23 0 36.5 -8.5t13.5 -22.5v-141q43 83 119.5 130.5t140.5 47.5q77 0 114 -35t37 -84q0 -45 -23.5 -73.5t-64.5 -28.5 q-21 0 -35 8t-22.5 20t-17.5 24t-26.5 20t-43.5 8q-30 0 -58.5 -13.5t-56 -42t-44.5 -83t-17 -128.5v-387q0 -68 27.5 -87t129.5 -19q17 0 17 -37q0 -39 -21 -39q-18 0 -102.5 4t-136.5 4q-54 0 -126 -4t-104 -4q-12 0 -12 39z" />
<glyph unicode="s" horiz-adv-x="851" d="M109 313q0 13 38 13q15 0 17 -11q9 -74 36 -128.5t66 -84t82 -43.5t90 -14q168 0 168 158q0 66 -47 106.5t-147 77.5q-73 27 -119.5 50.5t-89 59t-62.5 85t-20 114.5q0 122 86.5 200.5t216.5 78.5q90 0 178 -55q10 -5 14 -5q8 0 22 16.5t19 29.5q45 0 45 -11 q0 -70 2.5 -173.5t2.5 -117.5q0 -18 -33 -18q-24 0 -27 16q-18 108 -77 173t-152 65q-62 0 -104 -37t-42 -106q0 -32 13.5 -57.5t39.5 -45t51.5 -32.5t63.5 -27q177 -68 251.5 -136t74.5 -188q0 -64 -20 -116t-52 -86t-74.5 -57.5t-86 -33.5t-87.5 -10q-133 0 -223 49 q-16 8 -24 8q-15 0 -35 -28q-9 -12 -19 -12q-34 0 -34 12q0 82 -1 197t-1 124z" />
<glyph unicode="t" horiz-adv-x="729" d="M98 866q0 41 11 41q71 0 132 78.5t83 198.5q2 14 24 14q47 0 47 -22q0 -120 -12 -246q234 6 262 6q21 0 21 -55q0 -24 -4.5 -32.5t-16.5 -8.5q-37 0 -132.5 1t-133.5 1q-6 -206 -6 -633q0 -125 141 -125q40 0 71 18t33 41q3 25 31 25q14 0 24.5 -7.5t10.5 -19.5 q0 -74 -70.5 -126t-173.5 -52q-245 0 -245 250v629h-86q-11 0 -11 24z" />
<glyph unicode="u" horiz-adv-x="1247" d="M72 897q0 35 16 35q111 0 214 6t104 6q-1 -108 -4 -367t-3 -327q0 -94 40.5 -132t125.5 -38q117 0 203 82t86 186v453q0 36 -27.5 45.5t-107.5 9.5q-12 0 -12 43q0 33 18 33q61 0 126.5 3t109 6t51.5 3q35 0 35 -26q-15 -282 -15 -746q0 -29 9.5 -42t21.5 -13h90 q16 0 16 -35q0 -34 -14 -37q-164 -45 -240 -76q-16 3 -28 17.5t-15 31.5q-16 69 -16 144q-67 -93 -162 -146t-211 -53q-131 0 -195.5 66.5t-64.5 206.5v481q0 94 -24 116.5t-115 22.5q-12 0 -12 41z" />
<glyph unicode="v" horiz-adv-x="1073" d="M8 901q0 37 15 37q7 0 33.5 -1.5t73.5 -3t103 -1.5q57 0 121 3t80 3q19 0 19 -37q0 -39 -19 -39q-92 0 -92 -53q0 -25 4 -35q20 -60 62.5 -164t101 -239t72.5 -168q57 121 140 328.5t83 259.5q0 39 -21 55t-77 16q-17 0 -17 35q0 41 17 41q5 0 29.5 -1.5t64 -3t82.5 -1.5 q49 0 87.5 1.5t58.5 3t24 1.5q20 0 20 -35q0 -41 -14 -41q-71 0 -115 -78q-21 -37 -110.5 -225t-153.5 -328q-89 -190 -102 -233q-7 -20 -17 -24.5t-37 -4.5q-29 0 -39.5 6t-15.5 25q-6 26 -57 150q-3 6 -69 161.5t-131.5 303.5t-82.5 173q-27 43 -51.5 58.5t-59.5 15.5 q-10 0 -10 39z" />
<glyph unicode="w" horiz-adv-x="1558" d="M10 899q0 12 5 25.5t12 13.5t36.5 -1.5t79 -3t105.5 -1.5t113 3t73 3q19 0 19 -37q0 -39 -19 -39q-92 0 -92 -53q0 -25 4 -35q27 -79 201 -549q10 31 52.5 142.5t64.5 173.5q95 256 106 344q9 20 43 20q35 0 41 -22q37 -131 112 -347t117 -321q50 97 127.5 310t77.5 276 q0 32 -19 46.5t-69 14.5q-16 0 -16 33q0 43 16 43q9 0 74.5 -3t114.5 -3q45 0 96 3t59 3q19 0 19 -35q0 -41 -17 -41q-40 0 -67 -19t-52 -63q-18 -33 -84 -190q-167 -362 -268 -594q-9 -29 -51 -29q-44 0 -49 29q-5 32 -103 295q-24 68 -63.5 168.5t-42.5 109.5 q-55 -154 -143 -354q-29 -62 -60 -137q-16 -43 -26 -82q-9 -29 -56 -29q-40 0 -45 29q-7 41 -162 440q-19 49 -47 125.5t-41.5 111t-31.5 77.5t-32 63.5t-28 30.5q-3 3 -6.5 5.5t-7.5 4.5l-7 3.5t-8 2.5l-7.5 1.5t-8.5 0.5h-8h-9h-9q-13 0 -13 37z" />
<glyph unicode="x" horiz-adv-x="1163" d="M59 33q0 41 15 41q41 0 83 26.5t101 83.5q26 25 58 59.5t54 59.5t64.5 74t63.5 72q-296 352 -361 393q-34 20 -61 20q-15 0 -15 35q0 41 17 41q2 0 74 -3t122 -3t130.5 3t89.5 3q12 0 12 -37q0 -39 -21 -39q-16 0 -25 -0.5t-22.5 -4t-20.5 -11.5t-7 -21q0 -17 18 -39 q109 -137 184 -221q20 25 47 57.5t45 54.5t33 42q3 4 13 16t13.5 17t11 15t11 16.5t8 15t6 16t1.5 14.5q0 33 -53 33q-17 0 -17 35q0 41 14 41q1 0 57 -3t95 -3q41 0 82 1.5t66 3t28 1.5q19 0 19 -35q0 -18 -6.5 -29.5t-14.5 -11.5q-63 0 -172 -104q-22 -20 -44.5 -41.5 t-50 -50t-43 -45t-52 -55.5t-50.5 -54q333 -377 418 -430q12 -8 51 -8q17 0 17 -41q0 -35 -19 -35q-9 0 -83.5 4t-139.5 4q-52 0 -130.5 -4t-90.5 -4q-14 0 -14 37q0 39 14 39q86 0 86 32q0 26 -18 44q-67 71 -197 241q-28 -34 -94 -118t-103 -128q-12 -18 -12 -39 q0 -32 53 -32q17 0 17 -39q0 -37 -17 -37q-51 0 -101.5 4t-66.5 4q-36 0 -92 -4t-65 -4q-13 0 -13 35z" />
<glyph unicode="y" horiz-adv-x="1071" d="M8 905q0 8 3 20.5t7 12.5q6 0 36.5 -1.5t79.5 -3t99 -1.5t114.5 3t92.5 3q11 0 11 -33q0 -43 -13 -43q-55 0 -74.5 -14t-19.5 -39q0 -27 12 -64q44 -123 236 -524q38 85 79.5 183t87.5 224.5t46 168.5q0 34 -20.5 50.5t-82.5 16.5q-5 0 -8.5 9.5t-3.5 21.5q0 43 8 43 q6 0 75 -3t116 -3q43 0 108 3t66 3q5 0 8.5 -8.5t3.5 -18.5q0 -49 -12 -49q-71 0 -125 -88q-22 -38 -86 -172q-195 -400 -403 -936q-51 -128 -110 -186t-118 -58q-90 0 -90 86q0 35 18.5 61.5t48 45t61.5 35.5t66 44t54 60q15 25 27.5 49t20.5 41t18.5 42.5t14.5 36.5 t14.5 41t14.5 40q-1 8 -9.5 30.5t-30 69.5t-38.5 84t-53.5 115t-56.5 121q-18 39 -45.5 99.5t-44 97t-39.5 82t-39 72t-35 49t-35 30.5t-40 8q-15 0 -15 43z" />
<glyph unicode="z" horiz-adv-x="1040" d="M94 33q0 27 17 35q36 21 266 348.5t301 443.5q-180 0 -248 -8q-79 -6 -129 -45q-32 -25 -55 -83t-23 -106q0 -20 -35 -20q-30 0 -30 23q0 3 7 99t7 171q0 26 5 33.5t22 7.5h316t290 1t119 1q18 0 18 -39q0 -28 -14 -31q-19 -4 -118 -136t-204 -292q-48 -71 -135 -196.5 t-115 -167.5q132 0 252.5 12.5t161.5 38.5q37 23 74 80.5t37 89.5q0 14 22 14q43 0 43 -12q0 -6 -8 -102.5t-8 -165.5q0 -17 -5 -22t-20 -5q-152 0 -339.5 -1t-317 -2t-142.5 -1q-12 0 -12 37z" />
<glyph unicode="{" horiz-adv-x="876" d="M57 459q0 43 31 43q59 0 97.5 17t57.5 52t26 75t7 99q0 35 -7 115t-7 137q0 98 22 180.5t72.5 161t140 144.5t216.5 116q15 6 35 -11.5t20 -37.5q0 -17 -18 -26q-81 -34 -139.5 -80t-91 -93.5t-51.5 -109.5t-24.5 -114.5t-5.5 -122.5q0 -63 9.5 -154.5t9.5 -132.5 q0 -50 -6.5 -89t-23 -75t-48 -60.5t-78.5 -35.5q47 -12 79 -37t48.5 -61t23.5 -75t7 -89q0 -45 -9.5 -132t-9.5 -155q0 -85 12.5 -153.5t44.5 -139t95.5 -128.5t157.5 -101q18 -9 18 -27q0 -20 -20 -37.5t-35 -11.5q-104 41 -182.5 93t-129 108.5t-82.5 124.5t-44.5 135 t-12.5 145q0 61 6 135.5t6 112.5q0 59 -7 100t-26 77t-57 53.5t-96 17.5q-31 0 -31 47z" />
<glyph unicode="|" horiz-adv-x="681" d="M262 -594v2107h160v-2107h-160z" />
<glyph unicode="}" horiz-adv-x="876" d="M74 -641q0 18 18 27q81 34 139.5 80t91 93.5t51 109.5t24 114.5t5.5 122.5q0 63 -9 154.5t-9 132.5q0 50 6.5 89t23 75t48 60.5t78.5 35.5q-47 12 -79 37t-48.5 61t-23.5 75t-7 89q0 45 9 131.5t9 154.5q0 85 -12.5 153.5t-44 139t-95 129t-157.5 101.5q-18 9 -18 26 q0 20 20 37.5t35 11.5q104 -41 182.5 -93t129 -108.5t82.5 -124.5t44.5 -135t12.5 -145q0 -61 -6.5 -135.5t-6.5 -112.5q0 -47 4 -81t16 -67t32 -53.5t54 -33t81 -12.5q30 0 30 -47q0 -43 -30 -43q-59 0 -97.5 -17t-58 -52t-26.5 -75.5t-7 -99.5q0 -36 7.5 -116t7.5 -136 q0 -98 -22 -180.5t-72.5 -161t-140 -144.5t-216.5 -116q-15 -6 -35 11.5t-20 37.5z" />
<glyph unicode="~" horiz-adv-x="1028" d="M94 627q0 117 63.5 187.5t159.5 70.5q56 0 107 -18.5t88.5 -45t71 -53t69.5 -45t70 -18.5q66 0 100.5 34t34.5 97q0 22 25 22q37 0 37 -35q0 -129 -57 -201.5t-161 -72.5q-47 0 -95 21.5t-88 52.5t-78 62.5t-79 53t-77 21.5q-60 0 -86.5 -35t-26.5 -107q0 -28 -33 -28 q-45 0 -45 37z" />
<glyph unicode="&#xa1;" horiz-adv-x="864" d="M307 -432q0 58 40 482t40 485q0 26 41 26q39 0 39 -31q0 -59 45 -488.5t45 -477.5q0 -40 -39.5 -65t-89.5 -25q-48 0 -84.5 25t-36.5 69zM309 850q0 46 36 81.5t83 35.5q49 0 84 -35.5t35 -81.5q0 -50 -34.5 -84.5t-84.5 -34.5q-48 0 -83.5 35t-35.5 84z" />
<glyph unicode="&#xa2;" d="M106 729q0 208 131 350.5t326 171.5v265q0 30 49 30q54 0 54 -30v-259q116 -5 198 -53t82 -123q0 -41 -22.5 -63.5t-55.5 -22.5q-29 0 -47 15.5t-28.5 39t-23 47.5t-38.5 44.5t-65 27.5v-821q73 6 133 48t96 104q10 12 23 12q12 0 29.5 -13.5t17.5 -31.5 q-43 -89 -119.5 -144.5t-179.5 -70.5v-264q0 -31 -52 -31q-51 0 -51 31v258q-86 4 -166.5 37.5t-146 92.5t-105 151t-39.5 202zM328 780q0 -187 65.5 -292t169.5 -130v807q-103 -23 -169 -121.5t-66 -263.5z" />
<glyph unicode="&#xa3;" d="M25 68q0 35 30 64t84 46q51 16 75 119t24 254q0 79 -9 143q-13 0 -56 -2t-56 -2q-12 0 -15.5 9t-3.5 38q0 47 13 47q19 0 57 -1t55 -1q-3 20 -9.5 69t-9.5 75t-6 64.5t-3 70.5q0 436 428 436q73 0 132 -19t94.5 -48.5t59 -68t32.5 -74.5t9 -70q0 -57 -31.5 -83t-76.5 -26 q-82 0 -82 88q0 99 -34 148t-126 49q-117 0 -167 -75.5t-50 -262.5q0 -70 2 -154t2 -119q221 13 289 13q12 0 12 -54q0 -51 -18 -51q-81 0 -281 4q-1 -186 -51.5 -330.5t-108.5 -187.5q49 19 109 19q56 0 208 -34t204 -34q66 0 101.5 53t35.5 146q0 26 22 26q51 0 56 -26 q4 -46 4 -72q0 -324 -236 -324q-62 0 -134.5 27t-127.5 59t-118.5 59t-110.5 27q-27 0 -47 -16t-30.5 -35t-30 -35t-46.5 -16t-45 19t-18 49z" />
<glyph unicode="&#xa4;" d="M51 291l148 147q-74 107 -74 234q0 126 74 241l-148 148l103 98l147 -147q103 71 229 71q130 0 230 -71l147 147l103 -102l-148 -148q74 -104 74 -237q0 -127 -76 -232l150 -149l-101 -101l-149 150q-107 -76 -230 -76q-111 0 -227 70l-149 -146zM270 672 q0 -121 67.5 -201t192.5 -80t193 80t68 201q0 122 -68 204t-193 82t-192.5 -81.5t-67.5 -204.5z" />
<glyph unicode="&#xa5;" d="M-4 1421q0 16 5.5 26.5t12.5 10.5q8 0 68 -5t125 -5q54 0 130.5 5t92.5 5t16 -37q0 -39 -14 -39q-42 0 -65 -14t-23 -57q0 -9 1.5 -20t6.5 -26l9 -27t13 -34.5t14.5 -36t19 -44.5t20.5 -48q7 -16 63.5 -149.5t86.5 -196.5q76 195 139 344q61 144 61 209q0 52 -21.5 76 t-74.5 24q-5 0 -9.5 9.5t-4.5 25.5q0 41 16 41q12 0 75.5 -5t106.5 -5q47 0 89.5 2.5t66.5 5t25 2.5q18 0 18 -39q0 -37 -21 -37q-45 0 -82 -33.5t-73 -109.5q-4 -9 -37 -82t-78.5 -175t-85.5 -194h209q16 0 16 -53q0 -51 -16 -51h-254q-13 -34 -33 -80q0 -20 -1 -68t-1 -75 h219q6 0 10.5 -17t4.5 -36q0 -20 -4.5 -36t-10.5 -16h-219v-114q0 -86 31.5 -127t112.5 -41q10 0 10 -35q0 -41 -14 -41q-8 0 -78 3t-138 3t-144 -3t-83 -3q-10 0 -10 37q0 39 10 39q78 0 109.5 36t31.5 126v120h-213q-14 0 -14 52q0 20 4 36.5t10 16.5h213v108 q-28 73 -47 115h-233q-6 0 -11 16t-5 35q0 21 5 37t11 16h188q-67 157 -138.5 306.5t-92.5 185.5q-34 61 -57.5 81.5t-55.5 20.5q-14 0 -14 39z" />
<glyph unicode="&#xa6;" horiz-adv-x="681" d="M262 338h160v-813h-160v813zM262 827v740h160v-740h-160z" />
<glyph unicode="&#xa7;" horiz-adv-x="1308" d="M86 721q0 236 199 393q6 174 124.5 278.5t284.5 104.5q91 0 162 -21.5t110 -56.5t58.5 -73t19.5 -76q0 -39 -25 -65.5t-65 -26.5q-29 0 -48.5 12.5t-30.5 33t-20.5 45.5t-23 49.5t-33.5 45t-57.5 33t-89.5 12.5q-85 0 -148 -60t-63 -165q0 -112 80 -198.5t283 -209.5 q164 -99 232 -156q167 -142 190 -333q4 -33 4 -68q0 -120 -47 -221t-160 -188q-3 -93 -42 -170.5t-100 -126.5t-134.5 -76t-149.5 -27q-91 0 -159 21t-105 56t-54.5 72t-17.5 76t25 66t65 27q34 0 55 -17t29 -42.5t21 -55.5t30 -55.5t57 -42.5t101 -17q39 0 76 12.5t70.5 39 t54 75.5t20.5 113q0 51 -15.5 94.5t-43 82t-81.5 83t-115.5 86t-159.5 102.5q-65 41 -111 74t-97 83t-82.5 101.5t-52 123t-20.5 153.5zM203 807q0 -43 10.5 -83.5t25.5 -73t44 -68t54 -61t68 -59.5t73 -56t81 -58q100 -68 156.5 -108t118 -90t93.5 -87.5t56.5 -82 t34.5 -93.5q86 103 86 230q0 155 -131 286q-38 40 -84 74.5t-114 78t-95 62.5q-207 142 -291 226.5t-100 191.5q-47 -52 -66.5 -105t-19.5 -124z" />
<glyph unicode="&#xa8;" horiz-adv-x="892" d="M164 1264q0 45 30 77.5t72 32.5q43 0 74 -33t31 -77q0 -46 -30.5 -78.5t-74.5 -32.5t-73 32.5t-29 78.5zM522 1264q0 44 32 77t73 33q42 0 72 -32.5t30 -77.5q0 -46 -29 -78.5t-73 -32.5t-74.5 32.5t-30.5 78.5z" />
<glyph unicode="&#xa9;" horiz-adv-x="1759" d="M123 729q0 155 61 297.5t163.5 245.5t244.5 164t297 61q208 0 380 -103.5t269.5 -279.5t97.5 -385q0 -208 -97.5 -383.5t-269.5 -279t-380 -103.5q-155 0 -297 61t-244.5 164t-163.5 244.5t-61 296.5zM244 729q0 -135 50 -259t135 -215t205.5 -145.5t254.5 -54.5 t254 54.5t205 145.5t134.5 215t49.5 259q0 182 -84 336t-232 245t-327 91t-327.5 -91t-233 -245.5t-84.5 -335.5zM434 727q0 211 131.5 351.5t331.5 140.5q89 0 154 -21.5t133 -69.5q21 -16 37 -16q18 0 18 16q0 19 25 19q12 0 22 -6.5t10 -12.5q-4 -23 -4 -77l11 -187 q0 -6 -9 -11t-20 -5q-28 0 -31 16q-11 122 -91.5 203.5t-205.5 81.5q-151 0 -242.5 -110.5t-91.5 -311.5q0 -200 86 -311t224 -111q146 0 231 79t98 232q0 7 11 12t22 5q10 0 18.5 -5.5t8.5 -11.5q-8 -94 -8 -151q0 -60 8 -150q0 -18 -27 -18q-12 0 -22.5 5t-10.5 13 q0 11 -9.5 23t-22.5 12q-11 0 -23 -10q-51 -46 -125.5 -76.5t-157.5 -30.5q-93 0 -178.5 33t-153 94t-107.5 156t-40 211z" />
<glyph unicode="&#xaa;" horiz-adv-x="731" d="M66 899q0 47 19 88t63.5 83t128 79.5t202.5 67.5v81q0 68 -21.5 98.5t-99.5 30.5q-62 0 -94.5 -19t-50.5 -60q-9 -21 -29 -34.5t-39 -13.5q-24 0 -39.5 14.5t-15.5 39.5q0 52 66.5 97.5t208.5 45.5q146 0 203 -46.5t57 -154.5q0 -24 -6.5 -170t-6.5 -233q0 -70 50 -70 q33 0 55 37q4 6 12 6q5 0 15 -9t10 -13q0 -28 -40.5 -63.5t-113.5 -35.5q-50 0 -81.5 30t-35.5 91q-47 -58 -111 -90.5t-128 -32.5q-85 0 -131.5 42t-46.5 114zM221 936q0 -49 26.5 -75.5t69.5 -26.5q41 0 78.5 22.5t83.5 73.5v239q-148 -42 -203 -100t-55 -133z" />
<glyph unicode="&#xab;" horiz-adv-x="1259" d="M88 467q0 33 14 47l574 367q16 0 26.5 -14.5t10.5 -30.5q0 -11 -6 -17l-375 -336l375 -368q6 -6 6 -17q0 -16 -11.5 -30.5t-25.5 -14.5l-574 367q-14 14 -14 47zM543 467q0 33 14 47l573 367q16 0 26.5 -14.5t10.5 -30.5q0 -11 -6 -17l-375 -336l375 -368q6 -6 6 -17 q0 -16 -11.5 -30.5t-25.5 -14.5l-573 367q-14 14 -14 47z" />
<glyph unicode="&#xac;" horiz-adv-x="1062" d="M82 545v117h852v-662h-150v545h-702z" />
<glyph unicode="&#xad;" horiz-adv-x="614" d="M96 555q0 33 6.5 60.5t14.5 27.5h381q20 0 20 -86q0 -36 -5.5 -61t-14.5 -25h-381q-8 0 -14.5 26.5t-6.5 57.5z" />
<glyph unicode="&#xae;" horiz-adv-x="886" d="M61 1108q0 161 111.5 275t271.5 114q162 0 271.5 -113.5t109.5 -275.5t-109.5 -275.5t-271.5 -113.5q-160 0 -271.5 114t-111.5 275zM133 1108q0 -142 84.5 -235t220.5 -93q145 0 238 90q-9 0 -34.5 -1t-39.5 -1q-27 0 -110 107q-84 112 -99 112h-31q0 -6 -1 -65t-1 -76 q0 -32 11 -42.5t39 -10.5q5 0 6 -12.5t-6 -12.5q-17 0 -46.5 1t-44.5 1q-14 0 -39 -1t-34 -1q-7 0 -6 12.5t6 12.5q25 0 31 14t6 54v305q0 23 -1.5 32.5t-11 16t-30.5 6.5q-5 0 -5.5 6.5t2 13.5t5.5 7q11 0 42 -2.5t46 -2.5t51.5 1.5t48.5 1.5q88 0 129 -37t41 -95 q0 -39 -33.5 -72.5t-89.5 -39.5q18 -16 94 -101q9 -10 22 -25t18.5 -21.5t14.5 -16t13 -13.5t10.5 -9.5t10.5 -7t10.5 -4.5t12 -3.5t13.5 -1.5q58 94 58 209q0 141 -88.5 234.5t-227.5 93.5q-136 0 -220.5 -93t-84.5 -235zM362 1124h39q58 0 82.5 20t24.5 66q0 95 -94 95 q-15 0 -26 -0.5t-16.5 -1t-6.5 -0.5q-3 -47 -3 -179z" />
<glyph unicode="&#xaf;" horiz-adv-x="1062" d="M272 1161v115h488v-115h-488z" />
<glyph unicode="&#xb0;" horiz-adv-x="872" d="M98 1114q0 158 97 267.5t241 109.5q160 0 251 -105.5t91 -271.5q0 -157 -92 -264t-250 -107q-144 0 -241 107.5t-97 263.5zM289 1112q0 -137 47 -212t127 -75q96 0 152.5 82.5t56.5 204.5q0 128 -56 209.5t-149 81.5q-86 0 -132 -73.5t-46 -217.5z" />
<glyph unicode="&#xb1;" horiz-adv-x="1054" d="M102 0v117h852v-117h-852zM102 600v117h369v368h117v-368h366v-117h-366v-364h-117v364h-369z" />
<glyph unicode="&#xb2;" horiz-adv-x="772" d="M55 911q0 8 17 25q32 27 90 75q175 147 233 209q100 108 121 224q8 42 8 90q0 96 -33.5 141t-113.5 45q-78 0 -118 -41t-40 -104q0 -98 64 -123q6 0 6 -8q0 -16 -24 -32.5t-60 -16.5q-53 0 -89 40.5t-36 98.5q0 110 86 187t223 77q138 0 217.5 -68t79.5 -192 q0 -57 -16 -109t-50.5 -100.5t-69.5 -87t-94 -84t-100.5 -74.5t-111.5 -75q74 4 325 4q33 0 57.5 28.5t24.5 65.5q0 14 27 14t27 -10q0 -18 -18 -105t-19 -96q-3 -24 -29 -24h-563q-21 0 -21 26z" />
<glyph unicode="&#xb3;" horiz-adv-x="772" d="M82 1026q0 76 80 76q28 0 44.5 -17t18.5 -45q7 -106 115 -106q172 0 172 188q0 95 -35.5 140t-118.5 45q-32 0 -55.5 -10.5t-35 -22.5t-26.5 -22.5t-32 -10.5q-19 0 -30 15.5t-11 35.5q0 39 49 54q39 12 49.5 15.5t44 15t43 17t35 19t34 23.5t24 27t21 34.5t10.5 41 t5 50.5q0 70 -29 105t-92 35q-68 0 -105.5 -41.5t-37.5 -88.5t23 -86q4 -4 4 -10q0 -20 -43 -20q-48 0 -77.5 28t-29.5 80q0 38 17 73.5t50.5 66t91.5 49t132 18.5q122 0 190 -50.5t68 -143.5q0 -79 -66.5 -137.5t-191.5 -104.5q138 7 214.5 -59.5t76.5 -176.5 q0 -122 -96 -195t-256 -73q-112 0 -178 46.5t-66 121.5z" />
<glyph unicode="&#xb4;" horiz-adv-x="753" d="M164 1102q0 5 6 14l248 389q3 7 32.5 14t61.5 7t55 -10.5t23 -30.5q0 -14 -19 -39l-344 -367q-12 -12 -22 -12q-13 0 -27 10.5t-14 24.5z" />
<glyph unicode="&#xb6;" horiz-adv-x="1261" d="M74 985q0 223 131.5 346t392.5 123q113 0 234.5 -3t177.5 -3q30 0 38.5 -9t8.5 -42v-1227q0 -55 24 -75.5t103 -20.5q12 0 12 -33q0 -43 -16 -43q-19 0 -75.5 4t-107.5 4q-44 0 -73.5 -4t-51.5 -4q-12 0 -12 41q0 13 5.5 24t11.5 11q46 0 57.5 21t11.5 77v1171h-256 v-1173q0 -56 14 -76t64 -20q12 0 12 -33q0 -43 -16 -43q-22 0 -58.5 4t-74.5 4q-53 0 -99 -4t-79 -4q-13 0 -13 41q0 13 5.5 24t11.5 11q45 0 71 5t37 20.5t13 28.5t2 44v385q-98 -4 -129 -4q-175 0 -276 120.5t-101 311.5z" />
<glyph unicode="&#xb7;" horiz-adv-x="616" d="M166 514q0 57 42.5 100t100.5 43q57 0 100.5 -43t43.5 -100t-43.5 -99t-100.5 -42q-58 0 -100.5 42t-42.5 99z" />
<glyph unicode="&#xb8;" horiz-adv-x="878" d="M209 -473q0 16 11 29.5t26 13.5q12 0 18 -12q47 -58 121 -58q66 0 105.5 39.5t39.5 112.5q0 69 -33.5 104t-76.5 35q-24 0 -40 -9t-22.5 -20.5t-16.5 -20.5t-24 -9q-22 0 -38.5 13t-16.5 34q0 18 21 39q4 4 18.5 16.5t24.5 22.5q43 43 94 159h94q-57 -96 -108 -149h20 q97 0 171.5 -53.5t74.5 -159.5q0 -61 -25.5 -109t-66 -76t-87.5 -42.5t-94 -14.5q-124 0 -182 90q-8 12 -8 25z" />
<glyph unicode="&#xb9;" horiz-adv-x="772" d="M98 1606q0 16 11 20q63 23 166.5 75t150.5 89q10 8 23 8q9 0 20.5 -5t11.5 -9q0 -55 -2 -331.5t-2 -426.5q0 -48 24.5 -62t112.5 -14q7 0 7 -37q0 -32 -9 -32q-23 0 -105 2t-114 2q-28 0 -119.5 -2t-97.5 -2t-6 32q0 7 1 15.5t2.5 15t2.5 6.5q94 0 120 13.5t26 62.5v537 q0 37 -4.5 47t-22.5 10q-14 0 -37 -10q-9 -4 -45.5 -20t-65 -28t-32.5 -12q-7 0 -12 17t-5 39z" />
<glyph unicode="&#xba;" horiz-adv-x="894" d="M59 1120q0 158 113.5 267.5t273.5 109.5q162 0 276 -109t114 -268q0 -157 -114.5 -270t-275.5 -113q-158 0 -272.5 113t-114.5 270zM225 1120q0 -155 58.5 -237t162.5 -82q105 0 164.5 83.5t59.5 235.5q0 145 -60 230.5t-164 85.5q-106 0 -163.5 -80.5t-57.5 -235.5z" />
<glyph unicode="&#xbb;" horiz-adv-x="1259" d="M86 98q0 11 6 17l375 336l-375 368q-6 6 -6 17q0 16 11.5 30.5t25.5 14.5l573 -367q15 -15 15 -47t-15 -47l-573 -367q-16 0 -26.5 14.5t-10.5 30.5zM541 98q0 11 6 17l375 336l-375 368q-6 6 -6 17q0 16 11.5 30.5t25.5 14.5l573 -367q14 -14 14 -47t-14 -47l-573 -367 q-16 0 -26.5 14.5t-10.5 30.5z" />
<glyph unicode="&#xbc;" horiz-adv-x="1769" d="M98 1339q0 17 11 21q63 23 166.5 75t150.5 89q10 8 23 8q9 0 20.5 -5t11.5 -9q0 -55 -2 -331.5t-2 -426.5q0 -48 24.5 -62t112.5 -14q7 0 7 -37q0 -33 -9 -33q-23 0 -105 2t-114 2q-28 0 -119.5 -2t-97.5 -2t-6 33q0 7 1 15.5t2.5 15t2.5 6.5q94 0 120 13.5t26 62.5v536 q0 37 -4.5 47.5t-22.5 10.5q-11 0 -37 -11q-7 -3 -45 -19.5t-66 -28t-32 -11.5q-7 0 -12 16.5t-5 38.5zM328 6l977 1438q13 18 43 18q28 0 51.5 -11.5t13.5 -25.5l-977 -1437q-13 -19 -45 -19q-27 0 -50 11.5t-13 25.5zM909 281q0 13 9 28q18 23 206 293.5t195 288.5 q3 14 43 14q68 0 68 -20q0 -7 -1 -85t-2.5 -203t-1.5 -247h170q11 0 11 -55q0 -41 -11 -41h-170v-123q0 -38 24 -51.5t77 -13.5q8 0 8 -29q0 -43 -8 -43q-21 0 -81 3t-91 3q-24 0 -86 -3t-86 -3q-3 0 -5.5 14.5t-2.5 24.5q0 33 6 33q56 0 81 12t25 51v125h-358q-8 0 -13.5 9 t-5.5 18zM1047 350h239v361q-174 -256 -239 -361z" />
<glyph unicode="&#xbd;" horiz-adv-x="1769" d="M98 1339q0 17 11 21q63 23 166.5 75t150.5 89q10 8 23 8q9 0 20.5 -5t11.5 -9q0 -55 -2 -331.5t-2 -426.5q0 -48 24.5 -62t112.5 -14q7 0 7 -37q0 -33 -9 -33q-23 0 -105 2t-114 2q-28 0 -119.5 -2t-97.5 -2t-6 33q0 7 1 15.5t2.5 15t2.5 6.5q94 0 120 13.5t26 62.5v536 q0 37 -4.5 47.5t-22.5 10.5q-11 0 -37 -11q-7 -3 -45 -19.5t-66 -28t-32 -11.5q-7 0 -12 16.5t-5 38.5zM328 6l977 1438q13 18 43 18q28 0 51.5 -11.5t13.5 -25.5l-977 -1437q-13 -19 -45 -19q-27 0 -50 11.5t-13 25.5zM1008 27q0 8 16 24q32 27 87 73t79.5 67t66.5 58 t60.5 56t48 51t42 53.5t29.5 52t23.5 57.5t11.5 60t5 70q0 96 -34 141.5t-114 45.5q-78 0 -118 -41.5t-40 -104.5q0 -98 64 -123q6 0 6 -8q0 -16 -24 -32.5t-60 -16.5q-53 0 -89 40.5t-36 98.5q0 110 86 187t223 77q138 0 217.5 -68t79.5 -192q0 -57 -16 -109t-50.5 -100.5 t-69.5 -87t-94 -84t-100.5 -74.5t-111.5 -75q74 4 326 4q33 0 57.5 28.5t24.5 65.5q0 15 26 15q27 0 27 -11q0 -18 -18 -104.5t-19 -95.5q-3 -25 -29 -25h-563q-20 0 -20 27z" />
<glyph unicode="&#xbe;" horiz-adv-x="1769" d="M129 760q0 76 80 76q27 0 44 -17t19 -45q7 -106 115 -106q172 0 172 188q0 95 -35 139.5t-118 44.5q-32 0 -56 -10t-35.5 -22.5t-26.5 -22.5t-32 -10q-19 0 -30 15.5t-11 35.5q0 38 49 53h1l1 1h1h1l1 1h1h1l2 1q127 39 172 69q85 56 85 172q0 70 -28.5 104.5t-91.5 34.5 q-69 0 -106.5 -41t-37.5 -88t23 -86q4 -4 4 -10q0 -20 -43 -20q-48 0 -77.5 28t-29.5 80q0 38 17 73.5t50.5 66t91.5 49t132 18.5q122 0 190 -51t68 -144q0 -79 -66.5 -137t-191.5 -104q138 7 214.5 -59.5t76.5 -176.5q0 -122 -96 -195t-256 -73q-112 0 -178 46.5t-66 121.5 zM375 6l977 1438q13 18 43 18q28 0 51.5 -11.5t13.5 -25.5l-977 -1437q-13 -19 -45 -19q-27 0 -50 11.5t-13 25.5zM963 281q0 15 8 28q18 23 206 293.5t195 288.5q3 14 43 14q68 0 68 -20q0 -7 -1 -85t-2 -203t-1 -247h170q10 0 10 -55q0 -41 -10 -41h-170v-123 q0 -38 23.5 -51.5t76.5 -13.5q8 0 8 -29q0 -43 -8 -43q-21 0 -81 3t-91 3q-25 0 -86 -3t-86 -3q-3 0 -5.5 14.5t-2.5 24.5q0 33 6 33q56 0 81 12t25 51v125h-358q-8 0 -13 9t-5 18zM1100 350h239v361q-174 -256 -239 -361z" />
<glyph unicode="&#xbf;" horiz-adv-x="999" d="M49 -123q0 78 25 150t72.5 131t125 94t174.5 35q91 0 144 -33q-21 119 -21 258q0 21 8.5 27t36.5 6q27 0 36 -5.5t9 -23.5q0 -83 7.5 -186.5t15.5 -177t8 -82.5q0 -41 -43 -41q-16 0 -27 11t-14 22.5t-7 32.5t-5 26q-6 36 -37 57t-80 21q-108 0 -163.5 -91t-55.5 -223 q0 -63 14.5 -117.5t43.5 -99.5t80 -71.5t118 -26.5q81 0 116 32.5t46 86.5q13 67 88 67q82 0 82 -80q0 -90 -102 -144t-257 -54q-90 0 -164 22.5t-124 60t-84.5 89t-50 108.5t-15.5 119zM489 856q0 46 36.5 81.5t82.5 35.5q49 0 83 -35t34 -82q0 -50 -34 -84.5t-83 -34.5 q-47 0 -83 35t-36 84z" />
<glyph unicode="&#xc0;" horiz-adv-x="1466" d="M-35 33q0 39 19 39q52 0 90.5 37t83.5 118q31 55 274 616.5t250 602.5q6 24 17 33.5t32 9.5t29 -7.5t16 -29.5q49 -140 271 -669.5t274 -606.5q38 -58 73.5 -81t92.5 -23q16 0 16 -35q0 -41 -20 -41q-11 0 -107 4t-192 4q-94 0 -199.5 -4t-116.5 -4q-14 0 -14 37 q0 39 14 39q107 0 146 23.5t39 82.5q0 29 -13 58q-37 96 -127 313q-129 -6 -247 -6q-177 0 -265 8q-11 -28 -44 -106t-46 -113q-41 -96 -41 -156q0 -56 32.5 -80t94.5 -24q17 0 17 -35q0 -41 -21 -41q-17 0 -81 4t-130 4q-72 0 -135 -4t-67 -4q-15 0 -15 37zM406 1868 q0 15 25 24t63 9q89 0 104 -15l266 -309q13 -13 13 -21t-14.5 -16t-31.5 -8q-8 0 -18 10l-383 295q-24 21 -24 31zM430 633q122 4 232 4q45 0 117.5 -2t94.5 -2q-47 114 -123 302.5t-89 219.5q-83 -166 -232 -522z" />
<glyph unicode="&#xc1;" horiz-adv-x="1466" d="M-35 33q0 39 19 39q52 0 90.5 37t83.5 118q31 55 274 616.5t250 602.5q6 24 17 33.5t32 9.5t29 -7.5t16 -29.5q49 -140 271 -669.5t274 -606.5q38 -58 73.5 -81t92.5 -23q16 0 16 -35q0 -41 -20 -41q-11 0 -107 4t-192 4q-94 0 -199.5 -4t-116.5 -4q-14 0 -14 37 q0 39 14 39q107 0 146 23.5t39 82.5q0 29 -13 58q-37 96 -127 313q-129 -6 -247 -6q-177 0 -265 8q-11 -28 -44 -106t-46 -113q-41 -96 -41 -156q0 -56 32.5 -80t94.5 -24q17 0 17 -35q0 -41 -21 -41q-17 0 -81 4t-130 4q-72 0 -135 -4t-67 -4q-15 0 -15 37zM430 633 q122 4 232 4q45 0 117.5 -2t94.5 -2q-47 114 -123 302.5t-89 219.5q-83 -166 -232 -522zM573 1556q0 8 13 21l266 309q15 15 104 15q38 0 63 -9t25 -24q0 -10 -24 -31l-383 -295q-10 -10 -19 -10q-17 0 -31 8t-14 16z" />
<glyph unicode="&#xc2;" horiz-adv-x="1466" d="M-35 33q0 39 19 39q52 0 90.5 37t83.5 118q31 55 274 616.5t250 602.5q6 24 17 33.5t32 9.5t29 -7.5t16 -29.5q49 -140 271 -669.5t274 -606.5q38 -58 73.5 -81t92.5 -23q16 0 16 -35q0 -41 -20 -41q-11 0 -107 4t-192 4q-94 0 -199.5 -4t-116.5 -4q-14 0 -14 37 q0 39 14 39q107 0 146 23.5t39 82.5q0 29 -13 58q-37 96 -127 313q-129 -6 -247 -6q-177 0 -265 8q-11 -28 -44 -106t-46 -113q-41 -96 -41 -156q0 -56 32.5 -80t94.5 -24q17 0 17 -35q0 -41 -21 -41q-17 0 -81 4t-130 4q-72 0 -135 -4t-67 -4q-15 0 -15 37zM418 1587 l254 311q14 17 57 17q34 0 51 -17l246 -311q0 -39 -35 -39q-18 0 -26 8l-250 207l-234 -207q-15 -10 -26 -10q-15 0 -26 10.5t-11 30.5zM430 633q122 4 232 4q45 0 117.5 -2t94.5 -2q-47 114 -123 302.5t-89 219.5q-83 -166 -232 -522z" />
<glyph unicode="&#xc3;" horiz-adv-x="1466" d="M-35 33q0 39 19 39q52 0 90.5 37t83.5 118q31 55 274 616.5t250 602.5q6 24 17 33.5t32 9.5t29 -7.5t16 -29.5q49 -140 271 -669.5t274 -606.5q38 -58 73.5 -81t92.5 -23q16 0 16 -35q0 -41 -20 -41q-11 0 -107 4t-192 4q-94 0 -199.5 -4t-116.5 -4q-14 0 -14 37 q0 39 14 39q107 0 146 23.5t39 82.5q0 29 -13 58q-37 96 -127 313q-129 -6 -247 -6q-177 0 -265 8q-11 -28 -44 -106t-46 -113q-41 -96 -41 -156q0 -56 32.5 -80t94.5 -24q17 0 17 -35q0 -41 -21 -41q-17 0 -81 4t-130 4q-72 0 -135 -4t-67 -4q-15 0 -15 37zM414 1614 q0 90 60 139t140 49q42 0 84 -16t70 -36t63.5 -36t65.5 -16q88 0 88 82q0 20 27 20q12 0 21 -9t9 -28q0 -92 -51.5 -145t-124.5 -53q-35 0 -78.5 21t-77.5 46.5t-73 46.5t-66 21q-39 0 -60.5 -26.5t-21.5 -67.5q0 -14 -8.5 -22.5t-21.5 -8.5q-21 0 -33 10.5t-12 28.5z M430 633q122 4 232 4q45 0 117.5 -2t94.5 -2q-47 114 -123 302.5t-89 219.5q-83 -166 -232 -522z" />
<glyph unicode="&#xc4;" horiz-adv-x="1466" d="M-35 33q0 39 19 39q52 0 90.5 37t83.5 118q31 55 274 616.5t250 602.5q6 24 17 33.5t32 9.5t29 -7.5t16 -29.5q49 -140 271 -669.5t274 -606.5q38 -58 73.5 -81t92.5 -23q16 0 16 -35q0 -41 -20 -41q-11 0 -107 4t-192 4q-94 0 -199.5 -4t-116.5 -4q-14 0 -14 37 q0 39 14 39q107 0 146 23.5t39 82.5q0 29 -13 58q-37 96 -127 313q-129 -6 -247 -6q-177 0 -265 8q-11 -28 -44 -106t-46 -113q-41 -96 -41 -156q0 -56 32.5 -80t94.5 -24q17 0 17 -35q0 -41 -21 -41q-17 0 -81 4t-130 4q-72 0 -135 -4t-67 -4q-15 0 -15 37zM426 1663 q0 42 30 72t72 30q47 0 78 -29.5t31 -72.5q0 -41 -31.5 -70.5t-77.5 -29.5q-41 0 -71.5 30t-30.5 70zM430 633q122 4 232 4q45 0 117.5 -2t94.5 -2q-47 114 -123 302.5t-89 219.5q-83 -166 -232 -522zM836 1663q0 43 29.5 72.5t72.5 29.5q42 0 72 -30t30 -72 q0 -40 -30.5 -70t-71.5 -30q-42 0 -72 30t-30 70z" />
<glyph unicode="&#xc5;" horiz-adv-x="1466" d="M-35 33q0 39 19 39q52 0 90.5 37t83.5 118q31 55 274 616.5t250 602.5q6 29 25 39q-87 5 -145 64t-58 149q0 102 60.5 162.5t158.5 60.5t158.5 -62t60.5 -161q0 -88 -53 -146t-137 -67q11 -4 24 -33q49 -140 271 -669.5t274 -606.5q38 -58 73.5 -81t92.5 -23q16 0 16 -35 q0 -41 -20 -41q-11 0 -107 4t-192 4q-94 0 -199.5 -4t-116.5 -4q-14 0 -14 37q0 39 14 39q107 0 146 23.5t39 82.5q0 29 -13 58q-37 96 -127 313q-129 -6 -247 -6q-177 0 -265 8q-11 -28 -44 -106t-46 -113q-41 -96 -41 -156q0 -56 32.5 -80t94.5 -24q17 0 17 -35 q0 -41 -21 -41q-17 0 -81 4t-130 4q-72 0 -135 -4t-67 -4q-15 0 -15 37zM430 633q122 4 232 4q45 0 117.5 -2t94.5 -2q-47 114 -123 302.5t-89 219.5q-83 -166 -232 -522zM600 1696q0 -55 34.5 -89t88.5 -34q55 0 89 34.5t34 88.5q0 55 -33.5 90t-89.5 35q-54 0 -88.5 -35 t-34.5 -90z" />
<glyph unicode="&#xc6;" horiz-adv-x="2142" d="M-178 37q0 37 14 37q45 0 101 33.5t143 121.5q76 76 418.5 451.5t484.5 550.5q21 24 41 63q-18 45 -63.5 66.5t-131.5 21.5q-14 0 -14 35q0 41 19 41q11 0 115 -5t200 -5q83 0 259 2.5t321.5 5t154.5 2.5q22 0 28.5 -8t6.5 -31q0 -72 7 -176.5t7 -126.5q0 -20 -43 -20 q-37 0 -39 16q-26 136 -103 199t-235 63q-119 0 -245 -14q0 -322 -17 -547q86 0 145.5 10t92.5 26t51 45t22.5 56t4.5 70q0 19 7.5 24t35.5 5q25 0 33 -6t8 -25q0 -4 -2.5 -28.5t-5.5 -80.5t-3 -135q0 -68 3 -122.5t5.5 -84t2.5 -37.5q0 -16 -8.5 -22t-32.5 -6 q-28 0 -35.5 6t-7.5 22q0 45 -6.5 75.5t-25.5 58t-53.5 42.5t-91.5 24t-139 9q2 -86 2 -272q0 -68 -2 -143t-2 -99q0 -31 5 -52.5t19 -41t40 -31t68 -18t102 -6.5q103 0 177 13t123.5 37t80.5 65t46 90t21 118q3 29 39 29q28 0 36.5 -4.5t8.5 -17.5q0 -22 -5 -150t-5 -236 q0 -17 -6.5 -21.5t-24.5 -4.5q-66 0 -404.5 5t-420.5 5q-94 0 -199 -3t-116 -3q-15 0 -15 37q0 39 15 39q110 0 155 36t45 126v309q-112 -6 -290 -3t-248 9q-283 -335 -299 -377q-9 -21 -9 -35q0 -67 125 -67q19 0 19 -39q0 -17 -7 -27t-18 -10q-21 0 -118 4t-162 4 q-53 0 -117 -3t-70 -3q-18 0 -18 39zM561 631q6 0 151.5 3.5t177 3t144.5 -4.5v528q-160 -184 -473 -530z" />
<glyph unicode="&#xc7;" horiz-adv-x="1581" d="M98 735q0 219 97 393t271 271.5t394 97.5q140 0 256 -39t193 -108q23 -23 41 -23q22 0 40.5 22.5t18.5 41.5q0 16 7 20t30 4q20 0 28.5 -5.5t8.5 -18.5q0 -9 -5 -86.5t-5 -135.5q0 -53 2.5 -102.5t5 -78.5t2.5 -34q0 -14 -7.5 -18t-29.5 -4q-23 0 -30 4t-7 18 q-13 127 -76.5 226.5t-183 161t-279.5 61.5q-111 0 -205.5 -42.5t-166.5 -124.5t-113 -214.5t-41 -302.5q0 -305 149.5 -481.5t385.5 -176.5q134 0 250 61t189.5 166.5t86.5 231.5q1 15 8.5 19t30.5 4t30 -5.5t7 -17.5q0 -6 -4.5 -55t-9.5 -118t-5 -122q0 -35 2 -75t2 -56 q0 -22 -39 -22q-21 0 -29.5 4.5t-8.5 17.5q0 53 -31 53q-19 0 -60 -28q-178 -132 -383 -148q-52 -75 -79 -104h20q97 0 171.5 -53.5t74.5 -159.5q0 -61 -25.5 -109t-66 -76t-87.5 -42.5t-94 -14.5q-124 0 -182 90q-8 12 -8 25q0 16 11 29.5t26 13.5q12 0 18 -12 q47 -58 121 -58q66 0 106 39.5t40 112.5q0 69 -34 104t-77 35q-24 0 -40 -9t-22 -20.5t-16 -20.5t-24 -9q-22 0 -39 13t-17 34q0 18 21 39q4 4 18.5 16.5t24.5 22.5q29 32 71 110q-211 3 -377.5 101.5t-259 273t-92.5 393.5z" />
<glyph unicode="&#xc8;" horiz-adv-x="1454" d="M127 1417q0 41 18 41q11 0 115.5 -5t200.5 -5q83 0 259 2.5t321.5 5t154.5 2.5q22 0 28.5 -8t6.5 -31q0 -72 7 -176.5t7 -126.5q0 -20 -43 -20q-37 0 -39 16q-26 136 -103 199t-235 63q-119 0 -245 -14q0 -322 -17 -547q86 0 145.5 10t92.5 26t51 45t22.5 56t4.5 70 q0 19 7.5 24t35.5 5q25 0 33 -6t8 -25q0 -4 -2.5 -28.5t-5.5 -80.5t-3 -135q0 -68 3 -122.5t5.5 -84t2.5 -37.5q0 -16 -8.5 -22t-32.5 -6q-28 0 -35.5 6t-7.5 22q0 45 -6.5 75.5t-25.5 58t-53.5 42.5t-91.5 24t-139 9q2 -86 2 -272q0 -68 -2 -143t-2 -99q0 -31 5 -52.5 t19 -41t40 -31t68 -18t102 -6.5q103 0 177 13t123.5 37t80.5 65t46 90t21 118q3 29 39 29q28 0 36.5 -4.5t8.5 -17.5q0 -22 -5 -150t-5 -236q0 -17 -6.5 -21.5t-24.5 -4.5q-66 0 -404.5 5t-420.5 5q-94 0 -199.5 -3t-116.5 -3q-14 0 -14 37q0 39 14 39q110 0 155.5 36 t45.5 126v987q0 83 -45 121t-160 38q-14 0 -14 35zM455 1868q0 15 25 24t63 9q89 0 104 -15l266 -309q13 -13 13 -21t-14 -16t-31 -8q-9 0 -19 10l-383 295q-24 21 -24 31z" />
<glyph unicode="&#xc9;" horiz-adv-x="1454" d="M127 1417q0 41 18 41q11 0 115.5 -5t200.5 -5q83 0 259 2.5t321.5 5t154.5 2.5q22 0 28.5 -8t6.5 -31q0 -72 7 -176.5t7 -126.5q0 -20 -43 -20q-37 0 -39 16q-26 136 -103 199t-235 63q-119 0 -245 -14q0 -322 -17 -547q86 0 145.5 10t92.5 26t51 45t22.5 56t4.5 70 q0 19 7.5 24t35.5 5q25 0 33 -6t8 -25q0 -4 -2.5 -28.5t-5.5 -80.5t-3 -135q0 -68 3 -122.5t5.5 -84t2.5 -37.5q0 -16 -8.5 -22t-32.5 -6q-28 0 -35.5 6t-7.5 22q0 45 -6.5 75.5t-25.5 58t-53.5 42.5t-91.5 24t-139 9q2 -86 2 -272q0 -68 -2 -143t-2 -99q0 -31 5 -52.5 t19 -41t40 -31t68 -18t102 -6.5q103 0 177 13t123.5 37t80.5 65t46 90t21 118q3 29 39 29q28 0 36.5 -4.5t8.5 -17.5q0 -22 -5 -150t-5 -236q0 -17 -6.5 -21.5t-24.5 -4.5q-66 0 -404.5 5t-420.5 5q-94 0 -199.5 -3t-116.5 -3q-14 0 -14 37q0 39 14 39q110 0 155.5 36 t45.5 126v987q0 83 -45 121t-160 38q-14 0 -14 35zM588 1556q0 9 12 21l266 309q15 15 105 15q38 0 63 -9t25 -24q0 -9 -25 -31l-383 -295q-10 -10 -18 -10q-17 0 -31 8t-14 16z" />
<glyph unicode="&#xca;" horiz-adv-x="1454" d="M127 1417q0 41 18 41q11 0 115.5 -5t200.5 -5q83 0 259 2.5t321.5 5t154.5 2.5q22 0 28.5 -8t6.5 -31q0 -72 7 -176.5t7 -126.5q0 -20 -43 -20q-37 0 -39 16q-26 136 -103 199t-235 63q-119 0 -245 -14q0 -322 -17 -547q86 0 145.5 10t92.5 26t51 45t22.5 56t4.5 70 q0 19 7.5 24t35.5 5q25 0 33 -6t8 -25q0 -4 -2.5 -28.5t-5.5 -80.5t-3 -135q0 -68 3 -122.5t5.5 -84t2.5 -37.5q0 -16 -8.5 -22t-32.5 -6q-28 0 -35.5 6t-7.5 22q0 45 -6.5 75.5t-25.5 58t-53.5 42.5t-91.5 24t-139 9q2 -86 2 -272q0 -68 -2 -143t-2 -99q0 -31 5 -52.5 t19 -41t40 -31t68 -18t102 -6.5q103 0 177 13t123.5 37t80.5 65t46 90t21 118q3 29 39 29q28 0 36.5 -4.5t8.5 -17.5q0 -22 -5 -150t-5 -236q0 -17 -6.5 -21.5t-24.5 -4.5q-66 0 -404.5 5t-420.5 5q-94 0 -199.5 -3t-116.5 -3q-14 0 -14 37q0 39 14 39q110 0 155.5 36 t45.5 126v987q0 83 -45 121t-160 38q-14 0 -14 35zM455 1587l254 311q14 17 57 17q34 0 51 -17l246 -311q0 -39 -35 -39q-19 0 -27 8l-249 207l-234 -207q-15 -10 -26 -10q-15 0 -26 10.5t-11 30.5z" />
<glyph unicode="&#xcb;" horiz-adv-x="1454" d="M127 1417q0 41 18 41q11 0 115.5 -5t200.5 -5q83 0 259 2.5t321.5 5t154.5 2.5q22 0 28.5 -8t6.5 -31q0 -72 7 -176.5t7 -126.5q0 -20 -43 -20q-37 0 -39 16q-26 136 -103 199t-235 63q-119 0 -245 -14q0 -322 -17 -547q86 0 145.5 10t92.5 26t51 45t22.5 56t4.5 70 q0 19 7.5 24t35.5 5q25 0 33 -6t8 -25q0 -4 -2.5 -28.5t-5.5 -80.5t-3 -135q0 -68 3 -122.5t5.5 -84t2.5 -37.5q0 -16 -8.5 -22t-32.5 -6q-28 0 -35.5 6t-7.5 22q0 45 -6.5 75.5t-25.5 58t-53.5 42.5t-91.5 24t-139 9q2 -86 2 -272q0 -68 -2 -143t-2 -99q0 -31 5 -52.5 t19 -41t40 -31t68 -18t102 -6.5q103 0 177 13t123.5 37t80.5 65t46 90t21 118q3 29 39 29q28 0 36.5 -4.5t8.5 -17.5q0 -22 -5 -150t-5 -236q0 -17 -6.5 -21.5t-24.5 -4.5q-66 0 -404.5 5t-420.5 5q-94 0 -199.5 -3t-116.5 -3q-14 0 -14 37q0 39 14 39q110 0 155.5 36 t45.5 126v987q0 83 -45 121t-160 38q-14 0 -14 35zM442 1663q0 42 30.5 72t72.5 30q47 0 77.5 -29.5t30.5 -72.5q0 -41 -31 -70.5t-77 -29.5q-41 0 -72 30t-31 70zM852 1663q0 43 29.5 72.5t72.5 29.5q42 0 72.5 -30t30.5 -72q0 -40 -31 -70t-72 -30q-42 0 -72 30t-30 70z " />
<glyph unicode="&#xcc;" horiz-adv-x="915" d="M127 1417q0 41 18 41q11 0 115.5 -5t200.5 -5q90 0 194.5 5t118.5 5q17 0 17 -39q0 -37 -17 -37q-111 0 -155 -44t-44 -124q0 -34 -6 -379t-6 -593q0 -86 44 -127t157 -41q16 0 16 -37q0 -39 -20 -39q-11 0 -107 3t-192 3q-94 0 -199.5 -3t-116.5 -3q-14 0 -14 37 q0 39 14 39q110 0 155.5 36t45.5 126v987q0 83 -45 121t-160 38q-14 0 -14 35zM168 1868q0 15 25 24t63 9q89 0 104 -15l267 -309q12 -12 12 -21q0 -8 -14 -16t-31 -8q-9 0 -19 10l-382 295q-25 22 -25 31z" />
<glyph unicode="&#xcd;" horiz-adv-x="915" d="M127 1417q0 41 18 41q11 0 115.5 -5t200.5 -5q90 0 194.5 5t118.5 5q17 0 17 -39q0 -37 -17 -37q-111 0 -155 -44t-44 -124q0 -34 -6 -379t-6 -593q0 -86 44 -127t157 -41q16 0 16 -37q0 -39 -20 -39q-11 0 -107 3t-192 3q-94 0 -199.5 -3t-116.5 -3q-14 0 -14 37 q0 39 14 39q110 0 155.5 36t45.5 126v987q0 83 -45 121t-160 38q-14 0 -14 35zM274 1556q0 8 13 21l266 309q15 15 104 15q38 0 63 -9t25 -24q0 -10 -24 -31l-383 -295q-10 -10 -19 -10q-17 0 -31 8t-14 16z" />
<glyph unicode="&#xce;" horiz-adv-x="915" d="M127 1417q0 41 18 41q11 0 115.5 -5t200.5 -5q90 0 194.5 5t118.5 5q17 0 17 -39q0 -37 -17 -37q-111 0 -155 -44t-44 -124q0 -34 -6 -379t-6 -593q0 -86 44 -127t157 -41q16 0 16 -37q0 -39 -20 -39q-11 0 -107 3t-192 3q-94 0 -199.5 -3t-116.5 -3q-14 0 -14 37 q0 39 14 39q110 0 155.5 36t45.5 126v987q0 83 -45 121t-160 38q-14 0 -14 35zM150 1587l253 311q14 17 58 17q34 0 51 -17l246 -311q0 -39 -35 -39q-19 0 -27 8l-250 207l-233 -207q-15 -10 -27 -10q-15 0 -25.5 10.5t-10.5 30.5z" />
<glyph unicode="&#xcf;" horiz-adv-x="915" d="M127 1417q0 41 18 41q11 0 115.5 -5t200.5 -5q90 0 194.5 5t118.5 5q17 0 17 -39q0 -37 -17 -37q-111 0 -155 -44t-44 -124q0 -34 -6 -379t-6 -593q0 -86 44 -127t157 -41q16 0 16 -37q0 -39 -20 -39q-11 0 -107 3t-192 3q-94 0 -199.5 -3t-116.5 -3q-14 0 -14 37 q0 39 14 39q110 0 155.5 36t45.5 126v987q0 83 -45 121t-160 38q-14 0 -14 35zM150 1663q0 42 30 72t72 30q47 0 77.5 -29.5t30.5 -72.5q0 -41 -31 -70.5t-77 -29.5q-41 0 -71.5 30t-30.5 70zM559 1663q0 43 30 72.5t73 29.5q42 0 72 -30t30 -72q0 -40 -30.5 -70t-71.5 -30 q-42 0 -72.5 30t-30.5 70z" />
<glyph unicode="&#xd0;" horiz-adv-x="1677" d="M109 743q0 64 18 64h219v416q0 83 -45 121t-160 38q-14 0 -14 35q0 41 18 41q11 0 115.5 -5t200.5 -5q33 0 144 6t204 6q157 0 289 -40t223.5 -109.5t156 -162.5t94.5 -197.5t30 -217.5q0 -363 -197 -552t-551 -189q-99 0 -232.5 6t-160.5 6q-94 0 -199.5 -3t-116.5 -3 q-14 0 -14 37q0 39 14 39q110 0 155.5 36t45.5 126v446h-219q-18 0 -18 61zM561 299q0 -132 68 -182.5t221 -50.5q116 0 205 34.5t155.5 110t101 202.5t34.5 304q0 104 -20.5 198t-66.5 179t-113 147t-168 98.5t-224 36.5q-101 0 -183 -20l-6 -549h355q14 0 14 -62 q0 -63 -14 -63h-357q-2 -168 -2 -383z" />
<glyph unicode="&#xd1;" horiz-adv-x="1765" d="M96 1419q0 39 19 39q9 0 106.5 -5t163.5 -5q24 0 58.5 1t43.5 1q20 0 35 -18q40 -52 110 -135t190 -224t175 -207q315 -373 387 -487v809q0 49 -7.5 81t-29.5 59.5t-66.5 40.5t-113.5 13q-16 0 -16 39q0 37 20 37q22 0 103 -5t149 -5q87 0 174 5t89 5q14 0 14 -37 q0 -39 -17 -39q-99 0 -147 -42.5t-51 -159.5q-6 -252 -6 -834q0 -99 2 -213t2 -131q0 -14 -58 -14q-19 0 -32 20q-85 124 -440.5 567t-499.5 596v-913q0 -98 58 -141t173 -43q14 0 14 -37q0 -13 -4 -26t-10 -13q-8 0 -53 1.5t-112 3t-128 1.5q-84 0 -164.5 -3t-83.5 -3 q-10 0 -10 37q0 39 14 39q103 0 150.5 42t48.5 142q8 852 8 930q0 80 -57.5 137t-185.5 57q-15 0 -15 37zM588 1614q0 90 60 139t140 49q42 0 84 -16t70 -36t63.5 -36t65.5 -16q88 0 88 82q0 20 27 20q12 0 21.5 -9t9.5 -28q0 -92 -52 -145t-125 -53q-35 0 -78.5 21 t-77.5 46.5t-73 46.5t-66 21q-39 0 -60 -26.5t-21 -67.5q0 -14 -9 -22.5t-22 -8.5q-21 0 -33 10.5t-12 28.5z" />
<glyph unicode="&#xd2;" horiz-adv-x="1808" d="M98 727q0 157 62.5 299.5t169 245.5t256.5 164t317 61t317.5 -61t258 -164t170.5 -245.5t63 -299.5q0 -167 -64.5 -310.5t-174 -241.5t-257.5 -153t-313 -55q-164 0 -310.5 53.5t-256.5 150t-174 240.5t-64 316zM354 719q0 -313 143 -489.5t406 -176.5q168 0 295 87 t192.5 237t65.5 342q0 205 -69.5 362.5t-195.5 243.5t-288 86q-238 0 -393.5 -190t-155.5 -502zM649 1868q0 15 25 24t63 9q90 0 105 -15l266 -309q12 -12 12 -21q0 -8 -14 -16t-31 -8q-8 0 -18 10l-383 295q-25 22 -25 31z" />
<glyph unicode="&#xd3;" horiz-adv-x="1808" d="M98 727q0 157 62.5 299.5t169 245.5t256.5 164t317 61t317.5 -61t258 -164t170.5 -245.5t63 -299.5q0 -167 -64.5 -310.5t-174 -241.5t-257.5 -153t-313 -55q-164 0 -310.5 53.5t-256.5 150t-174 240.5t-64 316zM354 719q0 -313 143 -489.5t406 -176.5q168 0 295 87 t192.5 237t65.5 342q0 205 -69.5 362.5t-195.5 243.5t-288 86q-238 0 -393.5 -190t-155.5 -502zM686 1556q0 9 12 21l267 309q15 15 104 15q38 0 63 -9t25 -24q0 -10 -24 -31l-383 -295q-10 -10 -19 -10q-17 0 -31 8t-14 16z" />
<glyph unicode="&#xd4;" horiz-adv-x="1808" d="M98 727q0 157 62.5 299.5t169 245.5t256.5 164t317 61t317.5 -61t258 -164t170.5 -245.5t63 -299.5q0 -167 -64.5 -310.5t-174 -241.5t-257.5 -153t-313 -55q-164 0 -310.5 53.5t-256.5 150t-174 240.5t-64 316zM354 719q0 -313 143 -489.5t406 -176.5q168 0 295 87 t192.5 237t65.5 342q0 205 -69.5 362.5t-195.5 243.5t-288 86q-238 0 -393.5 -190t-155.5 -502zM602 1587l254 311q14 17 57 17q35 0 52 -17l245 -311q0 -39 -34 -39q-19 0 -27 8l-250 207l-233 -207q-15 -10 -27 -10q-15 0 -26 10.5t-11 30.5z" />
<glyph unicode="&#xd5;" horiz-adv-x="1808" d="M98 727q0 157 62.5 299.5t169 245.5t256.5 164t317 61t317.5 -61t258 -164t170.5 -245.5t63 -299.5q0 -167 -64.5 -310.5t-174 -241.5t-257.5 -153t-313 -55q-164 0 -310.5 53.5t-256.5 150t-174 240.5t-64 316zM354 719q0 -313 143 -489.5t406 -176.5q168 0 295 87 t192.5 237t65.5 342q0 205 -69.5 362.5t-195.5 243.5t-288 86q-238 0 -393.5 -190t-155.5 -502zM592 1614q0 90 60.5 139t140.5 49q42 0 83.5 -16t69.5 -36t63.5 -36t65.5 -16q88 0 88 82q0 20 27 20q12 0 21.5 -9t9.5 -28q0 -92 -52 -145t-125 -53q-44 0 -100 33.5 t-108 67.5t-86 34q-39 0 -60.5 -26.5t-21.5 -67.5q0 -14 -9 -22.5t-22 -8.5q-21 0 -33 10.5t-12 28.5z" />
<glyph unicode="&#xd6;" horiz-adv-x="1808" d="M98 727q0 157 62.5 299.5t169 245.5t256.5 164t317 61t317.5 -61t258 -164t170.5 -245.5t63 -299.5q0 -167 -64.5 -310.5t-174 -241.5t-257.5 -153t-313 -55q-164 0 -310.5 53.5t-256.5 150t-174 240.5t-64 316zM354 719q0 -313 143 -489.5t406 -176.5q168 0 295 87 t192.5 237t65.5 342q0 205 -69.5 362.5t-195.5 243.5t-288 86q-238 0 -393.5 -190t-155.5 -502zM598 1663q0 42 30 72t72 30q47 0 78 -29.5t31 -72.5q0 -41 -31.5 -70.5t-77.5 -29.5q-41 0 -71.5 30t-30.5 70zM1008 1663q0 43 29.5 72.5t72.5 29.5q42 0 72 -30t30 -72 q0 -40 -30.5 -70t-71.5 -30q-42 0 -72 30t-30 70z" />
<glyph unicode="&#xd7;" horiz-adv-x="980" d="M150 244l260 260l-260 262l81 82l261 -260l260 258l82 -82l-259 -260l259 -258l-84 -82l-258 258l-261 -260z" />
<glyph unicode="&#xd8;" horiz-adv-x="1808" d="M98 723q0 157 63 300t170.5 247t258 165.5t317.5 61.5q218 0 404 -104q122 161 164 211q13 18 45 18q28 0 53.5 -14t25.5 -29q0 -6 -4 -14q-68 -79 -184 -236q142 -109 221.5 -266.5t79.5 -339.5q0 -157 -64 -297.5t-172.5 -241t-259.5 -159t-319 -58.5q-223 0 -408 101 q-65 -90 -208 -295q-8 -11 -21 -11q-22 0 -49 27.5t-27 56.5q69 85 209 279q-143 104 -219 258t-76 340zM354 715q0 -277 131 -473q129 176 397 550.5t357 497.5q-136 121 -342 121q-155 0 -278 -84.5t-194 -244t-71 -367.5zM549 172q145 -119 350 -119q247 0 402 177.5 t155 484.5q0 141 -36.5 268.5t-102.5 218.5q-63 -85 -234 -316t-302.5 -407.5t-231.5 -306.5z" />
<glyph unicode="&#xd9;" horiz-adv-x="1804" d="M104 1417q0 41 23 41q5 0 106 -5t203 -5q82 0 155.5 2.5t114.5 5t44 2.5q18 0 18 -37q0 -39 -18 -39q-109 0 -152.5 -35.5t-46.5 -127.5q-10 -265 -10 -744q0 -179 114 -278t312 -99q211 0 316.5 98t105.5 277q0 98 -5.5 396.5t-5.5 318.5q0 106 -42 150t-156 44 q-17 0 -17 33q0 25 5 34t16 9q20 0 109 -5t149 -5q56 0 149 5t109 5t16 -35q0 -41 -16 -41q-105 0 -154 -51.5t-49 -156.5q0 -18 -2 -324.5t-2 -407.5q0 -75 -20.5 -142.5t-67.5 -129t-118 -106t-178.5 -71t-242.5 -26.5q-108 0 -203 31t-172 93t-122 166t-45 239v716 q0 85 -45 127.5t-156 42.5q-19 0 -19 35zM629 1868q0 15 25 24t63 9q89 0 104 -15l266 -309q13 -13 13 -21t-14 -16t-31 -8q-9 0 -19 10l-383 295q-24 21 -24 31z" />
<glyph unicode="&#xda;" horiz-adv-x="1804" d="M104 1417q0 41 23 41q5 0 106 -5t203 -5q82 0 155.5 2.5t114.5 5t44 2.5q18 0 18 -37q0 -39 -18 -39q-109 0 -152.5 -35.5t-46.5 -127.5q-10 -265 -10 -744q0 -179 114 -278t312 -99q211 0 316.5 98t105.5 277q0 98 -5.5 396.5t-5.5 318.5q0 106 -42 150t-156 44 q-17 0 -17 33q0 25 5 34t16 9q20 0 109 -5t149 -5q56 0 149 5t109 5t16 -35q0 -41 -16 -41q-105 0 -154 -51.5t-49 -156.5q0 -18 -2 -324.5t-2 -407.5q0 -75 -20.5 -142.5t-67.5 -129t-118 -106t-178.5 -71t-242.5 -26.5q-108 0 -203 31t-172 93t-122 166t-45 239v716 q0 85 -45 127.5t-156 42.5q-19 0 -19 35zM834 1556q0 9 12 21l266 309q15 15 105 15q38 0 63 -9t25 -24q0 -9 -25 -31l-383 -295q-10 -10 -18 -10q-17 0 -31 8t-14 16z" />
<glyph unicode="&#xdb;" horiz-adv-x="1804" d="M104 1417q0 41 23 41q5 0 106 -5t203 -5q82 0 155.5 2.5t114.5 5t44 2.5q18 0 18 -37q0 -39 -18 -39q-109 0 -152.5 -35.5t-46.5 -127.5q-10 -265 -10 -744q0 -179 114 -278t312 -99q211 0 316.5 98t105.5 277q0 98 -5.5 396.5t-5.5 318.5q0 106 -42 150t-156 44 q-17 0 -17 33q0 25 5 34t16 9q20 0 109 -5t149 -5q56 0 149 5t109 5t16 -35q0 -41 -16 -41q-105 0 -154 -51.5t-49 -156.5q0 -18 -2 -324.5t-2 -407.5q0 -75 -20.5 -142.5t-67.5 -129t-118 -106t-178.5 -71t-242.5 -26.5q-108 0 -203 31t-172 93t-122 166t-45 239v716 q0 85 -45 127.5t-156 42.5q-19 0 -19 35zM606 1587l254 311q14 17 58 17q34 0 51 -17l245 -311q0 -39 -34 -39q-19 0 -27 8l-250 207l-233 -207q-15 -10 -27 -10q-15 0 -26 10.5t-11 30.5z" />
<glyph unicode="&#xdc;" horiz-adv-x="1804" d="M104 1417q0 41 23 41q5 0 106 -5t203 -5q82 0 155.5 2.5t114.5 5t44 2.5q18 0 18 -37q0 -39 -18 -39q-109 0 -152.5 -35.5t-46.5 -127.5q-10 -265 -10 -744q0 -179 114 -278t312 -99q211 0 316.5 98t105.5 277q0 98 -5.5 396.5t-5.5 318.5q0 106 -42 150t-156 44 q-17 0 -17 33q0 25 5 34t16 9q20 0 109 -5t149 -5q56 0 149 5t109 5t16 -35q0 -41 -16 -41q-105 0 -154 -51.5t-49 -156.5q0 -18 -2 -324.5t-2 -407.5q0 -75 -20.5 -142.5t-67.5 -129t-118 -106t-178.5 -71t-242.5 -26.5q-108 0 -203 31t-172 93t-122 166t-45 239v716 q0 85 -45 127.5t-156 42.5q-19 0 -19 35zM618 1663q0 42 30.5 72t72.5 30q47 0 77.5 -29.5t30.5 -72.5q0 -41 -31 -70.5t-77 -29.5q-41 0 -72 30t-31 70zM1028 1663q0 43 29.5 72.5t72.5 29.5q42 0 72.5 -30t30.5 -72q0 -40 -31 -70t-72 -30q-42 0 -72 30t-30 70z" />
<glyph unicode="&#xdd;" horiz-adv-x="1484" d="M6 1421q0 17 5.5 27t13.5 10q11 0 95.5 -5t174.5 -5q78 0 178.5 5t122.5 5q16 0 16 -37q0 -39 -14 -39q-25 0 -40 -1t-34 -5t-29.5 -11.5t-18 -22t-7.5 -35.5q0 -58 129 -269q102 -166 221 -346q39 69 114 189.5t95 154.5q100 168 100 242q0 54 -31 79t-112 25 q-14 0 -14 35q0 41 18 41q16 0 100 -5t144 -5q67 0 125.5 2.5t90.5 5t36 2.5q16 0 16 -39q0 -22 -4.5 -29.5t-17.5 -7.5q-62 0 -114.5 -33.5t-104.5 -109.5q-1 -1 -54.5 -84.5t-102.5 -160t-119 -189.5t-122 -201q-4 -106 -4 -362q0 -86 44 -127t157 -41q16 0 16 -35 q0 -41 -20 -41q-11 0 -107 3t-192 3q-94 0 -199.5 -3t-116.5 -3q-14 0 -14 37q0 39 14 39q110 0 155.5 36t45.5 126v333q-116 200 -272 434.5t-191 276.5q-50 62 -82.5 82t-77.5 20q-12 0 -12 39zM682 1556q0 9 12 21l267 309q15 15 104 15q38 0 63 -9t25 -24q0 -9 -25 -31 l-383 -295q-10 -10 -18 -10q-17 0 -31 8t-14 16z" />
<glyph unicode="&#xde;" horiz-adv-x="1363" d="M127 1417q0 41 18 41q11 0 115.5 -5t200.5 -5q90 0 194.5 5t118.5 5q17 0 17 -39q0 -37 -17 -37q-111 0 -155 -44t-44 -124v-38q122 8 222 8q113 0 207.5 -33.5t155.5 -89t94.5 -125t33.5 -143.5q0 -39 -5.5 -74t-21.5 -76.5t-42.5 -76t-71 -67.5t-103.5 -55.5 t-145 -36.5t-190 -14q-69 0 -146 6v-157q0 -86 44 -127t157 -41q16 0 16 -37q0 -39 -20 -39q-11 0 -107 3t-192 3q-94 0 -199.5 -3t-116.5 -3q-14 0 -14 37q0 39 14 39q110 0 155.5 36t45.5 126v987q0 83 -45 121t-160 38q-14 0 -14 35zM563 473q58 -4 127 -4q182 0 268 79 t86 238q0 165 -99 243.5t-271 78.5q-55 0 -101 -4z" />
<glyph unicode="&#xdf;" horiz-adv-x="1241" d="M102 881q0 34 17 34q41 0 65.5 6t34.5 21t12 28t2 40q0 102 7 162.5t34 117.5q102 223 414 223q140 0 240 -67t100 -172q0 -78 -43 -132t-139 -122q-45 -32 -61.5 -62.5t-16.5 -80.5q0 -55 37.5 -103t112.5 -104q68 -50 110 -87t79.5 -83t54 -97t16.5 -112 q0 -88 -29.5 -153t-79.5 -100t-105.5 -51t-117.5 -16q-130 0 -193 51.5t-63 122.5q0 95 82 95q34 0 52.5 -19t27 -46t18 -54.5t34 -46.5t66.5 -19q76 0 112 42.5t36 115.5q0 75 -46.5 142.5t-150.5 152.5q-5 4 -27.5 22.5t-28.5 23.5t-26 22.5t-26.5 25.5t-22.5 25t-22 28.5 t-16 29.5t-14 33.5t-7.5 35t-3.5 39.5q0 85 34.5 144t108.5 124t74 190q0 84 -42.5 134.5t-135.5 50.5q-114 0 -173 -62.5t-71 -199.5q-10 -112 -10 -281v-848q0 -26 -6 -35.5t-19 -9.5q-7 0 -42.5 3t-68.5 3q-39 0 -91.5 -4t-69.5 -4q-4 0 -7.5 13.5t-3.5 27.5q0 35 15 35 q66 0 90 20t24 66v682h-114q-17 0 -17 39z" />
<glyph unicode="&#xe0;" horiz-adv-x="1040" d="M86 178q0 62 25.5 117t85.5 110.5t171.5 105.5t270.5 89v109q0 36 -2 58.5t-11 46.5t-26 37t-47.5 21.5t-75.5 8.5q-83 0 -126 -25t-66 -80q-12 -28 -38 -45.5t-52 -17.5q-32 0 -54 18.5t-22 52.5q0 30 18.5 61.5t58 61.5t114.5 49t175 19q194 0 270 -62t76 -206 q0 -32 -8 -226.5t-8 -312.5q0 -92 68 -92q42 0 71 49q6 8 19 8q6 0 18.5 -12t12.5 -19q0 -35 -53.5 -82t-149.5 -47q-68 0 -110 39.5t-48 120.5q-63 -76 -148 -120t-169 -44q-114 0 -177 56t-63 153zM223 1485q0 20 23 30.5t57 10.5q30 0 59.5 -7t32.5 -14l248 -389 q6 -9 6 -14q0 -14 -13.5 -24.5t-27.5 -10.5q-8 0 -20 12l-344 367q-21 24 -21 39zM295 227q0 -65 35.5 -101t93.5 -36q53 0 103 30t112 99v320q-103 -30 -173.5 -66t-106 -77.5t-50 -81t-14.5 -87.5z" />
<glyph unicode="&#xe1;" horiz-adv-x="1040" d="M86 178q0 62 25.5 117t85.5 110.5t171.5 105.5t270.5 89v109q0 36 -2 58.5t-11 46.5t-26 37t-47.5 21.5t-75.5 8.5q-83 0 -126 -25t-66 -80q-12 -28 -38 -45.5t-52 -17.5q-32 0 -54 18.5t-22 52.5q0 30 18.5 61.5t58 61.5t114.5 49t175 19q194 0 270 -62t76 -206 q0 -32 -8 -226.5t-8 -312.5q0 -92 68 -92q42 0 71 49q6 8 19 8q6 0 18.5 -12t12.5 -19q0 -35 -53.5 -82t-149.5 -47q-68 0 -110 39.5t-48 120.5q-63 -76 -148 -120t-169 -44q-114 0 -177 56t-63 153zM295 227q0 -65 35.5 -101t93.5 -36q53 0 103 30t112 99v320 q-103 -30 -173.5 -66t-106 -77.5t-50 -81t-14.5 -87.5zM367 1102q0 5 6 14l248 389q3 7 32.5 14t61.5 7t55 -10.5t23 -30.5q0 -14 -19 -39l-344 -367q-12 -12 -22 -12q-13 0 -27 10.5t-14 24.5z" />
<glyph unicode="&#xe2;" horiz-adv-x="1040" d="M86 178q0 62 25.5 117t85.5 110.5t171.5 105.5t270.5 89v109q0 36 -2 58.5t-11 46.5t-26 37t-47.5 21.5t-75.5 8.5q-83 0 -126 -25t-66 -80q-12 -28 -38 -45.5t-52 -17.5q-32 0 -54 18.5t-22 52.5q0 30 18.5 61.5t58 61.5t114.5 49t175 19q194 0 270 -62t76 -206 q0 -32 -8 -226.5t-8 -312.5q0 -92 68 -92q42 0 71 49q6 8 19 8q6 0 18.5 -12t12.5 -19q0 -35 -53.5 -82t-149.5 -47q-68 0 -110 39.5t-48 120.5q-63 -76 -148 -120t-169 -44q-114 0 -177 56t-63 153zM209 1116l227 389q12 21 51 21q37 0 50 -21l223 -389q0 -21 -11.5 -33 t-25.5 -12q-12 0 -25 10l-223 258l-209 -258q-12 -12 -20 -12q-17 0 -27 13t-10 34zM295 227q0 -65 35.5 -101t93.5 -36q53 0 103 30t112 99v320q-103 -30 -173.5 -66t-106 -77.5t-50 -81t-14.5 -87.5z" />
<glyph unicode="&#xe3;" horiz-adv-x="1040" d="M86 178q0 62 25.5 117t85.5 110.5t171.5 105.5t270.5 89v109q0 36 -2 58.5t-11 46.5t-26 37t-47.5 21.5t-75.5 8.5q-83 0 -126 -25t-66 -80q-12 -28 -38 -45.5t-52 -17.5q-32 0 -54 18.5t-22 52.5q0 30 18.5 61.5t58 61.5t114.5 49t175 19q194 0 270 -62t76 -206 q0 -32 -8 -226.5t-8 -312.5q0 -92 68 -92q42 0 71 49q6 8 19 8q6 0 18.5 -12t12.5 -19q0 -35 -53.5 -82t-149.5 -47q-68 0 -110 39.5t-48 120.5q-63 -76 -148 -120t-169 -44q-114 0 -177 56t-63 153zM160 1192q0 100 61.5 154.5t143.5 54.5q43 0 85.5 -18.5t71 -40t64.5 -40 t67 -18.5q90 0 90 92q0 10 8 16.5t19 6.5q12 0 21.5 -10.5t9.5 -30.5q0 -102 -52.5 -160.5t-127.5 -58.5q-36 0 -80 23.5t-79 51t-75 51t-68 23.5q-39 0 -60 -30t-21 -74q0 -15 -9.5 -25t-23.5 -10q-20 0 -32.5 11.5t-12.5 31.5zM295 227q0 -65 35.5 -101t93.5 -36 q53 0 103 30t112 99v320q-103 -30 -173.5 -66t-106 -77.5t-50 -81t-14.5 -87.5z" />
<glyph unicode="&#xe4;" horiz-adv-x="1040" d="M86 178q0 62 25.5 117t85.5 110.5t171.5 105.5t270.5 89v109q0 36 -2 58.5t-11 46.5t-26 37t-47.5 21.5t-75.5 8.5q-83 0 -126 -25t-66 -80q-12 -28 -38 -45.5t-52 -17.5q-32 0 -54 18.5t-22 52.5q0 30 18.5 61.5t58 61.5t114.5 49t175 19q194 0 270 -62t76 -206 q0 -32 -8 -226.5t-8 -312.5q0 -92 68 -92q42 0 71 49q6 8 19 8q6 0 18.5 -12t12.5 -19q0 -35 -53.5 -82t-149.5 -47q-68 0 -110 39.5t-48 120.5q-63 -76 -148 -120t-169 -44q-114 0 -177 56t-63 153zM184 1264q0 45 30.5 77.5t72.5 32.5q43 0 73.5 -33t30.5 -77 q0 -46 -30 -78.5t-74 -32.5t-73.5 32.5t-29.5 78.5zM295 227q0 -65 35.5 -101t93.5 -36q53 0 103 30t112 99v320q-103 -30 -173.5 -66t-106 -77.5t-50 -81t-14.5 -87.5zM543 1264q0 44 31.5 77t72.5 33q42 0 72.5 -32.5t30.5 -77.5q0 -46 -29.5 -78.5t-73.5 -32.5t-74 32.5 t-30 78.5z" />
<glyph unicode="&#xe5;" horiz-adv-x="1040" d="M86 178q0 62 25.5 117t85.5 110.5t171.5 105.5t270.5 89v109q0 36 -2 58.5t-11 46.5t-26 37t-47.5 21.5t-75.5 8.5q-83 0 -126 -25t-66 -80q-12 -28 -38 -45.5t-52 -17.5q-32 0 -54 18.5t-22 52.5q0 30 18.5 61.5t58 61.5t114.5 49t175 19q194 0 270 -62t76 -206 q0 -32 -8 -226.5t-8 -312.5q0 -92 68 -92q42 0 71 49q6 8 19 8q6 0 18.5 -12t12.5 -19q0 -35 -53.5 -82t-149.5 -47q-68 0 -110 39.5t-48 120.5q-63 -76 -148 -120t-169 -44q-114 0 -177 56t-63 153zM244 1290q0 99 66.5 165.5t162.5 66.5q97 0 163 -66.5t66 -165.5 t-66 -164t-163 -65q-96 0 -162.5 66.5t-66.5 162.5zM295 227q0 -65 35.5 -101t93.5 -36q53 0 103 30t112 99v320q-103 -30 -173.5 -66t-106 -77.5t-50 -81t-14.5 -87.5zM348 1288q0 -57 35 -95t90 -38q56 0 89.5 37.5t33.5 95.5q0 60 -33 97.5t-90 37.5q-56 0 -90.5 -37.5 t-34.5 -97.5z" />
<glyph unicode="&#xe6;" horiz-adv-x="1564" d="M90 174q0 68 26 123.5t87.5 110.5t171 106.5t270.5 101.5q10 62 10 111q0 74 -36 115t-140 41q-86 0 -128 -26t-64 -89q-21 -55 -86 -55q-32 0 -53 18.5t-21 54.5q0 30 19 60.5t59 60.5t116.5 49t178.5 19q227 0 284 -131q137 131 344 131q76 0 138 -21.5t100.5 -54.5 t65 -74.5t37 -79t10.5 -71.5q0 -32 -10.5 -44t-38.5 -12h-582q-12 -44 -12 -126q0 -200 87.5 -309t229.5 -109q86 0 155 37t97 94q7 14 18 14q13 0 33.5 -15.5t20.5 -27.5l-7 -14q-42 -85 -134 -142t-224 -57q-139 0 -248 52t-170 157q-65 -92 -158 -147.5t-200 -55.5 q-120 0 -183 55t-63 150zM301 229q0 -57 31.5 -98t85.5 -41q56 0 122 37.5t124 108.5q-37 88 -37 223q0 43 6 92q-186 -65 -259 -145.5t-73 -176.5zM860 682l336 8q59 2 72.5 9.5t13.5 39.5q0 61 -44 105.5t-130 44.5q-183 0 -248 -207z" />
<glyph unicode="&#xe7;" horiz-adv-x="980" d="M78 446q0 116 42.5 216t114 168t165.5 106.5t196 38.5q93 0 160.5 -18t102 -48.5t50 -63t15.5 -67.5q0 -41 -25 -63.5t-63 -22.5t-62 24t-43 70q-38 95 -156 95q-119 0 -197.5 -97t-78.5 -286q0 -115 26.5 -200t72 -132.5t99 -69.5t115.5 -22q84 0 150 39t104 104 q10 12 23 12q12 0 29.5 -13.5t17.5 -31.5q-48 -99 -137 -156t-211 -63q-40 -59 -76 -98h20q97 0 171.5 -53.5t74.5 -159.5q0 -61 -25 -109t-66 -76t-87.5 -42.5t-93.5 -14.5q-124 0 -182 90q-9 14 -9 25q0 16 11 29.5t26 13.5q13 0 19 -12q47 -58 121 -58q66 0 105.5 39.5 t39.5 112.5q0 69 -34 104t-77 35q-24 0 -40 -9t-22 -20.5t-16 -20.5t-24 -9q-22 0 -38.5 13t-16.5 34q0 19 20 39q4 4 18.5 16.5t24.5 22.5q31 34 72 110q-83 9 -158.5 44.5t-135.5 94t-96 147t-36 193.5z" />
<glyph unicode="&#xe8;" horiz-adv-x="995" d="M74 459q0 220 140 368t361 148q76 0 138 -21.5t100.5 -54.5t65 -74.5t37 -79t10.5 -71.5q0 -32 -10.5 -44t-38.5 -12h-582q-12 -44 -12 -126q0 -200 87.5 -309t229.5 -109q86 0 155 37t97 94q7 14 18 14q13 0 33.5 -15.5t20.5 -27.5q0 -2 -6 -14q-42 -85 -134.5 -142 t-224.5 -57q-103 0 -188.5 28.5t-153 86.5t-105.5 155.5t-38 225.5zM276 1485q0 20 23 30.5t57 10.5q30 0 60 -7.5t33 -13.5l247 -389q6 -9 6 -14q0 -14 -13 -24.5t-27 -10.5q-9 0 -21 12l-344 367q-21 24 -21 39zM307 682l336 8q59 2 72.5 9.5t13.5 39.5q0 61 -44 105.5 t-130 44.5q-183 0 -248 -207z" />
<glyph unicode="&#xe9;" horiz-adv-x="995" d="M74 459q0 220 140 368t361 148q76 0 138 -21.5t100.5 -54.5t65 -74.5t37 -79t10.5 -71.5q0 -32 -10.5 -44t-38.5 -12h-582q-12 -44 -12 -126q0 -200 87.5 -309t229.5 -109q86 0 155 37t97 94q7 14 18 14q13 0 33.5 -15.5t20.5 -27.5q0 -2 -6 -14q-42 -85 -134.5 -142 t-224.5 -57q-103 0 -188.5 28.5t-153 86.5t-105.5 155.5t-38 225.5zM307 682l336 8q59 2 72.5 9.5t13.5 39.5q0 61 -44 105.5t-130 44.5q-183 0 -248 -207zM356 1102q0 5 6 14l248 389q3 7 33 14t62 7t54.5 -10.5t22.5 -30.5q0 -15 -18 -39l-344 -367q-12 -12 -23 -12 q-13 0 -27 10.5t-14 24.5z" />
<glyph unicode="&#xea;" horiz-adv-x="995" d="M74 459q0 220 140 368t361 148q76 0 138 -21.5t100.5 -54.5t65 -74.5t37 -79t10.5 -71.5q0 -32 -10.5 -44t-38.5 -12h-582q-12 -44 -12 -126q0 -200 87.5 -309t229.5 -109q86 0 155 37t97 94q7 14 18 14q13 0 33.5 -15.5t20.5 -27.5q0 -2 -6 -14q-42 -85 -134.5 -142 t-224.5 -57q-103 0 -188.5 28.5t-153 86.5t-105.5 155.5t-38 225.5zM283 1116l227 389q12 21 51 21q36 0 49 -21l224 -389q0 -21 -11.5 -33t-25.5 -12q-12 0 -25 10l-223 258l-209 -258q-12 -12 -21 -12q-17 0 -26.5 13t-9.5 34zM307 682l336 8q59 2 72.5 9.5t13.5 39.5 q0 61 -44 105.5t-130 44.5q-183 0 -248 -207z" />
<glyph unicode="&#xeb;" horiz-adv-x="995" d="M74 459q0 220 140 368t361 148q76 0 138 -21.5t100.5 -54.5t65 -74.5t37 -79t10.5 -71.5q0 -32 -10.5 -44t-38.5 -12h-582q-12 -44 -12 -126q0 -200 87.5 -309t229.5 -109q86 0 155 37t97 94q7 14 18 14q13 0 33.5 -15.5t20.5 -27.5q0 -2 -6 -14q-42 -85 -134.5 -142 t-224.5 -57q-103 0 -188.5 28.5t-153 86.5t-105.5 155.5t-38 225.5zM246 1264q0 45 30 77.5t72 32.5q43 0 74 -33t31 -77q0 -46 -30.5 -78.5t-74.5 -32.5t-73 32.5t-29 78.5zM307 682l336 8q59 2 72.5 9.5t13.5 39.5q0 61 -44 105.5t-130 44.5q-183 0 -248 -207zM604 1264 q0 44 32 77t73 33q42 0 72 -32.5t30 -77.5q0 -46 -29 -78.5t-73 -32.5t-74.5 32.5t-30.5 78.5z" />
<glyph unicode="&#xec;" horiz-adv-x="614" d="M6 1485q0 20 23 30.5t57 10.5q30 0 59.5 -7t32.5 -14l248 -389q6 -9 6 -14q0 -14 -13.5 -24.5t-27.5 -10.5q-8 0 -20 12l-344 367q-21 24 -21 39zM82 41q0 13 5 23t11 10q86 0 110.5 21.5t24.5 76.5v606q0 38 -13.5 51t-57.5 13h-49q-19 0 -19 35q0 41 15 41 q48 0 123.5 15t134.5 36q21 0 36 -9.5t15 -21.5q0 -14 -1.5 -107.5t-3 -269t-1.5 -391.5q0 -53 26.5 -74.5t112.5 -21.5q12 0 12 -37q0 -39 -16 -39q-19 0 -94.5 4t-126.5 4q-54 0 -126.5 -4t-105.5 -4q-12 0 -12 43z" />
<glyph unicode="&#xed;" horiz-adv-x="614" d="M82 41q0 13 5 23t11 10q86 0 110.5 21.5t24.5 76.5v606q0 38 -13.5 51t-57.5 13h-49q-19 0 -19 35q0 41 15 41q48 0 123.5 15t134.5 36q21 0 36 -9.5t15 -21.5q0 -14 -1.5 -107.5t-3 -269t-1.5 -391.5q0 -53 26.5 -74.5t112.5 -21.5q12 0 12 -37q0 -39 -16 -39 q-19 0 -94.5 4t-126.5 4q-54 0 -126.5 -4t-105.5 -4q-12 0 -12 43zM137 1102q0 5 6 14l248 389q3 7 32.5 14t61.5 7t55 -10.5t23 -30.5q0 -15 -18 -39l-344 -367q-12 -12 -23 -12q-13 0 -27 10.5t-14 24.5z" />
<glyph unicode="&#xee;" horiz-adv-x="614" d="M18 1116l228 389q12 21 51 21q36 0 49 -21l223 -389q0 -21 -11.5 -33t-25.5 -12q-11 0 -24 10l-223 258l-209 -258q-12 -12 -21 -12q-17 0 -27 13t-10 34zM82 41q0 13 5 23t11 10q86 0 110.5 21.5t24.5 76.5v606q0 38 -13.5 51t-57.5 13h-49q-19 0 -19 35q0 41 15 41 q48 0 123.5 15t134.5 36q21 0 36 -9.5t15 -21.5q0 -14 -1.5 -107.5t-3 -269t-1.5 -391.5q0 -53 26.5 -74.5t112.5 -21.5q12 0 12 -37q0 -39 -16 -39q-19 0 -94.5 4t-126.5 4q-54 0 -126.5 -4t-105.5 -4q-12 0 -12 43z" />
<glyph unicode="&#xef;" horiz-adv-x="614" d="M10 1264q0 45 30.5 77.5t72.5 32.5q43 0 73.5 -33t30.5 -77q0 -46 -30 -78.5t-74 -32.5t-73.5 32.5t-29.5 78.5zM82 41q0 13 5 23t11 10q86 0 110.5 21.5t24.5 76.5v606q0 38 -13.5 51t-57.5 13h-49q-19 0 -19 35q0 41 15 41q48 0 123.5 15t134.5 36q21 0 36 -9.5 t15 -21.5q0 -14 -1.5 -107.5t-3 -269t-1.5 -391.5q0 -53 26.5 -74.5t112.5 -21.5q12 0 12 -37q0 -39 -16 -39q-19 0 -94.5 4t-126.5 4q-54 0 -126.5 -4t-105.5 -4q-12 0 -12 43zM369 1264q0 44 31.5 77t72.5 33q42 0 72 -32.5t30 -77.5q0 -46 -29 -78.5t-73 -32.5t-74 32.5 t-30 78.5z" />
<glyph unicode="&#xf0;" horiz-adv-x="1191" d="M80 473q0 139 69.5 254.5t188 181.5t258.5 66q169 0 270 -98q-49 192 -196 362l-201 -111l-41 74l180 101q-99 93 -215 145q-16 6 -16 22t15.5 33t35.5 17q150 -34 297 -152l182 100l41 -73l-155 -86q144 -141 232.5 -328t88.5 -371q0 -144 -41 -266.5t-111 -205 t-165 -129t-201 -46.5q-139 0 -258 68.5t-188.5 186t-69.5 255.5zM301 473q0 -208 77.5 -317t217.5 -109q137 0 217 126t80 333q0 189 -78.5 288t-218.5 99q-141 0 -218 -107.5t-77 -312.5z" />
<glyph unicode="&#xf1;" horiz-adv-x="1245" d="M84 37q0 14 5 25.5t11 11.5q45 0 72.5 5.5t40.5 19.5t16.5 29.5t3.5 43.5v614q0 35 -15.5 45.5t-55.5 10.5h-45q-23 0 -23 35q0 41 15 41q47 0 124 15.5t129 35.5q23 0 36.5 -8.5t13.5 -22.5v-152q43 83 143 136t201 53q125 0 209 -72.5t84 -214.5q0 -48 -3.5 -244.5 t-3.5 -273.5q0 -54 30 -75t112 -21q14 0 14 -29q0 -47 -18 -47t-93.5 4t-128.5 4q-52 0 -118 -4t-99 -4q-14 0 -14 43q0 33 12 33q78 0 101.5 18t23.5 70v522q0 88 -51.5 134t-128.5 46q-35 0 -68 -8t-71.5 -32t-66.5 -62.5t-47 -105.5t-19 -154v-336q0 -53 26 -72.5 t99 -19.5q8 0 11.5 -4.5t4 -11t0.5 -21.5q0 -39 -21 -39q-19 0 -87 4t-119 4q-54 0 -126 -4t-104 -4q-12 0 -12 39zM311 1192q0 100 61.5 154.5t143.5 54.5q43 0 85.5 -18.5t71.5 -40t65 -40t67 -18.5q90 0 90 92q0 10 8 16.5t19 6.5q12 0 21 -10.5t9 -30.5 q0 -102 -52.5 -160.5t-127.5 -58.5q-36 0 -80 23.5t-78.5 51t-74.5 51t-68 23.5q-39 0 -60.5 -30t-21.5 -74q0 -15 -9.5 -25t-23.5 -10q-20 0 -32.5 11.5t-12.5 31.5z" />
<glyph unicode="&#xf2;" horiz-adv-x="1191" d="M80 473q0 139 69.5 254.5t188 181.5t258.5 66q141 0 260 -66t188.5 -181.5t69.5 -254.5q0 -138 -69.5 -255.5t-189 -186t-259.5 -68.5q-139 0 -258 68.5t-188.5 186t-69.5 255.5zM301 473q0 -208 77.5 -317t217.5 -109q139 0 218 111t79 315q0 193 -80 306.5t-217 113.5 q-141 0 -218 -107.5t-77 -312.5zM336 1485q0 20 23 30.5t57 10.5q30 0 59.5 -7t32.5 -14l248 -389q6 -9 6 -14q0 -14 -13.5 -24.5t-27.5 -10.5q-9 0 -21 12l-344 367q-20 23 -20 39z" />
<glyph unicode="&#xf3;" horiz-adv-x="1191" d="M80 473q0 139 69.5 254.5t188 181.5t258.5 66q141 0 260 -66t188.5 -181.5t69.5 -254.5q0 -138 -69.5 -255.5t-189 -186t-259.5 -68.5q-139 0 -258 68.5t-188.5 186t-69.5 255.5zM301 473q0 -208 77.5 -317t217.5 -109q139 0 218 111t79 315q0 193 -80 306.5t-217 113.5 q-141 0 -218 -107.5t-77 -312.5zM428 1102q0 5 6 14l248 389q3 7 32.5 14t61.5 7t55 -10.5t23 -30.5q0 -15 -18 -39l-344 -367q-12 -12 -23 -12q-13 0 -27 10.5t-14 24.5z" />
<glyph unicode="&#xf4;" horiz-adv-x="1191" d="M80 473q0 139 69.5 254.5t188 181.5t258.5 66q141 0 260 -66t188.5 -181.5t69.5 -254.5q0 -138 -69.5 -255.5t-189 -186t-259.5 -68.5q-139 0 -258 68.5t-188.5 186t-69.5 255.5zM301 473q0 -208 77.5 -317t217.5 -109q139 0 218 111t79 315q0 193 -80 306.5t-217 113.5 q-141 0 -218 -107.5t-77 -312.5zM322 1116l227 389q12 21 51 21q36 0 49 -21l223 -389q0 -21 -11 -33t-25 -12q-12 0 -25 10l-223 258l-209 -258q-12 -12 -21 -12q-17 0 -26.5 13t-9.5 34z" />
<glyph unicode="&#xf5;" horiz-adv-x="1191" d="M80 473q0 139 69.5 254.5t188 181.5t258.5 66q141 0 260 -66t188.5 -181.5t69.5 -254.5q0 -138 -69.5 -255.5t-189 -186t-259.5 -68.5q-139 0 -258 68.5t-188.5 186t-69.5 255.5zM276 1192q0 100 61.5 154.5t143.5 54.5q43 0 85.5 -18.5t71.5 -40t65 -40t67 -18.5 q90 0 90 92q0 10 8 16.5t19 6.5q12 0 21.5 -10.5t9.5 -30.5q0 -102 -53 -160.5t-128 -58.5q-36 0 -80 23.5t-78.5 51t-74.5 51t-68 23.5q-39 0 -60.5 -30t-21.5 -74q0 -15 -9 -25t-23 -10q-21 0 -33.5 11.5t-12.5 31.5zM301 473q0 -208 77.5 -317t217.5 -109q139 0 218 111 t79 315q0 193 -80 306.5t-217 113.5q-141 0 -218 -107.5t-77 -312.5z" />
<glyph unicode="&#xf6;" horiz-adv-x="1191" d="M80 473q0 139 69.5 254.5t188 181.5t258.5 66q141 0 260 -66t188.5 -181.5t69.5 -254.5q0 -138 -69.5 -255.5t-189 -186t-259.5 -68.5q-139 0 -258 68.5t-188.5 186t-69.5 255.5zM301 473q0 -208 77.5 -317t217.5 -109q139 0 218 111t79 315q0 193 -80 306.5t-217 113.5 q-141 0 -218 -107.5t-77 -312.5zM313 1264q0 45 30.5 77.5t72.5 32.5q43 0 73.5 -33t30.5 -77q0 -46 -30 -78.5t-74 -32.5t-73.5 32.5t-29.5 78.5zM672 1264q0 44 31.5 77t72.5 33q42 0 72.5 -32.5t30.5 -77.5q0 -46 -29.5 -78.5t-73.5 -32.5t-74 32.5t-30 78.5z" />
<glyph unicode="&#xf7;" horiz-adv-x="995" d="M96 563q0 29 6.5 52.5t14.5 23.5l764 8q6 0 12 -23t8 -49q0 -28 -6 -50.5t-14 -22.5l-764 -8q-8 0 -14.5 22t-6.5 47zM369 215q0 54 38.5 92.5t92.5 38.5q52 0 91.5 -39t39.5 -92q0 -52 -39.5 -90.5t-91.5 -38.5q-54 0 -92.5 38t-38.5 91zM369 936q0 54 38.5 91.5 t92.5 37.5q52 0 91.5 -38t39.5 -91q0 -52 -39.5 -90.5t-91.5 -38.5q-54 0 -92.5 38t-38.5 91z" />
<glyph unicode="&#xf8;" horiz-adv-x="1191" d="M37 -113q0 7 6 19q66 71 184 213q-69 71 -108 162t-39 192q0 139 69.5 254.5t188 181.5t258.5 66q150 0 274 -76q59 75 134 162q28 0 59 -16t31 -39q-34 -34 -146 -162q78 -69 122 -165t44 -206q0 -138 -69.5 -255.5t-189 -186t-259.5 -68.5q-157 0 -293 92l-182 -221 q-3 -10 -19 -10q-19 0 -42 22t-23 41zM301 473q0 -121 29 -219q155 173 461 549q-71 90 -195 90q-141 0 -218 -107.5t-77 -312.5zM379 156q72 -109 217 -109q139 0 218 111t79 315q0 140 -39 238q-209 -229 -475 -555z" />
<glyph unicode="&#xf9;" horiz-adv-x="1247" d="M72 897q0 35 16 35q111 0 214 6t104 6q-1 -108 -4 -367t-3 -327q0 -94 40.5 -132t125.5 -38q117 0 203 82t86 186v453q0 36 -27.5 45.5t-107.5 9.5q-12 0 -12 43q0 33 18 33q61 0 126.5 3t109 6t51.5 3q35 0 35 -26q-15 -282 -15 -746q0 -29 9.5 -42t21.5 -13h90 q16 0 16 -35q0 -34 -14 -37q-164 -45 -240 -76q-16 3 -28 17.5t-15 31.5q-16 69 -16 144q-67 -93 -162 -146t-211 -53q-131 0 -195.5 66.5t-64.5 206.5v481q0 94 -24 116.5t-115 22.5q-12 0 -12 41zM344 1485q0 20 23 30.5t57 10.5q30 0 59.5 -7t32.5 -14l248 -389 q6 -9 6 -14q0 -14 -13.5 -24.5t-27.5 -10.5q-8 0 -20 12l-344 367q-21 24 -21 39z" />
<glyph unicode="&#xfa;" horiz-adv-x="1247" d="M72 897q0 35 16 35q111 0 214 6t104 6q-1 -108 -4 -367t-3 -327q0 -94 40.5 -132t125.5 -38q117 0 203 82t86 186v453q0 36 -27.5 45.5t-107.5 9.5q-12 0 -12 43q0 33 18 33q61 0 126.5 3t109 6t51.5 3q35 0 35 -26q-15 -282 -15 -746q0 -29 9.5 -42t21.5 -13h90 q16 0 16 -35q0 -34 -14 -37q-164 -45 -240 -76q-16 3 -28 17.5t-15 31.5q-16 69 -16 144q-67 -93 -162 -146t-211 -53q-131 0 -195.5 66.5t-64.5 206.5v481q0 94 -24 116.5t-115 22.5q-12 0 -12 41zM477 1102q0 5 6 14l248 389q3 7 32.5 14t61.5 7t55 -10.5t23 -30.5 q0 -15 -18 -39l-344 -367q-12 -12 -23 -12q-13 0 -27 10.5t-14 24.5z" />
<glyph unicode="&#xfb;" horiz-adv-x="1247" d="M72 897q0 35 16 35q111 0 214 6t104 6q-1 -108 -4 -367t-3 -327q0 -94 40.5 -132t125.5 -38q117 0 203 82t86 186v453q0 36 -27.5 45.5t-107.5 9.5q-12 0 -12 43q0 33 18 33q61 0 126.5 3t109 6t51.5 3q35 0 35 -26q-15 -282 -15 -746q0 -29 9.5 -42t21.5 -13h90 q16 0 16 -35q0 -34 -14 -37q-164 -45 -240 -76q-16 3 -28 17.5t-15 31.5q-16 69 -16 144q-67 -93 -162 -146t-211 -53q-131 0 -195.5 66.5t-64.5 206.5v481q0 94 -24 116.5t-115 22.5q-12 0 -12 41zM328 1116l227 389q12 21 51 21q36 0 49 -21l224 -389q0 -21 -11.5 -33 t-25.5 -12q-12 0 -25 10l-223 258l-209 -258q-12 -12 -20 -12q-17 0 -27 13t-10 34z" />
<glyph unicode="&#xfc;" horiz-adv-x="1247" d="M72 897q0 35 16 35q111 0 214 6t104 6q-1 -108 -4 -367t-3 -327q0 -94 40.5 -132t125.5 -38q117 0 203 82t86 186v453q0 36 -27.5 45.5t-107.5 9.5q-12 0 -12 43q0 33 18 33q61 0 126.5 3t109 6t51.5 3q35 0 35 -26q-15 -282 -15 -746q0 -29 9.5 -42t21.5 -13h90 q16 0 16 -35q0 -34 -14 -37q-164 -45 -240 -76q-16 3 -28 17.5t-15 31.5q-16 69 -16 144q-67 -93 -162 -146t-211 -53q-131 0 -195.5 66.5t-64.5 206.5v481q0 94 -24 116.5t-115 22.5q-12 0 -12 41zM338 1264q0 45 30 77.5t72 32.5q43 0 74 -33t31 -77q0 -46 -30.5 -78.5 t-74.5 -32.5t-73 32.5t-29 78.5zM696 1264q0 44 32 77t73 33q42 0 72 -32.5t30 -77.5q0 -46 -29 -78.5t-73 -32.5t-74.5 32.5t-30.5 78.5z" />
<glyph unicode="&#xfd;" horiz-adv-x="1071" d="M8 905q0 8 3 20.5t7 12.5q6 0 36.5 -1.5t79.5 -3t99 -1.5t114.5 3t92.5 3q11 0 11 -33q0 -43 -13 -43q-55 0 -74.5 -14t-19.5 -39q0 -27 12 -64q44 -123 236 -524q38 85 79.5 183t87.5 224.5t46 168.5q0 34 -20.5 50.5t-82.5 16.5q-5 0 -8.5 9.5t-3.5 21.5q0 43 8 43 q6 0 75 -3t116 -3q43 0 108 3t66 3q5 0 8.5 -8.5t3.5 -18.5q0 -49 -12 -49q-71 0 -125 -88q-22 -38 -86 -172q-195 -400 -403 -936q-51 -128 -110 -186t-118 -58q-90 0 -90 86q0 35 18.5 61.5t48 45t61.5 35.5t66 44t54 60q15 25 27.5 49t20.5 41t18.5 42.5t14.5 36.5 t14.5 41t14.5 40q-1 8 -9.5 30.5t-30 69.5t-38.5 84t-53.5 115t-56.5 121q-18 39 -45.5 99.5t-44 97t-39.5 82t-39 72t-35 49t-35 30.5t-40 8q-15 0 -15 43zM455 1102q0 5 6 14l248 389q3 7 32.5 14t61.5 7t55 -10.5t23 -30.5q0 -14 -19 -39l-344 -367q-12 -12 -22 -12 q-13 0 -27 10.5t-14 24.5z" />
<glyph unicode="&#xfe;" horiz-adv-x="1269" d="M43 -526q0 41 14 41q56 0 89.5 6t48.5 21.5t19 29.5t5 41q4 122 4 559v1151q0 40 -10 57.5t-40.5 26t-98.5 8.5q-13 0 -13 37q0 39 13 39q81 0 150 8.5t105 16.5t38 8q19 0 34 -7t15 -20q0 -19 -4 -99.5t-7.5 -234t-3.5 -348.5q47 77 136.5 118.5t205.5 41.5 q190 0 317.5 -143.5t127.5 -354.5q0 -146 -68.5 -264.5t-185 -184t-256.5 -65.5q-89 0 -160 31t-117 78v-455q0 -57 35.5 -79.5t138.5 -22.5q15 0 15 -39q0 -37 -15 -37q-2 0 -97 2t-183 2q-37 0 -115.5 -2t-122.5 -2q-14 0 -14 35zM401 236q0 -75 86.5 -133t169.5 -58 q57 0 108.5 21t98.5 68t75 135t28 208q0 190 -74 296t-225 106q-53 0 -97.5 -15.5t-84.5 -50t-62.5 -99t-22.5 -153.5v-325z" />
<glyph unicode="&#xff;" horiz-adv-x="1071" d="M8 905q0 8 3 20.5t7 12.5q6 0 36.5 -1.5t79.5 -3t99 -1.5t114.5 3t92.5 3q11 0 11 -33q0 -43 -13 -43q-55 0 -74.5 -14t-19.5 -39q0 -27 12 -64q44 -123 236 -524q38 85 79.5 183t87.5 224.5t46 168.5q0 34 -20.5 50.5t-82.5 16.5q-5 0 -8.5 9.5t-3.5 21.5q0 43 8 43 q6 0 75 -3t116 -3q43 0 108 3t66 3q5 0 8.5 -8.5t3.5 -18.5q0 -49 -12 -49q-71 0 -125 -88q-22 -38 -86 -172q-195 -400 -403 -936q-51 -128 -110 -186t-118 -58q-90 0 -90 86q0 35 18.5 61.5t48 45t61.5 35.5t66 44t54 60q15 25 27.5 49t20.5 41t18.5 42.5t14.5 36.5 t14.5 41t14.5 40q-1 8 -9.5 30.5t-30 69.5t-38.5 84t-53.5 115t-56.5 121q-18 39 -45.5 99.5t-44 97t-39.5 82t-39 72t-35 49t-35 30.5t-40 8q-15 0 -15 43zM258 1264q0 45 30 77.5t72 32.5q43 0 74 -33t31 -77q0 -46 -30.5 -78.5t-74.5 -32.5t-73 32.5t-29 78.5zM616 1264 q0 44 32 77t73 33q42 0 72 -32.5t30 -77.5q0 -46 -29 -78.5t-73 -32.5t-74.5 32.5t-30.5 78.5z" />
<glyph unicode="&#x152;" horiz-adv-x="2514" d="M98 727q0 157 62.5 299.5t169 245.5t256.5 164t317 61q153 0 287 -49l1067 10q22 0 28.5 -8t6.5 -31q0 -72 7 -176.5t7 -126.5q0 -20 -43 -20q-37 0 -39 16q-17 92 -56.5 147t-122 85t-218.5 30q-249 0 -461 -10q148 -95 239.5 -239t104.5 -310q68 4 115.5 15.5t74 28 t41 44t18 52.5t3.5 65q0 19 7.5 24t35.5 5q25 0 33 -6t8 -25q0 -4 -2.5 -28.5t-5 -80.5t-2.5 -135q0 -68 2.5 -122.5t5 -84t2.5 -37.5q0 -16 -8.5 -22t-32.5 -6q-28 0 -35.5 6t-7.5 22q0 41 -5 69.5t-20.5 55t-43 42.5t-73 26.5t-110.5 13.5q1 -184 -78.5 -342.5 t-218.5 -265.5q66 -53 330 -53q136 0 232 13t157 37t97.5 65.5t52.5 89t22 118.5q3 29 39 29q28 0 36.5 -4.5t8.5 -17.5q0 -22 -5 -150t-5 -236q0 -17 -6.5 -21.5t-24.5 -4.5q-58 0 -567 5t-619 5q-118 -37 -258 -37q-164 0 -310.5 53.5t-256.5 150t-174 240.5t-64 316z M354 719q0 -313 143 -489.5t406 -176.5q168 0 295 87t192.5 237t65.5 342q0 205 -69.5 362.5t-195.5 243.5t-288 86q-238 0 -393.5 -190t-155.5 -502z" />
<glyph unicode="&#x153;" horiz-adv-x="1814" d="M80 469q0 138 69.5 254.5t188.5 184t258 67.5q115 0 218.5 -47.5t176.5 -130.5q67 85 166.5 131.5t220.5 46.5q76 0 138 -21.5t100.5 -54.5t65 -74.5t37 -79t10.5 -71.5q0 -32 -11 -44t-39 -12h-581q-13 -47 -13 -126q0 -200 87.5 -309t230.5 -109q86 0 155 37t97 94 q7 14 18 14q13 0 33 -15.5t20 -27.5q0 -2 -6 -14q-42 -85 -134 -142t-224 -57q-259 0 -387 164q-73 -76 -170.5 -120t-208.5 -44q-139 0 -258 67.5t-188.5 184t-69.5 254.5zM301 471q0 -208 79.5 -317t223.5 -109q140 0 213.5 109.5t73.5 314.5q0 193 -74.5 308.5 t-212.5 115.5q-145 0 -224 -110t-79 -312zM1110 682l336 8q59 2 72.5 9.5t13.5 39.5q0 61 -44 105.5t-130 44.5q-183 0 -248 -207z" />
<glyph unicode="&#x178;" horiz-adv-x="1484" d="M6 1421q0 17 5.5 27t13.5 10q11 0 95.5 -5t174.5 -5q78 0 178.5 5t122.5 5q16 0 16 -37q0 -39 -14 -39q-25 0 -40 -1t-34 -5t-29.5 -11.5t-18 -22t-7.5 -35.5q0 -58 129 -269q102 -166 221 -346q39 69 114 189.5t95 154.5q100 168 100 242q0 54 -31 79t-112 25 q-14 0 -14 35q0 41 18 41q16 0 100 -5t144 -5q67 0 125.5 2.5t90.5 5t36 2.5q16 0 16 -39q0 -22 -4.5 -29.5t-17.5 -7.5q-62 0 -114.5 -33.5t-104.5 -109.5q-1 -1 -54.5 -84.5t-102.5 -160t-119 -189.5t-122 -201q-4 -106 -4 -362q0 -86 44 -127t157 -41q16 0 16 -35 q0 -41 -20 -41q-11 0 -107 3t-192 3q-94 0 -199.5 -3t-116.5 -3q-14 0 -14 37q0 39 14 39q110 0 155.5 36t45.5 126v333q-116 200 -272 434.5t-191 276.5q-50 62 -82.5 82t-77.5 20q-12 0 -12 39zM469 1663q0 42 30 72t72 30q47 0 78 -29.5t31 -72.5q0 -41 -31.5 -70.5 t-77.5 -29.5q-41 0 -71.5 30t-30.5 70zM879 1663q0 43 29.5 72.5t72.5 29.5q42 0 72 -30t30 -72q0 -40 -30.5 -70t-71.5 -30q-42 0 -72 30t-30 70z" />
<glyph unicode="&#x2c6;" horiz-adv-x="964" d="M209 1116l227 389q12 21 51 21q37 0 50 -21l223 -389q0 -21 -11.5 -33t-25.5 -12q-12 0 -25 10l-223 258l-209 -258q-12 -12 -20 -12q-17 0 -27 13t-10 34z" />
<glyph unicode="&#x2dc;" horiz-adv-x="1062" d="M281 1192q0 100 61.5 154.5t142.5 54.5q43 0 85.5 -18.5t71.5 -40t65 -40t67 -18.5q90 0 90 92q0 10 8 16.5t19 6.5q12 0 21.5 -10.5t9.5 -30.5q0 -102 -53 -160.5t-128 -58.5q-36 0 -80 23.5t-78.5 51t-74.5 51t-68 23.5q-39 0 -60.5 -30t-21.5 -74q0 -15 -9 -25 t-23 -10q-20 0 -32.5 11.5t-12.5 31.5z" />
<glyph unicode="&#x2000;" horiz-adv-x="960" />
<glyph unicode="&#x2001;" horiz-adv-x="1921" />
<glyph unicode="&#x2002;" horiz-adv-x="960" />
<glyph unicode="&#x2003;" horiz-adv-x="1921" />
<glyph unicode="&#x2004;" horiz-adv-x="640" />
<glyph unicode="&#x2005;" horiz-adv-x="480" />
<glyph unicode="&#x2006;" horiz-adv-x="320" />
<glyph unicode="&#x2007;" horiz-adv-x="320" />
<glyph unicode="&#x2008;" horiz-adv-x="240" />
<glyph unicode="&#x2009;" horiz-adv-x="384" />
<glyph unicode="&#x200a;" horiz-adv-x="106" />
<glyph unicode="&#x2010;" horiz-adv-x="614" d="M96 555q0 33 6.5 60.5t14.5 27.5h381q20 0 20 -86q0 -36 -5.5 -61t-14.5 -25h-381q-8 0 -14.5 26.5t-6.5 57.5z" />
<glyph unicode="&#x2011;" horiz-adv-x="614" d="M96 555q0 33 6.5 60.5t14.5 27.5h381q20 0 20 -86q0 -36 -5.5 -61t-14.5 -25h-381q-8 0 -14.5 26.5t-6.5 57.5z" />
<glyph unicode="&#x2012;" horiz-adv-x="614" d="M96 555q0 33 6.5 60.5t14.5 27.5h381q20 0 20 -86q0 -36 -5.5 -61t-14.5 -25h-381q-8 0 -14.5 26.5t-6.5 57.5z" />
<glyph unicode="&#x2013;" horiz-adv-x="1273" d="M102 565q0 22 3 39.5t7.5 26t8.5 8.5h1032q14 0 14 -72q0 -73 -14 -73h-1032q-4 0 -8.5 8t-7.5 25t-3 38z" />
<glyph unicode="&#x2014;" horiz-adv-x="1847" d="M102 565q0 22 3 39.5t7.5 26t8.5 8.5h1595q15 0 15 -72q0 -73 -15 -73h-1595q-4 0 -8.5 8t-7.5 25t-3 38z" />
<glyph unicode="&#x2018;" horiz-adv-x="604" d="M147 1300q0 63 20 118.5t49.5 92t64 64t62 39.5t44.5 12q19 0 30 -15t11 -34t-14 -25q-74 -49 -114 -105t-40 -138q0 -58 25 -58q12 0 16 4q29 25 57 25q42 0 70.5 -33t28.5 -82q0 -52 -38 -83t-91 -31q-73 0 -127 62t-54 187z" />
<glyph unicode="&#x2019;" horiz-adv-x="602" d="M147 1507q0 50 39.5 82.5t89.5 32.5q73 0 127 -62t54 -188q0 -63 -20 -118t-49 -91.5t-63 -63t-61.5 -38.5t-44.5 -12q-21 0 -32 13t-11 32q0 20 14 28q156 96 156 240q0 23 -5 37.5t-10.5 19t-11.5 4.5q-13 0 -16 -6q-26 -26 -55 -26q-43 0 -72 33.5t-29 82.5z" />
<glyph unicode="&#x201a;" horiz-adv-x="559" d="M127 135q0 52 37.5 83.5t91.5 31.5q73 0 125.5 -62.5t52.5 -187.5q0 -63 -19.5 -118.5t-48.5 -92t-63 -64t-62 -39.5t-46 -12q-17 0 -27 15t-10 32q0 24 12 29q73 45 113.5 102t40.5 140q0 57 -25 57q-14 0 -16 -4q-35 -27 -58 -27q-41 0 -69.5 34t-28.5 83z" />
<glyph unicode="&#x201c;" horiz-adv-x="962" d="M121 1300q0 77 29.5 143t70.5 103.5t78.5 58.5t60.5 21q18 0 29.5 -15.5t11.5 -33.5q0 -19 -16 -25q-72 -48 -110.5 -104t-38.5 -139q0 -58 20 -58q14 0 18 4q29 25 58 25q40 0 69 -33t29 -82q0 -52 -38 -83t-93 -31q-73 0 -125.5 62t-52.5 187zM530 1300q0 77 29.5 143 t71 103.5t79 58.5t60.5 21q18 0 29.5 -15.5t11.5 -33.5q0 -20 -16 -25q-73 -49 -112.5 -104.5t-39.5 -138.5q0 -22 5 -36t10 -18t10 -4q12 0 16 4q29 25 57 25q41 0 71 -33t30 -82q0 -51 -40 -82.5t-93 -31.5q-73 0 -126 62t-53 187z" />
<glyph unicode="&#x201d;" horiz-adv-x="962" d="M121 1507q0 50 39.5 82.5t89.5 32.5q73 0 126.5 -62t53.5 -188q0 -77 -29.5 -142.5t-70.5 -102.5t-78 -57.5t-59 -20.5q-21 0 -32 13t-11 32q0 20 14 28q155 96 155 240q0 61 -26 61q-14 0 -17 -6q-26 -26 -55 -26q-43 0 -71.5 33t-28.5 83zM532 1507q0 51 38 83t92 32 q74 0 127 -61.5t53 -188.5q0 -77 -30 -142.5t-71.5 -102.5t-79.5 -57.5t-61 -20.5q-18 0 -29.5 13.5t-11.5 31.5q0 20 16 28q152 94 152 240q0 61 -22 61q-16 0 -19 -6q-26 -26 -55 -26q-41 0 -70 33.5t-29 82.5z" />
<glyph unicode="&#x201e;" horiz-adv-x="958" d="M121 135q0 52 37.5 83.5t91.5 31.5q73 0 125.5 -62.5t52.5 -187.5q0 -63 -19.5 -118.5t-49 -92t-63.5 -64t-62 -39.5t-46 -12q-17 0 -26.5 15t-9.5 32q0 24 12 29q72 45 112.5 102t40.5 140q0 57 -24 57q-15 0 -17 -4q-35 -27 -57 -27q-41 0 -69.5 34t-28.5 83zM530 135 q0 52 38 83.5t91 31.5q73 0 126 -62.5t53 -187.5q0 -63 -19.5 -118.5t-49 -92t-63 -64t-61.5 -39.5t-45 -12q-19 0 -30 14t-11 33q0 22 14 29q73 44 113.5 101.5t40.5 140.5q0 57 -27 57q-12 0 -14 -4q-31 -27 -57 -27q-41 0 -70 34t-29 83z" />
<glyph unicode="&#x2022;" horiz-adv-x="890" d="M123 512q0 132 95.5 227t227.5 95q131 0 226.5 -95t95.5 -227q0 -133 -95.5 -227.5t-226.5 -94.5q-132 0 -227.5 94.5t-95.5 227.5z" />
<glyph unicode="&#x202f;" horiz-adv-x="384" />
<glyph unicode="&#x2039;" horiz-adv-x="823" d="M96 467q0 32 15 47l573 367q16 0 26.5 -14.5t10.5 -30.5q0 -11 -6 -17l-375 -336l375 -368q6 -6 6 -17q0 -16 -11.5 -30.5t-25.5 -14.5l-573 367q-15 15 -15 47z" />
<glyph unicode="&#x203a;" horiz-adv-x="823" d="M111 98q0 11 6 17l375 336l-375 368q-6 6 -6 17q0 16 11 30.5t25 14.5l574 -367q14 -14 14 -47t-14 -47l-574 -367q-16 0 -26 14t-10 31z" />
<glyph unicode="&#x205f;" horiz-adv-x="480" />
<glyph unicode="&#x20ac;" d="M102 733q0 164 48 308t129 243t189.5 156t227.5 57q92 0 161 -20.5t105 -54t53 -68.5t17 -70q0 -42 -23 -66t-61 -24q-48 0 -72.5 23.5t-35.5 74.5q-24 109 -138 109q-151 0 -244 -101t-126 -325h418q8 0 8 -14q0 -25 -12 -58t-23 -33h-406q-11 -98 -4 -223h357 q8 0 8 -14q0 -28 -10.5 -59t-26.5 -31h-317q29 -231 126 -351t248 -120q84 0 156.5 42t110.5 107q10 12 22 12t29.5 -13.5t17.5 -31.5q-52 -106 -149 -163.5t-230 -57.5q-113 0 -206.5 46t-156.5 122t-107 176.5t-63.5 206.5t-19.5 215z" />
<glyph unicode="&#x2122;" horiz-adv-x="1730" d="M90 1282q0 10 3 75t3 77q0 22 21 22q4 0 57.5 -2t118 -4t96.5 -2q33 0 98.5 2t118.5 4t56 2q18 0 18 -22q0 -12 4 -77t4 -75q0 -3 -7.5 -8.5t-14.5 -5.5q-13 0 -17 10q-16 60 -41.5 81t-95.5 21q-37 0 -57 -2q0 -34 -1 -223t-1 -209q0 -40 16 -54t63 -15q7 0 7 -21 q0 -25 -15 -25q-20 1 -47.5 2t-48 2t-39.5 1q-18 0 -71 -2.5t-68 -2.5q-8 0 -8 21q0 25 12 25q38 5 55 20t17 53q0 46 2 219.5t2 208.5q-23 2 -62 2q-72 0 -96.5 -20t-40.5 -82q0 -10 -18 -10q-7 0 -15 5.5t-8 8.5zM768 1436q0 16 8 16q90 -4 103 -4l125 2q8 0 18 -10 q23 -62 164 -404q19 54 50.5 125.5t74.5 162.5t53 114q4 14 18 14h21q88 0 172 4q10 -2 10 -29q0 -22 -8 -22q-49 -5 -66.5 -19.5t-17.5 -56.5q0 -11 -2 -183.5t-2 -199.5q0 -18 1.5 -27t8.5 -19t22.5 -15t41.5 -8q8 -3 8 -23q0 -23 -8 -23q-74 5 -142 5q-61 0 -127 -5 q-10 0 -10 19q0 26 12 29q44 3 59 17.5t15 57.5q0 194 6 365q-37 -75 -110 -252.5t-78 -200.5q-6 -18 -23 -18q-21 0 -26 16q-18 44 -88.5 203t-104.5 227q-10 -215 -10 -356q0 -30 13 -44t55 -20q10 0 10 -24q0 -19 -8 -19q-14 0 -59.5 2.5t-67.5 2.5q-42 0 -101 -5 q-6 0 -6 21q0 22 10 25q41 5 59.5 21t18.5 56q0 67 5.5 207t8.5 185q0 57 -92 57q-6 0 -10 11t-4 22z" />
<glyph unicode="&#xe000;" horiz-adv-x="942" d="M0 0v942h942v-942h-942z" />
</font>
</defs>
</svg>
