<?xml version="1.0" standalone="no"?>
<!DOCTYPE svg PUBLIC "-//W3C//DTD SVG 1.1//EN" "http://www.w3.org/Graphics/SVG/1.1/DTD/svg11.dtd" >
<svg xmlns="http://www.w3.org/2000/svg">
<metadata></metadata>
<defs>
<font id="baskerville_10_pro_mediumIt" horiz-adv-x="1474" >
<font-face units-per-em="2048" ascent="1638" descent="-410" />
<missing-glyph horiz-adv-x="538" />
<glyph unicode="&#xfb01;" horiz-adv-x="1136" d="M-557 -369q0 51 31 80t71 29q38 0 65.5 -25.5t27.5 -72.5t27.5 -77t84.5 -30q37 0 65 9t60.5 38.5t62 82t63 141t69.5 214.5l233 830q-98 -4 -141 -4q-15 0 -15 39q0 51 19 51q15 0 156 -6q33 140 75.5 241t89.5 165t108.5 101.5t125.5 51.5t147 14q156 0 233 -55.5 t77 -134.5q0 -57 -34.5 -90t-80.5 -33q-43 0 -71.5 26t-28.5 74q6 6 6 23q0 92 -103 92q-58 0 -97.5 -17.5t-79.5 -70t-75.5 -145t-78.5 -244.5q232 41 352 41q98 0 132 -31.5t34 -97.5q0 -116 -109 -385q-57 -144 -79.5 -213.5t-22.5 -108.5q0 -35 30 -35q38 0 89.5 56.5 t85.5 154.5q7 13 20 13q12 0 25 -9t12 -24q-41 -140 -139 -231t-201 -91q-135 0 -135 144q0 59 24.5 141t81.5 229q108 279 123 369h-342l-225 -799q-53 -187 -107.5 -306.5t-124 -188.5t-146.5 -95t-187 -26q-145 0 -214 54.5t-69 141.5z" />
<glyph unicode="&#xfb02;" horiz-adv-x="1181" d="M-553 -373q0 52 30 80.5t72 28.5q36 0 62.5 -24t26.5 -66q0 -109 110 -109q66 0 113 34t99 139.5t108 301.5l237 838q-98 -4 -145 -4q-15 0 -15 33q0 55 19 55q16 0 76.5 -2t85.5 -2q80 314 196 440.5t326 126.5q178 0 246 -104q71 40 155 131q45 0 45 -43v-8 q-103 -292 -246 -721t-182 -576q-4 -24 -4 -33q0 -39 35 -39q42 0 97 59t87 152q7 11 17 11q12 0 25.5 -7.5t13.5 -19.5v-4q-34 -135 -132 -230.5t-206 -95.5q-64 0 -102 39t-38 111q0 55 19 117q60 196 176 563t135 428q10 38 10 63q0 56 -38.5 86.5t-116.5 30.5 q-59 0 -101 -25t-82.5 -95.5t-76.5 -194.5l-47 -162q34 0 98.5 2t83.5 2q13 0 17.5 -7t4.5 -28q0 -22 -6.5 -37.5t-15.5 -15.5q-67 0 -203 4l-229 -805q-52 -183 -104.5 -299t-119.5 -185t-144 -95.5t-187 -26.5q-157 0 -221 47.5t-64 140.5z" />
<glyph unicode="&#xfb03;" horiz-adv-x="1728" d="M-553 -373q0 52 30 80.5t72 28.5q36 0 62.5 -24t26.5 -66q0 -109 110 -109q66 0 113 34t99 139.5t108 301.5l237 838q-98 -4 -145 -4q-15 0 -15 33q0 55 19 55q16 0 76.5 -2t85.5 -2q41 171 94 285t121 176.5t142.5 87t174.5 24.5q82 0 144 -31t94 -77q117 108 305 108 q166 0 249 -54.5t83 -135.5q0 -57 -34.5 -90t-80.5 -33q-43 0 -71.5 26t-28.5 74q6 6 6 23q0 92 -105 92q-60 0 -101.5 -17.5t-82 -68.5t-74.5 -145t-71 -246q232 41 352 41q98 0 132 -32t34 -99q0 -125 -107 -383q-104 -248 -104 -322q0 -35 30 -35q37 0 87.5 56t87.5 155 q3 13 18 13q12 0 24.5 -8t12.5 -21v-4q-39 -140 -136.5 -230t-201.5 -90q-69 0 -101 32.5t-32 109.5q0 114 104 370q103 256 121 369h-342l-229 -805q-51 -180 -108.5 -298.5t-130 -186t-153.5 -94.5t-190 -27q-158 0 -223 96q-58 -52 -130.5 -74t-170.5 -22q-159 0 -223 48 t-64 140zM123 -360q3 -48 40 -75.5t91 -27.5q57 0 101 18.5t90.5 68t90 146t85.5 242.5l237 838q-53 -2 -190 -2q-103 0 -152 2l-229 -805q-74 -265 -164 -405zM539 930q30 0 89 1t93 1q36 0 89 -1t69 -1q53 235 129 358q-4 53 -42 80t-98 27h-20q-68 -4 -117 -45 t-95.5 -140.5t-96.5 -279.5z" />
<glyph unicode="&#xfb04;" horiz-adv-x="1742" d="M-553 -373q0 52 30 80.5t72 28.5q36 0 62.5 -24t26.5 -66q0 -109 110 -109q66 0 113 34t99 139.5t108 301.5l237 838q-98 -4 -145 -4q-15 0 -15 33q0 55 19 55q16 0 76.5 -2t85.5 -2q56 218 127.5 342.5t168.5 177.5t242 53q156 0 242 -108q113 102 301 102 q172 0 240 -104q71 40 155 131q45 0 45 -43v-8q-111 -317 -250.5 -734t-177.5 -563q-4 -24 -4 -33q0 -22 8 -30.5t27 -8.5q40 0 95.5 59t88.5 152q4 11 17 11q12 0 25.5 -8t13.5 -23q-36 -135 -134 -230.5t-204 -95.5q-65 0 -103.5 39t-38.5 111q0 55 19 117 q276 876 311 989q8 27 8 57q0 121 -145 121q-63 0 -104.5 -24.5t-80 -92.5t-77.5 -194l-49 -162q34 0 98.5 2t83.5 2q13 0 17.5 -7t4.5 -28q0 -22 -6.5 -37.5t-15.5 -15.5q-69 0 -205 4l-229 -805q-51 -180 -108.5 -298.5t-130 -186t-153.5 -94.5t-190 -27q-158 0 -223 96 q-58 -52 -130.5 -74t-170.5 -22q-159 0 -223 47.5t-64 140.5zM123 -360q3 -48 40 -75.5t91 -27.5q57 0 101 18.5t90.5 68t90 146t85.5 242.5l237 838q-53 -2 -190 -2q-103 0 -152 2l-229 -805q-74 -265 -164 -405zM539 930q30 0 89 1t93 1q36 0 89 -1t69 -1q53 216 131 366 q-8 48 -44.5 76.5t-91.5 28.5q-76 0 -128.5 -37.5t-104 -141t-102.5 -292.5z" />
<glyph horiz-adv-x="0" />
<glyph horiz-adv-x="0" />
<glyph horiz-adv-x="682" />
<glyph unicode="&#xd;" horiz-adv-x="538" />
<glyph unicode=" "  horiz-adv-x="538" />
<glyph unicode="&#x09;" horiz-adv-x="538" />
<glyph unicode="&#xa0;" horiz-adv-x="538" />
<glyph unicode="!" horiz-adv-x="581" d="M74 119q0 53 38.5 91t92.5 38q53 0 92 -38.5t39 -90.5q0 -54 -39 -92.5t-92 -38.5q-54 0 -92.5 38.5t-38.5 92.5zM233 430v6q14 51 76 453t82 485q9 44 70 78.5t133 34.5q40 0 67 -19t27 -53v-12l-10 -39q-23 -71 -107.5 -293t-159.5 -416t-79 -211q-6 -20 -23.5 -30.5 t-38.5 -10.5q-15 0 -26 8t-11 19z" />
<glyph unicode="&#x22;" horiz-adv-x="784" d="M254 985l29 395q0 62 46 101t101 39q46 0 71 -23.5t25 -64.5q0 -32 -20 -80l-174 -371q-12 -25 -41 -25q-37 0 -37 29zM614 985l29 395q0 62 46 101t102 39q46 0 71 -23.5t25 -64.5q0 -37 -19 -80l-176 -371q-12 -25 -41 -25q-37 0 -37 29z" />
<glyph unicode="#" horiz-adv-x="1097" d="M20 377l37 151h228l61 240h-225l37 154h227l86 358h156l-88 -358h221q27 106 88 358h156l-89 -358h213l-36 -154h-213l-62 -240h211l-35 -151h-213q-16 -62 -46.5 -187t-47.5 -188h-156q16 63 47 188t48 187h-222q-16 -62 -47 -187t-47 -188h-153l92 375h-228zM440 528 h222l61 240h-221z" />
<glyph unicode="$" horiz-adv-x="1052" d="M68 248q0 60 32.5 97.5t79.5 37.5q86 0 86 -94q0 -10 -1 -30.5t-1 -29.5q0 -117 105 -143q69 221 153 530q-107 84 -159 168.5t-52 184.5q0 174 122.5 287.5t316.5 117.5q12 38 22.5 75t16.5 61t12.5 47t10 36t8 25t8.5 17t10 9.5t13 5.5t17 1q32 0 55 -8.5t23 -24.5 q-57 -169 -86 -262q106 -26 159.5 -88.5t53.5 -132.5q0 -54 -27 -87.5t-73 -33.5q-33 0 -55.5 23.5t-22.5 68.5q0 124 -66 162q-10 -33 -37 -124t-52.5 -179t-47.5 -166q85 -59 137.5 -116t82.5 -130.5t30 -163.5q0 -76 -33 -148.5t-93.5 -131.5t-155.5 -96t-209 -40 q-42 -155 -89 -313q-4 -18 -53 -18q-31 0 -54.5 8.5t-23.5 25.5q68 193 105 314q-124 26 -196 98t-72 160zM477 61q120 4 194 78.5t74 182.5q0 74 -29.5 131.5t-97.5 107.5q-97 -351 -141 -500zM494 1057q0 -116 104 -195l125 428q-104 -1 -166.5 -68t-62.5 -165z" />
<glyph unicode="%" horiz-adv-x="1460" d="M2 20q4 15 10 21l1215 1247q-100 -49 -197 -49q-51 0 -106.5 15t-83.5 40q4 -32 4 -53q0 -83 -32.5 -170t-86.5 -158.5t-133 -117t-164 -45.5q-107 0 -169 67.5t-62 183.5q0 123 55 235.5t154 183.5t215 71q79 0 133 -41q82 -68 141.5 -93.5t146.5 -25.5q96 0 198.5 39.5 t164.5 108.5q11 14 31 14q30 0 59 -18.5t29 -42.5q-6 -9 -14.5 -18t-19.5 -20t-17 -18l-1348 -1394q-13 -15 -35 -15q-29 0 -58.5 16.5t-29.5 36.5zM379 1010q0 -77 28.5 -115.5t77.5 -38.5q96 0 179.5 115t83.5 274q0 71 -28.5 110.5t-82.5 39.5q-95 0 -176.5 -119 t-81.5 -266zM717 221q0 89 32.5 178t87.5 159.5t136 114.5t170 44q103 0 162 -68t59 -182q0 -85 -32.5 -173.5t-86.5 -160.5t-133 -118t-164 -46q-107 0 -169 68t-62 184zM901 229q0 -153 105 -153q61 0 121.5 50.5t101.5 142t41 196.5q0 71 -28.5 110t-82.5 39 q-94 0 -176 -118t-82 -267z" />
<glyph unicode="&#x26;" horiz-adv-x="1648" d="M127 457q0 97 37 182.5t103.5 148.5t165 100t214.5 38q-98 86 -98 254q0 135 91 231t251 96q148 0 225.5 -77t77.5 -209q0 -51 -6 -84q-5 -25 -35 -25q-33 0 -33 23q0 186 -207 186q-111 0 -174 -65.5t-63 -165.5q0 -68 28.5 -108t79.5 -40q86 0 123 -18.5t37 -55.5 q0 -27 -19 -43t-46 -16q-43 0 -93 31q-29 14 -46.5 18t-53.5 4q-129 0 -216 -104t-87 -277q0 -184 106.5 -298.5t305.5 -114.5q194 0 299.5 81.5t105.5 221.5q0 110 -61 172.5t-183 62.5q-91 0 -142.5 -43t-51.5 -106q0 -29 20 -29q11 1 34.5 17t47.5 16q41 0 63.5 -27 t22.5 -65q0 -46 -33 -72.5t-81 -26.5q-72 0 -116 53.5t-44 120.5q0 211 381 314q312 91 405 155q64 42 89.5 79t25.5 85q0 49 -19.5 73t-48.5 24q-26 0 -26 -31q1 -11 10.5 -32.5t9.5 -37.5q0 -39 -27.5 -60.5t-66.5 -21.5q-47 0 -70.5 30t-23.5 77q0 76 49.5 115.5 t126.5 39.5q104 0 164.5 -63t60.5 -166q0 -185 -205 -266q-35 -15 -92.5 -27.5t-100.5 -19t-149.5 -20.5t-156.5 -21q158 -10 251 -101.5t93 -218.5q0 -171 -154 -281t-432 -110q-300 0 -471.5 136.5t-171.5 361.5z" />
<glyph unicode="'" horiz-adv-x="501" d="M299 985l29 395q0 62 46 101t101 39q46 0 71 -23.5t25 -64.5q0 -32 -20 -80l-174 -371q-13 -25 -41 -25q-37 0 -37 29z" />
<glyph unicode="(" horiz-adv-x="851" d="M164 -204q-84 287 4 663q90 371 314.5 664.5t555.5 478.5q19 0 29.5 -19t7.5 -39q-3 -13 -18 -22q-126 -77 -235.5 -200t-189 -268t-136 -293t-93.5 -302q-37 -152 -51 -295.5t-4 -285.5t58.5 -268.5t132.5 -219.5q12 -12 10 -25q-5 -19 -20.5 -34t-34.5 -15 q-246 193 -330 480z" />
<glyph unicode=")" horiz-adv-x="851" d="M-166 -627q3 13 19 23q125 77 234.5 200t188.5 268t136 293t94 302q37 152 51 296t3.5 285.5t-58 268t-131.5 219.5q-13 13 -11 24q5 19 20 34.5t34 15.5q247 -193 331 -480t-6 -663q-89 -370 -313 -663.5t-555 -479.5q-19 0 -30.5 18.5t-6.5 38.5z" />
<glyph unicode="*" horiz-adv-x="970" d="M180 1274q0 52 29.5 81t66.5 29q47 0 84 -26t99 -101q63 -79 88 -79q12 0 12 18q0 21 -14 72q-27 105 -27 149q0 54 28 94.5t79 40.5q16 0 24 -2q84 -17 84 -102q0 -39 -16 -81t-68 -118q-39 -55 -39 -73q0 -13 17 -13q23 -2 100 49q104 66 162 66q49 0 80.5 -23.5 t31.5 -72.5q0 -55 -31 -85t-91 -30q-45 0 -113 20l-117 27q-2 0 -5.5 1t-4.5 1q-17 0 -21 -14q0 -13 16 -30t60 -54q131 -108 131 -189q0 -42 -33.5 -71t-74.5 -29q-59 0 -88.5 55.5t-38.5 188.5q0 32 -6 68.5t-17 39.5q-20 0 -37 -45l-20 -49q-43 -104 -84 -149t-86 -45 q-39 0 -73 31.5t-34 74.5q1 51 48.5 90.5t144.5 73.5q98 34 98 59q0 14 -22 19q-176 20 -214 29q-90 22 -104 75q-4 13 -4 29z" />
<glyph unicode="+" horiz-adv-x="1101" d="M172 412q31 118 41 163h346l80 345h168l-78 -345h340l-41 -163h-340l-78 -340h-168l76 340h-346z" />
<glyph unicode="," horiz-adv-x="626" d="M-41 -309q0 31 27 37q83 27 140.5 76t81 97t23.5 93q0 21 -10.5 30t-38.5 9q-52 0 -82 29t-30 88q0 52 38 95.5t109 43.5q83 0 126.5 -51t43.5 -144q0 -164 -113 -287t-266 -161q-24 -1 -36.5 11.5t-12.5 33.5z" />
<glyph unicode="-" horiz-adv-x="634" d="M104 481q0 47 15 106.5t31 59.5l409 12q12 0 12 -32q0 -42 -18 -103.5t-31 -62.5l-409 -12q-9 0 -9 32z" />
<glyph unicode="." horiz-adv-x="626" d="M82 133q0 63 44 108.5t107 45.5t108.5 -45.5t45.5 -108.5t-45.5 -107t-108.5 -44t-107 44t-44 107z" />
<glyph unicode="/" horiz-adv-x="1075" d="M14 -76l1071 1589q9 12 45 19.5t76 7.5q25 0 43.5 -4.5t27.5 -11t13 -12.5t4 -11l-1048 -1581q-30 -43 -96 -43q-55 0 -95.5 12t-40.5 35z" />
<glyph unicode="0" horiz-adv-x="1171" d="M84 397q0 88 26.5 181.5t79.5 181.5t125 157.5t172 111.5t211 42q181 0 289.5 -109t108.5 -327q0 -129 -48.5 -251.5t-130 -215t-195 -149t-235.5 -56.5q-181 0 -292 107.5t-111 326.5zM307 309q0 -126 43.5 -180.5t136.5 -54.5q65 0 133 52.5t121.5 138.5t88 207 t34.5 247q0 129 -39 183t-127 54q-71 0 -142.5 -54t-126 -141.5t-88.5 -207.5t-34 -244z" />
<glyph unicode="1" horiz-adv-x="796" d="M14 33q0 21 4 29t15 8q86 0 122 22t54 80l192 653q17 59 -14.5 81t-132.5 22q-18 0 -18 33q0 27 5 38t17 11q79 0 174 8t159 16t66 8q20 0 36 -9t12 -25q-2 -7 -60.5 -195t-120.5 -388t-75 -245q-20 -66 6 -88t123 -22q12 0 12 -31q0 -43 -19 -43q-18 0 -111 5t-155 5 q-45 0 -140 -4t-136 -4q-9 0 -12 7.5t-3 27.5z" />
<glyph unicode="2" horiz-adv-x="1095" d="M0 39q0 22 16 35q127 60 219.5 108t183.5 103.5t152 108.5t109.5 113.5t71 127t22.5 141.5q0 189 -172 189q-85 0 -143 -54t-58 -137q0 -98 74 -139q19 -9 19 -23q0 -34 -35 -61t-88 -27q-71 0 -119.5 51.5t-48.5 141.5q0 153 128.5 253.5t327.5 100.5q166 0 259.5 -77 t93.5 -218q0 -89 -56 -178.5t-152.5 -167.5t-213.5 -144t-252 -120q94 8 281.5 17.5t269.5 9.5q12 0 20.5 -7t8.5 -20v-8q0 -10 -37 -113.5t-45 -159.5q-2 -12 -37 -12q-33 0 -33 18q0 57 -20 83t-68 26q-102 0 -348 -2t-299 -2q-31 0 -31 43z" />
<glyph unicode="3" horiz-adv-x="991" d="M-240 -344q0 55 33.5 88t81.5 33q46 0 72 -24.5t26 -71.5q0 -84 31 -123t119 -39q76 0 149 41.5t128.5 110.5t89.5 166t34 202q0 106 -36.5 160.5t-125.5 54.5q-39 0 -63 -13.5t-51 -45.5q-2 -1 -9 -8t-10.5 -9.5t-9.5 -6.5t-12.5 -5.5t-13.5 -1.5q-19 0 -34.5 17 t-15.5 40q0 18 12.5 36.5t30.5 27.5q195 88 303.5 164.5t154.5 157.5t46 188q0 76 -41.5 123t-116.5 47q-97 0 -147.5 -58.5t-50.5 -146.5q0 -70 39 -109q14 -17 14 -24q0 -17 -25.5 -32t-66.5 -15q-69 0 -108.5 40.5t-39.5 116.5q0 136 117.5 235t304.5 99 q174 0 262.5 -76.5t88.5 -214.5q0 -137 -119 -252.5t-350 -199.5q89 -7 154 -38.5t102.5 -81t55 -109t17.5 -130.5q0 -101 -46.5 -198t-129.5 -175t-211.5 -126t-279.5 -48q-90 0 -168 24.5t-131.5 79.5t-53.5 130z" />
<glyph unicode="4" horiz-adv-x="1134" d="M-39 37q0 20 16 39q14 16 165 181t289 316.5t266.5 296.5t144.5 170q14 25 69 25q49 0 85.5 -11t33.5 -32l-282 -883q103 0 165 8q52 8 88 66q7 12 21 12q9 0 22 -8t13 -18q-49 -96 -80 -176q-12 -27 -41 -27q-18 0 -103 2t-126 2q-63 -193 -136 -451q-6 -26 -112 -26 q-47 0 -81 9t-34 28l137 440h-485q-35 0 -35 37zM166 137q20 2 356 2q26 88 103.5 331.5t89.5 272.5q-64 -62 -277.5 -299t-271.5 -307z" />
<glyph unicode="5" horiz-adv-x="960" d="M-217 -367q0 59 31.5 94t81.5 35q43 0 67.5 -24.5t24.5 -69.5q-11 -18 -11 -30q0 -63 30.5 -90t92.5 -27q71 0 150 47.5t147 129t112 205.5t44 263q0 70 -31.5 119t-87.5 61q-38 41 -86 41q-39 0 -67 -17t-43 -41t-26.5 -48t-24.5 -41t-29 -17q-21 0 -36.5 13.5 t-15.5 31.5q0 15 13 33q70 92 145 256q120 270 166 453q7 28 33 28q2 0 56.5 -6t133 -12t138.5 -6q72 0 114.5 19t42.5 52q0 27 35 27q16 0 26.5 -9t10.5 -26q0 -134 -70.5 -214.5t-212.5 -80.5q-146 0 -268 39q-73 -217 -156 -352q66 8 95 8q194 0 294.5 -103t100.5 -270 q0 -132 -56.5 -256t-152 -217t-229.5 -149.5t-281 -56.5q-156 0 -228.5 60t-72.5 148z" />
<glyph unicode="6" horiz-adv-x="1105" d="M115 395q0 118 31.5 246t87.5 248t137 229t174.5 190t206.5 129t227 48q148 0 218.5 -56t70.5 -139q0 -57 -34.5 -91t-82.5 -34q-37 0 -63.5 22t-26.5 68q0 3 1 9t1 8q0 119 -105 119q-271 0 -520 -555q117 145 291 145q65 0 118.5 -22.5t87.5 -59t57 -84t32.5 -95 t9.5 -95.5q0 -137 -52.5 -263t-134.5 -211.5t-181.5 -136.5t-194.5 -51q-160 0 -258 105.5t-98 326.5zM324 229q0 -178 127 -178q83 0 164 95.5t131.5 245t50.5 298.5q0 197 -115 197q-101 0 -185 -100.5t-128.5 -250.5t-44.5 -307z" />
<glyph unicode="7" horiz-adv-x="942" d="M-49 -453q0 158 383 650l160 206q225 290 301 408q-10 0 -79.5 -3.5t-147 -6t-154.5 -2.5q-100 0 -149.5 -28t-90.5 -109q-8 -15 -22 -15q-13 0 -33.5 12t-20.5 23q114 197 170 365q6 21 13 27.5t22 6.5q19 0 27.5 -8.5t10 -19t11.5 -19t31 -8.5q93 0 322.5 1t287.5 1 q25 0 25 -29q0 -6 -4 -12q-82 -134 -263 -423.5t-284 -462.5t-160 -291q-24 -48 -45.5 -104.5t-34 -93.5t-29.5 -74.5t-34 -58.5t-44.5 -34.5t-64.5 -13.5q-49 0 -76.5 29t-27.5 87z" />
<glyph unicode="8" horiz-adv-x="1144" d="M88 291q0 145 107.5 268t341.5 205q-72 92 -106 166.5t-34 159.5q0 76 31 148.5t87 130.5t142.5 93t188.5 35q171 0 263.5 -81t92.5 -204q0 -69 -17.5 -122t-61 -104t-120.5 -97t-194 -92q180 -212 180 -416q0 -82 -34 -157.5t-95 -133t-153.5 -91.5t-202.5 -34 q-118 0 -210.5 35.5t-149 110.5t-56.5 180zM295 272q0 -102 55 -157.5t142 -55.5q112 0 182.5 74.5t70.5 218.5q0 164 -163 348q-135 -60 -211 -177t-76 -251zM621 1163q0 -70 34.5 -143t106.5 -164q254 117 254 363q0 95 -42 141.5t-130 46.5q-100 0 -161.5 -69t-61.5 -175 z" />
<glyph unicode="9" horiz-adv-x="1118" d="M-170 -389q0 57 35.5 90t79.5 33q42 0 66 -24t24 -66q-2 -6 -2 -19q0 -96 100 -96q130 0 282.5 170.5t282.5 486.5q-61 -80 -132.5 -119.5t-170.5 -39.5q-132 0 -209 91t-77 249q0 133 47.5 261t125.5 224.5t186.5 155.5t223.5 59q150 0 238 -105t88 -321q0 -47 -6 -100 q-12 -121 -50.5 -250t-98 -253t-142.5 -235t-178 -195.5t-211.5 -133.5t-237.5 -49q-132 0 -198 52.5t-66 133.5zM340 305q0 -93 27 -136.5t96 -43.5q74 0 142.5 68.5t113.5 170t71.5 214.5t26.5 206q0 102 -27.5 146.5t-93.5 44.5q-86 0 -170.5 -109.5t-135 -265.5 t-50.5 -295z" />
<glyph unicode=":" horiz-adv-x="626" d="M72 133q0 63 44 108.5t107 45.5t108.5 -45.5t45.5 -108.5t-45.5 -107t-108.5 -44t-107 44t-44 107zM256 840q0 63 45.5 108t108.5 45t108 -45t45 -108t-45 -107.5t-108 -44.5t-108.5 44.5t-45.5 107.5z" />
<glyph unicode=";" horiz-adv-x="626" d="M-20 -309q0 29 26 39q121 39 183.5 116t62.5 150q0 20 -10.5 28.5t-38.5 8.5q-47 0 -80 28.5t-33 79.5q0 21 7 44t22 47.5t46 40.5t73 16q83 0 126.5 -51t43.5 -144q-1 -83 -33.5 -159t-86 -133t-120.5 -97t-139 -59q-49 0 -49 45zM256 840q0 63 45.5 108t108.5 45 t108 -45t45 -108t-45 -107.5t-108 -44.5t-108.5 44.5t-45.5 107.5z" />
<glyph unicode="&#x3c;" horiz-adv-x="1028" d="M199 467q0 41 26 74l832 397q28 -33 41 -88q-14 -11 -41 -27q-27 -15 -230.5 -134t-310.5 -179l342 -344q13 -13 33 -41q-35 -48 -88 -84l-602 410q-2 4 -2 16z" />
<glyph unicode="=" horiz-adv-x="1067" d="M121 231q13 66 55 158q540 4 813 4l-10 -63q-14 -78 -39 -103q-245 0 -741 -4q-28 0 -78 8zM246 614q0 34 13.5 88.5t33.5 79.5q269 0 813 4q-12 -126 -49 -168z" />
<glyph unicode="&#x3e;" horiz-adv-x="1038" d="M131 127q1 1 31 25l549 317l-351 350l-24 33q28 40 90 86l600 -410q0 -76 -55 -106l-801 -381q-29 29 -39 86z" />
<glyph unicode="?" horiz-adv-x="811" d="M123 119q0 53 38.5 91t92.5 38q53 0 92 -38.5t39 -90.5q0 -54 -39 -92.5t-92 -38.5q-54 0 -92.5 38.5t-38.5 92.5zM201 555q0 63 30 120t77.5 101t105.5 86l116 84t105.5 86t77.5 99.5t30 117.5q0 74 -29.5 112t-80.5 38q-50 0 -80.5 -27.5t-30.5 -73.5q0 -37 39 -90 q0 -38 -33 -67t-77 -29q-56 0 -87.5 35t-31.5 96q0 101 88.5 169.5t224.5 68.5q138 0 221.5 -80t83.5 -201q0 -221 -297 -381q-40 -21 -93 -48t-81.5 -41.5t-63.5 -34t-53 -33.5t-35 -31.5t-23.5 -35.5t-6.5 -40q0 -34 17 -53t48 -19q19 0 37 9q16 0 28.5 14t20 31t24 31 t40.5 14q34 0 54 -21.5t20 -56.5q0 -53 -53 -93t-138 -40q-90 0 -142 49t-52 135z" />
<glyph unicode="@" horiz-adv-x="1802" d="M84 348q0 145 47 290t139.5 273.5t217.5 228.5t293 158t354 58q155 0 276.5 -47.5t195 -128t111 -180.5t37.5 -212q0 -145 -51.5 -276t-136.5 -223.5t-198 -146.5t-232 -54q-70 0 -107 38.5t-37 102.5q0 41 6 66q-57 -93 -143 -149t-166 -56q-97 0 -143.5 56.5 t-46.5 152.5q0 100 49.5 222.5t128.5 229.5t190.5 180t223.5 73q39 0 72.5 -20t47.5 -60l23 67q9 19 47 19q43 0 86 -11t43 -24q0 -19 -18.5 -73t-53.5 -145t-53 -143q-115 -291 -115 -374q0 -25 8.5 -34t32.5 -9q58 0 124.5 43t125 116.5t97 187.5t38.5 242q0 90 -26 166.5 t-80.5 140t-150 100t-222.5 36.5q-164 0 -320 -80.5t-268.5 -208.5t-180.5 -292t-68 -326q0 -244 126.5 -375t360.5 -131q145 0 274 39.5t195 107.5q14 14 27 14q14 0 22 -12.5t8 -27.5q0 -22 -12 -37q-85 -93 -222.5 -147t-301.5 -54q-319 0 -496.5 174.5t-177.5 474.5z M715 301q0 -50 13.5 -69t41.5 -19q55 0 123.5 60.5t124.5 170.5l43 93q96 207 98 299q0 84 -67 84q-57 0 -148 -111.5t-160 -261t-69 -246.5z" />
<glyph unicode="A" horiz-adv-x="1312" d="M-139 33q0 43 14 43q59 0 98 29t97 114q68 99 275 408t374.5 557.5t191.5 275.5q26 31 97 31q31 0 47 -9.5t16 -35.5v-1247q0 -75 30 -99t128 -24q14 0 14 -35q0 -45 -18 -45q-38 0 -130 4t-155 4q-66 0 -170.5 -3t-130.5 -3q-18 0 -18 39t18 39q113 0 144.5 31t31.5 135 v293q-13 0 -69 -2.5t-84 -2.5h-72q-92 0 -178 7q-199 -303 -199 -387q0 -42 32.5 -58t102.5 -16q17 0 17 -41q0 -37 -19 -37q-8 0 -110.5 3t-151.5 3q-55 0 -127.5 -4t-77.5 -4q-18 0 -18 37zM465 627q55 4 178 4q127 0 172 -4q4 408 19 577q-34 -65 -97.5 -165.5 t-160.5 -245t-111 -166.5z" />
<glyph unicode="B" horiz-adv-x="1406" d="M-18 37q0 39 14 39q108 0 153 31.5t74 125.5l299 998q10 33 10 58q0 38 -22 57q-38 32 -156 32q-14 0 -14 35q0 45 16 45q26 0 140.5 -5t199.5 -5q58 0 167 4t145 4q193 0 287 -77.5t94 -213.5q0 -133 -108.5 -236.5t-309.5 -152.5q159 -27 243 -118.5t84 -223.5 q0 -84 -39.5 -160.5t-116 -139.5t-203.5 -100.5t-288 -37.5q-66 0 -172 4t-164 4q-77 0 -189.5 -4t-129.5 -4q-14 0 -14 41zM475 184q0 -50 40 -78t142 -28q158 0 258.5 112.5t100.5 284.5q0 59 -11 103t-38.5 80.5t-79.5 55.5t-129 19q-73 0 -125 -8q-14 -45 -40 -127 t-43.5 -138t-36.5 -118t-28.5 -102t-9.5 -56zM662 817q29 -2 94 -2q175 0 273.5 107.5t98.5 265.5q0 186 -180 186q-56 0 -114 -14q-1 -2 -172 -543z" />
<glyph unicode="C" horiz-adv-x="1357" d="M154 518q0 109 29 223.5t81.5 223.5t133 205.5t177 169t219.5 115t255 42.5q153 0 254 -94q24 -19 36 -19q14 0 27.5 14.5t17.5 35.5q2 16 29 16q18 0 32.5 -8.5t14.5 -20.5q-43 -148 -62.5 -232t-29.5 -185q-3 -21 -33 -21q-17 0 -32 5t-15 13q0 16 2 48.5t2 46.5 q0 149 -63.5 225t-181.5 76t-232.5 -94t-195 -236.5t-130 -312.5t-49.5 -322q0 -166 64 -263t205 -97q91 0 167.5 31.5t133 88.5t97 126.5t69.5 154.5q7 19 32 19q17 0 33.5 -8.5t13.5 -22.5q-32 -103 -63 -240t-39 -209q0 -20 -41 -20q-39 0 -39 20q0 26 -9 42t-26 16 t-51 -19q-61 -36 -144.5 -60t-162.5 -24q-133 0 -236 44t-165 121t-93.5 174.5t-31.5 211.5z" />
<glyph unicode="D" horiz-adv-x="1630" d="M-18 37q0 39 14 39q108 0 153 31.5t74 125.5l299 998q10 33 10 58q0 38 -22 57q-38 32 -156 32q-14 0 -14 35q0 45 16 45q26 0 141.5 -5t200.5 -5q27 0 126.5 2t176.5 2q287 0 455 -161.5t168 -426.5q0 -128 -34.5 -250.5t-110 -236t-184 -198.5t-269.5 -136t-354 -51 q-91 0 -195 6t-151 6q-78 -1 -192 -4.5t-138 -3.5q-14 0 -14 41zM489 197q0 -64 36.5 -89.5t146.5 -25.5q124 0 231.5 46t185.5 126.5t133.5 187t83 229t27.5 251.5q0 216 -85 325t-273 109q-83 0 -150 -13q-24 -77 -75.5 -239.5t-91 -288t-81.5 -264t-65 -231t-23 -123.5z " />
<glyph unicode="E" horiz-adv-x="1386" d="M-18 37q0 39 16 39q106 0 151 31.5t74 125.5q43 147 93.5 314.5t110.5 367.5t95 316q10 38 10 57q0 49 -41.5 69.5t-136.5 20.5q-14 0 -14 35q0 45 16 45q26 0 141.5 -5t200.5 -5q166 0 406.5 5t269.5 5q25 0 33 -8.5t8 -28.5q0 -4 -9 -106t-9 -213q0 -25 -47 -25 q-10 0 -19.5 4.5t-9.5 12.5q0 141 -65 206.5t-222 65.5q-132 0 -209 -12q-84 -289 -163 -535q25 -2 63 -2q76 0 133.5 15.5t93.5 45.5t58 64.5t37 81.5q10 23 30 23q53 0 53 -27q0 -7 -3 -17t-8.5 -25.5t-8.5 -23.5q-59 -160 -117 -460q-4 -19 -35 -19q-17 0 -32 5.5 t-15 15.5q0 11 2 47t2 55q0 73 -38.5 106t-141.5 33q-47 0 -100 -6q-9 -34 -47.5 -154t-67 -224t-28.5 -154q0 -38 12.5 -60.5t54.5 -37.5t119 -15q170 0 282.5 34t175 97t97.5 164q6 16 27 16t38 -9.5t17 -22.5q-64 -191 -92 -326q-6 -29 -17.5 -37t-44.5 -8q-24 0 -327 5 t-508 5q-84 0 -198.5 -3t-129.5 -3q-16 0 -16 39z" />
<glyph unicode="F" horiz-adv-x="1243" d="M-14 37q0 39 14 39q106 0 149.5 31t73.5 126q43 147 93.5 314.5t110.5 367.5t95 316q10 38 10 57q0 49 -41.5 69.5t-136.5 20.5q-14 0 -14 35q0 45 16 45q26 0 141.5 -5t200.5 -5q167 0 405.5 5t266.5 5q26 0 35.5 -9.5t9.5 -33.5q0 -4 -9 -107.5t-9 -211.5 q0 -27 -49 -27q-27 0 -27 18q0 145 -67 212t-232 67q-120 0 -197 -12q-26 -83 -83.5 -276.5t-84.5 -280.5q23 -2 64 -2q147 0 219.5 54t103.5 152q7 23 31 23q53 0 53 -27q-1 -14 -26 -82q-47 -126 -73 -250t-37 -168t-38 -44q-49 0 -49 20q6 81 6 100q0 74 -38.5 107 t-141.5 33q-32 0 -102 -4q-13 -51 -41.5 -144t-62 -198t-44.5 -140q-8 -24 -8 -49q0 -54 50 -78t151 -24q16 0 16 -35q0 -43 -18 -43q-25 0 -143 3t-203 3h-41q-71 0 -167 -4q-74 -3 -104 -2h-14q-14 0 -14 39z" />
<glyph unicode="G" horiz-adv-x="1511" d="M154 520q0 128 39 263.5t117 263t184 228t252 161.5t309 61q80 0 154.5 -25.5t119.5 -62.5q14 -18 33 -18q14 0 23.5 10t14 22.5t13.5 22.5t21 10q18 0 33.5 -7t15.5 -19q-30 -104 -45 -157t-31.5 -134t-24.5 -154q-3 -18 -30 -18q-45 0 -45 22q4 46 4 90q0 320 -260 320 q-117 0 -231 -89.5t-197 -228t-134 -312.5t-51 -337q0 -174 71 -268t200 -94q176 0 268 91.5t92 252.5q0 67 -30.5 92.5t-118.5 25.5q-19 0 -19 29q0 24 4.5 35.5t18.5 11.5q28 0 133 -6t170 -6q62 0 162.5 6t128.5 6q18 0 18 -37q0 -39 -16 -39q-79 0 -119 -34t-62 -105 l-32 -110q-7 -24 -10.5 -81t-12 -91.5t-31.5 -34.5q-10 0 -39.5 20.5t-54.5 20.5q-35 0 -84.5 -23.5t-96.5 -51.5t-126 -51.5t-164 -23.5q-133 0 -237 44.5t-167.5 121.5t-96.5 175t-33 212z" />
<glyph unicode="H" horiz-adv-x="1767" d="M-18 37q0 39 14 39q108 0 153 31.5t74 125.5l299 998q10 33 10 58q0 38 -22 57q-38 32 -156 32q-14 0 -14 35q0 45 16 45q26 0 141.5 -5t200.5 -5q81 0 190.5 5t127.5 5q16 0 16 -41q0 -39 -16 -39q-108 0 -156 -35.5t-76 -123.5l-127 -420q57 0 170.5 3t157.5 3 q48 0 167.5 -3t150.5 -3l129 432q10 33 10 58q0 38 -22 57q-38 32 -156 32q-15 0 -15 35q0 45 17 45q26 0 141.5 -5t200.5 -5q81 0 190 5t127 5q17 0 17 -41q0 -39 -17 -39q-108 0 -155.5 -35.5t-75.5 -123.5q-255 -846 -303 -992q-11 -35 -11 -61q0 -37 22 -56 q36 -34 154 -34q15 0 15 -35q0 -45 -17 -45q-26 0 -130 4t-189 4q-84 0 -199 -4t-131 -4q-14 0 -14 41q0 39 14 39q108 0 153.5 31.5t74.5 125.5l145 486q-28 -1 -102.5 -3t-137 -3.5t-98.5 -1.5q-48 0 -157 4.5t-148 5.5l-154 -494q-11 -34 -11 -60q0 -37 22 -57 q37 -34 155 -34q15 0 15 -35q0 -45 -17 -45q-26 0 -130 4t-189 4q-84 0 -199 -4t-131 -4q-14 0 -14 41z" />
<glyph unicode="I" horiz-adv-x="858" d="M-18 37q0 39 14 39q108 0 153 31.5t74 125.5l299 998q10 33 10 58q0 38 -22 57q-38 32 -156 32q-14 0 -14 35q0 45 16 45q26 0 141.5 -5t200.5 -5q81 0 190.5 5t127.5 5q16 0 16 -41q0 -39 -16 -39q-108 0 -156 -35.5t-76 -123.5q-255 -846 -303 -992q-11 -34 -11 -60 q0 -37 22 -57q37 -34 155 -34q15 0 15 -35q0 -45 -17 -45q-26 0 -130 4t-189 4q-84 0 -199 -4t-131 -4q-14 0 -14 41z" />
<glyph unicode="J" horiz-adv-x="1114" d="M-215 -309q0 65 41 106t102 41q41 0 65.5 -14t34 -36t13.5 -49l8 -54t13 -49t33 -36t63 -14q100 0 159 73t125 253q88 242 242 731l-219 -6q-27 0 -27 45q0 63 27 63q127 0 250 -6q43 148 135 298.5t190 211.5q-91 -43 -200 -43q-80 0 -195 17.5t-184 17.5 q-75 0 -114.5 -40.5t-39.5 -117.5q0 -13 -10 -19.5t-23 -6.5t-23 3t-15.5 11t-9.5 13t-5.5 19t-2 18t0 20.5t0.5 17.5q0 146 76 242t211 96q75 0 139 -18.5t109 -45t86.5 -53t90 -45t99.5 -18.5q34 0 57.5 13.5t36.5 32.5t25.5 38.5t33 33t50.5 13.5q28 0 47.5 -20.5 t19.5 -47.5q0 -35 -30.5 -63t-100.5 -57q-90 -37 -149 -162.5t-109 -358.5l123 6q23 0 23 -47q0 -26 -7 -41.5t-18 -15.5q-96 0 -143 2q-31 -125 -77 -349q-24 -113 -36 -167t-35.5 -146t-41.5 -135.5t-49 -110.5t-63 -98.5t-78 -72t-100 -58t-124 -30.5t-154 -13 q-172 0 -259 64t-87 164z" />
<glyph unicode="K" horiz-adv-x="1497" d="M-18 37q0 39 16 39q106 0 151 31.5t74 125.5q43 147 93.5 314.5t110.5 367.5t95 316q8 27 8 63q0 48 -42 66t-134 18q-14 0 -14 35q0 45 16 45q26 0 141.5 -5t200.5 -5q81 0 181 5t118 5q17 0 17 -41q0 -39 -15 -39q-101 0 -145 -37.5t-70 -128.5q-86 -276 -139 -430 q74 83 125.5 139.5t127.5 135.5t133.5 132t129 111.5t129 93.5t118.5 58t112 23q73 0 108 -43t35 -105q0 -79 -44 -123.5t-106 -44.5q-63 0 -98.5 42t-40.5 102q-92 -23 -270.5 -176.5t-374.5 -360.5q100 -10 168.5 -38t119.5 -86t83.5 -141t60.5 -212q17 -75 49 -111.5 t72 -36.5q28 0 49 13.5t30 30.5t20.5 30.5t23.5 13.5q20 0 35.5 -13t15.5 -32q0 -15 -20 -49t-56 -73.5t-101 -69t-142 -29.5q-117 0 -182.5 60.5t-65.5 191.5q0 67 4 151.5t4 122.5q0 41 -11.5 76t-39.5 67.5t-83.5 52.5t-133.5 22l-148 -480q-10 -31 -10 -65 q0 -48 41.5 -67t134.5 -19q15 0 15 -35q0 -43 -17 -43q-26 0 -130 3t-189 3q-84 0 -198.5 -3t-129.5 -3q-16 0 -16 39z" />
<glyph unicode="L" horiz-adv-x="1273" d="M-18 37q0 39 16 39q106 0 151 31.5t74 125.5q43 147 93.5 314.5t110.5 367.5t95 316q10 38 10 57q0 49 -41.5 69.5t-136.5 20.5q-14 0 -14 35q0 45 16 45q26 0 141.5 -5t200.5 -5q81 0 190.5 5t127.5 5q16 0 16 -41q0 -39 -16 -39q-110 0 -158 -38t-80 -142 q-26 -88 -94 -302.5t-119 -386t-71 -271.5q-7 -31 -7 -52q0 -51 37 -74.5t129 -23.5q226 0 347.5 77t187.5 261q9 27 33 27q25 0 42 -10t17 -27q-66 -170 -109 -377q-6 -32 -17.5 -40.5t-39.5 -8.5q-38 0 -330 7t-458 7q-84 0 -198.5 -3t-129.5 -3q-16 0 -16 39z" />
<glyph unicode="M" horiz-adv-x="1957" d="M-27 35q0 41 15 41q95 0 140 34.5t81 141.5q64 184 164.5 493.5t130.5 419.5q16 57 16 101q0 60 -42 86t-150 26q-15 0 -15 35q0 45 17 45q16 0 123.5 -7t164.5 -7q49 0 109 3t72 3q24 0 33.5 -12.5t11.5 -36.5q14 -154 65.5 -541.5t61.5 -478.5q49 84 321.5 497 t347.5 549q16 25 43 25q5 0 17 -1t18 -1h160q52 0 124 4q58 4 82 4h9q14 0 14 -39q0 -41 -14 -41q-102 0 -150 -35t-69 -133l-221 -989q-8 -40 -8 -55q0 -56 39 -73t122 -17q13 0 13 -37q0 -41 -17 -41q-21 0 -120.5 3t-182.5 3q-75 0 -186 -3t-125 -3t-14 35q0 43 14 43 q102 0 145 29.5t66 123.5q60 250 213 959q-42 -65 -229.5 -352.5t-328 -506t-177.5 -286.5q-18 -35 -56 -35q-52 0 -55 37q-5 74 -38 319t-70.5 513t-43.5 311q-5 -16 -90 -282t-140.5 -460.5t-55.5 -246.5q0 -123 157 -123q13 0 13 -37q0 -41 -19 -41q-10 0 -97 3t-146 3 q-70 0 -150 -3t-96 -3q-17 0 -17 37z" />
<glyph unicode="N" horiz-adv-x="1513" d="M-119 104q0 58 37.5 100t101.5 42q41 0 72 -32t31 -83q-4 -39 -14 -57q94 0 191 245.5t249 831.5q10 44 10 104q0 48 -43 85.5t-129 37.5q-20 0 -20 35q0 45 18 45q17 0 171 -7t237 -7q22 0 31 -7.5t18 -33.5q207 -641 276 -954q102 433 211 761q49 147 118.5 213 t174.5 66q90 0 136 -44t46 -102q0 -57 -34 -99t-89 -42q-42 0 -61.5 20t-21 44.5t-12 44.5t-36.5 20q-74 0 -123 -157l-10 -33q-191 -612 -311 -1123q-10 -38 -74 -38q-45 0 -51 36q-31 144 -157.5 565t-174.5 560q-148 -568 -227 -799q-71 -212 -156.5 -296.5t-218.5 -84.5 q-79 0 -122.5 44t-43.5 99z" />
<glyph unicode="O" d="M154 535q0 132 42 270t121 261t182.5 220t235.5 154t271 57q231 0 360 -146t129 -425q0 -109 -30 -223.5t-84 -220.5t-133.5 -200.5t-172.5 -164t-206.5 -110t-231.5 -40.5q-226 0 -354.5 144.5t-128.5 423.5zM420 350q0 -291 211 -291q63 0 133 39t136 108t126 168 t105 213t71.5 250t26.5 273q0 154 -50.5 224.5t-162.5 70.5q-104 0 -213 -93.5t-192.5 -240.5t-137 -340t-53.5 -381z" />
<glyph unicode="P" horiz-adv-x="1331" d="M-18 37q0 39 14 39q108 0 153 31.5t74 125.5l299 998q10 33 10 58q0 38 -22 57q-38 32 -156 32q-14 0 -14 35q0 45 16 45q26 0 141.5 -5t200.5 -5q68 0 164 3t154 3q221 0 333.5 -97.5t112.5 -254.5q0 -90 -41 -170t-119.5 -143t-206.5 -99.5t-290 -36.5q-87 0 -189 13 q-16 -54 -65.5 -212.5t-69.5 -226.5q-8 -29 -8 -51q0 -44 29 -66q45 -34 166 -34q16 0 16 -35q0 -45 -18 -45q-25 0 -140 4t-200 4q-84 0 -199 -4t-131 -4q-14 0 -14 41zM639 741q87 -6 121 -6q99 0 181 36t133.5 94.5t79.5 130.5t28 147q0 112 -51.5 171.5t-167.5 59.5 q-61 0 -129 -12q-24 -69 -61 -188t-79.5 -257.5t-54.5 -175.5z" />
<glyph unicode="Q" d="M76 -231q0 111 198 120q11 0 24 -1t17 -1q125 88 220 107q-181 28 -281 168.5t-100 386.5q0 131 42 267.5t121 257.5t182.5 216.5t235.5 151t271 55.5q231 0 360 -146t129 -425q0 -129 -40.5 -262t-117.5 -252t-178.5 -213.5t-232 -152t-269.5 -62.5q-112 -19 -213 -97 q64 -6 141 -27.5t123 -38.5t144 -57q132 -54 231.5 -83t198.5 -29q107 0 167.5 37.5t72.5 103.5q6 33 41 33q19 0 33 -9.5t14 -27.5q0 -78 -25.5 -151t-74 -132.5t-126.5 -95t-174 -35.5q-79 0 -152.5 23.5t-131.5 61.5t-112 84t-104 92t-98.5 84t-104 61.5t-112.5 23.5h-14 q-26 -14 -72 -47.5t-80.5 -48t-78.5 -14.5q-34 0 -54 20t-20 54zM420 365q0 -56 16 -99q13 -97 63.5 -144.5t131.5 -47.5q76 0 160 53t161 150.5t139.5 223.5t100 286t37.5 323q0 295 -213 295q-84 0 -171 -58t-162 -160.5t-135 -232.5t-94 -284.5t-34 -304.5z" />
<glyph unicode="R" horiz-adv-x="1499" d="M-18 37q0 39 16 39q106 0 151 31.5t74 125.5q43 147 93.5 314.5t110.5 367.5t95 316q8 27 8 63q0 48 -42 66t-134 18q-14 0 -14 35q0 45 16 45q26 0 141.5 -5t200.5 -5q39 0 135.5 4t178.5 4q211 0 325.5 -91.5t114.5 -248.5q0 -68 -36.5 -134t-103.5 -121t-173 -91 t-234 -43q124 -28 195 -141t82 -277q7 -98 36 -131t78 -33q27 0 46.5 11.5t28 25.5t18 25.5t20.5 11.5q17 0 32 -10.5t15 -26.5q0 -18 -12 -39q-93 -178 -299 -178q-112 0 -176 70.5t-64 214.5q0 55 3 127t3 102q0 71 -19 118.5t-57.5 73t-86.5 35t-117 9.5l-150 -488 q-10 -31 -10 -65q0 -48 41.5 -67t134.5 -19q15 0 15 -35q0 -43 -17 -43q-26 0 -130 3t-189 3q-84 0 -198.5 -3t-129.5 -3q-16 0 -16 39zM657 797q70 -9 131 -9q182 0 279.5 99.5t97.5 263.5q0 105 -57 163t-174 58l-100 -6q-111 -339 -177 -569z" />
<glyph unicode="S" horiz-adv-x="1107" d="M31 18q18 79 31.5 211.5t13.5 229.5q0 24 49 24q37 0 37 -18q1 -99 28 -177t73 -126.5t105 -73.5t126 -25q119 0 190.5 66t71.5 182q0 87 -45 159t-174 175q-76 62 -124.5 117.5t-80 132t-31.5 164.5q0 195 133.5 316.5t333.5 121.5q142 0 227 -72q30 -20 52 -20 q14 0 23 11.5t9 29.5q3 16 25 16q14 0 26 -3q14 -3 20 -7t5 -9l-31 -203q-18 -130 -18 -196q0 -22 -41 -22q-39 0 -39 22q0 106 -25.5 185t-84 127.5t-144.5 48.5q-104 0 -166.5 -64.5t-62.5 -169.5q0 -90 42.5 -153.5t141.5 -140.5q152 -120 213 -220.5t61 -238.5 q0 -134 -69.5 -238t-184 -158.5t-253.5 -54.5q-164 0 -277 78q-3 2 -16 10.5t-18.5 11t-14.5 6t-16 3.5q-16 0 -25.5 -17.5t-11.5 -42.5q-3 -18 -25 -18q-59 0 -59 20z" />
<glyph unicode="T" horiz-adv-x="1249" d="M84 1141q0 313 532 313q96 0 297 -11t263 -11q146 0 202 25.5t56 80.5q0 13 -4 21q0 54 29.5 82t76.5 28q52 0 83.5 -32t31.5 -89q0 -62 -27 -105t-79 -66.5t-116 -33.5t-149 -10q-170 0 -254 13l-340 -1119q-10 -29 -10 -61q0 -50 45 -70t141 -20q15 0 15 -35 q0 -43 -17 -43q-27 0 -137 3t-193 3q-84 0 -198.5 -3t-130.5 -3q-15 0 -15 39t15 39q108 0 151.5 31t73.5 126l338 1119q-78 4 -131 4q-352 0 -367 -135q2 0 6.5 1t6.5 1q47 0 72.5 -32.5t25.5 -78.5q0 -52 -35 -91.5t-100 -39.5q-70 0 -114 41t-44 119z" />
<glyph unicode="U" horiz-adv-x="1519" d="M203 324q0 72 22 145l228 762q10 38 10 59q0 49 -41 68.5t-135 19.5q-15 0 -15 35q0 45 17 45q25 0 141 -5t199 -5q82 0 191.5 5t127.5 5q17 0 17 -41q0 -39 -17 -39q-75 0 -120 -17.5t-68.5 -50t-42.5 -91.5l-205 -664l-25 -86q-24 -81 -24 -160q0 -105 76 -160t188 -55 q149 0 259.5 75.5t160.5 231.5q117 367 227 758q15 58 15 96q0 123 -158 123q-17 0 -17 35q0 45 17 45q20 0 97 -5t147 -5q64 0 153.5 5t118.5 5q16 0 16 -41q0 -39 -14 -39q-100 0 -157 -46t-95 -179q-19 -61 -106 -342.5t-140 -443.5q-34 -105 -95 -183t-141.5 -125 t-174.5 -69.5t-203 -22.5q-117 0 -213.5 38.5t-158.5 121.5t-62 197z" />
<glyph unicode="V" horiz-adv-x="1286" d="M211 1411q0 47 18 47q38 0 130 -4t155 -4q66 0 167.5 3t127.5 3q18 0 18 -39q0 -41 -18 -41q-100 0 -135 -24.5t-35 -102.5v-436q0 -367 -18 -569q22 43 54 98t75.5 123.5t72 112t79 119.5t59.5 89q135 200 207.5 335.5t72.5 183.5q0 42 -34.5 56.5t-106.5 14.5 q-17 0 -17 43q0 37 19 37q8 0 113.5 -3t154.5 -3q57 0 129.5 4t77.5 4q18 0 18 -37q0 -45 -14 -45q-59 0 -98 -29t-99 -114l-370 -551q-437 -649 -471 -688q-22 -25 -92 -25q-34 0 -51 9t-17 34v1241q0 76 -30 99.5t-128 23.5q-14 0 -14 35z" />
<glyph unicode="W" horiz-adv-x="2029" d="M205 1411q0 47 16 47q39 0 131 -4t154 -4q66 0 168.5 3t128.5 3q18 0 18 -39q0 -41 -18 -41q-100 0 -136 -25t-36 -102v-450q0 -320 -19 -529q38 78 181 318t278 476.5t176 346.5q8 35 86 35q50 0 64 -10t14 -37q0 -272 -15 -640.5t-28 -510.5q98 187 336 538 q278 411 278 519q0 42 -32.5 56.5t-104.5 14.5q-16 0 -16 43q0 37 18 37q8 0 111.5 -3t152.5 -3q57 0 129.5 4t77.5 4q19 0 19 -37q0 -45 -15 -45q-59 0 -95.5 -28.5t-98.5 -114.5q-39 -55 -245.5 -361.5t-396 -588.5t-194.5 -289q-22 -25 -92 -25q-67 0 -67 39 q0 151 4.5 317.5t12.5 383t11 317.5q-83 -152 -297 -506t-327 -526q-15 -25 -93 -25q-34 0 -51.5 9t-17.5 34v1241q0 76 -29.5 99.5t-126.5 23.5q-14 0 -14 35z" />
<glyph unicode="X" horiz-adv-x="1331" d="M-129 35q0 41 16 41q89 0 181 76q57 46 140.5 123.5t147 139.5t160 157.5t131.5 129.5q-88 283 -182 558q-19 67 -60 92.5t-110 25.5q-6 0 -10 11.5t-4 25.5q0 43 18 43q42 0 137.5 -5t159.5 -5q76 0 164 5t108 5q15 0 15 -37q0 -43 -17 -43q-70 0 -101.5 -18t-31.5 -57 q0 -49 115 -410q49 52 114 117.5t102.5 103.5t75 79.5t54 70.5t16.5 51q0 35 -27.5 49t-80.5 14q-15 0 -15 33q0 19 5 33t12 14q20 0 112 -5t140 -5q45 0 125.5 5t87.5 5q18 0 18 -41q0 -39 -18 -39q-75 0 -223 -123.5t-472 -447.5q140 -448 197 -612q19 -67 59 -93t109 -26 q14 0 14 -33q0 -45 -16 -45q-42 0 -136.5 3t-158.5 3q-76 0 -168 -3t-112 -3q-17 0 -17 37q0 41 17 41q147 0 147 78q0 2 -1 6.5t-1 7.5q0 25 -23.5 104t-60 189.5t-49.5 154.5q-112 -114 -168 -172.5t-120 -129t-90 -110.5t-26 -63q0 -35 24.5 -50t76.5 -15q16 0 16 -39 t-16 -39q-19 0 -114.5 3t-143.5 3q-45 0 -131 -3t-93 -3q-11 0 -14.5 7.5t-3.5 29.5z" />
<glyph unicode="Y" horiz-adv-x="1196" d="M106 37q0 39 17 39q105 0 147.5 31t75.5 126q92 274 127 451.5t35 339.5q0 330 -113 330t-172 -226q-3 -14 -20 -14t-32.5 7t-16.5 18q21 161 112.5 259.5t227.5 98.5q69 0 118 -31t76 -89.5t39 -131t12 -168.5q0 -186 -37 -321q289 741 658 741q78 0 119 -41.5 t41 -101.5q0 -65 -37.5 -106.5t-93.5 -41.5q-54 0 -85.5 32t-31.5 79q0 34 8 53q-65 0 -163.5 -94.5t-203 -267t-172.5 -371.5q-14 -35 -40.5 -115.5t-57 -174.5t-39.5 -120q-10 -31 -10 -56q0 -39 26 -61q42 -34 162 -34q17 0 17 -35q0 -45 -19 -45q-25 0 -134.5 4 t-192.5 4q-84 0 -199 -4t-131 -4q-17 0 -17 41z" />
<glyph unicode="Z" horiz-adv-x="1138" d="M-47 57q0 85 40.5 173.5t114 171.5t161 161.5t197.5 159t206.5 148t205 144t177.5 132.5q-54 -25 -103 -25q-76 0 -218 38t-206 38q-113 0 -137 -108q-2 -17 -39 -17q-13 0 -25 7.5t-12 23.5q0 179 77 284t206 105q57 0 110 -23t93 -55.5t77 -64.5t76 -55t76 -23 q55 0 84 33.5t29 85.5v30q0 54 59 54q31 0 49.5 -16t18.5 -46q0 -77 -38.5 -158t-113 -162t-164 -156t-209.5 -161l-143 -96q-329 -221 -459 -375q49 27 117 27q51 0 106 -27t100 -67.5t95.5 -88t93.5 -88t92 -67.5t93 -27q70 0 114.5 33.5t44.5 77.5q0 11 12.5 16.5 t26.5 5.5q8 0 15 -2t11.5 -7t8 -9.5t5.5 -13t3 -14t1.5 -16.5t0.5 -16.5v-17.5v-16q0 -142 -76.5 -240t-207.5 -98q-66 0 -126.5 31t-106 80.5t-87.5 109.5t-78 119.5t-70 109t-72 80.5t-75 31q-59 0 -83.5 -41t-24.5 -119q0 -24 -18.5 -37.5t-47.5 -13.5q-26 0 -41.5 14.5 t-15.5 42.5z" />
<glyph unicode="[" horiz-adv-x="817" d="M-84 -680q0 4 2 8l350 1192q40 138 148.5 519t148.5 515q11 33 62 33q111 0 282.5 6t274.5 6q14 0 14 -20q0 -24 -12.5 -52t-30.5 -28q-20 0 -59.5 -1t-57.5 -1q-45 0 -126 1t-140 1q-81 -251 -174 -575l-106 -365q-275 -935 -349 -1171q62 0 150.5 1t134.5 1q4 0 26 0.5 t34.5 0t29 -2t25 -7t8.5 -14.5q0 -26 -13.5 -54t-33.5 -28q-71 0 -269 6.5t-276 6.5q-43 0 -43 22z" />
<glyph unicode="\" horiz-adv-x="872" d="M102 1448q3 35 107 35q38 0 69.5 -8.5t34.5 -20.5q226 -893 385 -1532q-3 -16 -52 -29.5t-93 -13.5q-22 0 -39.5 6.5t-19.5 14.5z" />
<glyph unicode="]" horiz-adv-x="817" d="M-381 -694q0 26 13 53t30 27q38 0 106.5 1t96.5 1h180q23 74 172 575l109 363q98 342 346 1173q-50 0 -122.5 -1t-105.5 -1l-90 -2q-88 3 -88 23q0 26 13 53.5t32 27.5q72 0 270 -6t277 -6q41 0 41 -22v-6l-350 -1194l-299 -1035q-9 -30 -62 -30q-109 0 -280.5 -7.5 t-274.5 -7.5q-14 0 -14 21z" />
<glyph unicode="^" horiz-adv-x="1058" d="M117 743l557 727h86q34 -122 103.5 -364.5t103.5 -364.5l-76 -39l-234 500l-479 -500z" />
<glyph unicode="_" horiz-adv-x="1449" d="M-127 -293l41 174h1413l-43 -174h-1411z" />
<glyph unicode="`" horiz-adv-x="831" d="M377 1473q0 9 11.5 21t39 22t64.5 10q62 0 71 -23l148 -391q4 -8 4 -10q0 -16 -10.5 -24.5t-24.5 -8.5q-18 0 -27 12l-18 19l-236 325q-22 25 -22 48z" />
<glyph unicode="a" horiz-adv-x="1155" d="M49 225q0 99 35.5 208t99 206t143 176t175.5 125.5t188 46.5q133 0 166 -108l27 77q8 27 80 27q118 0 118 -47q-6 -24 -34 -102q-228 -605 -228 -697q0 -35 31 -35q38 0 86 54.5t86 152.5q6 13 20 13q13 0 25 -9t12 -26q-42 -140 -137.5 -229t-200.5 -89q-56 0 -82 33 t-26 100q0 61 12 111q-57 -114 -156.5 -181t-197.5 -67q-119 0 -180.5 68t-61.5 192zM270 178q0 -104 84 -104q85 0 167 85t151 251q121 289 121 391q0 47 -17 71.5t-67 24.5q-89 0 -194.5 -127t-175 -297t-69.5 -295z" />
<glyph unicode="b" horiz-adv-x="1024" d="M53 184q0 75 27 164q109 342 321 1026q-21 35 -139 35q-11 0 -14.5 8t-3.5 33q0 24 3.5 32.5t16.5 8.5q189 0 361 33q41 0 41 -35q-3 -20 -15 -49q-141 -406 -254 -695q61 111 159.5 175.5t199.5 64.5q110 0 168.5 -68t58.5 -192q0 -126 -56.5 -262.5t-147 -246.5 t-216 -181.5t-252.5 -71.5q-258 0 -258 221zM242 145q0 -44 18.5 -68t67.5 -24q90 0 194.5 123t174 293.5t69.5 304.5q0 100 -80 100q-89 0 -172 -84t-152 -251q-35 -85 -77.5 -212.5t-42.5 -181.5z" />
<glyph unicode="c" horiz-adv-x="858" d="M49 238q0 134 58 272t147.5 241.5t203 169.5t218.5 66q115 0 166 -44t51 -114q0 -46 -26.5 -79t-73.5 -33q-41 0 -64.5 25t-28.5 65q-6 44 -18 62t-41 18q-42 0 -104.5 -65t-120.5 -161t-99 -219t-41 -227q0 -137 115 -137q70 0 139 58t121 173q13 17 25 17 q14 0 28 -11.5t11 -27.5q-46 -148 -149.5 -235t-235.5 -87q-59 0 -107.5 13.5t-88.5 44t-62.5 85t-22.5 130.5z" />
<glyph unicode="d" horiz-adv-x="1136" d="M49 225q0 122 55.5 258.5t143 247.5t204.5 183.5t230 72.5q121 0 162 -84l147 471q-21 35 -139 35q-11 0 -14.5 8t-3.5 33q0 24 3.5 32.5t16.5 8.5q188 0 360 33q41 0 41 -35l-16 -57q-94 -257 -233.5 -681.5t-182.5 -584.5q-4 -20 -4 -31q0 -15 8.5 -24t22.5 -9 q38 0 86 54.5t86 152.5q6 13 20 13t25.5 -9t11.5 -26q-43 -140 -137 -229t-199 -89q-56 0 -82 33t-26 100q0 48 10 111q-57 -114 -156.5 -181t-197.5 -67q-119 0 -180.5 68t-61.5 192zM270 178q0 -104 84 -104q85 0 168 86.5t152 253.5q114 275 114 387q0 47 -18 71.5 t-68 24.5q-67 0 -146 -77t-141 -187.5t-103.5 -236t-41.5 -218.5z" />
<glyph unicode="e" horiz-adv-x="880" d="M49 240q0 128 56.5 263t147 241.5t213 174.5t245.5 68q97 0 146.5 -44.5t49.5 -125.5q0 -253 -600 -409q-33 -109 -33 -185q0 -149 125 -149q84 0 160.5 63t116.5 162q5 18 24 18q15 0 29 -9.5t10 -26.5q-19 -59 -52.5 -112t-84 -100.5t-125 -75.5t-162.5 -28 q-113 0 -189.5 69.5t-76.5 205.5zM334 483q192 60 303 156.5t111 189.5q0 64 -58 64q-85 0 -185 -113.5t-171 -296.5z" />
<glyph unicode="f" horiz-adv-x="641" d="M-543 -373q0 52 30.5 80.5t72.5 28.5q36 0 62 -24t26 -66q0 -109 100 -109q47 0 83.5 18.5t76.5 68t79.5 145.5t80.5 243l235 838q-94 -4 -143 -4q-17 0 -17 33q0 55 19 55q16 0 76.5 -2t85.5 -2q45 172 96.5 286t115.5 176t132.5 86.5t160.5 24.5q139 0 205 -50.5 t66 -135.5q0 -41 -27.5 -68.5t-64.5 -27.5q-34 0 -61.5 22t-28.5 64q-3 45 -26 68.5t-75 23.5q-56 0 -96.5 -37t-84 -139.5t-95.5 -292.5q33 0 102 2t88 2q13 0 18 -7.5t5 -27.5q0 -22 -7 -37.5t-16 -15.5q-77 0 -213 4l-231 -805q-53 -183 -105.5 -299t-119 -185 t-142 -95.5t-182.5 -26.5q-281 0 -281 188z" />
<glyph unicode="g" horiz-adv-x="944" d="M-119 -295q0 77 45.5 123.5t110.5 46.5q56 0 82 -37q-62 -54 -62 -131q0 -88 79 -144.5t216 -56.5q126 0 192 50t66 129q0 57 -44 91.5t-165 67.5q-56 15 -86.5 24t-71.5 22.5t-62.5 23t-48 23.5t-39 28t-25 32.5t-17 39.5t-4.5 47q0 74 64 132t170 73q-76 33 -114 99 t-38 153q0 64 19 128t55.5 121t86.5 101t117.5 70t141.5 26q140 0 213 -104q37 57 88.5 93t110.5 36q50 0 79 -28.5t29 -74.5q0 -51 -23 -81.5t-63 -30.5q-20 0 -34 10.5t-20.5 23t-21.5 23t-37 10.5t-46 -11t-36 -28q1 -4 5.5 -20t6.5 -26.5t4.5 -31.5t2.5 -45 q0 -125 -48.5 -225.5t-148 -162.5t-235.5 -62q-68 0 -109 -28.5t-41 -67.5q0 -42 39.5 -60.5t166.5 -46.5q12 -3 18 -4q174 -29 262 -97t88 -192q0 -108 -60 -186t-158.5 -115t-222.5 -37q-233 0 -355 81.5t-122 205.5zM317 430q0 -102 74 -102q60 0 117 77.5t91 191 t34 220.5q0 92 -70 92q-57 0 -115.5 -76.5t-94.5 -188.5t-36 -214z" />
<glyph unicode="h" horiz-adv-x="1122" d="M25 27q0 32 38 157q65 206 187.5 604t181.5 586q-21 35 -139 35q-11 0 -15 8.5t-4 32.5q0 23 3.5 32t15.5 9q190 0 362 33q41 0 41 -35l-16 -47q-104 -278 -266 -750q80 135 187.5 214t215.5 79q178 0 178 -172q0 -70 -24 -158.5t-86 -242.5q-82 -206 -82 -279 q0 -35 31 -35q37 0 86 56t86 155q6 13 20 13q13 0 25 -8.5t12 -24.5q-39 -140 -136.5 -230t-201.5 -90q-69 0 -100 32.5t-31 109.5q0 62 23 144.5t77 225.5q92 248 92 328q0 61 -55 61q-76 0 -183 -113.5t-171 -271.5q-34 -68 -88.5 -244t-61.5 -225q-3 -28 -53 -28 q-46 0 -97.5 9.5t-51.5 29.5z" />
<glyph unicode="i" horiz-adv-x="647" d="M55 657v5q12 59 39.5 114.5t69 103.5t101 77.5t126.5 29.5q139 0 139 -151q0 -111 -106 -381q-59 -152 -80.5 -218.5t-21.5 -103.5q0 -35 30 -35q39 0 90 56.5t84 154.5q6 13 21 13q13 0 25 -8.5t12 -24.5q-39 -139 -136 -229.5t-198 -90.5q-141 0 -141 146q0 57 25 140 t81 226q61 155 85 226t24 110q0 47 -35 47q-49 0 -100.5 -70.5t-75.5 -144.5q-3 -16 -19 -16q-12 0 -25.5 7t-13.5 17zM354 1356q0 62 40.5 102.5t105.5 40.5q58 0 92.5 -36.5t34.5 -94.5q0 -62 -40.5 -102.5t-101.5 -40.5q-60 0 -95.5 35.5t-35.5 95.5z" />
<glyph unicode="j" horiz-adv-x="591" d="M-449 -358q0 47 25.5 77.5t71.5 30.5q77 0 84 -92q-2 -8 -2 -23q0 -86 92 -86q62 0 105 46.5t81 138.5q94 229 207 623t113 460q0 47 -35 47q-83 0 -170 -198q-14 -33 -27 -33q-12 0 -25.5 9t-13.5 20q13 59 41 114.5t69.5 103.5t101 77.5t126.5 29.5q137 0 137 -156 q0 -88 -58 -301.5t-136 -443.5q-30 -90 -52.5 -151.5t-50 -128t-51.5 -110t-54 -87.5t-61.5 -70t-70 -47t-83 -30t-97.5 -9q-140 0 -203.5 55.5t-63.5 133.5zM354 1356q0 62 40.5 102.5t107.5 40.5q58 0 91.5 -36.5t33.5 -94.5q0 -61 -40 -102t-100 -41t-96.5 36t-36.5 95z " />
<glyph unicode="k" horiz-adv-x="993" d="M25 27q0 24 14 73l391 1274q-21 35 -139 35q-11 0 -15 8.5t-4 32.5q0 23 4 32t17 9q188 0 360 33q41 0 41 -35q-2 -12 -14 -45q-205 -569 -305 -871q73 97 159.5 186.5t183 156.5t161.5 67q131 0 131 -137q0 -60 -30.5 -98.5t-88.5 -38.5q-34 0 -50.5 19t-19 42t-13.5 42 t-34 19q-34 0 -141.5 -88t-194.5 -192q123 -6 177.5 -94t68.5 -262q3 -46 14.5 -65t34.5 -19q36 0 81 51t75 145q7 10 16 10q12 0 24.5 -8t12.5 -20v-4q-29 -136 -115.5 -227t-205.5 -91q-62 0 -97 34.5t-41 115.5q-3 49 -4.5 115.5t-2.5 106t-5.5 78.5t-17.5 57t-35 18 q-51 0 -82 -84q-27 -73 -66 -211t-45 -181q-6 -28 -53 -28q-45 0 -96 9.5t-51 29.5z" />
<glyph unicode="l" horiz-adv-x="593" d="M63 119q0 55 19 117l356 1138q-21 35 -139 35q-11 0 -14.5 8t-3.5 33q0 23 3.5 32t14.5 9q191 0 363 33q40 0 40 -35q-7 -27 -18 -55q-96 -270 -235.5 -705t-169.5 -563q0 -1 -1.5 -7t-1.5 -12q0 -38 35 -38q41 0 92 57.5t84 155.5q3 10 17 10q12 0 25.5 -8t13.5 -23 q-35 -139 -133 -235.5t-205 -96.5q-65 0 -103.5 39t-38.5 111z" />
<glyph unicode="m" horiz-adv-x="1695" d="M57 657v5q12 56 39.5 111.5t68 104t99 79t123.5 30.5q119 0 119 -143q0 -36 -10.5 -96t-22.5 -99q81 159 185.5 248.5t224.5 89.5q79 0 113 -37.5t34 -109.5q0 -78 -41 -191q80 157 185.5 246.5t222.5 89.5q87 0 129.5 -45.5t42.5 -126.5q0 -117 -94 -358 q-99 -249 -99 -324q0 -35 31 -35q37 0 87 57t87 156q3 13 18 13q12 0 24.5 -8t12.5 -21v-4q-40 -140 -138.5 -230t-201.5 -90q-69 0 -100 31.5t-31 108.5q0 118 101 370q96 244 96 330q0 32 -13 46.5t-42 14.5q-68 0 -157.5 -97t-150.5 -236q-26 -60 -94 -261t-78 -260 q-6 -28 -53 -28q-50 0 -100.5 9t-50.5 28q0 17 14.5 65t21.5 82q24 81 76 241t79.5 256t27.5 134q0 36 -13 51.5t-43 15.5q-67 0 -154 -96t-149 -237q-27 -62 -94.5 -262.5t-75.5 -258.5q-3 -28 -53 -28q-48 0 -99.5 8.5t-51.5 28.5q0 18 14 66.5t20 80.5q17 58 47 152 t49.5 158.5t40.5 136.5t31.5 122t10.5 78q0 45 -33 45q-80 0 -174 -209q-9 -22 -19 -22q-12 0 -25.5 7t-13.5 17z" />
<glyph unicode="n" horiz-adv-x="1206" d="M57 662q12 56 39.5 111.5t68 104t99 79t123.5 30.5q119 0 119 -143q0 -36 -10.5 -96t-22.5 -99q78 154 195 246t235 92q176 0 176 -174q0 -69 -24.5 -157.5t-85.5 -243.5q-82 -209 -82 -279q0 -35 31 -35q38 0 87 55.5t85 155.5q6 13 20 13q12 0 25 -9t12 -24 q-39 -140 -137 -231t-201 -91q-68 0 -99.5 33.5t-31.5 110.5q0 111 98 370q94 246 94 328q0 61 -55 61q-76 0 -183 -113.5t-171 -271.5q-31 -75 -86 -247.5t-64 -221.5q-6 -30 -51 -30q-52 0 -101.5 10t-49.5 29q0 28 24 112q137 463 137 494q38 156 38 197q0 6 -1 10 q-8 28 -37 18q-45 -18 -88 -77t-68 -130q-3 -16 -18 -16q-12 0 -27 9q-13 8 -13 16q0 2 1 4z" />
<glyph unicode="o" horiz-adv-x="1015" d="M55 309q0 74 20 153.5t56.5 154.5t90 142.5t117 118t142 80t160.5 29.5q146 0 233 -95.5t87 -262.5q0 -81 -25.5 -171.5t-77 -177.5t-119 -157.5t-160.5 -114t-194 -43.5q-146 0 -238 87t-92 257zM260 190q0 -76 25 -111.5t86 -35.5q65 0 135.5 73t124 179.5t88.5 229.5 t35 220q0 83 -24 121.5t-85 38.5q-89 0 -181 -124t-148 -291t-56 -300z" />
<glyph unicode="p" horiz-adv-x="1146" d="M-186 -520q0 41 20 41q53 0 87 26t59 93l407 1210q-41 -82 -115 -188q-13 -19 -58 -86t-76.5 -110.5t-37.5 -43.5q-14 0 -31.5 11.5t-17.5 27.5q11 28 33.5 64.5t38 57.5t54.5 70.5t48 61.5q95 124 151.5 222.5t82.5 201.5q16 65 106 65q74 0 74 -43q0 -28 -23.5 -101.5 t-63.5 -185.5t-56 -161q64 122 163.5 196t204.5 74q117 0 179.5 -69t62.5 -189q0 -95 -33 -201.5t-94 -205.5t-138.5 -179.5t-174 -129t-193.5 -48.5q-113 0 -154 72q-126 -372 -126 -445q0 -37 28.5 -52t102.5 -15q16 0 16 -37q0 -39 -21 -39q-23 0 -100 4t-141 4 q-56 0 -141 -4t-107 -4q-16 0 -16 35zM369 145q0 -47 18 -71.5t68 -24.5q67 0 145.5 77t139.5 187t102 234t41 215q0 55 -19 82.5t-65 27.5q-86 0 -167 -85t-151 -252q-35 -87 -73.5 -208.5t-38.5 -181.5z" />
<glyph unicode="q" horiz-adv-x="1083" d="M49 225q0 124 56 261t144 247t206 182t233 72q131 0 168 -108l27 77q8 27 80 27q115 0 118 -43q-6 -2 -108.5 -312.5t-204.5 -646.5t-102 -391q0 -40 22 -54.5t96 -14.5q15 0 15 -37q0 -39 -19 -39q-22 0 -99.5 4t-143.5 4q-63 0 -147 -4t-101 -4t-17 35q0 41 21 41 q112 0 151 106q72 203 201 586q-60 -116 -157.5 -181t-198.5 -65q-119 0 -179.5 66.5t-60.5 191.5zM270 178q0 -104 84 -104q85 0 167 85t151 251q121 289 121 391q0 47 -17 71.5t-67 24.5q-89 0 -194.5 -127t-175 -297t-69.5 -295z" />
<glyph unicode="r" horiz-adv-x="860" d="M57 662q12 56 39.5 111.5t68 104t99 79t123.5 30.5q113 0 113 -145q0 -80 -31 -197q91 178 170.5 258t165.5 80q56 0 83 -38t27 -99q0 -60 -29.5 -103t-74.5 -43q-54 0 -68 48q-12 43 -47 43q-51 0 -124.5 -98.5t-141.5 -278.5q-30 -78 -70.5 -216t-46.5 -182 q-3 -30 -53 -30q-48 0 -99.5 11.5t-51.5 29.5q0 27 24 114q8 28 30.5 103t37.5 126t33 112t27 99t9 50q38 156 38 197q0 6 -1 10q-8 28 -37 18q-45 -18 -88 -77t-68 -130q-3 -16 -18 -16q-12 0 -27 9q-13 8 -13 16q0 2 1 4z" />
<glyph unicode="s" horiz-adv-x="710" d="M-23 143q0 44 25 70.5t66 26.5q37 0 57 -19t27.5 -46t16 -54.5t31 -46.5t62.5 -19q52 0 84.5 30t32.5 93q0 42 -29.5 108t-65 126t-65 138t-29.5 142q0 128 89.5 211.5t222.5 83.5q112 0 169.5 -44t56.5 -118q0 -39 -24.5 -62.5t-62.5 -23.5q-34 0 -53.5 16.5t-27 39.5 t-14.5 46t-24.5 39.5t-48.5 16.5q-41 0 -69.5 -30t-28.5 -74q0 -87 74 -207l34 -58q35 -64 49.5 -93.5t30 -80.5t15.5 -98q0 -124 -92.5 -207.5t-245.5 -83.5q-109 0 -186 49t-77 129z" />
<glyph unicode="t" horiz-adv-x="675" d="M76 129q0 55 20 127l185 594q-94 -4 -140 -4q-14 0 -14 33q0 55 18 55q11 0 78 -2t82 -2l80 250q13 43 131 43q46 0 70 -9.5t20 -27.5q-22 -57 -90 -256q34 0 107.5 2t91.5 2q12 0 16 -7.5t4 -27.5q0 -24 -6 -38.5t-14 -14.5q-90 0 -226 4q-143 -433 -200 -635 q-6 -34 -6 -49q0 -47 41 -47q49 0 105 58.5t91 160.5q3 12 17 12t28.5 -8t14.5 -20q-32 -147 -134 -251t-217 -104q-153 0 -153 162z" />
<glyph unicode="u" horiz-adv-x="1206" d="M57 666q39 140 137 230.5t201 90.5q69 0 100 -33t31 -110q0 -112 -98 -371q-92 -241 -92 -328q0 -61 57 -61q74 0 180 113.5t170 271.5q32 76 88.5 252t65.5 225q6 31 53 31q48 0 98 -11.5t50 -29.5q0 -24 -25 -115q-8 -27 -31 -103.5t-38 -128t-33 -114t-27.5 -101 t-9.5 -50.5q-38 -156 -38 -197q0 -6 1 -10q9 -28 37 -19q45 18 88.5 77t67.5 130q3 17 18 17q12 0 27 -9q12 -8 13 -16q0 -2 -1 -4q-12 -56 -39.5 -111.5t-68 -104.5t-99 -79.5t-123.5 -30.5q-119 0 -119 144q0 36 10.5 95.5t22.5 98.5q-78 -154 -195 -246t-235 -92 q-176 0 -176 174q0 68 25 154t88 248q86 216 86 284q0 35 -31 35q-37 0 -90 -59t-90 -158q-3 -12 -19 -12q-14 0 -27 9q-11 7 -11 19q0 2 1 5z" />
<glyph unicode="v" horiz-adv-x="1050" d="M78 787v10q0 74 38.5 127t108.5 53q36 0 71 -16.5t58.5 -36t53 -36t55.5 -16.5q35 0 55 18t25.5 39.5t19 39.5t37.5 18q23 0 39 -13t17 -34q0 -19 -21 -49q-114 -146 -201.5 -337t-87.5 -333q0 -66 32 -103.5t95 -37.5q88 0 169.5 88.5t129 220.5t47.5 262 q0 63 -11.5 104.5t-22.5 69t-11 58.5q0 42 31.5 73t77.5 31q129 0 129 -170q0 -56 -11.5 -126t-36.5 -151.5t-61 -161.5t-89 -154t-115 -130.5t-145 -90.5t-175 -34q-132 0 -194 63t-62 173q0 126 91 275.5t267 301.5q-32 -14 -75 -14q-36 0 -104.5 12.5t-90.5 12.5 q-68 0 -69 -78q0 -19 -23 -19q-15 0 -24 7.5t-12.5 24t-4 27t-0.5 32.5z" />
<glyph unicode="w" horiz-adv-x="1425" d="M78 765.5v27.5v6q0 75 40 126.5t107 51.5q35 0 70 -16.5t58.5 -36t53.5 -36t56 -16.5q32 0 50.5 18t24.5 39.5t20 39.5t36 18t37.5 -13t15.5 -34q0 -25 -18 -49q-116 -151 -200.5 -338.5t-84.5 -327.5q0 -65 30.5 -104t86.5 -39q36 0 77.5 16t73.5 45q-28 70 -28 168 q0 142 43.5 263.5t117 192.5t158.5 71q61 0 94 -41.5t33 -114.5q0 -113 -68.5 -245t-183.5 -257q24 -48 57.5 -71t84.5 -23q117 0 204.5 140t87.5 358q0 62 -12.5 110t-27 72t-27 56.5t-12.5 68.5q0 96 98 96q65 0 107 -60.5t42 -193.5q0 -162 -43.5 -306t-114.5 -243 t-163.5 -156t-188.5 -57q-150 0 -225 103q-145 -105 -276 -105q-127 0 -187.5 63t-60.5 173q0 126 90 275t264 300q-35 -12 -69 -12q-42 0 -110.5 12.5t-90.5 12.5q-29 0 -45.5 -19.5t-16.5 -56.5q0 -23 -24 -23q-12 0 -20 6.5t-12 15t-6.5 24.5t-2.5 25.5zM735 397 q0 -35 10 -127q77 90 126 191.5t49 197.5q0 37 -9 53.5t-34 16.5q-60 0 -101 -99t-41 -233z" />
<glyph unicode="x" horiz-adv-x="1056" d="M-29 51q0 49 36.5 135.5t76.5 100.5q17 0 30 -7.5t13 -15.5l-6 -18q-33 -47 -33 -109q0 -28 21 -28q32 0 125.5 93.5t197.5 219.5q-20 114 -65 315q-11 33 -19 44.5t-22 11.5q-25 0 -43.5 -29t-28 -63.5t-22 -63.5t-27.5 -29q-33 0 -33 21q0 47 17 106.5t47 116.5t80 96 t108 39q78 0 109 -74t71 -299q161 209 246 291t156 82q75 0 75 -90q0 -15 -9 -51.5t-24 -78t-40.5 -72.5t-53.5 -31q-7 0 -17.5 7.5t-10.5 16.5q41 103 41 125q0 31 -23 31q-50 0 -321 -316l61 -311q15 -70 49 -70q43 0 73 51.5t40 120.5q0 19 26 19q35 0 35 -21 q-2 -39 -20 -95t-50 -114.5t-84 -99.5t-112 -41q-81 0 -115.5 71.5t-74.5 295.5q-152 -204 -239 -284.5t-161 -80.5q-40 0 -60 22t-20 60z" />
<glyph unicode="y" horiz-adv-x="935" d="M-330 -487q0 50 30.5 78t82.5 28q14 0 45 -0.5t45.5 -0.5t43 2t46 6t45.5 12.5t49 21.5t50 32.5t55.5 45t58 60t64.5 77.5q26 156 26 340q0 249 -34 440t-91 191q-38 0 -66.5 -56t-43.5 -155q0 -14 -21 -14q-13 0 -26 8t-13 20q0 55 18 113.5t49.5 109t82.5 83t110 32.5 q122 0 177 -154.5t55 -455.5q0 -132 -19 -268q267 382 267 591q0 53 -30 105t-30 86q0 43 27 69.5t68 26.5q127 0 127 -164q0 -100 -59.5 -247t-155.5 -301t-220 -309.5t-248.5 -276.5t-246.5 -197t-209 -76q-50 0 -79.5 28.5t-29.5 68.5z" />
<glyph unicode="z" horiz-adv-x="813" d="M-16 59q0 84 63.5 168.5t175.5 184.5l113 90l158 119q86 64 157 124q-30 -10 -67 -10q-23 0 -110.5 14t-131.5 15q-25 0 -43.5 -3t-37.5 -11t-29.5 -26t-10.5 -44q0 -7 -7.5 -12.5t-16.5 -5.5q-35 0 -35 22q0 134 57 218.5t162 84.5q46 0 92 -20t77 -43.5t67.5 -43.5 t66.5 -20q34 0 49 18.5t16 40t11.5 40t36.5 18.5q23 0 34 -12t11 -29q0 -87 -72 -175.5t-203 -191.5q-53 -43 -134 -105t-127.5 -98t-97.5 -81.5t-81 -81.5q27 10 70 10q41 0 86 -19t84 -46l78 -54t81 -46t80 -19q45 0 72 24.5t27 65.5q0 22 24 22q13 0 21.5 -4.5t12.5 -10 t6 -15.5t2 -17t-0.5 -19.5t-0.5 -17.5q0 -120 -57.5 -190t-151.5 -70q-57 0 -109.5 34.5t-91 84t-72.5 99t-68.5 84t-65.5 34.5t-47.5 -13t-21.5 -31.5t-9 -36.5t-14.5 -31t-32.5 -13q-20 0 -32.5 14t-12.5 37z" />
<glyph unicode="{" horiz-adv-x="892" d="M82 446q2 20 15 38t32 18q59 0 102 16.5t72 50.5t47 73.5t35 98.5q11 36 29.5 130.5t34.5 150.5q117 405 657 577q18 6 30.5 -8.5t10.5 -34.5q-3 -23 -25 -32q-89 -34 -158.5 -77.5t-115 -87.5t-80.5 -100t-55.5 -106t-38.5 -115q-19 -65 -38 -164t-30 -137 q-30 -99 -102.5 -178.5t-169.5 -101.5q57 -16 89 -61t34.5 -101.5t-13.5 -120.5q-13 -43 -48.5 -137t-55.5 -164q-23 -82 -29.5 -144t5 -127t57 -119t125.5 -97q13 -10 10 -25q-1 -20 -24 -38.5t-38 -12.5q-438 173 -323 581q18 60 50 147.5t44 127.5q17 59 22 99.5t-4 76 t-42 53t-91 17.5q-24 0 -20 34z" />
<glyph unicode="|" horiz-adv-x="583" d="M-129 -561l612 2072h215l-612 -2072h-215z" />
<glyph unicode="}" horiz-adv-x="903" d="M-299 -647q0 24 25 33q110 42 189.5 96t129 119t78 126.5t51.5 143.5q18 62 36.5 160.5t31.5 140.5q28 99 100 179t170 102q-57 16 -89.5 60.5t-35 101t13.5 120.5q13 43 49 137t56 164q24 81 30.5 144t-5 128t-57 119t-124.5 97q-12 7 -12 24q3 20 24.5 38.5t36.5 12.5 q439 -172 324 -581q-18 -63 -50.5 -151t-43.5 -124q-17 -59 -21.5 -99.5t4 -75.5t42 -52.5t91.5 -17.5q13 0 17.5 -10t1.5 -25q-2 -19 -15 -37t-30 -18q-59 0 -102.5 -16.5t-72.5 -50.5t-47.5 -74t-35.5 -99q-11 -36 -28.5 -130.5t-33.5 -150.5q-117 -404 -657 -577 q-18 -6 -31 9t-10 34z" />
<glyph unicode="~" horiz-adv-x="1093" d="M197 602q26 140 110.5 224.5t200.5 84.5q57 0 103.5 -19t76.5 -46t56.5 -54t58.5 -46t69 -19q59 0 99.5 36t52.5 99q1 10 9.5 16.5t19.5 6.5q35 0 28 -35q-28 -154 -104.5 -240t-190.5 -86q-44 0 -83 15.5t-66 39t-55.5 51t-51 51t-52 39t-60.5 15.5q-119 0 -146 -141 q-6 -29 -36 -29q-21 0 -31.5 9t-7.5 28z" />
<glyph unicode="&#xa1;" horiz-adv-x="581" d="M-51 -408q3 15 12 39q30 96 185.5 501t158.5 417q4 20 22.5 30.5t39.5 10.5q15 0 25.5 -7.5t10.5 -19.5v-6q-16 -54 -78 -457t-79 -479q-11 -44 -71 -78.5t-132 -34.5q-41 0 -67.5 20t-26.5 54v10zM301 877q0 54 39 92.5t92 38.5q54 0 92.5 -38.5t38.5 -92.5 q0 -53 -38.5 -91t-92.5 -38q-53 0 -92 38.5t-39 90.5z" />
<glyph unicode="&#xa2;" horiz-adv-x="974" d="M131 481q0 132 56 267.5t143 238.5t197.5 170.5t215.5 71.5q60 206 74 233q13 27 64 27q29 0 44.5 -10t10.5 -25q-14 -48 -98 -229q137 -27 137 -152q0 -46 -27 -79t-74 -33q-41 0 -64 24.5t-28 65.5q-6 44 -18 61.5t-41 17.5q-42 0 -104.5 -65t-120.5 -160.5t-99 -218.5 t-41 -227q0 -137 115 -137q70 0 139 58t121 173q12 16 25 16q14 0 28 -11.5t11 -27.5q-46 -144 -144.5 -229.5t-226.5 -91.5q-45 -161 -76 -232q-10 -26 -61 -26q-30 0 -46.5 10t-11.5 25q7 22 22 57t40 90t37 84q-199 44 -199 264z" />
<glyph unicode="&#xa3;" horiz-adv-x="1155" d="M-37 123q0 79 58 130.5t159 51.5q68 0 125 -14q21 108 21 321v97q-58 -4 -129 -4q-8 0 -14.5 11.5t-6.5 28.5q0 32 7.5 51t17.5 19q49 0 127 -8q-1 26 0.5 73t1.5 62q0 263 123 409t362 146q80 0 143 -20t100 -50.5t61 -70t33 -73.5t9 -66q0 -73 -33.5 -112.5 t-89.5 -39.5q-55 0 -86.5 33.5t-31.5 83.5q0 40 21 74.5t54 43.5q-15 43 -58.5 71t-115.5 28q-233 0 -262 -424l-12 -168q136 8 244 8q12 0 16 -8t4 -29q0 -29 -8 -51t-19 -22q-81 0 -241 4q-32 -285 -131 -447q45 -13 121 -47t145 -56t135 -22q81 0 123.5 41t42.5 133 q0 15 29 15q15 0 27 -5.5t12 -15.5q0 -197 -63.5 -299t-199.5 -102q-58 0 -106.5 18.5t-86 50t-69.5 65t-73.5 70.5t-83.5 60q-48 -102 -105.5 -147.5t-144.5 -45.5q-76 0 -114 39t-38 109zM57 125q0 -70 72 -70q56 0 91.5 36.5t62.5 115.5q-8 2 -26.5 6.5t-32.5 7t-27 2.5 q-140 0 -140 -98z" />
<glyph unicode="&#xa4;" horiz-adv-x="1097" d="M49 287l174 162q-28 134 6 256q33 131 125 262l-94 159l150 146l75 -178q106 75 213 75t172 -75l166 178l74 -148l-174 -161q32 -117 -6 -258q-35 -143 -123 -252l94 -166l-149 -146l-78 181q-104 -82 -211 -82q-97 0 -172 75l-168 -176zM379 705q-31 -125 4.5 -198 t128.5 -73q90 0 163 73.5t105 197.5q29 120 -5.5 197t-125.5 77q-93 0 -164.5 -73t-105.5 -201z" />
<glyph unicode="&#xa5;" horiz-adv-x="1087" d="M94 37q0 39 15 39q101 0 143 31.5t72 125.5l36 115q-36 0 -106.5 -1t-106.5 -1q-16 0 -16 35q0 25 10.5 49.5t18.5 24.5q38 0 114.5 -1t114.5 -1q36 128 55 229q-180 0 -270 -2q-16 0 -16 35q0 27 9.5 50t18.5 23q46 0 138.5 -1t138.5 -1q16 117 16 238q0 184 -23.5 257 t-72.5 73q-50 0 -93 -55.5t-71 -170.5q-3 -14 -18 -14q-17 0 -32.5 7t-16.5 18q21 160 108.5 259t216.5 99q53 0 92 -23t62.5 -61t38 -95.5t19.5 -118.5t5 -138q0 -142 -35 -326q67 178 131.5 311.5t138 238t154.5 158.5t168 54q74 0 113 -41.5t39 -101.5q0 -65 -36 -106.5 t-89 -41.5q-52 0 -82.5 31.5t-30.5 79.5q0 32 9 53q-35 0 -104 -72t-156.5 -211t-155.5 -301q176 0 264 2q16 0 16 -34q0 -27 -9.5 -50.5t-18.5 -23.5q-48 0 -146 1t-147 1l-78 -229q155 0 233 2q19 0 19 -35q0 -26 -9.5 -50t-17.5 -24q-43 0 -129 1t-129 1l-35 -121 q-10 -38 -10 -57q0 -50 43 -72t137 -22q17 0 17 -35q0 -43 -19 -43q-25 0 -129.5 3t-185.5 3q-80 0 -189.5 -3t-125.5 -3q-15 0 -15 39z" />
<glyph unicode="&#xa6;" horiz-adv-x="575" d="M-111 -541l242 815h215l-242 -815h-215zM272 762l220 739h215l-220 -739h-215z" />
<glyph unicode="&#xa7;" horiz-adv-x="1105" d="M-57 -283q0 59 32 94t80 35q46 0 74 -33t29 -98q3 -164 90 -164q69 0 100 56t31 198q0 89 -33.5 229.5t-74 267.5t-74 282t-33.5 268q0 127 41 234t110 181t160.5 126.5t191.5 77t203 24.5q84 0 156 -27t121 -88t49 -147q0 -57 -31.5 -88t-83.5 -31q-46 0 -72.5 29 t-29.5 84q-6 102 -29.5 142t-79.5 40q-66 0 -106.5 -51.5t-40.5 -155.5q0 -90 24.5 -198.5t60 -213.5t71 -215t60 -237t24.5 -244q0 -112 -31.5 -208.5t-85 -165t-121.5 -121t-144.5 -84t-149.5 -47t-142 -15.5q-94 0 -170 27t-126 88.5t-50 148.5zM367 985q0 -106 33 -254 t72.5 -274.5t72.5 -284.5t33 -281q0 -105 -47.5 -199.5t-122.5 -152.5q162 42 258 153.5t96 305.5q0 105 -34.5 251.5t-76 270t-76 273t-34.5 258.5q0 214 118 340q-134 -43 -213 -152t-79 -254z" />
<glyph unicode="&#xa8;" horiz-adv-x="1001" d="M362 1270q6 51 46.5 88t89.5 37q48 0 78.5 -36.5t23.5 -90.5q-6 -51 -45 -88t-90 -37q-48 0 -79 36.5t-24 90.5zM743 1270q6 51 46.5 88t89.5 37t80 -36.5t24 -90.5q-6 -51 -46 -88t-89 -37t-80.5 36.5t-24.5 90.5z" />
<glyph unicode="&#xa9;" horiz-adv-x="1751" d="M168 743q0 163 60.5 308t164 248.5t248.5 164t307 60.5q163 0 305 -60t242 -164t157.5 -248.5t57.5 -308.5q0 -218 -96.5 -395.5t-272 -280t-395.5 -102.5q-162 0 -306.5 60t-248 163t-163.5 247.5t-60 307.5zM291 743q0 -189 85.5 -345t236.5 -245.5t335 -89.5 q189 0 339.5 90.5t233.5 245.5t83 344q0 188 -83.5 343t-234 245t-338.5 90q-139 0 -261.5 -52t-209 -142t-136.5 -216t-50 -268zM461 750q0 225 139 363t352 138q158 0 289 -90q22 -14 37 -14q14 0 23.5 7.5t9.5 19.5q0 14 24 14q10 0 18.5 -4t8.5 -10q-6 -55 -6 -97 q0 -14 14 -196q0 -6 -9.5 -10.5t-19.5 -4.5q-21 0 -24 15q-24 135 -107.5 216t-216.5 81q-153 0 -237 -114t-84 -304q0 -204 85 -327.5t240 -123.5q130 0 218 88.5t108 218.5q0 6 9.5 9.5t19.5 3.5q9 0 16.5 -4t7.5 -9q-20 -126 -20 -196q0 -54 6 -109q0 -14 -25 -14 q-26 0 -26 14q0 10 -9.5 18.5t-21.5 8.5q-17 0 -37 -14q-108 -82 -291 -82q-214 0 -352.5 140.5t-138.5 367.5z" />
<glyph unicode="&#xaa;" horiz-adv-x="997" d="M242 926q0 93 42 196t108 185t154.5 136t174.5 54q101 0 127 -80q2 5 5.5 18t5 17.5t6 13.5t9 12.5t12 8.5t18 6.5t24.5 1.5q88 0 88 -35q-4 -19 -25 -76q-170 -459 -170 -524q0 -26 23 -26q24 0 55.5 31t58.5 91l6 14q5 14 10.5 20.5t12.5 6.5q10 0 19.5 -6t9.5 -18 q-32 -105 -104 -172.5t-150 -67.5q-82 0 -82 101q0 54 10 84q-43 -85 -118.5 -136t-149.5 -51q-87 0 -133.5 51t-46.5 144zM408 891q0 -78 63 -78q131 0 238 252q92 220 92 293q0 36 -13.5 55t-50.5 19q-67 0 -146 -96t-131 -224t-52 -221z" />
<glyph unicode="&#xab;" horiz-adv-x="974" d="M131 473q10 34 23 45l485 377h2q10 0 17 -16.5t4 -30.5q-4 -11 -9 -14l-301 -345l150 -374v-17q-3 -12 -17.5 -28.5t-23.5 -16.5h-2l-326 375q-10 13 -2 45zM494 428q-8 13 0 45q10 35 20 45l487 377h3q9 0 15 -16.5t3 -30.5q-4 -13 -8 -14l-299 -345l147 -374 q3 -7 0 -17q-3 -12 -17.5 -28.5t-21.5 -16.5h-2z" />
<glyph unicode="&#xac;" horiz-adv-x="1169" d="M127 504q5 32 29 160h925l-114 -664h-240l115 504h-715z" />
<glyph unicode="&#xad;" horiz-adv-x="634" d="M104 481q0 47 15 106.5t31 59.5l409 12q12 0 12 -32q0 -42 -18 -103.5t-31 -62.5l-409 -12q-9 0 -9 32z" />
<glyph unicode="&#xae;" horiz-adv-x="942" d="M186 1100q0 171 117 286t291 115q177 0 293.5 -115t116.5 -286q0 -174 -115 -288t-295 -114q-174 0 -291 114t-117 288zM281 1100q0 -145 86 -240.5t225 -95.5q146 0 244 92q-9 0 -38.5 -1t-45.5 -1q-41 0 -105 98q-74 111 -90 111h-18q0 -4 -1 -52.5t-1 -66.5 q0 -32 9.5 -43.5t37.5 -11.5q6 0 6 -21q0 -14 -6 -14q-43 2 -113 2q-14 0 -40.5 -1t-39.5 -1q-8 0 -8 18q0 17 6 17q27 0 34 14t7 55v302q0 25 -1.5 34.5t-11.5 16t-32 6.5q-4 0 -4 10q0 6 1.5 11.5t3.5 7.5l1 2q11 0 46 -2.5t48 -2.5q7 0 25 1.5t24 1.5q40 0 67.5 -1t62 -5 t57 -13t43.5 -23t31 -37t10 -53q0 -115 -152 -133q26 -7 46.5 -26.5t54.5 -61.5q39 -52 63.5 -72t50.5 -22q51 91 51 201q0 144 -90 239t-233 95q-139 0 -225 -94.5t-86 -239.5zM539 1118q69 0 98 18.5t29 65.5t-20 67.5t-64 20.5q-11 0 -20.5 -0.5t-14.5 -1t-6 -0.5 q-2 -31 -2 -170z" />
<glyph unicode="&#xaf;" horiz-adv-x="972" d="M418 1239q17 78 37 78h489q13 0 15 -25t-5 -53q-16 -80 -36 -80h-490q-26 0 -10 80z" />
<glyph unicode="&#xb0;" horiz-adv-x="874" d="M256 979q0 124 55.5 242t158.5 196t226 78q105 0 166.5 -70t61.5 -188q0 -119 -55.5 -237.5t-156.5 -198.5t-218 -80q-110 0 -174 69.5t-64 188.5zM442 989q0 -80 29.5 -119t79.5 -39q100 0 187 120t87 284q0 74 -29.5 115t-84.5 41q-63 0 -125.5 -55.5t-103 -150 t-40.5 -196.5z" />
<glyph unicode="&#xb1;" horiz-adv-x="1130" d="M43 0l45 164h856q-6 -20 -22 -77t-25 -87h-854zM225 635q24 95 45 164h346q71 248 101 346h168l-101 -346h342q-34 -111 -47 -164h-340l-98 -340h-168l98 340h-346z" />
<glyph unicode="&#xb2;" horiz-adv-x="782" d="M225 911q0 13 13 21q138 84 240 157t198 162q150 138 153 320q0 151 -122 151q-68 0 -104 -46t-36 -113q0 -41 16.5 -76t33 -53.5t16.5 -20.5q0 -12 -29 -25.5t-53 -13.5q-60 0 -100.5 41t-40.5 119q0 112 81.5 189t225.5 77q148 0 222.5 -66t74.5 -178 q0 -76 -45.5 -154.5t-123 -147t-173 -127.5t-203.5 -105q92 12 324 12q23 0 40 16t25.5 34.5t21 34.5t27.5 16q9 0 19 -6t10 -11q0 -11 -11.5 -49.5t-26.5 -88t-21 -73.5q-3 -22 -25 -22h-610q-17 0 -17 26z" />
<glyph unicode="&#xb3;" horiz-adv-x="782" d="M274 1024q0 40 23.5 66t64.5 26q70 0 70 -69q0 -6 -2 -15t-2 -14q0 -41 23 -62.5t79 -21.5q88 0 141.5 70.5t53.5 169.5q0 65 -20.5 98t-73.5 33q-26 0 -46.5 -16t-38 -32t-34.5 -16q-20 0 -32.5 12.5t-12.5 34.5q0 38 33 49q178 59 249.5 127.5t71.5 161.5 q0 48 -26.5 75.5t-77.5 27.5q-59 0 -92 -35.5t-33 -89.5q0 -26 19.5 -55t19.5 -33q0 -10 -22 -19.5t-48 -9.5q-51 0 -81.5 28.5t-30.5 83.5q0 84 78.5 142.5t205.5 58.5q139 0 207 -51t68 -137q0 -87 -78 -151.5t-232 -100.5q110 -1 169 -58.5t59 -148.5q0 -130 -114 -212.5 t-294 -82.5q-111 0 -177.5 44t-66.5 122z" />
<glyph unicode="&#xb4;" horiz-adv-x="825" d="M385 1100q0 8 8 20l320 383q17 23 84 23q44 0 78 -14.5t34 -34.5t-35 -47l-423 -349q-10 -10 -27 -10q-13 0 -26 9t-13 20z" />
<glyph unicode="&#xb5;" horiz-adv-x="1048" d="M-88 -514q0 2 1 5t1 5q71 321 246 799v37q3 235 92 590q7 28 50.5 46.5t86.5 18.5q29 0 50.5 -11.5t21.5 -31.5v-8q-35 -169 -176 -621q8 -147 112 -147q73 0 143 67t115 195q27 161 95 485q7 35 44.5 53.5t84.5 18.5q90 0 90 -49q0 -2 -1 -6t-1 -6q-16 -82 -58 -208 t-102 -251q-16 -144 -16 -211q0 -75 16 -107t51 -32q50 0 113 78q0 2 4 2q9 0 20 -11t11 -20v-6q-41 -87 -109 -141t-145 -54q-71 0 -106.5 30t-35.5 105q0 61 23 152q-91 -155 -169.5 -221t-154.5 -66q-82 0 -98 98q-78 -315 -84 -524q0 -36 -49.5 -65t-102.5 -29 q-63 0 -63 41z" />
<glyph unicode="&#xb6;" horiz-adv-x="1236" d="M25 -377q0 51 27.5 77t66.5 26t60.5 -22t21.5 -58q0 -101 94 -101t160.5 115t142.5 397l131 443q-78 -4 -131 -4q-184 0 -298 97.5t-114 287.5q0 261 144 418t399 157q89 0 225 -4t185 -4q56 0 154.5 5t119.5 5q17 0 17 -39q0 -37 -17 -37q-108 0 -158.5 -44t-74.5 -124 l-291 -1007q-84 -283 -171 -448.5t-190 -239.5t-241 -74q-262 0 -262 178z" />
<glyph unicode="&#xb7;" horiz-adv-x="698" d="M195 528q0 69 50 119.5t120 50.5q69 0 119.5 -50.5t50.5 -119.5t-50.5 -118.5t-119.5 -49.5q-70 0 -120 49.5t-50 118.5z" />
<glyph unicode="&#xb8;" horiz-adv-x="1126" d="M158 -471q0 14 14 29.5t27 15.5q7 0 25 -17t47 -34t61 -17q76 0 120 56.5t44 126.5q0 44 -21 73t-57 29q-26 0 -44 -11t-25 -24t-20 -24t-30 -11q-20 0 -33.5 12t-13.5 34q0 25 41 57l39 35q70 63 114 159h103q-50 -74 -121 -149h16q114 0 172 -51t58 -129 q0 -103 -89.5 -187t-230.5 -84q-146 0 -190 95q-6 6 -6 16z" />
<glyph unicode="&#xb9;" horiz-adv-x="782" d="M365 918q0 10 4.5 20t7.5 10q82 0 112 20t50 79l8 24q60 205 127 426l16 62l4 16q0 20 -18 20q2 0 -36.5 -15t-94 -34t-88.5 -28q-19 0 -19 43q0 21 11 28l18 6q105 40 227 97.5t183 97.5q11 8 22 8q13 0 30 -7.5t17 -14.5q-6 -20 -99.5 -308.5t-129.5 -418.5 q-8 -31 -8 -48q0 -29 26.5 -41t104.5 -12q10 0 10 -28q0 -39 -14 -39q-13 0 -100.5 2t-135.5 2q-44 0 -127.5 -2t-99.5 -2q-8 0 -8 37z" />
<glyph unicode="&#xba;" horiz-adv-x="811" d="M217 987q0 84 33.5 174t90 164.5t140 123t174.5 48.5q111 0 176.5 -71.5t65.5 -196.5q0 -77 -31.5 -163.5t-86 -162t-138.5 -125t-178 -49.5q-109 0 -177.5 65t-68.5 193zM373 899q0 -58 18 -84.5t64 -26.5q64 0 132.5 91t111 215t42.5 221q0 64 -18 92.5t-64 28.5 q-67 0 -135.5 -93t-109.5 -218.5t-41 -225.5z" />
<glyph unicode="&#xbb;" horiz-adv-x="974" d="M10 98q5 15 8 17l301 342l-149 374q-3 7 0 17q3 13 17 30t22 17h2l328 -377q8 -13 0 -43q-4 -30 -21 -47l-487 -375h-4q-9 0 -14.5 16.5t-2.5 28.5zM373 98q5 13 8 17l299 342l-148 374v17q3 14 16.5 30.5t22.5 16.5h2l326 -377q10 -12 2 -43q-4 -32 -22 -47l-486 -375 h-4q-9 0 -14 16t-2 29z" />
<glyph unicode="&#xbc;" horiz-adv-x="1839" d="M201 -4l6 12l1376 1467q13 16 59 16q33 0 60 -9.5t27 -25.5l-7 -12l-1376 -1467q-10 -14 -55 -14q-32 0 -61 9.5t-29 23.5zM229 649q0 11 5 22t8 11q82 0 112.5 19.5t48.5 78.5l9 23q60 206 127 426l16 61q4 16 4 19q0 20 -18 20q2 0 -36.5 -15.5t-94 -35.5t-88.5 -29 q-19 0 -19 43q0 26 10 29q100 34 232 96.5t196 106.5q16 8 23 8q13 0 30 -8.5t17 -16.5q-6 -21 -99.5 -308t-129.5 -417q-9 -38 -9 -49q0 -28 27 -39.5t105 -11.5q10 0 10 -31q0 -14 -4.5 -25.5t-10.5 -11.5q-13 0 -100 2t-135 2q-44 0 -127.5 -2t-99.5 -2q-9 0 -9 35z M958 279q0 19 13 32q40 46 273 292t261 278q19 26 70 26q70 0 70 -24q-5 -17 -65 -215.5t-91 -305.5l139 5q12 0 12 -23q0 -22 -6 -43.5t-13 -34t-11 -12.5q-15 0 -68 1t-78 1l-14 -42t-14.5 -43t-8.5 -31t-4 -29q0 -48 95 -48q6 0 6 -26q0 -14 -4.5 -27.5t-8.5 -13.5 q-19 0 -80.5 2t-97.5 2h-45q-40 0 -91 -2t-62 -2q-9 0 -9 35q0 32 17 32q69 0 92.5 21t42.5 82l27 88l-328 -4q-7 0 -13 9.5t-6 19.5zM1116 360h215q77 247 127 367q-33 -32 -103 -107.5t-148.5 -161t-90.5 -98.5z" />
<glyph unicode="&#xbd;" horiz-adv-x="1839" d="M201 -4q0 4 4 12l1376 1467q13 16 59 16q34 0 60 -9.5t26 -25.5q0 -4 -4 -12l-1376 -1467q-10 -14 -55 -14q-33 0 -61.5 9.5t-28.5 23.5zM229 649q0 12 4 22.5t9 10.5q82 0 112.5 19.5t48.5 78.5l134 449q2 8 8.5 28t9.5 32.5t2 19.5q0 20 -16 20q2 0 -36.5 -15.5 t-94 -35.5t-91.5 -29q-7 0 -12.5 11.5t-5.5 31.5q0 26 12 29q99 33 230 95.5t198 107.5q16 8 23 8q12 0 29.5 -8.5t17.5 -16.5q-9 -28 -58 -176t-97.5 -299.5t-75.5 -249.5q-2 -11 -5.5 -26.5t-3.5 -22.5q0 -28 27.5 -39.5t103.5 -11.5q11 0 11 -31q0 -13 -4 -25t-9 -12 q-14 0 -101.5 2t-135.5 2q-42 0 -125.5 -2t-99.5 -2q-9 0 -9 35zM1001 27q0 12 13 20q254 156 391 275l47 45q151 145 154 319q0 152 -123 152q-68 0 -104 -46.5t-36 -113.5q0 -42 16.5 -76.5t33 -53t16.5 -20.5q0 -12 -29 -25.5t-53 -13.5q-60 0 -100.5 41t-40.5 119 q0 112 81.5 189t225.5 77q148 0 222.5 -65.5t74.5 -177.5q0 -76 -45.5 -154.5t-123 -147.5t-173 -128t-203.5 -105q40 5 157.5 9t166.5 4q23 0 40 15.5t25.5 34.5t21 34.5t27.5 15.5q9 0 19 -6t10 -11q0 -11 -11.5 -49.5t-26.5 -87.5t-21 -73q-3 -23 -25 -23h-610 q-17 0 -17 27z" />
<glyph unicode="&#xbe;" horiz-adv-x="1839" d="M193 758q0 38 25 64t65 26q67 0 67 -68q0 -8 -1 -17t-1 -13q0 -84 103 -84q88 0 141 70t53 169q0 65 -21 98t-73 33q-31 0 -65.5 -30.5t-55.5 -30.5q-19 0 -32 13t-13 34q0 39 35 47q177 59 248 127t71 162q0 49 -25.5 76.5t-76.5 27.5q-60 0 -92.5 -36t-32.5 -89 q0 -28 19.5 -57t19.5 -31q0 -10 -24 -20t-46 -10q-52 0 -82 29t-30 85q0 83 78 141t204 58q139 0 208 -51.5t69 -137.5q0 -175 -312 -249q112 -1 171 -58.5t59 -150.5q0 -129 -115 -212t-293 -83q-110 0 -177.5 45t-67.5 123zM211 -4l6 12l1376 1467q13 16 60 16 q33 0 59.5 -9.5t26.5 -25.5l-6 -12l-1377 -1467q-10 -14 -55 -14q-32 0 -61 9.5t-29 23.5zM956 279q0 19 13 32q40 46 273 292t261 278q19 26 70 26q69 0 69 -24q-5 -19 -64.5 -217.5t-90.5 -303.5l139 5q12 0 12 -23q0 -22 -6 -43.5t-13 -34t-11 -12.5q-15 0 -68 1t-78 1 l-14 -42t-14.5 -43t-8.5 -31t-4 -29q0 -48 95 -48q6 0 6 -26q0 -14 -4.5 -27.5t-8.5 -13.5q-19 0 -80.5 2t-97.5 2h-45q-40 0 -91 -2t-62 -2q-9 0 -9 35q0 32 17 32q69 0 92.5 21t42.5 82l27 88l-328 -4q-7 0 -13 9.5t-6 19.5zM1114 360h215q77 247 127 367 q-33 -32 -103 -107.5t-148.5 -161t-90.5 -98.5z" />
<glyph unicode="&#xbf;" horiz-adv-x="811" d="M-113 -205q0 229 297 381q35 18 80.5 41t72.5 36.5t60 31t52 29.5t39 28t30 30t16.5 30.5t6.5 35.5q0 33 -18 52.5t-48 19.5q-21 0 -37 -8q-17 0 -30 -14t-20.5 -31t-23.5 -31t-40 -14q-32 0 -52 21.5t-20 55.5q0 55 52 94.5t138 39.5q88 0 141.5 -49.5t53.5 -133.5 q0 -63 -30 -119t-78 -100t-106.5 -86t-116.5 -84t-106 -86t-78 -100t-30 -119q0 -74 30 -111.5t83 -37.5q48 0 78 27.5t30 72.5q0 40 -37 90q0 39 33 67.5t78 28.5q55 0 86 -35t31 -96q0 -102 -88 -169.5t-226 -67.5q-137 0 -220 79.5t-83 200.5zM453 877q0 54 38.5 92.5 t92.5 38.5t91.5 -38.5t37.5 -92.5q0 -53 -37.5 -91t-91.5 -38t-92.5 38t-38.5 91z" />
<glyph unicode="&#xc0;" horiz-adv-x="1312" d="M-139 33q0 43 14 43q59 0 98 29t97 114q68 99 275 408t374.5 557.5t191.5 275.5q26 31 97 31q31 0 47 -9.5t16 -35.5v-1247q0 -75 30 -99t128 -24q14 0 14 -35q0 -45 -18 -45q-38 0 -130 4t-155 4q-66 0 -170.5 -3t-130.5 -3q-18 0 -18 39t18 39q113 0 144.5 31t31.5 135 v293q-13 0 -69 -2.5t-84 -2.5h-72q-92 0 -178 7q-199 -303 -199 -387q0 -42 32.5 -58t102.5 -16q17 0 17 -41q0 -37 -19 -37q-8 0 -110.5 3t-151.5 3q-55 0 -127.5 -4t-77.5 -4q-18 0 -18 37zM465 627q55 4 178 4q127 0 172 -4q4 408 19 577q-34 -65 -97.5 -165.5 t-160.5 -245t-111 -166.5zM688 1866q0 51 150 51q32 0 44.5 -4.5t20.5 -16.5l207 -307q8 -11 8 -18q-1 -10 -19.5 -17.5t-35.5 -7.5q-12 0 -23 8q-248 209 -329 275q-23 20 -23 37z" />
<glyph unicode="&#xc1;" horiz-adv-x="1312" d="M-139 33q0 43 14 43q59 0 98 29t97 114q68 99 275 408t374.5 557.5t191.5 275.5q26 31 97 31q31 0 47 -9.5t16 -35.5v-1247q0 -75 30 -99t128 -24q14 0 14 -35q0 -45 -18 -45q-38 0 -130 4t-155 4q-66 0 -170.5 -3t-130.5 -3q-18 0 -18 39t18 39q113 0 144.5 31t31.5 135 v293q-13 0 -69 -2.5t-84 -2.5h-72q-92 0 -178 7q-199 -303 -199 -387q0 -42 32.5 -58t102.5 -16q17 0 17 -41q0 -37 -19 -37q-8 0 -110.5 3t-151.5 3q-55 0 -127.5 -4t-77.5 -4q-18 0 -18 37zM465 627q55 4 178 4q127 0 172 -4q4 408 19 577q-34 -65 -97.5 -165.5 t-160.5 -245t-111 -166.5zM840 1569q0 6 8 18l301 309q23 23 92 23q50 0 88 -11.5t35 -33.5q0 -23 -39 -45l-414 -275q-11 -8 -26 -8t-30.5 7.5t-14.5 15.5z" />
<glyph unicode="&#xc2;" horiz-adv-x="1312" d="M-139 33q0 43 14 43q59 0 98 29t97 114q68 99 275 408t374.5 557.5t191.5 275.5q26 31 97 31q31 0 47 -9.5t16 -35.5v-1247q0 -75 30 -99t128 -24q14 0 14 -35q0 -45 -18 -45q-38 0 -130 4t-155 4q-66 0 -170.5 -3t-130.5 -3q-18 0 -18 39t18 39q113 0 144.5 31t31.5 135 v293q-13 0 -69 -2.5t-84 -2.5h-72q-92 0 -178 7q-199 -303 -199 -387q0 -42 32.5 -58t102.5 -16q17 0 17 -41q0 -37 -19 -37q-8 0 -110.5 3t-151.5 3q-55 0 -127.5 -4t-77.5 -4q-18 0 -18 37zM465 627q55 4 178 4q127 0 172 -4q4 408 19 577q-34 -65 -97.5 -165.5 t-160.5 -245t-111 -166.5zM692 1583q9 15 25 31l299 295q18 14 61 14q36 0 49 -16q116 -186 179 -291q11 -19 14 -33q-1 -17 -15 -26t-30 -9q-13 0 -21 8q-156 136 -211 181l-286 -181q-13 -10 -27 -10q-16 0 -26.5 9.5t-10.5 27.5z" />
<glyph unicode="&#xc3;" horiz-adv-x="1312" d="M-139 33q0 43 14 43q59 0 98 29t97 114q68 99 275 408t374.5 557.5t191.5 275.5q26 31 97 31q31 0 47 -9.5t16 -35.5v-1247q0 -75 30 -99t128 -24q14 0 14 -35q0 -45 -18 -45q-38 0 -130 4t-155 4q-66 0 -170.5 -3t-130.5 -3q-18 0 -18 39t18 39q113 0 144.5 31t31.5 135 v293q-13 0 -69 -2.5t-84 -2.5h-72q-92 0 -178 7q-199 -303 -199 -387q0 -42 32.5 -58t102.5 -16q17 0 17 -41q0 -37 -19 -37q-8 0 -110.5 3t-151.5 3q-55 0 -127.5 -4t-77.5 -4q-18 0 -18 37zM465 627q55 4 178 4q127 0 172 -4q4 408 19 577q-34 -65 -97.5 -165.5 t-160.5 -245t-111 -166.5zM715 1634q5 33 22 69.5t45 70t71.5 55.5t92.5 22q37 0 68.5 -12t52 -29.5t38 -35t37 -29.5t40.5 -12q101 0 110 94q1 9 10.5 15.5t20.5 6.5q14 0 23 -10.5t6 -30.5q-6 -40 -21.5 -78t-41.5 -72t-66.5 -54.5t-89.5 -20.5q-34 0 -64.5 14.5t-52.5 35 t-43 40.5t-44.5 34.5t-47.5 14.5q-78 0 -88 -96q-1 -15 -12.5 -25t-26.5 -10q-45 0 -39 43z" />
<glyph unicode="&#xc4;" horiz-adv-x="1312" d="M-139 33q0 43 14 43q59 0 98 29t97 114q68 99 275 408t374.5 557.5t191.5 275.5q26 31 97 31q31 0 47 -9.5t16 -35.5v-1247q0 -75 30 -99t128 -24q14 0 14 -35q0 -45 -18 -45q-38 0 -130 4t-155 4q-66 0 -170.5 -3t-130.5 -3q-18 0 -18 39t18 39q113 0 144.5 31t31.5 135 v293q-13 0 -69 -2.5t-84 -2.5h-72q-92 0 -178 7q-199 -303 -199 -387q0 -42 32.5 -58t102.5 -16q17 0 17 -41q0 -37 -19 -37q-8 0 -110.5 3t-151.5 3q-55 0 -127.5 -4t-77.5 -4q-18 0 -18 37zM465 627q55 4 178 4q127 0 172 -4q4 408 19 577q-34 -65 -97.5 -165.5 t-160.5 -245t-111 -166.5zM705 1722q6 52 45 87.5t90 35.5t82 -35t24 -88q-6 -48 -45 -84t-88 -36q-50 0 -82 35t-26 85zM1128 1722q6 52 45.5 87.5t90.5 35.5t82 -35t24 -88q-6 -49 -45 -84.5t-90 -35.5q-50 0 -82 35t-25 85z" />
<glyph unicode="&#xc5;" horiz-adv-x="1312" d="M-139 33q0 43 14 43q59 0 98 29t97 114q68 99 275 408t374.5 557.5t191.5 275.5q26 31 97 31q31 0 47 -9.5t16 -35.5v-1247q0 -75 30 -99t128 -24q14 0 14 -35q0 -45 -18 -45q-38 0 -130 4t-155 4q-66 0 -170.5 -3t-130.5 -3q-18 0 -18 39t18 39q113 0 144.5 31t31.5 135 v293q-13 0 -69 -2.5t-84 -2.5h-72q-92 0 -178 7q-199 -303 -199 -387q0 -42 32.5 -58t102.5 -16q17 0 17 -41q0 -37 -19 -37q-8 0 -110.5 3t-151.5 3q-55 0 -127.5 -4t-77.5 -4q-18 0 -18 37zM465 627q55 4 178 4q127 0 172 -4q4 408 19 577q-34 -65 -97.5 -165.5 t-160.5 -245t-111 -166.5zM821 1712q9 101 79 165.5t171 64.5q97 0 145 -55t39 -142q-8 -101 -75 -164t-170 -63q-98 0 -147.5 52t-41.5 142zM934 1716q-5 -50 17 -78t67 -28q52 0 86 36t39 89q10 106 -86 106q-53 0 -85.5 -34t-37.5 -91z" />
<glyph unicode="&#xc6;" horiz-adv-x="1900" d="M-236 31q0 41 15 41q58 0 104 30.5t125 116.5l580 619q36 39 91.5 98.5t87.5 93.5t74.5 80.5t68 74t51.5 57.5t41.5 48.5t23.5 30.5q-12 59 -147 59q-15 0 -15 27q0 13 7 32t14 19q230 -10 325 -10q166 0 404.5 5t267.5 5q25 0 33 -8.5t8 -28.5q0 -4 -6 -106t-6 -213 q0 -25 -49 -25q-10 0 -19.5 4.5t-9.5 12.5q0 141 -64.5 206.5t-222.5 65.5q-130 0 -209 -12q-57 -197 -161 -535q23 -2 61 -2q145 0 218.5 55t105.5 152q7 23 30 23q54 0 54 -27q-1 -11 -27 -82q-47 -126 -72 -250t-35.5 -168.5t-37.5 -44.5q-19 0 -34.5 5.5t-15.5 15.5 q4 50 4 102q0 73 -37.5 106t-140.5 33q-47 0 -100 -6q-9 -34 -47.5 -154t-67 -224t-28.5 -154q0 -58 36.5 -85.5t149.5 -27.5q169 0 281.5 34t174.5 97t97 164q6 16 29 16q22 0 37.5 -9.5t15.5 -22.5q-59 -176 -90 -326q-6 -28 -19 -36.5t-45 -8.5q-23 0 -311 5t-492 5 q-54 0 -189 -4t-165 -4q-18 0 -18 37q0 39 20 39q97 0 141.5 33t75.5 139q74 246 96 315q-74 -4 -147 -4q-128 0 -217 6q-174 -197 -250 -295.5t-76 -138.5q0 -29 23 -41t69 -14q17 0 17 -39q0 -17 -5.5 -27t-13.5 -10q-12 0 -110 4t-141 4q-58 0 -127 -4t-74 -4 q-15 0 -15 35zM545 653q55 4 164 4q91 0 153 -6q37 138 168 549q-101 -133 -485 -547z" />
<glyph unicode="&#xc7;" horiz-adv-x="1357" d="M154 518q0 109 29 223.5t81.5 223.5t133 205.5t177 169t219.5 115t255 42.5q153 0 254 -94q24 -19 36 -19q14 0 27.5 14.5t17.5 35.5q2 16 29 16q18 0 32.5 -8.5t14.5 -20.5q-43 -148 -62.5 -232t-29.5 -185q-3 -21 -33 -21q-17 0 -32 5t-15 13q0 16 2 48.5t2 46.5 q0 149 -63.5 225t-181.5 76t-232.5 -94t-195 -236.5t-130 -312.5t-49.5 -322q0 -166 64 -263t205 -97q91 0 167.5 31.5t133 88.5t97 126.5t69.5 154.5q7 19 32 19q17 0 33.5 -8.5t13.5 -22.5q-32 -103 -63 -240t-39 -209q0 -20 -41 -20q-39 0 -39 20q0 26 -9 42t-26 16 t-51 -19q-61 -36 -144.5 -60t-162.5 -24h-8q-39 -49 -84 -98h16q114 0 172 -51t58 -129q0 -103 -89.5 -187t-230.5 -84q-146 0 -190 95q-7 7 -7 16q0 14 14 29.5t27 15.5q7 0 25.5 -17t47.5 -34t61 -17q76 0 119.5 56.5t43.5 126.5q0 44 -20.5 73t-56.5 29q-26 0 -44 -11 t-25 -24t-20 -24t-30 -11q-20 0 -33.5 12t-13.5 34q0 25 41 57l39 35q45 42 90 114q-108 15 -191.5 64t-134.5 123t-76.5 164.5t-25.5 193.5z" />
<glyph unicode="&#xc8;" horiz-adv-x="1386" d="M-18 37q0 39 16 39q106 0 151 31.5t74 125.5q43 147 93.5 314.5t110.5 367.5t95 316q10 38 10 57q0 49 -41.5 69.5t-136.5 20.5q-14 0 -14 35q0 45 16 45q26 0 141.5 -5t200.5 -5q166 0 406.5 5t269.5 5q25 0 33 -8.5t8 -28.5q0 -4 -9 -106t-9 -213q0 -25 -47 -25 q-10 0 -19.5 4.5t-9.5 12.5q0 141 -65 206.5t-222 65.5q-132 0 -209 -12q-84 -289 -163 -535q25 -2 63 -2q76 0 133.5 15.5t93.5 45.5t58 64.5t37 81.5q10 23 30 23q53 0 53 -27q0 -7 -3 -17t-8.5 -25.5t-8.5 -23.5q-59 -160 -117 -460q-4 -19 -35 -19q-17 0 -32 5.5 t-15 15.5q0 11 2 47t2 55q0 73 -38.5 106t-141.5 33q-47 0 -100 -6q-9 -34 -47.5 -154t-67 -224t-28.5 -154q0 -38 12.5 -60.5t54.5 -37.5t119 -15q170 0 282.5 34t175 97t97.5 164q6 16 27 16t38 -9.5t17 -22.5q-64 -191 -92 -326q-6 -29 -17.5 -37t-44.5 -8q-24 0 -327 5 t-508 5q-84 0 -198.5 -3t-129.5 -3q-16 0 -16 39zM702 1866q0 51 150 51q51 0 66 -21l206 -307q9 -12 9 -18q-1 -10 -20 -17.5t-36 -7.5q-11 0 -22 8q-224 189 -330 275q-23 20 -23 37z" />
<glyph unicode="&#xc9;" horiz-adv-x="1386" d="M-18 37q0 39 16 39q106 0 151 31.5t74 125.5q43 147 93.5 314.5t110.5 367.5t95 316q10 38 10 57q0 49 -41.5 69.5t-136.5 20.5q-14 0 -14 35q0 45 16 45q26 0 141.5 -5t200.5 -5q166 0 406.5 5t269.5 5q25 0 33 -8.5t8 -28.5q0 -4 -9 -106t-9 -213q0 -25 -47 -25 q-10 0 -19.5 4.5t-9.5 12.5q0 141 -65 206.5t-222 65.5q-132 0 -209 -12q-84 -289 -163 -535q25 -2 63 -2q76 0 133.5 15.5t93.5 45.5t58 64.5t37 81.5q10 23 30 23q53 0 53 -27q0 -7 -3 -17t-8.5 -25.5t-8.5 -23.5q-59 -160 -117 -460q-4 -19 -35 -19q-17 0 -32 5.5 t-15 15.5q0 11 2 47t2 55q0 73 -38.5 106t-141.5 33q-47 0 -100 -6q-9 -34 -47.5 -154t-67 -224t-28.5 -154q0 -38 12.5 -60.5t54.5 -37.5t119 -15q170 0 282.5 34t175 97t97.5 164q6 16 27 16t38 -9.5t17 -22.5q-64 -191 -92 -326q-6 -29 -17.5 -37t-44.5 -8q-24 0 -327 5 t-508 5q-84 0 -198.5 -3t-129.5 -3q-16 0 -16 39zM774 1569q0 6 8 18l301 309q23 23 93 23q50 0 87.5 -11.5t34.5 -33.5q0 -24 -38 -45l-414 -275q-11 -8 -27 -8q-15 0 -30.5 7.5t-14.5 15.5z" />
<glyph unicode="&#xca;" horiz-adv-x="1386" d="M-18 37q0 39 16 39q106 0 151 31.5t74 125.5q43 147 93.5 314.5t110.5 367.5t95 316q10 38 10 57q0 49 -41.5 69.5t-136.5 20.5q-14 0 -14 35q0 45 16 45q26 0 141.5 -5t200.5 -5q166 0 406.5 5t269.5 5q25 0 33 -8.5t8 -28.5q0 -4 -9 -106t-9 -213q0 -25 -47 -25 q-10 0 -19.5 4.5t-9.5 12.5q0 141 -65 206.5t-222 65.5q-132 0 -209 -12q-84 -289 -163 -535q25 -2 63 -2q76 0 133.5 15.5t93.5 45.5t58 64.5t37 81.5q10 23 30 23q53 0 53 -27q0 -7 -3 -17t-8.5 -25.5t-8.5 -23.5q-59 -160 -117 -460q-4 -19 -35 -19q-17 0 -32 5.5 t-15 15.5q0 11 2 47t2 55q0 73 -38.5 106t-141.5 33q-47 0 -100 -6q-9 -34 -47.5 -154t-67 -224t-28.5 -154q0 -38 12.5 -60.5t54.5 -37.5t119 -15q170 0 282.5 34t175 97t97.5 164q6 16 27 16t38 -9.5t17 -22.5q-64 -191 -92 -326q-6 -29 -17.5 -37t-44.5 -8q-24 0 -327 5 t-508 5q-84 0 -198.5 -3t-129.5 -3q-16 0 -16 39zM662 1583q11 17 24 31l299 295q17 14 62 14q36 0 49 -16q86 -137 178 -291q11 -19 14 -33q-1 -17 -15 -26t-30 -9q-12 0 -20 8q-156 136 -211 181l-287 -181q-13 -10 -27 -10q-16 0 -26 9.5t-10 27.5z" />
<glyph unicode="&#xcb;" horiz-adv-x="1386" d="M-18 37q0 39 16 39q106 0 151 31.5t74 125.5q43 147 93.5 314.5t110.5 367.5t95 316q10 38 10 57q0 49 -41.5 69.5t-136.5 20.5q-14 0 -14 35q0 45 16 45q26 0 141.5 -5t200.5 -5q166 0 406.5 5t269.5 5q25 0 33 -8.5t8 -28.5q0 -4 -9 -106t-9 -213q0 -25 -47 -25 q-10 0 -19.5 4.5t-9.5 12.5q0 141 -65 206.5t-222 65.5q-132 0 -209 -12q-84 -289 -163 -535q25 -2 63 -2q76 0 133.5 15.5t93.5 45.5t58 64.5t37 81.5q10 23 30 23q53 0 53 -27q0 -7 -3 -17t-8.5 -25.5t-8.5 -23.5q-59 -160 -117 -460q-4 -19 -35 -19q-17 0 -32 5.5 t-15 15.5q0 11 2 47t2 55q0 73 -38.5 106t-141.5 33q-47 0 -100 -6q-9 -34 -47.5 -154t-67 -224t-28.5 -154q0 -38 12.5 -60.5t54.5 -37.5t119 -15q170 0 282.5 34t175 97t97.5 164q6 16 27 16t38 -9.5t17 -22.5q-64 -191 -92 -326q-6 -29 -17.5 -37t-44.5 -8q-24 0 -327 5 t-508 5q-84 0 -198.5 -3t-129.5 -3q-16 0 -16 39zM633 1722q6 52 45 87.5t90 35.5t82 -35t24 -88q-6 -48 -45 -84t-88 -36q-50 0 -82 35t-26 85zM1057 1722q6 52 45 87.5t90 35.5t82 -35t24 -88q-6 -49 -45 -84.5t-90 -35.5q-50 0 -81.5 35t-24.5 85z" />
<glyph unicode="&#xcc;" horiz-adv-x="858" d="M-18 37q0 39 14 39q108 0 153 31.5t74 125.5l299 998q25 83 -12.5 115t-155.5 32q-14 0 -14 35q0 45 16 45q26 0 141.5 -5t200.5 -5q81 0 190.5 5t127.5 5q16 0 16 -41q0 -39 -16 -39q-108 0 -156 -35.5t-76 -123.5q-255 -846 -303 -992q-26 -83 11 -117t155 -34 q15 0 15 -35q0 -45 -17 -45q-26 0 -130 4t-189 4q-84 0 -199 -4t-131 -4q-14 0 -14 41zM467 1866q0 51 149 51q51 0 66 -21l207 -307q8 -11 8 -18q-1 -10 -19.5 -17.5t-35.5 -7.5q-12 0 -23 8q-224 189 -330 275q-22 19 -22 37z" />
<glyph unicode="&#xcd;" horiz-adv-x="858" d="M-18 37q0 39 14 39q108 0 153 31.5t74 125.5l299 998q25 83 -12.5 115t-155.5 32q-14 0 -14 35q0 45 16 45q26 0 141.5 -5t200.5 -5q81 0 190.5 5t127.5 5q16 0 16 -41q0 -39 -16 -39q-108 0 -156 -35.5t-76 -123.5q-255 -846 -303 -992q-26 -83 11 -117t155 -34 q15 0 15 -35q0 -45 -17 -45q-26 0 -130 4t-189 4q-84 0 -199 -4t-131 -4q-14 0 -14 41zM549 1569q0 6 8 18l301 309q23 23 92 23q50 0 88 -11.5t35 -33.5q0 -23 -39 -45l-413 -275q-11 -8 -27 -8q-15 0 -30.5 7.5t-14.5 15.5z" />
<glyph unicode="&#xce;" horiz-adv-x="858" d="M-18 37q0 39 14 39q108 0 153 31.5t74 125.5l299 998q25 83 -12.5 115t-155.5 32q-14 0 -14 35q0 45 16 45q26 0 141.5 -5t200.5 -5q81 0 190.5 5t127.5 5q16 0 16 -41q0 -39 -16 -39q-108 0 -156 -35.5t-76 -123.5q-255 -846 -303 -992q-26 -83 11 -117t155 -34 q15 0 15 -35q0 -45 -17 -45q-26 0 -130 4t-189 4q-84 0 -199 -4t-131 -4q-14 0 -14 41zM395 1583q9 15 25 31l299 295q17 14 61 14q36 0 49 -16q116 -186 179 -291q11 -19 14 -33q-1 -17 -15 -26t-30 -9q-13 0 -21 8q-156 136 -211 181l-286 -181q-13 -10 -27 -10 q-16 0 -26.5 9.5t-10.5 27.5z" />
<glyph unicode="&#xcf;" horiz-adv-x="858" d="M-18 37q0 39 14 39q108 0 153 31.5t74 125.5l299 998q25 83 -12.5 115t-155.5 32q-14 0 -14 35q0 45 16 45q26 0 141.5 -5t200.5 -5q81 0 190.5 5t127.5 5q16 0 16 -41q0 -39 -16 -39q-108 0 -156 -35.5t-76 -123.5q-255 -846 -303 -992q-26 -83 11 -117t155 -34 q15 0 15 -35q0 -45 -17 -45q-26 0 -130 4t-189 4q-84 0 -199 -4t-131 -4q-14 0 -14 41zM387 1722q6 52 45 87.5t90 35.5t82.5 -35t24.5 -88q-6 -48 -45 -84t-88 -36q-50 0 -82.5 35t-26.5 85zM811 1722q6 52 45 87.5t90 35.5t82.5 -35t24.5 -88q-6 -49 -45 -84.5t-90 -35.5 q-50 0 -82 35t-25 85z" />
<glyph unicode="&#xd0;" horiz-adv-x="1630" d="M-18 37q0 39 14 39q108 0 153 31.5t74 125.5l129 426h-200q-17 0 -9 39q5 40 15 70.5t20 30.5h213l131 432q25 83 -12.5 115t-155.5 32q-14 0 -14 35q0 45 16 45q26 0 141.5 -5t200.5 -5q27 0 126.5 2t176.5 2q287 0 455 -161.5t168 -426.5q0 -128 -34.5 -250.5 t-110 -236t-184 -198.5t-269.5 -136t-354 -51q-91 0 -195 6t-151 6q-78 -1 -192 -4.5t-138 -3.5q-14 0 -14 41zM489 197q0 -64 36.5 -89.5t146.5 -25.5q124 0 231.5 46t185.5 126.5t133.5 187t83 229t27.5 251.5q0 216 -85 325t-273 109q-83 0 -150 -13q-23 -74 -84 -264.5 t-88 -277.5h332q12 0 4 -37q-12 -99 -31 -102h-346q-123 -408 -123 -465z" />
<glyph unicode="&#xd1;" horiz-adv-x="1513" d="M-119 104q0 58 37.5 100t101.5 42q41 0 72 -32t31 -83q-4 -39 -14 -57q94 0 191 245.5t249 831.5q10 44 10 104q0 48 -43 85.5t-129 37.5q-20 0 -20 35q0 45 18 45q17 0 171 -7t237 -7q22 0 31 -7.5t18 -33.5q207 -641 276 -954q102 433 211 761q49 147 118.5 213 t174.5 66q90 0 136 -44t46 -102q0 -57 -34 -99t-89 -42q-42 0 -61.5 20t-21 44.5t-12 44.5t-36.5 20q-74 0 -123 -157l-10 -33q-191 -612 -311 -1123q-10 -38 -74 -38q-45 0 -51 36q-31 144 -157.5 565t-174.5 560q-148 -568 -227 -799q-71 -212 -156.5 -296.5t-218.5 -84.5 q-79 0 -122.5 44t-43.5 99zM764 1634q5 33 22 69.5t45 70t71.5 55.5t92.5 22q37 0 68.5 -12t52 -29.5t38 -35t37 -29.5t40.5 -12q101 0 110 94q1 9 10.5 15.5t20.5 6.5q14 0 23 -10.5t6 -30.5q-6 -40 -21.5 -78t-41.5 -72t-66.5 -54.5t-89.5 -20.5q-34 0 -64.5 14.5 t-52.5 35t-43 40.5t-44.5 34.5t-47.5 14.5q-78 0 -88 -96q-1 -15 -12.5 -25t-26.5 -10q-45 0 -39 43z" />
<glyph unicode="&#xd2;" d="M154 535q0 132 42 270t121 261t182.5 220t235.5 154t271 57q231 0 360 -146t129 -425q0 -109 -30 -223.5t-84 -220.5t-133.5 -200.5t-172.5 -164t-206.5 -110t-231.5 -40.5q-226 0 -354.5 144.5t-128.5 423.5zM420 350q0 -291 211 -291q63 0 133 39t136 108t126 168 t105 213t71.5 250t26.5 273q0 154 -50.5 224.5t-162.5 70.5q-104 0 -213 -93.5t-192.5 -240.5t-137 -340t-53.5 -381zM807 1866q0 51 149 51q51 0 66 -21l207 -307q8 -11 8 -18q-1 -10 -19.5 -17.5t-35.5 -7.5q-12 0 -23 8q-224 189 -330 275q-22 19 -22 37z" />
<glyph unicode="&#xd3;" d="M154 535q0 132 42 270t121 261t182.5 220t235.5 154t271 57q231 0 360 -146t129 -425q0 -109 -30 -223.5t-84 -220.5t-133.5 -200.5t-172.5 -164t-206.5 -110t-231.5 -40.5q-226 0 -354.5 144.5t-128.5 423.5zM420 350q0 -291 211 -291q63 0 133 39t136 108t126 168 t105 213t71.5 250t26.5 273q0 154 -50.5 224.5t-162.5 70.5q-104 0 -213 -93.5t-192.5 -240.5t-137 -340t-53.5 -381zM815 1569q0 6 8 18l301 309q23 23 93 23q50 0 87.5 -11.5t34.5 -33.5q0 -23 -39 -45l-413 -275q-11 -8 -27 -8q-15 0 -30.5 7.5t-14.5 15.5z" />
<glyph unicode="&#xd4;" d="M154 535q0 132 42 270t121 261t182.5 220t235.5 154t271 57q231 0 360 -146t129 -425q0 -109 -30 -223.5t-84 -220.5t-133.5 -200.5t-172.5 -164t-206.5 -110t-231.5 -40.5q-226 0 -354.5 144.5t-128.5 423.5zM420 350q0 -291 211 -291q63 0 133 39t136 108t126 168 t105 213t71.5 250t26.5 273q0 154 -50.5 224.5t-162.5 70.5q-104 0 -213 -93.5t-192.5 -240.5t-137 -340t-53.5 -381zM729 1583q9 15 25 31l299 295q17 14 61 14q36 0 49 -16q86 -137 178 -291q13 -21 15 -33q-1 -17 -15 -26t-30 -9q-13 0 -21 8q-156 136 -211 181 l-286 -181q-13 -10 -27 -10q-16 0 -26.5 9.5t-10.5 27.5z" />
<glyph unicode="&#xd5;" d="M154 535q0 132 42 270t121 261t182.5 220t235.5 154t271 57q231 0 360 -146t129 -425q0 -109 -30 -223.5t-84 -220.5t-133.5 -200.5t-172.5 -164t-206.5 -110t-231.5 -40.5q-226 0 -354.5 144.5t-128.5 423.5zM420 350q0 -291 211 -291q63 0 133 39t136 108t126 168 t105 213t71.5 250t26.5 273q0 154 -50.5 224.5t-162.5 70.5q-104 0 -213 -93.5t-192.5 -240.5t-137 -340t-53.5 -381zM719 1634q5 33 22 69.5t45 70t71.5 55.5t92.5 22q37 0 68.5 -12t52 -29.5t38 -35t37 -29.5t40.5 -12q101 0 110 94q1 9 10.5 15.5t20.5 6.5q14 0 23 -10.5 t6 -30.5q-6 -40 -21.5 -78t-41.5 -72t-66.5 -54.5t-89.5 -20.5q-34 0 -64.5 14.5t-52.5 35t-43 40.5t-44.5 34.5t-47.5 14.5q-78 0 -88 -96q-1 -15 -12.5 -25t-26.5 -10q-45 0 -39 43z" />
<glyph unicode="&#xd6;" d="M154 535q0 132 42 270t121 261t182.5 220t235.5 154t271 57q231 0 360 -146t129 -425q0 -109 -30 -223.5t-84 -220.5t-133.5 -200.5t-172.5 -164t-206.5 -110t-231.5 -40.5q-226 0 -354.5 144.5t-128.5 423.5zM420 350q0 -291 211 -291q63 0 133 39t136 108t126 168 t105 213t71.5 250t26.5 273q0 154 -50.5 224.5t-162.5 70.5q-104 0 -213 -93.5t-192.5 -240.5t-137 -340t-53.5 -381zM735 1722q6 52 45 87.5t90 35.5t82.5 -35t24.5 -88q-6 -48 -45 -84t-88 -36q-50 0 -82.5 35t-26.5 85zM1159 1722q6 52 45 87.5t90 35.5t82.5 -35 t24.5 -88q-6 -49 -45 -84.5t-90 -35.5q-50 0 -82 35t-25 85z" />
<glyph unicode="&#xd7;" horiz-adv-x="968" d="M160 262l305 246l-184 244l141 112l184 -243l299 239l84 -108l-301 -242l182 -240l-143 -112l-182 239l-305 -243z" />
<glyph unicode="&#xd8;" d="M104 -55q0 2 2 4q13 15 156 186q-108 141 -108 400q0 132 42 270t121 261t182.5 220t235.5 154t271 57q175 0 299 -88q7 8 28 37t33.5 42.5t36.5 27.5t51 14q24 0 47 -6t23 -17q0 -4 -2 -6q-64 -81 -140 -170q113 -147 113 -405q0 -109 -30 -223.5t-84 -220.5 t-133.5 -200.5t-172.5 -164t-206.5 -110t-231.5 -40.5q-176 0 -295 88l-96 -114q-6 -7 -30.5 -12t-47.5 -5q-22 0 -43 6t-21 15zM430 334l770 950q-43 121 -184 121q-84 0 -170 -57t-159.5 -158.5t-132 -230.5t-91.5 -284.5t-33 -309.5v-31zM451 186q45 -127 180 -127 q81 0 167 57t160.5 160t134 235.5t94 296.5t34.5 329z" />
<glyph unicode="&#xd9;" horiz-adv-x="1519" d="M203 324q0 72 22 145l228 762q10 38 10 59q0 49 -41 68.5t-135 19.5q-15 0 -15 35q0 45 17 45q25 0 141 -5t199 -5q82 0 191.5 5t127.5 5q17 0 17 -41q0 -39 -17 -39q-75 0 -120 -17.5t-68.5 -50t-42.5 -91.5l-205 -664l-25 -86q-24 -81 -24 -160q0 -105 76 -160t188 -55 q149 0 259.5 75.5t160.5 231.5q117 367 227 758q15 58 15 96q0 123 -158 123q-17 0 -17 35q0 45 17 45q20 0 97 -5t147 -5q64 0 153.5 5t118.5 5q16 0 16 -41q0 -39 -14 -39q-100 0 -157 -46t-95 -179q-19 -61 -106 -342.5t-140 -443.5q-34 -105 -95 -183t-141.5 -125 t-174.5 -69.5t-203 -22.5q-117 0 -213.5 38.5t-158.5 121.5t-62 197zM743 1866q0 51 150 51q32 0 44.5 -4.5t20.5 -16.5l207 -307q9 -12 9 -18q-1 -10 -20 -17.5t-36 -7.5q-11 0 -22 8q-224 189 -330 275q-23 20 -23 37z" />
<glyph unicode="&#xda;" horiz-adv-x="1519" d="M203 324q0 72 22 145l228 762q10 38 10 59q0 49 -41 68.5t-135 19.5q-15 0 -15 35q0 45 17 45q25 0 141 -5t199 -5q82 0 191.5 5t127.5 5q17 0 17 -41q0 -39 -17 -39q-75 0 -120 -17.5t-68.5 -50t-42.5 -91.5l-205 -664l-25 -86q-24 -81 -24 -160q0 -105 76 -160t188 -55 q149 0 259.5 75.5t160.5 231.5q117 367 227 758q15 58 15 96q0 123 -158 123q-17 0 -17 35q0 45 17 45q20 0 97 -5t147 -5q64 0 153.5 5t118.5 5q16 0 16 -41q0 -39 -14 -39q-100 0 -157 -46t-95 -179q-19 -61 -106 -342.5t-140 -443.5q-34 -105 -95 -183t-141.5 -125 t-174.5 -69.5t-203 -22.5q-117 0 -213.5 38.5t-158.5 121.5t-62 197zM887 1569q0 6 8 18l301 309q23 23 92 23q50 0 88 -11.5t35 -33.5q0 -23 -39 -45l-414 -275q-11 -8 -26 -8t-30.5 7.5t-14.5 15.5z" />
<glyph unicode="&#xdb;" horiz-adv-x="1519" d="M203 324q0 72 22 145l228 762q10 38 10 59q0 49 -41 68.5t-135 19.5q-15 0 -15 35q0 45 17 45q25 0 141 -5t199 -5q82 0 191.5 5t127.5 5q17 0 17 -41q0 -39 -17 -39q-75 0 -120 -17.5t-68.5 -50t-42.5 -91.5l-205 -664l-25 -86q-24 -81 -24 -160q0 -105 76 -160t188 -55 q149 0 259.5 75.5t160.5 231.5q117 367 227 758q15 58 15 96q0 123 -158 123q-17 0 -17 35q0 45 17 45q20 0 97 -5t147 -5q64 0 153.5 5t118.5 5q16 0 16 -41q0 -39 -14 -39q-100 0 -157 -46t-95 -179q-19 -61 -106 -342.5t-140 -443.5q-34 -105 -95 -183t-141.5 -125 t-174.5 -69.5t-203 -22.5q-117 0 -213.5 38.5t-158.5 121.5t-62 197zM743 1583q9 15 25 31l299 295q17 14 61 14q37 0 50 -16q86 -137 178 -291q11 -19 14 -33q-1 -17 -15 -26t-30 -9q-12 0 -20 8q-156 136 -211 181l-287 -181q-13 -10 -27 -10q-16 0 -26.5 9.5t-10.5 27.5z " />
<glyph unicode="&#xdc;" horiz-adv-x="1519" d="M203 324q0 72 22 145l228 762q10 38 10 59q0 49 -41 68.5t-135 19.5q-15 0 -15 35q0 45 17 45q25 0 141 -5t199 -5q82 0 191.5 5t127.5 5q17 0 17 -41q0 -39 -17 -39q-75 0 -120 -17.5t-68.5 -50t-42.5 -91.5l-205 -664l-25 -86q-24 -81 -24 -160q0 -105 76 -160t188 -55 q149 0 259.5 75.5t160.5 231.5q117 367 227 758q15 58 15 96q0 123 -158 123q-17 0 -17 35q0 45 17 45q20 0 97 -5t147 -5q64 0 153.5 5t118.5 5q16 0 16 -41q0 -39 -14 -39q-100 0 -157 -46t-95 -179q-19 -61 -106 -342.5t-140 -443.5q-34 -105 -95 -183t-141.5 -125 t-174.5 -69.5t-203 -22.5q-117 0 -213.5 38.5t-158.5 121.5t-62 197zM725 1722q6 52 45 87.5t90 35.5t82.5 -35t24.5 -88q-6 -48 -45 -84t-88 -36q-50 0 -82.5 35t-26.5 85zM1149 1722q6 52 45 87.5t90 35.5t82.5 -35t24.5 -88q-6 -48 -45.5 -84t-90.5 -36q-50 0 -81.5 35 t-24.5 85z" />
<glyph unicode="&#xdd;" horiz-adv-x="1196" d="M106 37q0 39 17 39q105 0 147.5 31t75.5 126q92 274 127 451.5t35 339.5q0 330 -113 330t-172 -226q-3 -14 -20 -14t-32.5 7t-16.5 18q21 161 112.5 259.5t227.5 98.5q69 0 118 -31t76 -89.5t39 -131t12 -168.5q0 -186 -37 -321q289 741 658 741q78 0 119 -41.5 t41 -101.5q0 -65 -37.5 -106.5t-93.5 -41.5q-54 0 -85.5 32t-31.5 79q0 34 8 53q-65 0 -163.5 -94.5t-203 -267t-172.5 -371.5q-14 -35 -40.5 -115.5t-57 -174.5t-39.5 -120q-26 -82 16 -116.5t162 -34.5q17 0 17 -35q0 -45 -19 -45q-25 0 -134.5 4t-192.5 4q-84 0 -199 -4 t-131 -4q-17 0 -17 41zM743 1569q0 5 9 18l301 309q23 23 92 23q50 0 88 -11.5t35 -33.5q0 -23 -39 -45l-414 -275q-11 -8 -27 -8q-15 0 -30.5 7.5t-14.5 15.5z" />
<glyph unicode="&#xde;" horiz-adv-x="1331" d="M-18 37q0 39 14 39q108 0 153 31.5t74 125.5l299 998q25 83 -12.5 115t-155.5 32q-14 0 -14 35q0 45 16 45q26 0 141.5 -5t200.5 -5q81 0 190.5 5t127.5 5q16 0 16 -41q0 -39 -16 -39q-108 0 -156 -35.5t-76 -123.5l-18 -60q98 4 156 4q221 0 334.5 -98t113.5 -256 q0 -89 -41 -168.5t-120 -142t-207.5 -99.5t-290.5 -37q-73 0 -185 11l-45 -146q-26 -83 11 -117t155 -34q15 0 15 -35q0 -45 -17 -45q-26 0 -130 4t-189 4q-84 0 -199 -4t-131 -4q-14 0 -14 41zM551 449q67 -5 115 -5q99 0 181.5 36t134 94.5t80 130t28.5 145.5 q0 231 -232 231q-51 0 -119 -10z" />
<glyph unicode="&#xdf;" horiz-adv-x="1030" d="M-569 -371q0 47 29.5 77t68.5 30q40 0 59 -20t24 -49t11.5 -57.5t32 -48.5t74.5 -20q97 0 166 105.5t139 365.5l258 940q71 263 193.5 392t338.5 129q157 0 243.5 -65t86.5 -167q0 -42 -14.5 -78.5t-34.5 -62.5t-58.5 -56t-68 -48t-82.5 -48q-87 -50 -118 -90t-31 -104 q0 -42 26.5 -108.5t58.5 -126.5t58.5 -137t26.5 -138q0 -74 -27 -130.5t-71.5 -88t-93 -47t-99.5 -15.5q-98 0 -153.5 42.5t-55.5 113.5q0 41 21 64.5t61 23.5q31 0 47 -15.5t21 -37.5t9 -44t17 -37.5t39 -15.5q38 0 64 29t26 74q0 51 -19.5 108t-64.5 154q-36 77 -53 131 t-17 115q0 93 45.5 161.5t167.5 157.5q158 115 158 246q0 139 -133 139q-103 0 -170.5 -91.5t-132.5 -330.5q-86 -323 -238 -870q-39 -155 -84 -267t-93 -183.5t-108 -114t-121 -58.5t-139 -16q-143 0 -216.5 49t-73.5 139z" />
<glyph unicode="&#xe0;" horiz-adv-x="1155" d="M49 225q0 99 35.5 208t99 206t143 176t175.5 125.5t188 46.5q133 0 166 -108l27 77q8 27 80 27q118 0 118 -47q-6 -24 -34 -102q-228 -605 -228 -697q0 -35 31 -35q38 0 86 54.5t86 152.5q6 13 20 13q13 0 25 -9t12 -26q-42 -140 -137.5 -229t-200.5 -89q-56 0 -82 33 t-26 100q0 61 12 111q-57 -114 -156.5 -181t-197.5 -67q-119 0 -180.5 68t-61.5 192zM270 178q0 -104 84 -104q85 0 167 85t151 251q121 289 121 391q0 47 -17 71.5t-67 24.5q-89 0 -194.5 -127t-175 -297t-69.5 -295zM588 1473q0 9 11 21t38.5 22t64.5 10q63 0 72 -23 l148 -391q4 -8 4 -10q0 -16 -10.5 -24.5t-24.5 -8.5q-18 0 -27 12l-18 19l-236 325q-22 25 -22 48z" />
<glyph unicode="&#xe1;" horiz-adv-x="1155" d="M49 225q0 99 35.5 208t99 206t143 176t175.5 125.5t188 46.5q133 0 166 -108l27 77q8 27 80 27q118 0 118 -47q-6 -24 -34 -102q-228 -605 -228 -697q0 -35 31 -35q38 0 86 54.5t86 152.5q6 13 20 13q13 0 25 -9t12 -26q-42 -140 -137.5 -229t-200.5 -89q-56 0 -82 33 t-26 100q0 61 12 111q-57 -114 -156.5 -181t-197.5 -67q-119 0 -180.5 68t-61.5 192zM270 178q0 -104 84 -104q85 0 167 85t151 251q121 289 121 391q0 47 -17 71.5t-67 24.5q-89 0 -194.5 -127t-175 -297t-69.5 -295zM563 1100q0 8 8 20l320 383q17 23 84 23q44 0 78 -14.5 t34 -34.5t-34 -47l-424 -349q-10 -10 -27 -10q-13 0 -26 9t-13 20z" />
<glyph unicode="&#xe2;" horiz-adv-x="1155" d="M49 225q0 99 35.5 208t99 206t143 176t175.5 125.5t188 46.5q133 0 166 -108l27 77q8 27 80 27q118 0 118 -47q-6 -24 -34 -102q-228 -605 -228 -697q0 -35 31 -35q38 0 86 54.5t86 152.5q6 13 20 13q13 0 25 -9t12 -26q-42 -140 -137.5 -229t-200.5 -89q-56 0 -82 33 t-26 100q0 61 12 111q-57 -114 -156.5 -181t-197.5 -67q-119 0 -180.5 68t-61.5 192zM270 178q0 -104 84 -104q85 0 167 85t151 251q121 289 121 391q0 47 -17 71.5t-67 24.5q-89 0 -194.5 -127t-175 -297t-69.5 -295zM479 1102q0 11 13 24l301 379q21 21 59 21 q17 0 30.5 -7.5t14.5 -17.5l90 -379q1 -19 -11.5 -35t-27.5 -16q-13 0 -20 14l-129 215l-256 -219q-8 -8 -27 -8q-13 0 -25 8t-12 21z" />
<glyph unicode="&#xe3;" horiz-adv-x="1155" d="M49 225q0 99 35.5 208t99 206t143 176t175.5 125.5t188 46.5q133 0 166 -108l27 77q8 27 80 27q118 0 118 -47q-6 -24 -34 -102q-228 -605 -228 -697q0 -35 31 -35q38 0 86 54.5t86 152.5q6 13 20 13q13 0 25 -9t12 -26q-42 -140 -137.5 -229t-200.5 -89q-56 0 -82 33 t-26 100q0 61 12 111q-57 -114 -156.5 -181t-197.5 -67q-119 0 -180.5 68t-61.5 192zM270 178q0 -104 84 -104q85 0 167 85t151 251q121 289 121 391q0 47 -17 71.5t-67 24.5q-89 0 -194.5 -127t-175 -297t-69.5 -295zM504 1176q0 13 8 39t26.5 60.5t44 65t67 51.5t89.5 21 q37 0 67.5 -13.5t50.5 -32.5t36.5 -37.5t35.5 -32t40 -13.5q101 0 112 102q1 10 10.5 17.5t20.5 7.5q27 0 27 -37q0 -30 -13.5 -70.5t-38.5 -82t-68 -70.5t-95 -29q-35 0 -65.5 15.5t-53 38t-43 45t-44 38t-46.5 15.5q-76 0 -90 -107q-2 -15 -13 -26t-26 -11q-39 0 -39 46z " />
<glyph unicode="&#xe4;" horiz-adv-x="1155" d="M49 225q0 99 35.5 208t99 206t143 176t175.5 125.5t188 46.5q133 0 166 -108l27 77q8 27 80 27q118 0 118 -47q-6 -24 -34 -102q-228 -605 -228 -697q0 -35 31 -35q38 0 86 54.5t86 152.5q6 13 20 13q13 0 25 -9t12 -26q-42 -140 -137.5 -229t-200.5 -89q-56 0 -82 33 t-26 100q0 61 12 111q-57 -114 -156.5 -181t-197.5 -67q-119 0 -180.5 68t-61.5 192zM270 178q0 -104 84 -104q85 0 167 85t151 251q121 289 121 391q0 47 -17 71.5t-67 24.5q-89 0 -194.5 -127t-175 -297t-69.5 -295zM483 1270q6 51 46 88t89 37q48 0 79 -36.5t24 -90.5 q-6 -51 -45 -88t-90 -37q-48 0 -79 36.5t-24 90.5zM864 1270q6 51 46 88t89 37t80.5 -36.5t24.5 -90.5q-6 -51 -46 -88t-89 -37t-80.5 36.5t-24.5 90.5z" />
<glyph unicode="&#xe5;" horiz-adv-x="1155" d="M49 225q0 99 35.5 208t99 206t143 176t175.5 125.5t188 46.5q133 0 166 -108l27 77q8 27 80 27q118 0 118 -47q-6 -24 -34 -102q-228 -605 -228 -697q0 -35 31 -35q38 0 86 54.5t86 152.5q6 13 20 13q13 0 25 -9t12 -26q-42 -140 -137.5 -229t-200.5 -89q-56 0 -82 33 t-26 100q0 61 12 111q-57 -114 -156.5 -181t-197.5 -67q-119 0 -180.5 68t-61.5 192zM270 178q0 -104 84 -104q85 0 167 85t151 251q121 289 121 391q0 47 -17 71.5t-67 24.5q-89 0 -194.5 -127t-175 -297t-69.5 -295zM578 1266q6 96 79.5 168.5t176.5 72.5q92 0 144 -58.5 t46 -143.5q-8 -95 -81 -163.5t-179 -68.5q-91 0 -142.5 55t-43.5 138zM692 1268q-3 -45 21 -74t65 -29q52 0 88 40t41 93q3 46 -21 77.5t-69 31.5q-47 0 -83.5 -41.5t-41.5 -97.5z" />
<glyph unicode="&#xe6;" horiz-adv-x="1464" d="M49 225q0 124 56 261t144 247t206 182t233 72q135 0 168 -110l66 176q10 26 82 26q73 0 73 -37q0 -7 -13.5 -39.5t-33 -77.5t-26.5 -63q66 59 144 92t150 33q96 0 146.5 -45t50.5 -125q0 -253 -602 -409q-31 -102 -31 -185q0 -149 121 -149q84 0 161.5 63t117.5 162 q3 10 8 13t16 3q13 0 26 -7.5t13 -20.5v-6q-19 -59 -53 -112t-84.5 -100.5t-125.5 -75.5t-163 -28q-104 0 -173.5 60.5t-78.5 181.5q-60 -108 -161.5 -175t-194.5 -67q-119 0 -180.5 68t-61.5 192zM270 178q0 -104 84 -104q85 0 167 85t151 251q121 289 121 391 q0 47 -17 71.5t-67 24.5q-89 0 -194.5 -127t-175 -297t-69.5 -295zM920 483q192 60 303.5 156.5t111.5 189.5q0 33 -13 48.5t-44 15.5q-86 0 -186.5 -114t-171.5 -296z" />
<glyph unicode="&#xe7;" horiz-adv-x="858" d="M-18 -471q0 14 14 29.5t27 15.5q7 0 25 -17t47 -34t61 -17q76 0 119.5 56.5t43.5 126.5q0 44 -20.5 73t-56.5 29q-26 0 -44 -11t-25 -24t-20 -24t-30 -11q-20 0 -33.5 12t-13.5 34q0 25 41 57l39 35q49 46 90 114q-90 16 -143.5 80.5t-53.5 184.5q0 134 58 272 t147.5 241.5t203 169.5t218.5 66q115 0 166 -44t51 -114q0 -46 -26.5 -79t-73.5 -33q-41 0 -64.5 25t-28.5 65q-6 44 -18 62t-41 18q-42 0 -104.5 -65t-120.5 -161t-99 -219t-41 -227q0 -137 115 -137q70 0 139 58t121 173q13 17 25 17q14 0 28 -11.5t11 -27.5 q-46 -147 -148.5 -234t-232.5 -88q-36 -46 -82 -96h16q114 0 172 -51t58 -129q0 -103 -89.5 -187t-230.5 -84q-146 0 -190 95q-6 6 -6 16z" />
<glyph unicode="&#xe8;" horiz-adv-x="880" d="M49 240q0 128 56.5 263t147 241.5t213 174.5t245.5 68q97 0 146.5 -44.5t49.5 -125.5q0 -253 -600 -409q-33 -109 -33 -185q0 -149 125 -149q84 0 160.5 63t116.5 162q5 18 24 18q15 0 29 -9.5t10 -26.5q-19 -59 -52.5 -112t-84 -100.5t-125 -75.5t-162.5 -28 q-113 0 -189.5 69.5t-76.5 205.5zM334 483q192 60 303 156.5t111 189.5q0 64 -58 64q-85 0 -185 -113.5t-171 -296.5zM526 1473q0 9 11.5 21t39 22t64.5 10q63 0 72 -23l147 -391q4 -8 4 -10q0 -16 -10.5 -24.5t-24.5 -8.5q-17 0 -26 12l-19 19l-235 325q-23 26 -23 48z" />
<glyph unicode="&#xe9;" horiz-adv-x="880" d="M49 240q0 128 56.5 263t147 241.5t213 174.5t245.5 68q97 0 146.5 -44.5t49.5 -125.5q0 -253 -600 -409q-33 -109 -33 -185q0 -149 125 -149q84 0 160.5 63t116.5 162q5 18 24 18q15 0 29 -9.5t10 -26.5q-19 -59 -52.5 -112t-84 -100.5t-125 -75.5t-162.5 -28 q-113 0 -189.5 69.5t-76.5 205.5zM334 483q192 60 303 156.5t111 189.5q0 64 -58 64q-85 0 -185 -113.5t-171 -296.5zM500 1100q0 8 8 20l319 383q17 23 84 23q44 0 78.5 -14.5t34.5 -34.5t-35 -47l-424 -349q-10 -10 -26 -10q-13 0 -26 9t-13 20z" />
<glyph unicode="&#xea;" horiz-adv-x="880" d="M49 240q0 128 56.5 263t147 241.5t213 174.5t245.5 68q97 0 146.5 -44.5t49.5 -125.5q0 -253 -600 -409q-33 -109 -33 -185q0 -149 125 -149q84 0 160.5 63t116.5 162q5 18 24 18q15 0 29 -9.5t10 -26.5q-19 -59 -52.5 -112t-84 -100.5t-125 -75.5t-162.5 -28 q-113 0 -189.5 69.5t-76.5 205.5zM334 483q192 60 303 156.5t111 189.5q0 64 -58 64q-85 0 -185 -113.5t-171 -296.5zM430 1102q0 12 12 24l301 379q21 21 60 21q17 0 30.5 -7.5t14.5 -17.5l90 -379q1 -19 -11.5 -35t-27.5 -16q-13 0 -20 14l-129 215l-256 -219 q-8 -8 -27 -8q-13 0 -25 8t-12 21z" />
<glyph unicode="&#xeb;" horiz-adv-x="880" d="M49 240q0 128 56.5 263t147 241.5t213 174.5t245.5 68q97 0 146.5 -44.5t49.5 -125.5q0 -253 -600 -409q-33 -109 -33 -185q0 -149 125 -149q84 0 160.5 63t116.5 162q5 18 24 18q15 0 29 -9.5t10 -26.5q-19 -59 -52.5 -112t-84 -100.5t-125 -75.5t-162.5 -28 q-113 0 -189.5 69.5t-76.5 205.5zM334 483q192 60 303 156.5t111 189.5q0 64 -58 64q-85 0 -185 -113.5t-171 -296.5zM434 1270q6 51 46 88t89 37q48 0 79 -36.5t24 -90.5q-6 -51 -45 -88t-90 -37q-48 0 -79 36.5t-24 90.5zM815 1270q6 51 46 88t89 37t80.5 -36.5 t24.5 -90.5q-6 -51 -46 -88t-89 -37t-80.5 36.5t-24.5 90.5z" />
<glyph unicode="&#xec;" horiz-adv-x="647" d="M55 657v5q12 59 39.5 114.5t69 103.5t101 77.5t126.5 29.5q139 0 139 -151q0 -111 -106 -381q-59 -152 -80.5 -218.5t-21.5 -103.5q0 -35 30 -35q39 0 90 56.5t84 154.5q6 13 21 13q13 0 25 -8.5t12 -24.5q-39 -139 -136 -229.5t-198 -90.5q-141 0 -141 146q0 57 25 140 t81 226q61 155 85 226t24 110q0 47 -35 47q-49 0 -100.5 -70.5t-75.5 -144.5q-3 -16 -19 -16q-12 0 -25.5 7t-13.5 17zM240 1473q0 9 11 21t38.5 22t64.5 10q63 0 72 -23l147 -391l5 -10q0 -16 -10.5 -24.5t-24.5 -8.5q-18 0 -27 12l-18 19l-236 325q-22 25 -22 48z" />
<glyph unicode="&#xed;" horiz-adv-x="647" d="M55 657v5q12 59 39.5 114.5t69 103.5t101 77.5t126.5 29.5q139 0 139 -151q0 -111 -106 -381q-59 -152 -80.5 -218.5t-21.5 -103.5q0 -35 30 -35q39 0 90 56.5t84 154.5q6 13 21 13q13 0 25 -8.5t12 -24.5q-39 -139 -136 -229.5t-198 -90.5q-141 0 -141 146q0 57 25 140 t81 226q61 155 85 226t24 110q0 47 -35 47q-49 0 -100.5 -70.5t-75.5 -144.5q-3 -16 -19 -16q-12 0 -25.5 7t-13.5 17zM238 1100q0 8 8 20l319 383q17 23 84 23q44 0 78.5 -14.5t34.5 -34.5t-35 -47l-424 -349q-10 -10 -27 -10q-13 0 -25.5 9t-12.5 20z" />
<glyph unicode="&#xee;" horiz-adv-x="647" d="M55 657v5q12 59 39.5 114.5t69 103.5t101 77.5t126.5 29.5q139 0 139 -151q0 -111 -106 -381q-59 -152 -80.5 -218.5t-21.5 -103.5q0 -35 30 -35q39 0 90 56.5t84 154.5q6 13 21 13q13 0 25 -8.5t12 -24.5q-39 -139 -136 -229.5t-198 -90.5q-141 0 -141 146q0 57 25 140 t81 226q61 155 85 226t24 110q0 47 -35 47q-49 0 -100.5 -70.5t-75.5 -144.5q-3 -16 -19 -16q-12 0 -25.5 7t-13.5 17zM156 1102q0 12 12 24l301 379q21 21 59 21q17 0 30.5 -7.5t14.5 -17.5l91 -379q1 -19 -11.5 -35t-27.5 -16q-14 0 -21 14l-129 215l-256 -219 q-8 -8 -26 -8q-13 0 -25 8t-12 21z" />
<glyph unicode="&#xef;" horiz-adv-x="647" d="M55 657v5q12 59 39.5 114.5t69 103.5t101 77.5t126.5 29.5q139 0 139 -151q0 -111 -106 -381q-59 -152 -80.5 -218.5t-21.5 -103.5q0 -35 30 -35q39 0 90 56.5t84 154.5q6 13 21 13q13 0 25 -8.5t12 -24.5q-39 -139 -136 -229.5t-198 -90.5q-141 0 -141 146q0 57 25 140 t81 226q61 155 85 226t24 110q0 47 -35 47q-49 0 -100.5 -70.5t-75.5 -144.5q-3 -16 -19 -16q-12 0 -25.5 7t-13.5 17zM147 1270q6 51 46.5 88t89.5 37q48 0 78.5 -36.5t23.5 -90.5q-6 -51 -45 -88t-90 -37q-48 0 -79 36.5t-24 90.5zM528 1270q6 51 46.5 88t89.5 37 t80 -36.5t24 -90.5q-6 -51 -46 -88t-89 -37t-80.5 36.5t-24.5 90.5z" />
<glyph unicode="&#xf0;" horiz-adv-x="1044" d="M53 270q0 184 89.5 352t227 266.5t277.5 98.5q77 0 119.5 -22.5t64.5 -65.5q6 191 -63 332l-244 -72q-8 -2 -13 13q-13 33 -6 67q3 12 9 14l201 60q-87 109 -221 137q-10 5 -9 21.5t12 34.5t23 16q222 -32 352 -162l201 59q9 2 15 -15q12 -32 4 -65q-2 -11 -7 -12 l-153 -45q94 -150 94 -379q0 -75 -12.5 -160t-39.5 -176t-66 -177.5t-95.5 -164t-123.5 -136t-154.5 -92.5t-184.5 -34q-131 0 -214 82t-83 225zM272 180q0 -57 23.5 -93t71.5 -36q91 0 164 88t143 256q34 79 69 194.5t35 190.5q0 121 -110 121q-87 0 -181.5 -118 t-154.5 -287.5t-60 -315.5z" />
<glyph unicode="&#xf1;" horiz-adv-x="1206" d="M57 662q12 56 39.5 111.5t68 104t99 79t123.5 30.5q119 0 119 -143q0 -36 -10.5 -96t-22.5 -99q78 154 195 246t235 92q176 0 176 -174q0 -69 -24.5 -157.5t-85.5 -243.5q-82 -209 -82 -279q0 -35 31 -35q38 0 87 55.5t85 155.5q6 13 20 13q12 0 25 -9t12 -24 q-39 -140 -137 -231t-201 -91q-68 0 -99.5 33.5t-31.5 110.5q0 111 98 370q94 246 94 328q0 61 -55 61q-76 0 -183 -113.5t-171 -271.5q-31 -75 -86 -247.5t-64 -221.5q-6 -30 -51 -30q-52 0 -101.5 10t-49.5 29q0 28 24 112q137 463 137 494q44 181 37 207q-8 28 -37 18 q-45 -18 -88 -77t-67 -130q-3 -16 -19 -16q-12 0 -27 9t-12 20zM430 1176q0 13 8 39t26.5 60.5t44.5 65t67.5 51.5t89.5 21q37 0 67.5 -13.5t50 -32.5t36.5 -37.5t35.5 -32t39.5 -13.5q102 0 113 102q1 10 10 17.5t20 7.5q27 0 27 -37q0 -30 -13.5 -70.5t-38.5 -82 t-68 -70.5t-95 -29q-35 0 -65.5 15.5t-53 38t-43 45t-44 38t-46.5 15.5q-76 0 -90 -107q-2 -15 -13 -26t-26 -11q-39 0 -39 46z" />
<glyph unicode="&#xf2;" horiz-adv-x="1015" d="M55 309q0 74 20 153.5t56.5 154.5t90 142.5t117 118t142 80t160.5 29.5q146 0 233 -95.5t87 -262.5q0 -81 -25.5 -171.5t-77 -177.5t-119 -157.5t-160.5 -114t-194 -43.5q-146 0 -238 87t-92 257zM260 190q0 -76 25 -111.5t86 -35.5q65 0 135.5 73t124 179.5t88.5 229.5 t35 220q0 83 -24 121.5t-85 38.5q-89 0 -181 -124t-148 -291t-56 -300zM504 1473q0 9 11 21t38.5 22t64.5 10q63 0 72 -23l148 -391q4 -8 4 -10q0 -16 -10.5 -24.5t-24.5 -8.5q-18 0 -27 12l-18 19l-236 325q-22 25 -22 48z" />
<glyph unicode="&#xf3;" horiz-adv-x="1015" d="M55 309q0 74 20 153.5t56.5 154.5t90 142.5t117 118t142 80t160.5 29.5q146 0 233 -95.5t87 -262.5q0 -81 -25.5 -171.5t-77 -177.5t-119 -157.5t-160.5 -114t-194 -43.5q-146 0 -238 87t-92 257zM260 190q0 -76 25 -111.5t86 -35.5q65 0 135.5 73t124 179.5t88.5 229.5 t35 220q0 83 -24 121.5t-85 38.5q-89 0 -181 -124t-148 -291t-56 -300zM477 1100q0 8 8 20l320 383q17 23 84 23q44 0 78 -14.5t34 -34.5t-34 -47l-424 -349q-10 -10 -27 -10q-13 0 -26 9t-13 20z" />
<glyph unicode="&#xf4;" horiz-adv-x="1015" d="M55 309q0 74 20 153.5t56.5 154.5t90 142.5t117 118t142 80t160.5 29.5q146 0 233 -95.5t87 -262.5q0 -81 -25.5 -171.5t-77 -177.5t-119 -157.5t-160.5 -114t-194 -43.5q-146 0 -238 87t-92 257zM260 190q0 -76 25 -111.5t86 -35.5q65 0 135.5 73t124 179.5t88.5 229.5 t35 220q0 83 -24 121.5t-85 38.5q-89 0 -181 -124t-148 -291t-56 -300zM391 1102q0 12 12 24l302 379q21 21 59 21q17 0 30.5 -7.5t14.5 -17.5l90 -379q1 -19 -11.5 -35t-27.5 -16q-13 0 -20 14l-129 215l-256 -219q-8 -8 -27 -8q-13 0 -25 8t-12 21z" />
<glyph unicode="&#xf5;" horiz-adv-x="1015" d="M55 309q0 74 20 153.5t56.5 154.5t90 142.5t117 118t142 80t160.5 29.5q146 0 233 -95.5t87 -262.5q0 -81 -25.5 -171.5t-77 -177.5t-119 -157.5t-160.5 -114t-194 -43.5q-146 0 -238 87t-92 257zM260 190q0 -76 25 -111.5t86 -35.5q65 0 135.5 73t124 179.5t88.5 229.5 t35 220q0 83 -24 121.5t-85 38.5q-89 0 -181 -124t-148 -291t-56 -300zM397 1176q0 13 8 39t26.5 60.5t44.5 65t67.5 51.5t89.5 21q37 0 67.5 -13.5t50 -32.5t36.5 -37.5t35.5 -32t39.5 -13.5q102 0 113 102q1 10 10.5 17.5t20.5 7.5q26 0 26 -37q0 -30 -13.5 -70.5 t-38.5 -82t-68 -70.5t-95 -29q-35 0 -65.5 15.5t-53 38t-43 45t-44 38t-46.5 15.5q-76 0 -90 -107q-2 -15 -13 -26t-26 -11q-39 0 -39 46z" />
<glyph unicode="&#xf6;" horiz-adv-x="1015" d="M55 309q0 74 20 153.5t56.5 154.5t90 142.5t117 118t142 80t160.5 29.5q146 0 233 -95.5t87 -262.5q0 -81 -25.5 -171.5t-77 -177.5t-119 -157.5t-160.5 -114t-194 -43.5q-146 0 -238 87t-92 257zM260 190q0 -76 25 -111.5t86 -35.5q65 0 135.5 73t124 179.5t88.5 229.5 t35 220q0 83 -24 121.5t-85 38.5q-89 0 -181 -124t-148 -291t-56 -300zM395 1270q6 51 46 88t89 37q48 0 79 -36.5t24 -90.5q-6 -51 -45 -88t-90 -37q-48 0 -79 36.5t-24 90.5zM776 1270q6 51 46 88t89 37t80.5 -36.5t24.5 -90.5q-6 -51 -46 -88t-89 -37t-80.5 36.5 t-24.5 90.5z" />
<glyph unicode="&#xf7;" horiz-adv-x="960" d="M162 442l10 82q4 35 21 86q268 0 800 4q0 -34 -9 -90.5t-21 -77.5q-532 -4 -801 -4zM360 143q0 64 50 113t114 49q51 0 85 -34t34 -85q0 -62 -51 -109.5t-113 -47.5q-52 0 -85.5 32t-33.5 82zM518 877q0 64 50 112.5t114 48.5q51 0 85 -33.5t34 -84.5q0 -62 -51 -110 t-113 -48q-52 0 -85.5 32.5t-33.5 82.5z" />
<glyph unicode="&#xf8;" horiz-adv-x="1015" d="M4 -33l107 125q-56 88 -56 217q0 74 20 153.5t56.5 154.5t90 142.5t117 118t142 80t160.5 29.5q118 0 195 -59l53 63q19 23 59 23q24 0 41.5 -5t24 -12t2.5 -14l-113 -131q58 -92 58 -223q0 -81 -25.5 -171.5t-77 -177.5t-119 -157.5t-160.5 -114t-194 -43.5 q-124 0 -201 53l-57 -71q-20 -17 -61 -17q-22 0 -38 6t-22 14.5t-2 16.5zM270 117q21 -74 101 -74q79 0 163 102.5t140.5 247.5t70.5 277zM270 272l475 553q-16 80 -100 80q-81 0 -164.5 -103.5t-139.5 -249t-71 -280.5z" />
<glyph unicode="&#xf9;" horiz-adv-x="1206" d="M57 666q39 140 137 230.5t201 90.5q69 0 100 -33t31 -110q0 -112 -98 -371q-92 -241 -92 -328q0 -61 57 -61q74 0 180 113.5t170 271.5q32 76 88.5 252t65.5 225q6 31 53 31q48 0 98 -11.5t50 -29.5q0 -24 -25 -115q-8 -27 -31 -103.5t-38 -128t-33 -114t-27.5 -101 t-9.5 -50.5q-44 -181 -37 -207q9 -28 37 -19q45 18 88.5 77t67.5 130q3 17 18 17q12 0 27 -9t12 -20q-12 -56 -39.5 -111.5t-68 -104.5t-99 -79.5t-123.5 -30.5q-119 0 -119 144q0 36 10.5 95.5t22.5 98.5q-78 -154 -195 -246t-235 -92q-176 0 -176 174q0 68 25 154t88 248 q86 216 86 284q0 35 -31 35q-37 0 -90 -59t-90 -158q-3 -12 -19 -12q-14 0 -27 9t-10 24zM475 1473q0 9 11.5 21t39 22t64.5 10q63 0 72 -23l147 -391q4 -8 4 -10q0 -16 -10.5 -24.5t-24.5 -8.5q-17 0 -26 12l-19 19l-235 325q-23 26 -23 48z" />
<glyph unicode="&#xfa;" horiz-adv-x="1206" d="M57 666q39 140 137 230.5t201 90.5q69 0 100 -33t31 -110q0 -112 -98 -371q-92 -241 -92 -328q0 -61 57 -61q74 0 180 113.5t170 271.5q32 76 88.5 252t65.5 225q6 31 53 31q48 0 98 -11.5t50 -29.5q0 -24 -25 -115q-8 -27 -31 -103.5t-38 -128t-33 -114t-27.5 -101 t-9.5 -50.5q-44 -181 -37 -207q9 -28 37 -19q45 18 88.5 77t67.5 130q3 17 18 17q12 0 27 -9t12 -20q-12 -56 -39.5 -111.5t-68 -104.5t-99 -79.5t-123.5 -30.5q-119 0 -119 144q0 36 10.5 95.5t22.5 98.5q-78 -154 -195 -246t-235 -92q-176 0 -176 174q0 68 25 154t88 248 q86 216 86 284q0 35 -31 35q-37 0 -90 -59t-90 -158q-3 -12 -19 -12q-14 0 -27 9t-10 24zM594 1100q0 8 8 20l320 383q17 23 84 23q44 0 78 -14.5t34 -34.5t-35 -47l-424 -349q-10 -10 -26 -10q-13 0 -26 9t-13 20z" />
<glyph unicode="&#xfb;" horiz-adv-x="1206" d="M57 666q39 140 137 230.5t201 90.5q69 0 100 -33t31 -110q0 -112 -98 -371q-92 -241 -92 -328q0 -61 57 -61q74 0 180 113.5t170 271.5q32 76 88.5 252t65.5 225q6 31 53 31q48 0 98 -11.5t50 -29.5q0 -24 -25 -115q-8 -27 -31 -103.5t-38 -128t-33 -114t-27.5 -101 t-9.5 -50.5q-44 -181 -37 -207q9 -28 37 -19q45 18 88.5 77t67.5 130q3 17 18 17q12 0 27 -9t12 -20q-12 -56 -39.5 -111.5t-68 -104.5t-99 -79.5t-123.5 -30.5q-119 0 -119 144q0 36 10.5 95.5t22.5 98.5q-78 -154 -195 -246t-235 -92q-176 0 -176 174q0 68 25 154t88 248 q86 216 86 284q0 35 -31 35q-37 0 -90 -59t-90 -158q-3 -12 -19 -12q-14 0 -27 9t-10 24zM461 1102q0 12 12 24l301 379q21 21 60 21q17 0 30.5 -7.5t14.5 -17.5l90 -379q1 -19 -11.5 -35t-27.5 -16q-14 0 -21 14l-129 215l-256 -219q-8 -8 -26 -8q-13 0 -25 8t-12 21z" />
<glyph unicode="&#xfc;" horiz-adv-x="1206" d="M57 666q39 140 137 230.5t201 90.5q69 0 100 -33t31 -110q0 -112 -98 -371q-92 -241 -92 -328q0 -61 57 -61q74 0 180 113.5t170 271.5q32 76 88.5 252t65.5 225q6 31 53 31q48 0 98 -11.5t50 -29.5q0 -24 -25 -115q-8 -27 -31 -103.5t-38 -128t-33 -114t-27.5 -101 t-9.5 -50.5q-44 -181 -37 -207q9 -28 37 -19q45 18 88.5 77t67.5 130q3 17 18 17q12 0 27 -9t12 -20q-12 -56 -39.5 -111.5t-68 -104.5t-99 -79.5t-123.5 -30.5q-119 0 -119 144q0 36 10.5 95.5t22.5 98.5q-78 -154 -195 -246t-235 -92q-176 0 -176 174q0 68 25 154t88 248 q86 216 86 284q0 35 -31 35q-37 0 -90 -59t-90 -158q-3 -12 -19 -12q-14 0 -27 9t-10 24zM426 1270q6 51 46 88t89 37q48 0 79 -36.5t24 -90.5q-6 -51 -45.5 -88t-90.5 -37q-48 0 -78.5 36.5t-23.5 90.5zM807 1270q6 51 46 88t89 37t80.5 -36.5t24.5 -90.5q-6 -51 -46.5 -88 t-89.5 -37t-80 36.5t-24 90.5z" />
<glyph unicode="&#xfd;" horiz-adv-x="935" d="M-330 -487q0 50 30.5 78t82.5 28q14 0 45 -0.5t45.5 -0.5t43 2t46 6t45.5 12.5t49 21.5t50 32.5t55.5 45t58 60t64.5 77.5q26 156 26 340q0 249 -34 440t-91 191q-38 0 -66.5 -56t-43.5 -155q0 -14 -21 -14q-13 0 -26 8t-13 20q0 55 18 113.5t49.5 109t82.5 83t110 32.5 q122 0 177 -154.5t55 -455.5q0 -132 -19 -268q267 382 267 591q0 53 -30 105t-30 86q0 43 27 69.5t68 26.5q127 0 127 -164q0 -100 -59.5 -247t-155.5 -301t-220 -309.5t-248.5 -276.5t-246.5 -197t-209 -76q-50 0 -79.5 28.5t-29.5 68.5zM438 1100q0 8 8 20l320 383 q17 23 84 23q44 0 78.5 -14.5t34.5 -34.5t-35 -47l-424 -349q-10 -10 -27 -10q-13 0 -26 9t-13 20z" />
<glyph unicode="&#xfe;" horiz-adv-x="1146" d="M-186 -520q0 41 20 41q56 0 87.5 24t53.5 84q2 5 18 51.5t39.5 116.5t45.5 140q82 255 235.5 737.5t223.5 699.5q-21 35 -140 35q-11 0 -14.5 8t-3.5 33q0 23 3.5 32t14.5 9q191 0 363 33q41 0 41 -35l-17 -51l-245 -656q67 92 152 144.5t173 52.5q117 0 179.5 -67 t62.5 -187q0 -95 -33 -201.5t-94 -205.5t-138.5 -179.5t-174 -129t-193.5 -48.5q-113 0 -154 72q-126 -372 -126 -445q0 -37 28.5 -52t102.5 -15q16 0 16 -37q0 -39 -21 -39q-23 0 -100 4t-141 4q-56 0 -141 -4t-107 -4q-16 0 -16 35zM369 145q0 -47 18 -71.5t68 -24.5 q67 0 145.5 77t139.5 187t102 234t41 215q0 55 -19 82.5t-65 27.5q-86 0 -167 -85t-151 -252q-35 -87 -73.5 -208.5t-38.5 -181.5z" />
<glyph unicode="&#xff;" horiz-adv-x="935" d="M-330 -487q0 50 30.5 78t82.5 28q14 0 45 -0.5t45.5 -0.5t43 2t46 6t45.5 12.5t49 21.5t50 32.5t55.5 45t58 60t64.5 77.5q26 156 26 340q0 249 -34 440t-91 191q-38 0 -66.5 -56t-43.5 -155q0 -14 -21 -14q-13 0 -26 8t-13 20q0 55 18 113.5t49.5 109t82.5 83t110 32.5 q122 0 177 -154.5t55 -455.5q0 -132 -19 -268q267 382 267 591q0 53 -30 105t-30 86q0 43 27 69.5t68 26.5q127 0 127 -164q0 -100 -59.5 -247t-155.5 -301t-220 -309.5t-248.5 -276.5t-246.5 -197t-209 -76q-50 0 -79.5 28.5t-29.5 68.5zM244 1270q6 51 46 88t89 37 q48 0 78.5 -36.5t23.5 -90.5q-6 -51 -45 -88t-90 -37q-48 0 -78.5 36.5t-23.5 90.5zM625 1270q6 51 46 88t89 37t80 -36.5t24 -90.5q-6 -51 -46 -88t-89 -37t-80 36.5t-24 90.5z" />
<glyph unicode="&#x152;" horiz-adv-x="2181" d="M154 535q0 132 42 270t121 261t182.5 220t235.5 154t271 57q128 0 235 -49q169 0 501 5t421 5q25 0 33 -8.5t8 -28.5q0 -4 -6.5 -106t-6.5 -213q0 -25 -47 -25q-9 0 -18.5 4.5t-9.5 12.5q0 67 -11.5 110.5t-39.5 77t-81 50.5t-129.5 25.5t-191.5 8.5q-204 0 -303 -6 q135 -147 135 -434q0 -60 -8 -109h35q76 0 133 15.5t93.5 45.5t58 64.5t36.5 81.5q10 23 31 23q53 0 53 -27q0 -8 -3 -20.5t-7 -23t-11.5 -30t-11.5 -31.5q-21 -57 -38.5 -116.5t-28.5 -109t-18.5 -86.5t-12.5 -70.5t-6 -38.5q-4 -19 -35 -19q-17 0 -32 5.5t-15 15.5 q0 11 2 47t2 55q0 73 -38.5 106t-141.5 33l-59 -4q-41 -183 -149 -349.5t-263 -274.5q142 -23 375 -23q186 0 304 31.5t184 94t104 169.5q6 16 26 16q21 0 38 -9.5t17 -22.5q-64 -191 -92 -326q-6 -29 -17 -37t-44 -8q-17 0 -332 5t-518 5q-49 0 -124.5 -1t-102.5 -1 l-70 -10q-83 -25 -172 -25q-226 0 -354.5 144.5t-128.5 423.5zM420 350q0 -56 16 -96q13 -99 64 -147t131 -48q63 0 133 39t136 108t126 168t105 213t71.5 250t26.5 273q0 295 -213 295q-104 0 -213 -93.5t-192.5 -240.5t-137 -340t-53.5 -381z" />
<glyph unicode="&#x153;" horiz-adv-x="1464" d="M49 309q0 74 20 153.5t56.5 154.5t90 142.5t117 118t142 80t160.5 29.5q94 0 166.5 -42t111.5 -124q85 76 186 121t199 45q93 0 144 -44t51 -124q0 -125 -150.5 -229.5t-449.5 -181.5q-33 -109 -33 -185q0 -77 30.5 -113t92.5 -36q84 0 162.5 63t116.5 162q7 16 26 16 q15 0 28.5 -8.5t8.5 -25.5q-18 -59 -52 -112t-85 -100.5t-126 -75.5t-163 -28q-68 0 -126.5 29.5t-92.5 85.5q-139 -115 -301 -115q-146 0 -238 87t-92 257zM256 190q0 -76 25 -111.5t86 -35.5q65 0 135.5 73t124 179.5t88.5 229.5t35 220q0 83 -24 121.5t-85 38.5 q-89 0 -181 -124t-148 -291t-56 -300zM918 483q191 59 303 157t112 189q0 64 -55 64q-84 0 -187 -114t-173 -296z" />
<glyph unicode="&#x178;" horiz-adv-x="1196" d="M106 37q0 39 17 39q105 0 147.5 31t75.5 126q92 274 127 451.5t35 339.5q0 330 -113 330t-172 -226q-3 -14 -20 -14t-32.5 7t-16.5 18q21 161 112.5 259.5t227.5 98.5q69 0 118 -31t76 -89.5t39 -131t12 -168.5q0 -186 -37 -321q289 741 658 741q78 0 119 -41.5 t41 -101.5q0 -65 -37.5 -106.5t-93.5 -41.5q-54 0 -85.5 32t-31.5 79q0 34 8 53q-65 0 -163.5 -94.5t-203 -267t-172.5 -371.5q-14 -35 -40.5 -115.5t-57 -174.5t-39.5 -120q-26 -82 16 -116.5t162 -34.5q17 0 17 -35q0 -45 -19 -45q-25 0 -134.5 4t-192.5 4q-84 0 -199 -4 t-131 -4q-17 0 -17 41zM555 1722q6 52 45 87.5t90 35.5t82.5 -35t24.5 -88q-6 -48 -45 -84t-88 -36q-50 0 -82.5 35t-26.5 85zM979 1722q6 52 45 87.5t90 35.5t82.5 -35t24.5 -88q-6 -48 -45.5 -84t-90.5 -36q-50 0 -81.5 35t-24.5 85z" />
<glyph unicode="&#x2c6;" horiz-adv-x="798" d="M324 1102q0 12 12 24l301 379q21 21 59 21q17 0 30.5 -7.5t14.5 -17.5l90 -379q1 -19 -11 -35t-27 -16q-14 0 -21 14l-129 215l-256 -219q-8 -8 -27 -8q-13 0 -24.5 8t-11.5 21z" />
<glyph unicode="&#x2dc;" horiz-adv-x="933" d="M305 1176q0 13 8 39t26.5 60.5t44.5 65t67.5 51.5t89.5 21q37 0 67.5 -13.5t50 -32.5t36.5 -37.5t35.5 -32t39.5 -13.5q102 0 113 102q1 10 10 17.5t20 7.5q27 0 27 -37q0 -30 -13.5 -70.5t-38.5 -82t-68 -70.5t-95 -29q-35 0 -65.5 15.5t-53 38t-43 45t-44 38 t-46.5 15.5q-76 0 -90 -107q-2 -15 -13 -26t-26 -11q-39 0 -39 46z" />
<glyph unicode="&#x2000;" horiz-adv-x="971" />
<glyph unicode="&#x2001;" horiz-adv-x="1942" />
<glyph unicode="&#x2002;" horiz-adv-x="971" />
<glyph unicode="&#x2003;" horiz-adv-x="1942" />
<glyph unicode="&#x2004;" horiz-adv-x="647" />
<glyph unicode="&#x2005;" horiz-adv-x="485" />
<glyph unicode="&#x2006;" horiz-adv-x="323" />
<glyph unicode="&#x2007;" horiz-adv-x="323" />
<glyph unicode="&#x2008;" horiz-adv-x="242" />
<glyph unicode="&#x2009;" horiz-adv-x="388" />
<glyph unicode="&#x200a;" horiz-adv-x="107" />
<glyph unicode="&#x2010;" horiz-adv-x="634" d="M104 481q0 47 15 106.5t31 59.5l409 12q12 0 12 -32q0 -42 -18 -103.5t-31 -62.5l-409 -12q-9 0 -9 32z" />
<glyph unicode="&#x2011;" horiz-adv-x="634" d="M104 481q0 47 15 106.5t31 59.5l409 12q12 0 12 -32q0 -42 -18 -103.5t-31 -62.5l-409 -12q-9 0 -9 32z" />
<glyph unicode="&#x2012;" horiz-adv-x="634" d="M104 481q0 47 15 106.5t31 59.5l409 12q12 0 12 -32q0 -42 -18 -103.5t-31 -62.5l-409 -12q-9 0 -9 32z" />
<glyph unicode="&#x2013;" horiz-adv-x="1282" d="M115 498q0 32 9.5 68.5t20.5 59.5t17 23q692 4 1040 4q6 0 6 -22q0 -32 -9 -69.5t-20 -60t-16 -22.5q-692 -4 -1040 -4q-8 0 -8 23z" />
<glyph unicode="&#x2014;" horiz-adv-x="1845" d="M115 498q0 35 17.5 93t29.5 58q1074 4 1607 4q5 0 5 -16q0 -35 -15 -96.5t-28 -61.5q-1074 -4 -1608 -4q-8 0 -8 23z" />
<glyph unicode="&#x2018;" horiz-adv-x="518" d="M231 1059q0 164 100.5 287t237.5 161q23 1 35 -11t12 -32q0 -33 -24 -39q-109 -38 -165 -115.5t-56 -150.5q0 -20 10 -28.5t35 -8.5q100 0 100 -116q0 -53 -34 -97.5t-97 -44.5q-73 0 -113.5 52t-40.5 143z" />
<glyph unicode="&#x2019;" horiz-adv-x="583" d="M219 899q4 29 27 39q112 38 176.5 115t73.5 149q3 21 -5.5 30t-33.5 9q-99 0 -86 117q7 52 46.5 96.5t102.5 44.5q73 0 106.5 -52t22.5 -144q-22 -163 -136.5 -286.5t-252.5 -162.5q-24 -1 -34 11.5t-7 33.5z" />
<glyph unicode="&#x201a;" horiz-adv-x="507" d="M-61 -309q0 31 22 37q74 27 126.5 76t73.5 97.5t21 92.5q0 21 -9.5 30t-35.5 9q-98 0 -98 117q0 52 33.5 95.5t97.5 43.5q73 0 112.5 -51.5t39.5 -143.5q0 -163 -99.5 -286t-236.5 -162q-47 -3 -47 45z" />
<glyph unicode="&#x201c;" horiz-adv-x="882" d="M225 1073q0 165 100 288t236 161q23 1 35 -11t12 -32q0 -33 -24 -39q-73 -26 -125 -74.5t-73 -97.5t-21 -94q0 -20 9 -28.5t36 -8.5q40 0 69 -26t29 -91q0 -53 -34 -97t-97 -44q-73 0 -112.5 51t-39.5 143zM623 1073q0 164 100 287.5t235 161.5q24 1 36 -11t12 -32 q0 -13 -6.5 -24.5t-16.5 -14.5q-109 -38 -165 -115.5t-56 -150.5q0 -20 10 -28.5t35 -8.5q40 0 69 -26t29 -91q0 -54 -33 -97.5t-98 -43.5q-73 0 -112 51t-39 143z" />
<glyph unicode="&#x201d;" horiz-adv-x="870" d="M201 899q0 11 6 23t16 16q109 38 165 114.5t56 149.5q0 21 -9.5 30t-35.5 9q-98 0 -98 117q0 52 33.5 96.5t97.5 44.5q73 0 112.5 -52t39.5 -144q0 -163 -100 -286t-236 -163q-47 -3 -47 45zM600 899q0 11 7 23t18 16q73 26 125 74t73 96.5t21 93.5q0 21 -9 30t-36 9 q-99 0 -99 117q0 52 34 96.5t97 44.5q73 0 112.5 -52t39.5 -144q0 -163 -100 -286.5t-236 -162.5q-47 -3 -47 45z" />
<glyph unicode="&#x201e;" horiz-adv-x="872" d="M-72 -309q0 30 23 37q74 27 126.5 76t73.5 97.5t21 92.5q0 21 -9.5 30t-35.5 9q-98 0 -98 117q0 52 33.5 95.5t97.5 43.5q73 0 112 -51.5t39 -143.5q0 -163 -99.5 -286t-236.5 -162q-47 -3 -47 45zM324 -309q0 31 24 37q107 39 163 117t56 149q0 21 -9 30t-36 9 q-98 0 -98 117q0 52 34 95.5t97 43.5q73 0 113.5 -52t40.5 -143q0 -163 -100.5 -286t-237.5 -162q-47 -3 -47 45z" />
<glyph unicode="&#x2022;" horiz-adv-x="942" d="M143 510q0 142 103 244t246 102q141 0 243.5 -102t102.5 -244q0 -144 -102 -245t-244 -101q-143 0 -246 101t-103 245z" />
<glyph unicode="&#x2026;" horiz-adv-x="2002" d="M160 129q0 63 45 108.5t108 45.5t108.5 -45.5t45.5 -108.5t-45.5 -107.5t-108.5 -44.5t-108 44.5t-45 107.5zM821 129q0 63 45 108.5t109 45.5q62 0 107.5 -45.5t45.5 -108.5t-45.5 -107.5t-107.5 -44.5q-64 0 -109 44.5t-45 107.5zM1481 129q0 63 45 108.5t108 45.5 t108.5 -45.5t45.5 -108.5t-45.5 -107.5t-108.5 -44.5t-108 44.5t-45 107.5z" />
<glyph unicode="&#x202f;" horiz-adv-x="388" />
<glyph unicode="&#x2039;" horiz-adv-x="612" d="M131 473q10 37 23 45l485 377q10 3 16.5 -14t3.5 -33q-4 -13 -8 -14l-299 -345l148 -374q3 -7 0 -17q-3 -15 -18 -32t-23 -13l-326 375q-10 13 -2 45z" />
<glyph unicode="&#x203a;" horiz-adv-x="612" d="M10 98q5 15 8 17l299 342l-147 374q-3 7 0 17q3 14 16.5 30.5t22.5 16.5h2l326 -377q10 -12 2 -43q-3 -27 -23 -47l-485 -375h-4q-9 0 -14.5 16.5t-2.5 28.5z" />
<glyph unicode="&#x205f;" horiz-adv-x="485" />
<glyph unicode="&#x20ac;" horiz-adv-x="1189" d="M47 541q0 20 10.5 43.5t21 37t13.5 13.5q17 0 55 -1t58 -1q5 92 53 235q-20 0 -65 -2t-62 -2q-12 0 -12 10q0 23 10.5 46t21 35t13.5 12h131q105 243 292 386.5t394 143.5q94 0 160 -17.5t98.5 -48.5t45.5 -62.5t13 -68.5q0 -69 -38 -114t-97 -45q-42 0 -67 29.5 t-25 68.5q0 7 2 24t2 25q0 50 -24.5 78.5t-85.5 28.5q-150 0 -255 -107t-182 -325q183 6 408 10q6 0 6 -8q0 -28 -19 -64.5t-28 -36.5q-56 0 -198 1t-201 1l-25 -96q-17 -67 -27 -141q260 10 330 10q6 0 6 -10q0 -27 -19.5 -62t-29.5 -35q-150 0 -297 3q-4 -58 -4 -82 q0 -179 68 -271t196 -92q191 0 316 158q16 16 28 16q14 0 28.5 -13t14.5 -26q0 -2 -1 -4.5t-1 -3.5q-180 -250 -475 -250q-105 0 -185.5 39t-129 110t-72.5 162.5t-24 202.5q0 38 2 56q-97 -5 -136 -5q-12 0 -12 9z" />
<glyph unicode="&#x2122;" horiz-adv-x="1701" d="M236 1255q0 11 3 91t3 92q0 18 20 18q3 0 55.5 -2t116.5 -4t96 -2q33 0 98 2t118.5 4t56.5 2q14 0 14 -18v-11q8 -156 8 -172q0 -2 -8.5 -6t-13.5 -4q-10 0 -12 8l-7 23q-16 59 -42 84.5t-80 25.5q-39 0 -62 -2q0 -24 -1 -215t-1 -213q0 -41 17 -55t63 -16q2 -2 2 -17 q0 -13 -8 -24q-34 0 -79 2t-63 2l-145 -4q-6 12 -6 22q0 19 8 19q39 5 56.5 21t17.5 55q0 48 2 221.5t2 201.5q-25 2 -66 2q-59 0 -86.5 -28t-42.5 -105q0 -8 -16 -8q-5 0 -11.5 4t-6.5 6zM918 1427q0 13 6 25q82 -4 98 -4q12 0 55 1t68 1q5 0 15 -1t14 -1l8 -6 q25 -66 84.5 -203.5t70.5 -171.5q40 106 102 245.5t81 139.5h43q102 0 174 4q6 -3 6 -20q0 -19 -4 -27q-47 -5 -65.5 -21t-18.5 -59q0 -9 -2 -177t-2 -196q0 -17 1.5 -26.5t8.5 -20t22 -16t41 -8.5l7 -8v-13l-7 -20q-63 4 -155 4q-80 0 -129 -4q-6 6 -6 22q0 18 8 21 q43 3 60.5 19t17.5 59q0 88 4 215t4 141t-2 18l-13 -24q-39 -77 -110 -245.5t-76 -190.5q-6 -15 -22 -15q-14 0 -19 13q-9 23 -84 191.5t-112 248.5q-11 -302 -11 -369q0 -30 13 -44.5t57 -20.5q6 0 6 -17q0 -16 -6 -22l-127 4q-53 0 -96 -4q-6 12 -6 22q0 16 8 19 q42 5 61 21.5t19 58.5q0 67 5.5 204.5t8.5 176.5q0 9 -2.5 17t-11 19t-29 18t-51.5 7q-10 0 -10 20z" />
<glyph unicode="&#x25fc;" horiz-adv-x="983" d="M0 0v983h983v-983h-983z" />
</font>
</defs>
</svg>
